<svg width="60" height="60" viewBox="0 0 60 60" fill="none" xmlns="http://www.w3.org/2000/svg">
<path d="M44.834 12.2438C42.3529 11.0206 40.5321 12.3619 41.3243 14.8152C41.6023 15.67 42.1514 16.497 42.8394 17.1712C43.5135 17.8592 44.3405 18.4082 45.1954 18.6862C47.6417 19.4854 48.99 17.6646 47.7668 15.1766C47.461 14.558 47.0301 13.9812 46.5297 13.4808C46.0294 12.9735 45.4456 12.5426 44.834 12.2438Z" fill="#7FECFF"/>
<path d="M20.8526 18.6238C21.8881 22.5435 23.9591 23.3358 27.4757 21.7651C27.5452 21.7304 27.6147 21.7095 27.6842 21.6817L27.6773 21.6748C29.0325 21.0632 30.3877 20.5698 31.8819 20.2779C32.3545 20.2014 32.8618 20.3474 33.1607 20.7782C33.1676 20.7921 33.1815 20.806 33.1885 20.8199C33.946 21.9319 34.8564 23.0369 35.9197 24.0933C42.5221 30.7443 50.834 31.3559 53.6279 26.7412C55.0248 24.1767 52.0363 22.3003 50.7367 23.5582C48.0402 25.942 42.9946 24.2393 39.3668 20.6462C38.4425 19.7149 37.6363 18.6794 36.997 17.6091C35.1553 14.3914 32.4587 15.135 30.7074 15.5242C29.2479 15.83 27.9136 16.2748 26.6348 16.803C26.6278 16.803 26.6278 16.803 26.6209 16.8099C26.0024 17.0809 25.6896 16.7474 25.5506 16.1705C23.3545 6.23925 31.0757 0.936548 41.2363 5.49562C27.1282 -1.30129 17.8016 6.68404 20.8526 18.6238Z" fill="#7FECFF"/>
<path d="M30.395 25.6849C28.1433 23.5096 24.2653 26.1991 26.6769 29.5212C29.6583 32.6764 33.4807 29.1459 30.8746 26.2547C30.8676 26.2478 30.8676 26.2408 30.8607 26.2339C30.7008 26.0532 30.5479 25.8725 30.395 25.6849Z" fill="#7FECFF"/>
<path d="M30.5335 10.2772C29.9219 13.4672 34.7868 13.356 35.5791 10.8819C35.593 10.8402 35.6069 10.7985 35.6208 10.7568C35.6208 10.7498 35.6277 10.7429 35.6277 10.7429C35.7945 10.2355 36.0516 9.76295 36.3991 9.34596C38.8038 6.42009 44.3289 7.85175 48.2416 11.7645C50.4517 13.9815 51.8764 16.7128 52.1613 19.1035C52.1752 19.1243 52.21 19.722 52.21 19.7498C52.5574 21.5915 54.6493 22.7174 54.4756 21.2232C53.9127 17.3869 51.6679 13.8008 48.9227 11.0834C46.1567 8.30349 42.6609 6.17684 39.0262 5.57221C34.2516 4.77298 31.3605 6.90657 30.5335 10.2772Z" fill="#7FECFF"/>
<path d="M43.2798 34.3164C41.1323 33.7673 39.0126 32.8083 37.018 31.5504H37.0111C36.9763 31.5226 36.9416 31.5017 36.9068 31.4809C36.8443 31.4392 36.7817 31.4044 36.7192 31.3627C33.9393 29.7782 30.3671 33.4963 33.564 35.609C33.7238 35.7133 33.8906 35.8175 34.0505 35.9218C49.6528 45.6446 62.6142 35.616 54.5037 18.7627C59.1532 29.1249 53.5586 36.9504 43.2798 34.3164Z" fill="#7FECFF"/>
<path d="M10.0381 29.0834C9.19023 27.2348 6.5076 28.2981 6.85509 30.3622C6.90374 30.5151 6.95239 30.6749 7.00104 30.8278C7.90451 32.9823 10.9624 31.8495 10.1771 29.4518C10.1771 29.4448 10.1702 29.4379 10.1702 29.4309C10.1215 29.3197 10.0798 29.2016 10.0381 29.0834Z" fill="#7FECFF"/>
<path d="M7.68158 39.1603C8.48775 39.0561 9.26613 38.8824 9.98891 38.7017C10.4198 38.5974 10.8646 38.8198 11.1217 39.1951H11.1287C12.4074 41.0854 13.8739 42.8715 15.4862 44.5187C16.5565 45.5681 17.6823 46.5549 18.8638 47.4654C21.3032 49.3418 23.7843 46.3882 21.1851 44.5256C21.1851 44.5256 21.1851 44.5256 21.1851 44.5187C20.1356 43.6916 19.114 42.809 18.141 41.8638C16.5704 40.2584 15.1735 38.5279 13.9503 36.7279C13.9434 36.721 13.9434 36.714 13.9364 36.7071C13.853 36.582 13.7696 36.4569 13.6862 36.3248C12.463 34.6499 10.8159 34.7681 8.82134 35.2824C8.31401 35.4353 7.77887 35.5812 7.22984 35.6924C6.7364 35.7758 6.04142 35.6298 5.68003 34.8306C3.54644 29.1318 3.2754 23.2244 5.46459 18.3179C4.27617 20.9032 3.45609 23.4468 3.14335 26.0947C2.95571 27.6723 2.94876 29.2847 3.14335 30.9665C3.2059 31.8283 3.29625 32.6484 3.38659 33.3851C3.57424 34.8167 3.87308 36.0885 4.19972 37.1936C4.9225 39.3758 6.8615 39.2437 7.68158 39.1603Z" fill="#7FECFF"/>
<path d="M13.3174 46.6871C12.1568 45.4986 11.0865 44.2407 10.1205 42.9272H10.1136C8.7653 40.9048 6.30507 42.3643 7.2433 43.9627C7.34059 44.1226 7.44484 44.2963 7.56299 44.484C8.61241 46.0894 9.82167 47.5488 11.1421 48.8623C12.4557 50.1828 13.9221 51.3921 15.5205 52.4415C17.6055 53.7064 17.6472 53.7272 18.8008 54.2763C19.8641 54.7349 22.658 56.0763 26.6124 56.6044C27.3491 56.6948 28.1692 56.7851 29.0309 56.8477C30.7128 57.0423 32.3251 57.0353 33.9028 56.8477C36.5506 56.5349 39.1012 55.7218 41.6796 54.5334C33.1244 58.3558 21.5043 54.7071 13.3174 46.6871Z" fill="#7FECFF"/>
<path d="M8.66294 23.6138C7.82202 17.6508 9.26063 12.0702 13.5834 8.41455C9.83051 11.3335 7.34943 14.0091 6.26526 18.7837C5.82742 20.7227 5.68843 22.7034 5.81352 24.698C6.09846 27.0053 9.01738 25.5528 8.66294 23.6138Z" fill="#7FECFF"/>
<path d="M30.5042 49.8144C31.1436 48.6747 31.7274 47.4793 32.2347 46.2075C32.8463 44.6924 34.2501 42.0307 30.8239 39.9874C28.6903 38.66 26.654 37.0477 24.7984 35.2129C22.8733 33.26 21.1915 31.1056 19.8223 28.8608C18.064 25.9697 16.8965 23.0507 16.2988 20.2708C15.6316 17.4492 11.8162 18.8044 12.1011 21.6747C13.1019 27.6376 16.5003 33.7812 21.3166 38.7017C23.1722 40.5156 25.2015 42.128 27.3281 43.4901C27.9328 43.8793 27.9467 44.0114 27.7729 44.484C27.3073 45.6237 26.7305 46.694 26.0702 47.7712C25.3544 48.904 24.5482 51.0793 27.3142 52.3511C31.8664 54.1511 36.6687 54.7836 41.2208 53.748C46.0023 52.6639 48.671 50.1828 51.5899 46.4299C46.7389 52.1565 38.5243 52.8168 30.5042 49.8144Z" fill="#7FECFF"/>
<path d="M47.9769 43.7334C47.97 43.7334 47.97 43.7334 47.9769 43.7334C47.963 43.7334 47.9561 43.7404 47.9422 43.7404C47.8379 43.7682 47.7337 43.789 47.6294 43.8168C45.0719 44.5466 44.7661 48.0215 47.6781 47.2501C53.5646 45.1373 55.9275 40.0987 56.7962 33.8369C55.997 39.1952 52.6124 42.5589 47.9769 43.7334Z" fill="#7FECFF"/>
<path d="M16.0551 13.057C16.9655 7.89327 20.4196 4.06392 26.174 3.20215C19.6898 4.10562 14.5122 6.60755 12.5454 12.9736C11.906 15.4199 15.6798 15.1697 16.0551 13.057Z" fill="#7FECFF"/>
<path d="M40.2061 43.803C40.1991 43.803 40.1852 43.803 40.1783 43.796C37.1898 43.4068 35.4593 47.3474 38.5937 47.945C38.6146 47.945 38.6354 47.952 38.6563 47.952C41.7906 48.2508 43.4794 44.5883 40.6717 43.8864C40.5188 43.8655 40.3659 43.8377 40.2061 43.803Z" fill="#7FECFF"/>
</svg>
