<svg width="112" height="45" viewBox="0 0 112 45" fill="none" xmlns="http://www.w3.org/2000/svg">
<g clip-path="url(#clip0_349_36528)">
<path d="M34.5883 7.64268C32.5368 6.63134 31.0313 7.74037 31.6864 9.76881C31.9162 10.4756 32.3702 11.1594 32.9391 11.7168C33.4965 12.2857 34.1803 12.7396 34.8871 12.9695C36.9097 13.6303 38.0245 12.1248 37.0132 10.0676C36.7603 9.5562 36.4041 9.07925 35.9903 8.66552C35.5766 8.24604 35.0939 7.88977 34.5883 7.64268Z" fill="#7FECFF"/>
<path d="M14.7562 12.9177C15.6124 16.1586 17.3248 16.8137 20.2324 15.515C20.2899 15.4863 20.3473 15.469 20.4048 15.4461L20.399 15.4403C21.5196 14.9346 22.6401 14.5267 23.8755 14.2853C24.2663 14.2221 24.6858 14.3428 24.9328 14.699C24.9386 14.7105 24.9501 14.722 24.9558 14.7335C25.5822 15.6529 26.3349 16.5666 27.2141 17.44C32.6731 22.9392 39.5457 23.4449 41.8557 19.6294C43.0107 17.509 40.5398 15.9575 39.4652 16.9976C37.2356 18.9685 33.0638 17.5607 30.0643 14.5899C29.3 13.8199 28.6335 12.9637 28.1048 12.0787C26.582 9.41821 24.3525 10.0331 22.9044 10.3548C21.6977 10.6077 20.5944 10.9754 19.5371 11.4122C19.5313 11.4122 19.5313 11.4122 19.5256 11.4179C19.0142 11.642 18.7556 11.3662 18.6407 10.8893C16.8248 2.67781 23.209 -1.70661 31.61 2.06296C19.9451 -3.55691 12.2336 3.04557 14.7562 12.9177Z" fill="#7FECFF"/>
<path d="M22.6464 18.7559C20.7846 16.9573 17.5782 19.1811 19.5721 21.9278C22.0373 24.5366 25.1977 21.6175 23.0429 19.2271C23.0371 19.2213 23.0371 19.2156 23.0314 19.2098C22.8992 19.0604 22.7728 18.911 22.6464 18.7559Z" fill="#7FECFF"/>
<path d="M22.7626 6.01638C22.2569 8.65392 26.2793 8.56198 26.9344 6.5163C26.9459 6.48183 26.9574 6.44735 26.9689 6.41287C26.9689 6.40712 26.9746 6.40138 26.9746 6.40138C27.1125 5.9819 27.3251 5.59115 27.6125 5.24638C29.6007 2.82719 34.169 4.01092 37.4041 7.24608C39.2315 9.07915 40.4094 11.3374 40.645 13.3142C40.6565 13.3314 40.6853 13.8256 40.6853 13.8486C40.9726 15.3713 42.7022 16.3022 42.5586 15.0668C42.0931 11.8948 40.2371 8.92974 37.9673 6.68295C35.6802 4.38443 32.7899 2.62607 29.7846 2.12614C25.8369 1.46532 23.4464 3.22943 22.7626 6.01638Z" fill="#7FECFF"/>
<path d="M33.3011 25.8929C31.5255 25.439 29.7729 24.646 28.1237 23.6059H28.1179C28.0892 23.5829 28.0605 23.5657 28.0317 23.5484C27.98 23.514 27.9283 23.4852 27.8766 23.4507C25.5781 22.1406 22.6245 25.2149 25.2678 26.9617C25.3999 27.0479 25.5379 27.1341 25.67 27.2203C38.5704 35.2594 49.2873 26.9675 42.5813 13.0327C46.4256 21.6004 41.7998 28.0708 33.3011 25.8929Z" fill="#7FECFF"/>
<path d="M5.81358 21.5658C5.11253 20.0372 2.89446 20.9164 3.18178 22.6231C3.222 22.7495 3.26223 22.8817 3.30245 23.0081C4.04947 24.7894 6.57784 23.8528 5.9285 21.8703C5.9285 21.8646 5.92276 21.8588 5.92276 21.8531C5.88253 21.7611 5.84806 21.6634 5.81358 21.5658Z" fill="#7FECFF"/>
<path d="M3.86695 29.8982C4.53352 29.812 5.1771 29.6683 5.77471 29.5189C6.13098 29.4327 6.49875 29.6166 6.71136 29.9269H6.7171C7.77442 31.4899 8.98689 32.9667 10.32 34.3285C11.205 35.1962 12.1359 36.0122 13.1127 36.765C15.1297 38.3165 17.1811 35.8743 15.032 34.3343C15.032 34.3343 15.032 34.3343 15.032 34.3285C14.1643 33.6447 13.3196 32.915 12.5151 32.1335C11.2164 30.8061 10.0614 29.3752 9.0501 27.887C9.04435 27.8812 9.04435 27.8755 9.0386 27.8697C8.96965 27.7663 8.90069 27.6629 8.83174 27.5537C7.82039 26.1688 6.45852 26.2665 4.80934 26.6917C4.38986 26.8181 3.94739 26.9388 3.49344 27.0308C3.08545 27.0997 2.51082 26.979 2.21202 26.3182C0.447905 21.6063 0.2238 16.7219 2.03388 12.665C1.05127 14.8027 0.373204 16.9058 0.114621 19.0951C-0.040529 20.3995 -0.0462753 21.7327 0.114621 23.1233C0.166337 23.8358 0.241039 24.5139 0.315741 25.123C0.47089 26.3067 0.717981 27.3583 0.988056 28.272C1.58567 30.0763 3.18888 29.9671 3.86695 29.8982Z" fill="#7FECFF"/>
<path d="M8.52638 36.1213C7.56675 35.1387 6.68182 34.0986 5.88309 33.0126H5.87734C4.76256 31.3404 2.72838 32.5471 3.50413 33.8688C3.58457 34.001 3.67077 34.1446 3.76846 34.2998C4.63615 35.6272 5.636 36.8339 6.72779 37.9199C7.81384 39.0117 9.02631 40.0116 10.348 40.8793C12.0718 41.9251 12.1063 41.9423 13.0602 42.3963C13.9394 42.7755 16.2494 43.8846 19.519 44.3213C20.1281 44.396 20.8062 44.4707 21.5187 44.5224C22.9093 44.6833 24.2425 44.6776 25.5469 44.5224C27.7362 44.2638 29.8451 43.5915 31.977 42.6089C24.9033 45.7694 15.2955 42.7525 8.52638 36.1213Z" fill="#7FECFF"/>
<path d="M4.67751 17.0437C3.98221 12.1134 5.17169 7.49911 8.74588 4.47656C5.64288 6.89 3.59146 9.10233 2.69504 13.05C2.33302 14.6532 2.2181 16.2909 2.32153 17.9401C2.55713 19.8479 4.97057 18.6469 4.67751 17.0437Z" fill="#7FECFF"/>
<path d="M22.7365 38.7071C23.2652 37.7647 23.7479 36.7763 24.1674 35.7248C24.673 34.4721 25.8338 32.2712 23.0009 30.5818C21.2367 29.4843 19.5531 28.1512 18.0188 26.6341C16.4271 25.0194 15.0365 23.2381 13.9045 21.382C12.4507 18.9916 11.4853 16.5781 10.9911 14.2796C10.4395 11.9466 7.28476 13.0672 7.52036 15.4404C8.34782 20.3707 11.1578 25.4504 15.1399 29.5188C16.6742 31.0186 18.3521 32.3517 20.1105 33.478C20.6104 33.7998 20.6219 33.9089 20.4782 34.2997C20.0932 35.2421 19.6163 36.127 19.0704 37.0177C18.4785 37.9543 17.812 39.7529 20.099 40.8045C23.8628 42.2928 27.8335 42.8157 31.5973 41.9595C35.5507 41.0631 37.7573 39.0116 40.1708 35.9086C36.1599 40.6436 29.3677 41.1895 22.7365 38.7071Z" fill="#7FECFF"/>
<path d="M37.1828 33.6788C37.177 33.6788 37.177 33.6788 37.1828 33.6788C37.1713 33.6788 37.1655 33.6846 37.154 33.6846C37.0678 33.7075 36.9816 33.7248 36.8954 33.7478C34.7808 34.3511 34.528 37.2243 36.9357 36.5864C41.8028 34.8396 43.7565 30.6735 44.4748 25.4961C43.814 29.9265 41.0155 32.7077 37.1828 33.6788Z" fill="#7FECFF"/>
<path d="M10.7902 8.31474C11.5429 4.04525 14.3988 0.879043 19.1568 0.166504C13.7955 0.913521 9.5145 2.98218 7.8883 8.24578C7.35964 10.2685 10.4799 10.0616 10.7902 8.31474Z" fill="#7FECFF"/>
<path d="M30.7598 33.7365C30.754 33.7365 30.7425 33.7365 30.7368 33.7308C28.2659 33.409 26.8351 36.6671 29.4266 37.1613C29.4439 37.1613 29.4611 37.1671 29.4784 37.1671C32.0699 37.4142 33.4663 34.3859 31.1448 33.8055C31.0184 33.7883 30.8919 33.7653 30.7598 33.7365Z" fill="#7FECFF"/>
</g>
<path d="M70.2792 12.5837L72.059 6.81104H73.3462L70.9205 13.8741H70.0515L70.2792 12.5837ZM68.6341 6.81104L70.4 12.5837L70.6417 13.8741H69.768L67.3516 6.81104H68.6341Z" fill="#A8A8A8"/>
<path d="M75.1028 9.74589V13.8741H73.9829V8.62531H75.0377L75.1028 9.74589ZM74.903 11.0557L74.5405 11.0508C74.5436 10.6789 74.5932 10.3377 74.6892 10.0273C74.7884 9.71679 74.9247 9.44998 75.0982 9.22684C75.2747 9.00369 75.4854 8.83229 75.7302 8.71263C75.9749 8.58974 76.2475 8.52829 76.548 8.52829C76.7897 8.52829 77.0081 8.56387 77.2033 8.63501C77.4015 8.70293 77.5704 8.8145 77.7098 8.96973C77.8523 9.12496 77.9607 9.32709 78.0351 9.57611C78.1094 9.82189 78.1466 10.1243 78.1466 10.4832V13.8741H77.022V10.4784C77.022 10.2261 76.9864 10.0273 76.9151 9.88172C76.847 9.73296 76.7463 9.62785 76.6131 9.56641C76.483 9.50173 76.3203 9.46939 76.1252 9.46939C75.9331 9.46939 75.7611 9.51143 75.6093 9.59551C75.4575 9.6796 75.329 9.7944 75.2236 9.93993C75.1214 10.0855 75.0424 10.2536 74.9866 10.4444C74.9309 10.6352 74.903 10.839 74.903 11.0557Z" fill="#A8A8A8"/>
<path d="M83.8299 12.9087V13.8741H80.2378V12.9087H83.8299ZM80.5677 6.81104V13.8741H79.4013V6.81104H80.5677ZM83.3606 9.76045V10.7112H80.2378V9.76045H83.3606ZM83.8067 6.81104V7.78124H80.2378V6.81104H83.8067Z" fill="#A8A8A8"/>
<path d="M85.5261 8.62531L86.4834 10.3668L87.4593 8.62531H88.6907L87.1665 11.2012L88.7511 13.8741H87.5197L86.4973 12.0598L85.475 13.8741H84.2389L85.8189 11.2012L84.2993 8.62531H85.5261Z" fill="#A8A8A8"/>
<path d="M90.5821 9.63432V15.8921H89.4621V8.62531H90.4938L90.5821 9.63432ZM93.8582 11.2012V11.3031C93.8582 11.6847 93.8148 12.0388 93.7281 12.3654C93.6444 12.6888 93.519 12.9718 93.3517 13.2144C93.1875 13.4537 92.9846 13.6396 92.7429 13.7722C92.5013 13.9048 92.2225 13.9711 91.9065 13.9711C91.5936 13.9711 91.3194 13.9113 91.0839 13.7916C90.8516 13.6687 90.6549 13.4957 90.4938 13.2726C90.3327 13.0494 90.2026 12.7875 90.1034 12.4867C90.0074 12.1827 89.9392 11.8496 89.8989 11.4874V11.0945C89.9392 10.7096 90.0074 10.3604 90.1034 10.0467C90.2026 9.73296 90.3327 9.46292 90.4938 9.23654C90.6549 9.01016 90.8516 8.83552 91.0839 8.71263C91.3163 8.58974 91.5874 8.52829 91.8972 8.52829C92.2132 8.52829 92.4935 8.59297 92.7383 8.72233C92.983 8.84846 93.189 9.02956 93.3563 9.26564C93.5236 9.49849 93.6491 9.77985 93.7327 10.1097C93.8164 10.4364 93.8582 10.8002 93.8582 11.2012ZM92.7383 11.3031V11.2012C92.7383 10.9586 92.7166 10.7339 92.6732 10.5269C92.6298 10.3167 92.5617 10.1324 92.4688 9.97389C92.3758 9.81542 92.2565 9.69253 92.1109 9.60521C91.9684 9.51466 91.7965 9.46939 91.5951 9.46939C91.3968 9.46939 91.2264 9.50496 91.0839 9.57611C90.9414 9.64402 90.8222 9.73943 90.7261 9.86232C90.6301 9.98521 90.5557 10.1291 90.5031 10.2941C90.4504 10.4558 90.4132 10.632 90.3915 10.8228V11.7639C90.4287 11.9968 90.4922 12.2102 90.5821 12.4042C90.6719 12.5983 90.7989 12.7535 90.9631 12.8699C91.1304 12.9831 91.3442 13.0397 91.6044 13.0397C91.8058 13.0397 91.9777 12.9944 92.1202 12.9039C92.2627 12.8133 92.3789 12.6888 92.4688 12.5304C92.5617 12.3687 92.6298 12.1827 92.6732 11.9725C92.7166 11.7623 92.7383 11.5391 92.7383 11.3031Z" fill="#A8A8A8"/>
<path d="M95.9354 9.62462V13.8741H94.8155V8.62531H95.8843L95.9354 9.62462ZM97.4736 8.59135L97.4643 9.67798C97.3962 9.66504 97.3218 9.65534 97.2412 9.64887C97.1638 9.64241 97.0863 9.63917 97.0089 9.63917C96.8168 9.63917 96.648 9.66828 96.5024 9.72649C96.3568 9.78147 96.2344 9.86232 96.1353 9.96904C96.0392 10.0725 95.9649 10.1987 95.9122 10.3474C95.8595 10.4962 95.8286 10.6627 95.8193 10.8471L95.5637 10.8665C95.5637 10.5366 95.5947 10.231 95.6566 9.94964C95.7186 9.66828 95.8115 9.42088 95.9354 9.20743C96.0625 8.99399 96.2205 8.82744 96.4094 8.70778C96.6015 8.58812 96.823 8.52829 97.074 8.52829C97.1421 8.52829 97.2149 8.53476 97.2924 8.5477C97.3729 8.56063 97.4333 8.57518 97.4736 8.59135Z" fill="#A8A8A8"/>
<path d="M100.299 13.9711C99.9272 13.9711 99.5911 13.9081 99.2906 13.7819C98.9932 13.6526 98.7391 13.4731 98.5285 13.2435C98.3209 13.0139 98.1614 12.7438 98.0498 12.4334C97.9383 12.1229 97.8825 11.7882 97.8825 11.4292V11.2352C97.8825 10.8244 97.9399 10.4525 98.0545 10.1194C98.1691 9.78632 98.3287 9.50173 98.5331 9.26564C98.7376 9.02633 98.9792 8.84361 99.2581 8.71748C99.5369 8.59135 99.8389 8.52829 100.164 8.52829C100.524 8.52829 100.838 8.59135 101.108 8.71748C101.377 8.84361 101.6 9.02148 101.777 9.25109C101.956 9.47747 102.09 9.74751 102.176 10.0612C102.266 10.3749 102.311 10.7209 102.311 11.0993V11.599H98.4262V10.7598H101.205V10.6676C101.199 10.4574 101.159 10.2601 101.084 10.0758C101.013 9.89142 100.903 9.74266 100.754 9.62947C100.606 9.51628 100.407 9.45968 100.16 9.45968C99.9737 9.45968 99.808 9.50173 99.6623 9.58581C99.5198 9.66666 99.4006 9.7847 99.3045 9.93993C99.2085 10.0952 99.1341 10.2827 99.0815 10.5027C99.0319 10.7193 99.0071 10.9635 99.0071 11.2352V11.4292C99.0071 11.6588 99.0366 11.8723 99.0954 12.0695C99.1574 12.2636 99.2472 12.4334 99.3649 12.5789C99.4827 12.7244 99.6252 12.8392 99.7925 12.9233C99.9598 13.0042 100.15 13.0446 100.364 13.0446C100.634 13.0446 100.874 12.988 101.084 12.8748C101.295 12.7616 101.478 12.6015 101.633 12.3945L102.223 12.9912C102.114 13.1561 101.973 13.3146 101.8 13.4666C101.626 13.6154 101.414 13.7367 101.163 13.8304C100.916 13.9242 100.627 13.9711 100.299 13.9711Z" fill="#A8A8A8"/>
<path d="M106.006 12.4528C106.006 12.3363 105.978 12.2312 105.922 12.1374C105.866 12.0404 105.759 11.9531 105.601 11.8755C105.446 11.7979 105.217 11.7267 104.913 11.662C104.647 11.6006 104.402 11.5278 104.179 11.4437C103.959 11.3564 103.77 11.2513 103.612 11.1284C103.454 11.0055 103.332 10.86 103.245 10.6918C103.158 10.5237 103.115 10.3296 103.115 10.1097C103.115 9.89627 103.16 9.69415 103.25 9.50334C103.34 9.31254 103.468 9.14437 103.636 8.99884C103.803 8.85331 104.006 8.7385 104.244 8.65442C104.486 8.57033 104.755 8.52829 105.053 8.52829C105.474 8.52829 105.835 8.60267 106.136 8.75144C106.439 8.89697 106.672 9.09586 106.833 9.34811C106.994 9.59713 107.074 9.87849 107.074 10.1922H105.954C105.954 10.0531 105.92 9.92376 105.852 9.80411C105.787 9.68121 105.688 9.58258 105.555 9.50819C105.422 9.43058 105.254 9.39177 105.053 9.39177C104.861 9.39177 104.701 9.42411 104.574 9.48879C104.45 9.55024 104.357 9.63109 104.295 9.73134C104.237 9.83159 104.207 9.94155 104.207 10.0612C104.207 10.1485 104.223 10.2278 104.254 10.2989C104.288 10.3668 104.343 10.4299 104.421 10.4881C104.498 10.5431 104.604 10.5948 104.737 10.6433C104.873 10.6918 105.044 10.7387 105.248 10.784C105.632 10.8681 105.962 10.9764 106.238 11.109C106.517 11.2384 106.73 11.4066 106.879 11.6135C107.028 11.8173 107.102 12.076 107.102 12.3897C107.102 12.6225 107.054 12.836 106.958 13.03C106.865 13.2208 106.729 13.3874 106.549 13.5297C106.37 13.6687 106.154 13.7771 105.903 13.8547C105.655 13.9323 105.377 13.9711 105.067 13.9711C104.611 13.9711 104.226 13.887 103.91 13.7189C103.594 13.5475 103.354 13.3292 103.189 13.064C103.028 12.7956 102.948 12.5174 102.948 12.2296H104.031C104.043 12.4463 104.1 12.6193 104.202 12.7487C104.308 12.8748 104.438 12.967 104.593 13.0252C104.751 13.0802 104.913 13.1076 105.081 13.1076C105.282 13.1076 105.451 13.0802 105.587 13.0252C105.724 12.967 105.827 12.8893 105.899 12.7923C105.97 12.6921 106.006 12.5789 106.006 12.4528Z" fill="#A8A8A8"/>
<path d="M110.904 12.4528C110.904 12.3363 110.876 12.2312 110.82 12.1374C110.764 12.0404 110.657 11.9531 110.499 11.8755C110.344 11.7979 110.115 11.7267 109.811 11.662C109.545 11.6006 109.3 11.5278 109.077 11.4437C108.857 11.3564 108.668 11.2513 108.51 11.1284C108.352 11.0055 108.23 10.86 108.143 10.6918C108.056 10.5237 108.013 10.3296 108.013 10.1097C108.013 9.89627 108.058 9.69415 108.148 9.50334C108.238 9.31254 108.366 9.14437 108.534 8.99884C108.701 8.85331 108.904 8.7385 109.142 8.65442C109.384 8.57033 109.653 8.52829 109.951 8.52829C110.372 8.52829 110.733 8.60267 111.034 8.75144C111.337 8.89697 111.57 9.09586 111.731 9.34811C111.892 9.59713 111.972 9.87849 111.972 10.1922H110.852C110.852 10.0531 110.818 9.92376 110.75 9.80411C110.685 9.68121 110.586 9.58258 110.453 9.50819C110.32 9.43058 110.152 9.39177 109.951 9.39177C109.759 9.39177 109.599 9.42411 109.472 9.48879C109.348 9.55024 109.255 9.63109 109.193 9.73134C109.135 9.83159 109.105 9.94155 109.105 10.0612C109.105 10.1485 109.121 10.2278 109.152 10.2989C109.186 10.3668 109.241 10.4299 109.319 10.4881C109.396 10.5431 109.502 10.5948 109.635 10.6433C109.771 10.6918 109.942 10.7387 110.146 10.784C110.53 10.8681 110.86 10.9764 111.136 11.109C111.415 11.2384 111.628 11.4066 111.777 11.6135C111.926 11.8173 112 12.076 112 12.3897C112 12.6225 111.952 12.836 111.856 13.03C111.763 13.2208 111.627 13.3874 111.447 13.5297C111.268 13.6687 111.052 13.7771 110.801 13.8547C110.553 13.9323 110.275 13.9711 109.965 13.9711C109.509 13.9711 109.124 13.887 108.808 13.7189C108.492 13.5475 108.252 13.3292 108.087 13.064C107.926 12.7956 107.846 12.5174 107.846 12.2296H108.929C108.941 12.4463 108.998 12.6193 109.1 12.7487C109.206 12.8748 109.336 12.967 109.491 13.0252C109.649 13.0802 109.811 13.1076 109.979 13.1076C110.18 13.1076 110.349 13.0802 110.485 13.0252C110.622 12.967 110.725 12.8893 110.797 12.7923C110.868 12.6921 110.904 12.5789 110.904 12.4528Z" fill="#A8A8A8"/>
<path d="M64.6078 33.1819V36.4927H53.578V33.1819H64.6078ZM54.9727 15.8921V36.4927H50.7031V15.8921H54.9727ZM63.1704 24.2823V27.5082H53.578V24.2823H63.1704ZM64.5936 15.8921V19.217H53.578V15.8921H64.5936Z" fill="#7FECFF"/>
<path d="M70.1441 21.1837L72.6916 25.8387L75.3103 21.1837H79.6795L75.3245 28.6684L79.8788 36.4927H75.4953L72.7201 31.5689L69.9448 36.4927H65.5614L70.1156 28.6684L65.7606 21.1837H70.1441Z" fill="#7FECFF"/>
<path d="M85.7708 24.1267V42.3786H81.672V21.1837H85.4719L85.7708 24.1267ZM95.5197 28.6684V28.9655C95.5197 30.0786 95.3869 31.1114 95.1212 32.0641C94.8651 33.0168 94.4856 33.8469 93.9827 34.5543C93.4798 35.2523 92.8536 35.7994 92.1041 36.1956C91.364 36.5823 90.5101 36.7757 89.5423 36.7757C88.603 36.7757 87.787 36.587 87.0944 36.2097C86.4018 35.8324 85.8183 35.3042 85.3439 34.6251C84.8789 33.9365 84.5042 33.1394 84.2195 32.2339C83.9349 31.3284 83.7167 30.3568 83.5648 29.3193V28.5411C83.7167 27.4281 83.9349 26.4093 84.2195 25.485C84.5042 24.5511 84.8789 23.7447 85.3439 23.0655C85.8183 22.3769 86.397 21.844 87.0802 21.4667C87.7728 21.0894 88.584 20.9008 89.5138 20.9008C90.4911 20.9008 91.3498 21.0847 92.0898 21.4526C92.8394 21.8204 93.4656 22.3486 93.9685 23.0372C94.4808 23.7258 94.8651 24.5464 95.1212 25.4991C95.3869 26.4518 95.5197 27.5082 95.5197 28.6684ZM91.4067 28.9655V28.6684C91.4067 28.0176 91.3498 27.4186 91.2359 26.8715C91.1315 26.315 90.9608 25.8292 90.7236 25.4142C90.4958 24.9992 90.1922 24.6785 89.8127 24.4521C89.4427 24.2163 88.992 24.0984 88.4607 24.0984C87.9009 24.0984 87.4217 24.188 87.0232 24.3672C86.6342 24.5464 86.3164 24.8058 86.0697 25.1454C85.823 25.485 85.638 25.8906 85.5146 26.3622C85.3913 26.8338 85.3154 27.3667 85.2869 27.961V29.9277C85.3344 30.6257 85.4672 31.2529 85.6854 31.8095C85.9036 32.3565 86.2405 32.7904 86.6959 33.1111C87.1513 33.4318 87.7491 33.5922 88.4891 33.5922C89.0299 33.5922 89.4854 33.4743 89.8554 33.2385C90.2254 32.9932 90.5243 32.6584 90.752 32.2339C90.9892 31.8095 91.1553 31.319 91.2501 30.7624C91.3545 30.2059 91.4067 29.607 91.4067 28.9655Z" fill="#7FECFF"/>
<path d="M97.4126 28.9938V28.6967C97.4126 27.5743 97.5739 26.5414 97.8965 25.5981C98.2191 24.6455 98.6887 23.8201 99.3055 23.1221C99.9222 22.4241 100.681 21.8817 101.583 21.495C102.484 21.0988 103.518 20.9008 104.685 20.9008C105.852 20.9008 106.891 21.0988 107.802 21.495C108.713 21.8817 109.477 22.4241 110.093 23.1221C110.72 23.8201 111.194 24.6455 111.517 25.5981C111.839 26.5414 112 27.5743 112 28.6967V28.9938C112 30.1069 111.839 31.1397 111.517 32.0924C111.194 33.0357 110.72 33.861 110.093 34.5685C109.477 35.2665 108.718 35.8088 107.816 36.1956C106.915 36.5823 105.881 36.7757 104.714 36.7757C103.547 36.7757 102.508 36.5823 101.597 36.1956C100.695 35.8088 99.9317 35.2665 99.3055 34.5685C98.6887 33.861 98.2191 33.0357 97.8965 32.0924C97.5739 31.1397 97.4126 30.1069 97.4126 28.9938ZM101.511 28.6967V28.9938C101.511 29.6353 101.568 30.2342 101.682 30.7907C101.796 31.3473 101.976 31.8377 102.223 32.2622C102.479 32.6772 102.811 33.0027 103.219 33.2385C103.627 33.4743 104.125 33.5922 104.714 33.5922C105.283 33.5922 105.772 33.4743 106.18 33.2385C106.588 33.0027 106.915 32.6772 107.162 32.2622C107.408 31.8377 107.588 31.3473 107.702 30.7907C107.826 30.2342 107.887 29.6353 107.887 28.9938V28.6967C107.887 28.0742 107.826 27.4894 107.702 26.9423C107.588 26.3858 107.403 25.8953 107.147 25.4708C106.901 25.0369 106.573 24.6973 106.165 24.4521C105.757 24.2068 105.264 24.0842 104.685 24.0842C104.106 24.0842 103.613 24.2068 103.205 24.4521C102.807 24.6973 102.479 25.0369 102.223 25.4708C101.976 25.8953 101.796 26.3858 101.682 26.9423C101.568 27.4894 101.511 28.0742 101.511 28.6967Z" fill="#7FECFF"/>
<defs>
<clipPath id="clip0_349_36528">
<rect width="44.6486" height="44.6486" fill="white"/>
</clipPath>
</defs>
</svg>
