<svg width="213" height="85" viewBox="0 0 213 85" fill="none" xmlns="http://www.w3.org/2000/svg">
<g clip-path="url(#clip0_346_35603)">
<path d="M65.6333 14.5033C61.7403 12.5841 58.8833 14.6887 60.1264 18.5381C60.5626 19.8794 61.4241 21.1771 62.5037 22.2348C63.5614 23.3144 64.8591 24.1759 66.2004 24.6121C70.0389 25.8661 72.1544 23.0091 70.2352 19.1052C69.7554 18.1346 69.0793 17.2295 68.2941 16.4444C67.509 15.6483 66.593 14.9722 65.6333 14.5033Z" fill="#7FECFF"/>
<path d="M28.0024 24.514C29.6272 30.6643 32.8769 31.9074 38.3947 29.4429C38.5038 29.3884 38.6128 29.3557 38.7219 29.3121L38.7109 29.3012C40.8374 28.3415 42.9638 27.5673 45.3083 27.1093C46.0499 26.9893 46.8459 27.2183 47.3148 27.8944C47.3257 27.9162 47.3475 27.9381 47.3584 27.9599C48.5471 29.7046 49.9756 31.4385 51.644 33.096C62.0036 43.5319 75.0457 44.4915 79.4295 37.2508C81.6213 33.2269 76.9323 30.2826 74.8931 32.2564C70.662 35.9967 62.7451 33.325 57.0528 27.6872C55.6025 26.226 54.3375 24.6012 53.3343 22.9218C50.4445 17.8729 46.2134 19.0397 43.4654 19.6504C41.1754 20.1302 39.0817 20.8281 37.0752 21.6569C37.0643 21.6569 37.0643 21.6569 37.0534 21.6678C36.0829 22.0931 35.5922 21.5697 35.3741 20.6646C31.9282 5.0816 44.0434 -3.23876 59.9862 3.91479C37.8495 -6.7501 23.2152 5.77951 28.0024 24.514Z" fill="#7FECFF"/>
<path d="M42.9763 35.5932C39.4431 32.18 33.3583 36.4002 37.1422 41.6127C41.8204 46.5634 47.818 41.0238 43.7287 36.4874C43.7178 36.4765 43.7178 36.4656 43.7069 36.4547C43.4561 36.1712 43.2162 35.8876 42.9763 35.5932Z" fill="#7FECFF"/>
<path d="M43.1926 11.4173C42.2329 16.4226 49.8663 16.2481 51.1095 12.366C51.1313 12.3006 51.1531 12.2352 51.1749 12.1698C51.1749 12.1588 51.1858 12.1479 51.1858 12.1479C51.4475 11.3519 51.851 10.6104 52.3962 9.95608C56.1693 5.36516 64.8386 7.61155 70.978 13.7509C74.4457 17.2296 76.6812 21.5152 77.1283 25.2664C77.1501 25.2991 77.2047 26.2369 77.2047 26.2806C77.7499 29.1703 81.0322 30.9369 80.7596 28.5924C79.8763 22.5729 76.3541 16.9461 72.0467 12.6823C67.7066 8.32036 62.2214 4.98349 56.5182 4.03477C49.0266 2.78072 44.4902 6.12849 43.1926 11.4173Z" fill="#7FECFF"/>
<path d="M63.1935 49.137C59.8239 48.2755 56.498 46.7707 53.3683 44.7969H53.3574C53.3028 44.7533 53.2483 44.7206 53.1938 44.6879C53.0957 44.6224 52.9975 44.5679 52.8994 44.5025C48.5375 42.0162 42.9324 47.8503 47.9486 51.1653C48.1994 51.3289 48.4611 51.4925 48.7119 51.656C73.1932 66.9119 93.5306 51.1762 80.8047 24.7321C88.1001 40.9911 79.3217 53.2699 63.1935 49.137Z" fill="#7FECFF"/>
<path d="M11.035 40.9257C9.70464 38.025 5.49539 39.6934 6.04063 42.9322C6.11697 43.1721 6.1933 43.4229 6.26963 43.6628C7.68726 47.0433 12.4854 45.2658 11.2531 41.5036C11.2531 41.4927 11.2422 41.4818 11.2422 41.4709C11.1659 41.2964 11.1005 41.1111 11.035 40.9257Z" fill="#7FECFF"/>
<path d="M7.33795 56.7376C8.60291 56.574 9.82425 56.3014 10.9583 56.0179C11.6344 55.8543 12.3323 56.2033 12.7358 56.7921H12.7467C14.7532 59.7583 17.0541 62.5608 19.584 65.1452C21.2634 66.7919 23.03 68.3403 24.8838 69.7689C28.7114 72.7132 32.6044 68.0786 28.526 65.1561C28.526 65.1561 28.526 65.1561 28.526 65.1452C26.8794 63.8476 25.2763 62.4626 23.7497 60.9796C21.2852 58.4606 19.0933 55.7453 17.1741 52.9209C17.1632 52.91 17.1632 52.8991 17.1523 52.8882C17.0214 52.6919 16.8906 52.4957 16.7597 52.2885C14.8405 49.6604 12.256 49.8458 9.12634 50.6527C8.33029 50.8926 7.49062 51.1216 6.62914 51.2961C5.8549 51.427 4.76442 51.198 4.19737 49.9439C0.849596 41.002 0.424309 31.7329 3.85932 24.0341C1.9946 28.0907 0.707834 32.0819 0.217118 36.2366C-0.077312 38.712 -0.0882168 41.2419 0.217118 43.8809C0.315261 45.2331 0.457023 46.5198 0.598786 47.6757C0.893215 49.9221 1.36212 51.9177 1.87465 53.6516C3.00875 57.0757 6.05119 56.8685 7.33795 56.7376Z" fill="#7FECFF"/>
<path d="M16.1816 68.5475C14.3605 66.6828 12.6812 64.709 11.1654 62.648H11.1545C9.03896 59.4747 5.17866 61.7648 6.65081 64.2729C6.80347 64.5237 6.96705 64.7963 7.15243 65.0907C8.79905 67.6097 10.6965 69.8997 12.7684 71.9607C14.8294 74.0327 17.1303 75.9301 19.6384 77.5767C22.9099 79.5614 22.9753 79.5941 24.7855 80.4556C26.4539 81.1753 30.8376 83.2799 37.0425 84.1087C38.1984 84.2505 39.4851 84.3922 40.8373 84.4904C43.4763 84.7957 46.0062 84.7848 48.4816 84.4904C52.6363 83.9996 56.6384 82.7238 60.6841 80.8591C47.2603 86.8567 29.0274 81.1317 16.1816 68.5475Z" fill="#7FECFF"/>
<path d="M8.87593 32.3436C7.55645 22.9873 9.81374 14.2307 16.5965 8.49481C10.7079 13.0748 6.81492 17.2732 5.11377 24.7648C4.42677 27.8072 4.20868 30.9151 4.40496 34.0448C4.85206 37.6652 9.43208 35.3861 8.87593 32.3436Z" fill="#7FECFF"/>
<path d="M43.1497 73.4547C44.153 71.6663 45.069 69.7907 45.865 67.7951C46.8246 65.4178 49.0274 61.2413 43.6513 58.0353C40.3036 55.9525 37.1085 53.4226 34.1969 50.5437C31.1762 47.4795 28.5373 44.099 26.389 40.5767C23.6301 36.0403 21.7981 31.4603 20.8603 27.0984C19.8134 22.671 13.8267 24.7975 14.2738 29.3012C15.8441 38.6575 21.1765 48.2973 28.7336 56.0179C31.6451 58.8641 34.8293 61.394 38.1662 63.5313C39.1149 64.142 39.1367 64.3492 38.8641 65.0907C38.1335 66.8791 37.2284 68.5584 36.1924 70.2487C35.0693 72.0261 33.8043 75.4394 38.1444 77.4349C45.2871 80.2593 52.8223 81.2516 59.9649 79.6268C67.4674 77.9256 71.6549 74.0326 76.2349 68.144C68.6233 77.1296 55.7338 78.1655 43.1497 73.4547Z" fill="#7FECFF"/>
<path d="M70.5631 63.913C70.5522 63.913 70.5522 63.913 70.5631 63.913C70.5413 63.913 70.5303 63.9239 70.5085 63.9239C70.345 63.9676 70.1814 64.0003 70.0178 64.0439C66.0049 65.1889 65.5251 70.6413 70.0942 69.4309C79.3305 66.1158 83.0381 58.2098 84.4012 48.3846C83.1472 56.7922 77.8366 62.0701 70.5631 63.913Z" fill="#7FECFF"/>
<path d="M20.4766 15.7792C21.9051 7.67696 27.3248 1.66842 36.354 0.316223C26.1798 1.73385 18.0557 5.65957 14.9697 15.6484C13.9664 19.4869 19.8877 19.0943 20.4766 15.7792Z" fill="#7FECFF"/>
<path d="M58.3714 64.022C58.3604 64.022 58.3386 64.022 58.3277 64.0111C53.6387 63.4005 50.9234 69.5835 55.8414 70.5213C55.8742 70.5213 55.9069 70.5322 55.9396 70.5322C60.8576 71.0011 63.5075 65.2543 59.102 64.1529C58.8621 64.1202 58.6222 64.0766 58.3714 64.022Z" fill="#7FECFF"/>
</g>
<path d="M133.368 23.8783L136.746 12.9234H139.189L134.585 26.3271H132.936L133.368 23.8783ZM130.246 12.9234L133.598 23.8783L134.056 26.3271H132.398L127.812 12.9234H130.246Z" fill="white"/>
<path d="M142.522 18.4929V26.3271H140.397V16.3664H142.399L142.522 18.4929ZM142.143 20.9785L141.455 20.9693C141.461 20.2635 141.555 19.616 141.737 19.0269C141.925 18.4377 142.184 17.9314 142.513 17.5079C142.848 17.0844 143.248 16.7592 143.713 16.5321C144.177 16.2989 144.694 16.1823 145.265 16.1823C145.723 16.1823 146.138 16.2498 146.508 16.3848C146.884 16.5137 147.205 16.7254 147.469 17.02C147.74 17.3146 147.946 17.6981 148.087 18.1707C148.228 18.6371 148.298 19.211 148.298 19.8922V26.3271H146.164V19.883C146.164 19.4043 146.097 19.0269 145.961 18.7507C145.832 18.4684 145.641 18.2689 145.388 18.1523C145.141 18.0296 144.833 17.9682 144.462 17.9682C144.098 17.9682 143.771 18.048 143.483 18.2075C143.195 18.3671 142.951 18.585 142.751 18.8611C142.557 19.1373 142.407 19.4565 142.302 19.8186C142.196 20.1806 142.143 20.5673 142.143 20.9785Z" fill="white"/>
<path d="M159.084 24.4951V26.3271H152.267V24.4951H159.084ZM152.893 12.9234V26.3271H150.679V12.9234H152.893ZM158.193 18.5205V20.3249H152.267V18.5205H158.193ZM159.04 12.9234V14.7646H152.267V12.9234H159.04Z" fill="white"/>
<path d="M162.303 16.3664L164.119 19.6713L165.971 16.3664H168.308L165.416 21.2547L168.423 26.3271H166.086L164.146 22.8841L162.206 26.3271H159.86L162.858 21.2547L159.974 16.3664H162.303Z" fill="white"/>
<path d="M171.897 18.2812V30.1567H169.772V16.3664H171.73L171.897 18.2812ZM178.114 21.2547V21.448C178.114 22.1722 178.032 22.8442 177.868 23.4641C177.709 24.0778 177.471 24.6148 177.153 25.0751C176.842 25.5292 176.457 25.8821 175.998 26.1337C175.539 26.3854 175.01 26.5112 174.411 26.5112C173.817 26.5112 173.297 26.3976 172.85 26.1706C172.409 25.9373 172.035 25.609 171.73 25.1855C171.424 24.7621 171.177 24.265 170.989 23.6942C170.807 23.1173 170.677 22.4852 170.601 21.7978V21.0521C170.677 20.3218 170.807 19.659 170.989 19.0637C171.177 18.4684 171.424 17.9559 171.73 17.5263C172.035 17.0967 172.409 16.7653 172.85 16.5321C173.291 16.2989 173.805 16.1823 174.393 16.1823C174.993 16.1823 175.525 16.305 175.989 16.5505C176.454 16.7898 176.845 17.1335 177.162 17.5815C177.48 18.0234 177.718 18.5574 177.876 19.1834C178.035 19.8032 178.114 20.4936 178.114 21.2547ZM175.989 21.448V21.2547C175.989 20.7944 175.948 20.3678 175.866 19.9751C175.783 19.5761 175.654 19.2263 175.478 18.9256C175.301 18.6249 175.075 18.3917 174.799 18.2259C174.528 18.0541 174.202 17.9682 173.82 17.9682C173.444 17.9682 173.12 18.0357 172.85 18.1707C172.579 18.2996 172.353 18.4806 172.171 18.7139C171.988 18.9471 171.847 19.2202 171.747 19.5332C171.647 19.84 171.577 20.1745 171.536 20.5366V22.3225C171.606 22.7644 171.727 23.1695 171.897 23.5377C172.068 23.9059 172.309 24.2005 172.62 24.4215C172.938 24.6363 173.344 24.7437 173.837 24.7437C174.22 24.7437 174.546 24.6577 174.816 24.4859C175.087 24.3141 175.307 24.0778 175.478 23.7771C175.654 23.4702 175.783 23.1173 175.866 22.7184C175.948 22.3195 175.989 21.896 175.989 21.448Z" fill="white"/>
<path d="M182.056 18.2628V26.3271H179.931V16.3664H181.959L182.056 18.2628ZM184.975 16.3019L184.958 18.364C184.828 18.3395 184.687 18.3211 184.535 18.3088C184.388 18.2965 184.241 18.2904 184.094 18.2904C183.729 18.2904 183.409 18.3456 183.132 18.4561C182.856 18.5604 182.624 18.7139 182.436 18.9164C182.253 19.1128 182.112 19.3521 182.012 19.6344C181.912 19.9167 181.854 20.2328 181.836 20.5826L181.351 20.6195C181.351 19.9935 181.41 19.4135 181.527 18.8796C181.645 18.3456 181.821 17.8761 182.056 17.4711C182.297 17.066 182.597 16.7499 182.956 16.5229C183.32 16.2958 183.741 16.1823 184.217 16.1823C184.346 16.1823 184.485 16.1945 184.632 16.2191C184.784 16.2436 184.899 16.2712 184.975 16.3019Z" fill="white"/>
<path d="M190.337 26.5112C189.632 26.5112 188.994 26.3915 188.424 26.1522C187.859 25.9067 187.377 25.566 186.977 25.1303C186.583 24.6946 186.281 24.1821 186.069 23.5929C185.857 23.0038 185.751 22.3686 185.751 21.6873V21.3191C185.751 20.5397 185.86 19.8339 186.078 19.2018C186.295 18.5696 186.598 18.0296 186.986 17.5815C187.374 17.1274 187.833 16.7806 188.362 16.5413C188.891 16.3019 189.464 16.1823 190.081 16.1823C190.763 16.1823 191.36 16.3019 191.872 16.5413C192.383 16.7806 192.806 17.1182 193.142 17.5539C193.483 17.9835 193.735 18.496 193.9 19.0913C194.07 19.6866 194.156 20.3433 194.156 21.0613V22.0095H186.783V20.4169H192.057V20.242C192.045 19.8431 191.969 19.4687 191.828 19.1189C191.692 18.7691 191.484 18.4868 191.201 18.272C190.919 18.0572 190.543 17.9498 190.073 17.9498C189.72 17.9498 189.405 18.0296 189.129 18.1891C188.859 18.3426 188.632 18.5666 188.45 18.8611C188.268 19.1557 188.127 19.5117 188.027 19.929C187.933 20.3402 187.886 20.8036 187.886 21.3191V21.6873C187.886 22.1231 187.941 22.5281 188.053 22.9025C188.171 23.2707 188.341 23.5929 188.565 23.8691C188.788 24.1453 189.059 24.3632 189.376 24.5227C189.693 24.6762 190.055 24.7529 190.461 24.7529C190.972 24.7529 191.428 24.6455 191.828 24.4307C192.227 24.2159 192.574 23.9121 192.868 23.5193L193.988 24.6516C193.782 24.9646 193.515 25.2653 193.186 25.5538C192.856 25.8361 192.454 26.0662 191.978 26.2442C191.507 26.4222 190.96 26.5112 190.337 26.5112Z" fill="white"/>
<path d="M201.167 23.6298C201.167 23.4088 201.114 23.2094 201.008 23.0314C200.902 22.8473 200.699 22.6816 200.399 22.5343C200.105 22.387 199.67 22.252 199.094 22.1292C198.589 22.0126 198.124 21.8745 197.701 21.715C197.283 21.5492 196.925 21.3498 196.625 21.1166C196.325 20.8834 196.093 20.6072 195.928 20.288C195.764 19.9689 195.681 19.6007 195.681 19.1834C195.681 18.7783 195.767 18.3947 195.937 18.0326C196.108 17.6705 196.352 17.3514 196.669 17.0752C196.987 16.799 197.372 16.5812 197.824 16.4216C198.283 16.262 198.794 16.1823 199.359 16.1823C200.158 16.1823 200.843 16.3234 201.414 16.6057C201.99 16.8819 202.431 17.2593 202.736 17.738C203.042 18.2106 203.195 18.7445 203.195 19.3399H201.07C201.07 19.076 201.005 18.8305 200.876 18.6034C200.752 18.3702 200.564 18.183 200.311 18.0418C200.058 17.8945 199.741 17.8209 199.359 17.8209C198.994 17.8209 198.691 17.8823 198.45 18.005C198.215 18.1216 198.039 18.275 197.921 18.4653C197.81 18.6556 197.754 18.8642 197.754 19.0913C197.754 19.257 197.783 19.4074 197.842 19.5424C197.907 19.6713 198.012 19.7909 198.159 19.9014C198.306 20.0057 198.506 20.1039 198.759 20.196C199.018 20.288 199.341 20.377 199.729 20.463C200.458 20.6225 201.084 20.8281 201.608 21.0798C202.137 21.3252 202.542 21.6444 202.825 22.0372C203.107 22.4238 203.248 22.9148 203.248 23.5101C203.248 23.952 203.157 24.357 202.974 24.7253C202.798 25.0873 202.539 25.4034 202.198 25.6734C201.857 25.9373 201.449 26.1429 200.973 26.2902C200.502 26.4375 199.973 26.5112 199.385 26.5112C198.521 26.5112 197.789 26.3516 197.189 26.0325C196.59 25.7072 196.134 25.2929 195.822 24.7897C195.517 24.2803 195.364 23.7525 195.364 23.2063H197.419C197.442 23.6175 197.551 23.9458 197.745 24.1913C197.945 24.4307 198.192 24.6056 198.486 24.716C198.786 24.8204 199.094 24.8725 199.412 24.8725C199.794 24.8725 200.114 24.8204 200.373 24.716C200.632 24.6056 200.829 24.4583 200.964 24.2742C201.099 24.0839 201.167 23.8691 201.167 23.6298Z" fill="white"/>
<path d="M210.462 23.6298C210.462 23.4088 210.409 23.2094 210.303 23.0314C210.197 22.8473 209.994 22.6816 209.694 22.5343C209.4 22.387 208.965 22.252 208.389 22.1292C207.884 22.0126 207.419 21.8745 206.996 21.715C206.578 21.5492 206.22 21.3498 205.92 21.1166C205.62 20.8834 205.388 20.6072 205.223 20.288C205.059 19.9689 204.976 19.6007 204.976 19.1834C204.976 18.7783 205.062 18.3947 205.232 18.0326C205.403 17.6705 205.647 17.3514 205.964 17.0752C206.281 16.799 206.667 16.5812 207.119 16.4216C207.578 16.262 208.089 16.1823 208.654 16.1823C209.453 16.1823 210.138 16.3234 210.708 16.6057C211.285 16.8819 211.726 17.2593 212.031 17.738C212.337 18.2106 212.49 18.7445 212.49 19.3399H210.365C210.365 19.076 210.3 18.8305 210.171 18.6034C210.047 18.3702 209.859 18.183 209.606 18.0418C209.353 17.8945 209.036 17.8209 208.654 17.8209C208.289 17.8209 207.986 17.8823 207.745 18.005C207.51 18.1216 207.334 18.275 207.216 18.4653C207.105 18.6556 207.049 18.8642 207.049 19.0913C207.049 19.257 207.078 19.4074 207.137 19.5424C207.202 19.6713 207.307 19.7909 207.454 19.9014C207.601 20.0057 207.801 20.1039 208.054 20.196C208.313 20.288 208.636 20.377 209.024 20.463C209.753 20.6225 210.379 20.8281 210.902 21.0798C211.432 21.3252 211.837 21.6444 212.119 22.0372C212.402 22.4238 212.543 22.9148 212.543 23.5101C212.543 23.952 212.452 24.357 212.269 24.7253C212.093 25.0873 211.834 25.4034 211.493 25.6734C211.152 25.9373 210.744 26.1429 210.268 26.2902C209.797 26.4375 209.268 26.5112 208.68 26.5112C207.816 26.5112 207.084 26.3516 206.484 26.0325C205.885 25.7072 205.429 25.2929 205.117 24.7897C204.812 24.2803 204.659 23.7525 204.659 23.2063H206.714C206.737 23.6175 206.846 23.9458 207.04 24.1913C207.24 24.4307 207.487 24.6056 207.781 24.716C208.08 24.8204 208.389 24.8725 208.707 24.8725C209.089 24.8725 209.409 24.8204 209.668 24.716C209.927 24.6056 210.123 24.4583 210.259 24.2742C210.394 24.0839 210.462 23.8691 210.462 23.6298Z" fill="white"/>
<path d="M122.606 62.9707V69.2537H101.674V62.9707H122.606ZM104.321 30.1597V69.2537H96.2188V30.1597H104.321ZM119.878 46.0819V52.2037H101.674V46.0819H119.878ZM122.579 30.1597V36.4695H101.674V30.1597H122.579Z" fill="#7FECFF"/>
<path d="M133.112 40.2017L137.947 49.0354L142.916 40.2017H151.208L142.943 54.4055L151.586 69.2537H143.267L138.001 59.9098L132.734 69.2537H124.415L133.058 54.4055L124.793 40.2017H133.112Z" fill="#7FECFF"/>
<path d="M162.767 45.7865V80.4234H154.989V40.2017H162.2L162.767 45.7865ZM181.268 54.4055V54.9693C181.268 57.0815 181.016 59.0416 180.512 60.8495C180.025 62.6575 179.305 64.2327 178.351 65.5752C177.397 66.8998 176.208 67.938 174.786 68.6898C173.381 69.4237 171.761 69.7907 169.924 69.7907C168.142 69.7907 166.593 69.4327 165.279 68.7167C163.964 68.0007 162.857 66.9982 161.957 65.7094C161.075 64.4027 160.363 62.8902 159.823 61.1717C159.283 59.4533 158.869 57.6096 158.581 55.6406V54.1638C158.869 52.0516 159.283 50.1184 159.823 48.3642C160.363 46.592 161.075 45.0616 161.957 43.7728C162.857 42.466 163.955 41.4547 165.252 40.7387C166.566 40.0227 168.106 39.6647 169.87 39.6647C171.725 39.6647 173.354 40.0137 174.759 40.7118C176.181 41.4099 177.37 42.4123 178.324 43.7191C179.296 45.0258 180.025 46.5831 180.512 48.391C181.016 50.1989 181.268 52.2037 181.268 54.4055ZM173.462 54.9693V54.4055C173.462 53.1704 173.354 52.0337 173.138 50.9955C172.94 49.9394 172.616 49.0175 172.166 48.2299C171.734 47.4423 171.158 46.8337 170.437 46.4041C169.735 45.9566 168.88 45.7328 167.872 45.7328C166.809 45.7328 165.9 45.9029 165.144 46.243C164.406 46.5831 163.802 47.0753 163.334 47.7198C162.866 48.3642 162.515 49.1339 162.281 50.0289C162.047 50.9239 161.903 51.9352 161.849 53.063V56.7951C161.939 58.1198 162.191 59.3101 162.605 60.3662C163.019 61.4044 163.658 62.2278 164.523 62.8365C165.387 63.4451 166.521 63.7494 167.926 63.7494C168.952 63.7494 169.816 63.5256 170.518 63.0781C171.221 62.6127 171.788 61.9772 172.22 61.1717C172.67 60.3662 172.985 59.4354 173.165 58.3793C173.363 57.3232 173.462 56.1865 173.462 54.9693Z" fill="#7FECFF"/>
<path d="M184.86 55.023V54.4592C184.86 52.329 185.166 50.369 185.778 48.579C186.39 46.771 187.282 45.2048 188.452 43.8802C189.622 42.5555 191.063 41.5263 192.773 40.7924C194.484 40.0406 196.446 39.6647 198.661 39.6647C200.876 39.6647 202.847 40.0406 204.576 40.7924C206.304 41.5263 207.754 42.5555 208.924 43.8802C210.113 45.2048 211.013 46.771 211.625 48.579C212.237 50.369 212.543 52.329 212.543 54.4592V55.023C212.543 57.1352 212.237 59.0953 211.625 60.9032C211.013 62.6933 210.113 64.2595 208.924 65.602C207.754 66.9267 206.313 67.9559 204.603 68.6898C202.892 69.4237 200.93 69.7907 198.715 69.7907C196.5 69.7907 194.529 69.4237 192.8 68.6898C191.09 67.9559 189.64 66.9267 188.452 65.602C187.282 64.2595 186.39 62.6933 185.778 60.9032C185.166 59.0953 184.86 57.1352 184.86 55.023ZM192.638 54.4592V55.023C192.638 56.2402 192.746 57.3769 192.962 58.433C193.178 59.4891 193.521 60.4199 193.989 61.2254C194.475 62.0131 195.105 62.6306 195.879 63.0781C196.654 63.5256 197.599 63.7494 198.715 63.7494C199.795 63.7494 200.723 63.5256 201.497 63.0781C202.271 62.6306 202.892 62.0131 203.361 61.2254C203.829 60.4199 204.171 59.4891 204.387 58.433C204.621 57.3769 204.738 56.2402 204.738 55.023V54.4592C204.738 53.2778 204.621 52.1679 204.387 51.1297C204.171 50.0736 203.82 49.1428 203.334 48.3373C202.865 47.5139 202.244 46.8695 201.47 46.4041C200.696 45.9387 199.759 45.706 198.661 45.706C197.563 45.706 196.626 45.9387 195.852 46.4041C195.096 46.8695 194.475 47.5139 193.989 48.3373C193.521 49.1428 193.178 50.0736 192.962 51.1297C192.746 52.1679 192.638 53.2778 192.638 54.4592Z" fill="#7FECFF"/>
<defs>
<clipPath id="clip0_346_35603">
<rect width="84.7303" height="84.7303" fill="white"/>
</clipPath>
</defs>
</svg>
