<?xml version="1.0" standalone="no"?>
<!DOCTYPE svg PUBLIC "-//W3C//DTD SVG 1.1//EN" "http://www.w3.org/Graphics/SVG/1.1/DTD/svg11.dtd" >
<svg xmlns="http://www.w3.org/2000/svg">
<metadata>Generated by IcoMoon</metadata>
<defs>
<font id="icomoon" horiz-adv-x="1024">
<font-face units-per-em="1024" ascent="1024" descent="0" />
<missing-glyph horiz-adv-x="1024" />
<glyph unicode="&#x20;" horiz-adv-x="0" d="" />
<glyph unicode="&#xe600;" glyph-name="guanbi" d="M873 184v0 0 0zM928 428q0 113-56 208.5t-151.5 151.5-208.5 56-208.5-56-151.5-151.5-56-208.5 56-208.5 151.5-151.5 208.5-56 208.5 56 151.5 151.5 56 208.5zM512 72q-97 0-179 47.5t-129.5 129.5-47.5 179 47.5 179 129.5 129.5 179 47.5 179-47.5 129.5-129.5 47.5-179-47.5-179-129.5-129.5-179-47.5zM682 298l-128 129 128 127q9 8 9 20.5t-8.5 21.5-21 9-21.5-9l-128-127-127 127q-8 9-20.5 9t-21-9-9-21 8.5-21l127-127-128-126q-9-9-9-21t9-21 21-9 21 9l128 126 128-129q9-9 21.5-9t21 8.5 8.5 21-9 21.5v0z" />
<glyph unicode="&#xe602;" glyph-name="pinpai" d="M510.5 13q-5.5 0-9.5 3-40 20-95 61.5t-115.5 101-111.5 125-84.5 140.5-33.5 139q0 55 17 100.5t44.5 75 63 49.5 70 28.5 67.5 8.5q96 0 188-92 92 92 188 92 33 0 67.5-8.5t70-28.5 62.5-49.5 44.5-75 17.5-100.5q0-64-33.5-139t-85-140.5-112-125-115-101-94.5-61.5q-5-3-10.5-3zM323 800q-28 0-56.5-7t-57.5-24-52-41-37-61.5-14-83.5q0-55 29.5-121t75.5-126 101-115.5 106.5-96.5 92.5-63q41 22 92.5 63t106.5 96.5 101 115.5 75.5 126 29.5 121q0 46-14.5 83.5t-37 61.5-51.5 41-57.5 24-56.5 7q-25 0-52.5-10t-47-23-37-28-25.5-23.5-9-10.5q-7-8-17-8v0q-10 0-17 8-2 2-10 10.5t-25 23.5-37 28-47 23-52 10z" />
<glyph unicode="&#xe604;" glyph-name="weiguanzhu" d="M285 813v-74q49 0 91-33.5t67-93.5q8-20 27-32.5t41-12.5v0q22 0 40.5 12.5t27.5 32.5q26 63 72 93t92 30q60 0 99-42 48-53 39-151-3-28-15-55.5t-25.5-47.5-39.5-45-42.5-38.5-48.5-38.5q-59-46-84-70-51-49-114-103-1 1-14 12-56 48-103 92-25 23-83 66-33 24-50 37.5t-43.5 38-40 44-24.5 47-12 55.5q-5 106 50 163 39 40 93 40v74zM285 813q-44 0-84-18.5t-70.5-53-48-88.5-14.5-120q1-49 21-93t53.5-78.5 65.5-60.5 74-57 63-50q46-43 97-87t70-62q12 12 63.5 56t101.5 93q21 20 61.5 51.5t72 58 65 61.5 54 78 24.5 92q6 65-9 118t-45.5 86.5-71 51.5-85.5 18q-71 0-134.5-43.5t-97.5-124.5q-35 84-96.5 128t-129.5 44v0z" />
<glyph unicode="&#xe606;" glyph-name="zhubaoshipin" d="M1013 607q-18 24-188 266-9 15-26 15h-598q-13 0-21-9v0l-1-1q-2-2-4-5-26-42-80.5-131t-83.5-135q-11-18 3-35l2-2q78-99 233-297t231-296q10-13 23-11 11 0 20 11 43 55 217.5 267t267.5 326l2 4q14 17 3 33zM929 622h-184q8 23 29.5 82t33.5 90q47-66 121-172zM501 814q15-22 132-192h-267q107 151 135 192zM659 562q-107-291-157-428-95 267-155 428h312zM690 645q-26 38-126 183h193q-13-35-37.5-102t-29.5-81zM314 651q-35 92-69 177h193q-68-97-124-177zM195 792q32-81 66-170h-170zM284 562q62-166 159-442-193 248-345 442h186zM723 562h201q-89-108-365-446 44 119 164 446z" />
<glyph unicode="&#xe607;" glyph-name="jiajujiancai" d="M175 607q-69 0-117.5 48.5t-48.5 117.5 48.5 117.5 117.5 48.5 117.5-48.5 48.5-117.5-48.5-117.5-117.5-48.5zM175 871q-41 0-70-28.5t-29-69.5 29-70 70-29 69.5 29 28.5 70-28.5 69.5-69.5 28.5zM509.5 607q-68.5 0-117.5 48.5t-49 117.5 49 117.5 117.5 48.5 117.5-48.5 49-117.5-49-117.5-117.5-48.5zM509.5 871q-40.5 0-69.5-28.5t-29-69.5 29-70 69.5-29 69.5 29 29 70-29 69.5-69.5 28.5zM844 607q-69 0-117.5 48.5t-48.5 117.5 48.5 117.5 117.5 48.5 117.5-48.5 48.5-117.5-48.5-117.5-117.5-48.5zM844 871q-41 0-70-28.5t-29-69.5 29-70 70-29 70 29 29 70-29 69.5-70 28.5zM175 266q-69 0-117.5 49t-48.5 117.5 48.5 117 117.5 48.5 117.5-48.5 48.5-117-48.5-117.5-117.5-49zM175 531q-41 0-70-29t-29-69.5 29-69.5 70-29 69.5 29 28.5 69.5-28.5 69.5-69.5 29zM509.5 266q-68.5 0-117.5 49t-49 117.5 49 117 117.5 48.5 117.5-48.5 49-117-49-117.5-117.5-49zM509.5 531q-40.5 0-69.5-29t-29-69.5 29-69.5 69.5-29 69.5 29 29 69.5-29 69.5-69.5 29zM844 266q-69 0-117.5 49t-48.5 117.5 48.5 117 117.5 48.5 117.5-48.5 48.5-117-48.5-117.5-117.5-49zM844 531q-41 0-70-29t-29-69.5 29-69.5 70-29 70 29 29 69.5-29 69.5-70 29zM175-74q-69 0-117.5 48.5t-48.5 117.5 48.5 117.5 117.5 48.5 117.5-48.5 48.5-117.5-48.5-117.5-117.5-48.5zM175 190q-41 0-70-28.5t-29-69.5 29-70 70-29 69.5 29 28.5 70-28.5 69.5-69.5 28.5zM509.5-74q-68.5 0-117.5 48.5t-49 117.5 49 117.5 117.5 48.5 117.5-48.5 49-117.5-49-117.5-117.5-48.5zM509.5 190q-40.5 0-69.5-28.5t-29-69.5 29-70 69.5-29 69.5 29 29 70-29 69.5-69.5 28.5zM844-74q-69 0-117.5 48.5t-48.5 117.5 48.5 117.5 117.5 48.5 117.5-48.5 48.5-117.5-48.5-117.5-117.5-48.5zM844 190q-41 0-70-28.5t-29-69.5 29-70 70-29 70 29 29 70-29 69.5-70 28.5z" />
<glyph unicode="&#xe608;" glyph-name="jiayongdianqi" d="M384 915h-259q-45 0-77.5-32t-32.5-77v-739q0-45 32.5-77t77.5-32h259q46 0 78 32t32 77v739q0 45-32 77t-78 32zM434 67q0-20-14.5-34.5t-35.5-14.5h-259q-21 0-35.5 14.5t-14.5 34.5v739q0 20 14.5 35t35.5 15h259q21 0 35.5-15t14.5-35v-739zM903 915h-259q-46 0-78-32t-32-77v-739q0-45 32-77t78-32h259q45 0 77.5 32t32.5 77v739q0 45-32.5 77t-77.5 32zM953 67q0-20-14.5-34.5t-35.5-14.5h-259q-21 0-35.5 14.5t-14.5 34.5v330h359v-330zM953 457h-359v349q0 20 14.5 35t35.5 15h259q21 0 35.5-15t14.5-35v-349zM115 816h279v-60h-279v60zM115 716h279v-60h-279v60zM115 616h279v-60h-279v60zM675.5 566q-14.5 0-25-10t-10.5-24.5 10.5-25 25-10.5 24.5 10.5 10 25-10 24.5-24.5 10zM675.5 277q14.5 0 24.5 10t10 24.5-10 25-24.5 10.5-25-10.5-10.5-25 10.5-24.5 25-10z" />
<glyph unicode="&#xe609;" glyph-name="shipin" d="M8 496v-176q0-56 19-103.5t46-77 63-53.5 61-34.5 50-17.5v-71h533v71q25 7 50 17.5t61 35 62.5 55 46 80.5 19.5 109v165h-1011zM964 331q0-42-12-78.5t-29.5-61-41.5-44.5-44.5-31-43-19.5-31.5-11-15-3.5l-22-4v-60h-423v60l-23 4q-6 1-15 3.5t-31 11-42.5 19.5-45 30-42 42.5-29 58-11.5 73.5v29h901v-18zM964 386h-901v55h901v-55zM430 827h570v-55h-570v55zM26 827h55v-55h-55v55zM26 717h55v-55h-55v55zM430 717h570v-55h-570v55zM92 520q38 8 58 33.5t23 49.5v207q0 16 10.5 27t19.5 14.5 13 3.5v55q-31 0-64.5-26.5t-33.5-73.5v-201q-6-28-38-35zM202 520q39 8 58.5 33.5t22.5 49.5v207q0 16 10.5 27t19.5 14.5 14 3.5l-1 55q-31 0-64.5-26.5t-33.5-73.5v-201q-5-28-38-35zM312 520q39 8 59 33.5t23 49.5v207q0 16 10 27t19 14.5 14 3.5v55q-32 0-65-26.5t-33-73.5v-201q-6-28-38-35z" />
<glyph unicode="&#xe60a;" glyph-name="muyingwanju" d="M50 512l7-4h468l-110 362-1 2q-2 6-6.5 14t-13 19.5-21 19-26.5 7.5q-8 0-15-2-31-10-35-56-1-9-2-12l-7 7q-23 24-44 24-11 0-22-6-30-17-21-64 2-8 2-11-2 0-5 2-18 7-30 7-23 0-41-21-26-31 3-73 3-5 5-7v0q-1 0-5 1-12 4-20 4-24 0-38-22-22-33 16-73 5-5 7-8-3 0-10 1-9 1-14 1-32 0-46-29-10-19-6.5-36t12-28.5 19.5-18.5zM72 571q2 0 8-1 9-1 14-1 32 0 48 26 21 33-16 72-1 0-2 1 6-1 12-1 25 0 42 23 22 29-5 68-4 6-6 8h1q0 1 0.5 1.5l0.5 0.5q2 0 10-4 17-6 28-6 18 0 32 12 22 19 15 58 21-22 42-22 10 0 20 5 29 13 33 58 1 5 1 8 9-9 15-24l89-292h-381q-3 4-1 10zM291 100q-36 0-61.5-26t-25.5-62 25.5-61.5 61.5-25.5 61.5 25.5 25.5 61.5-25.5 62-61.5 26zM291-22q-14 0-24.5 10t-10.5 24.5 10.5 24.5 24.5 10 24-10 10-24.5-10-24.5-24-10zM581 100q-36 0-61.5-26t-25.5-62 25.5-61.5 61.5-25.5 61.5 25.5 25.5 61.5-25.5 62-61.5 26zM581-22q-14 0-24 10t-10 24.5 10 24.5 24 10 24.5-10 10.5-24.5-10.5-24.5-24.5-10zM988 818q-65 65-133 30-14-8-25-21t-26.5-41.5-16.5-28.5q-58-96-157-266h-598l3-29q1-8 3.5-22t14-50.5 28-71 48.5-75 72-70.5 102.5-50 135.5-20q83 0 150.5 26t109 65 70.5 89 41 94.5 14 85.5l1 28h-134q49 83 91 153 41 69 69 116 14 23 27 34.5t32 9.5 40-23q12-11 26.5-6.5t18 17.5-6.5 26zM439.5 156q-53.5 0-100 12t-79.5 30.5-60.5 44.5-45 51-31 54-20 49.5-10.5 40.5h675q-3-20-8.5-40t-17-49-27-54.5-41.5-51.5-58-44.5-77.5-30.5-99-12z" />
<glyph unicode="&#xe60b;" glyph-name="shumashouji" d="M751 157h-496v684h496v-684zM306 208h394v581h-394v-581zM548 72q0-17-12-29.5t-29.5-12.5-30 12.5-12.5 29.5 12.5 29.5 30 12.5 29.5-12.5 12-29.5zM749-66h-492q-36 0-61.5 25.5t-25.5 61.5v818q0 36 25.5 61.5t61.5 25.5h492q36 0 62-25.5t26-61.5v-818q0-36-26-61.5t-62-25.5zM257 875q-15 0-25.5-10.5t-10.5-25.5v-818q0-14 10.5-24.5t25.5-10.5h492q15 0 25.5 10.5t10.5 24.5v818q0 15-10.5 25.5t-25.5 10.5h-492z" />
<glyph unicode="&#xe60c;" glyph-name="xiebao" d="M321 559.5q0-23.5-16.5-40t-40-16.5-40 16.5-16.5 40 16.5 40 40 16.5 40-16.5 16.5-40zM321 559.5q0-23.5-16.5-40t-40-16.5-40 16.5-16.5 40 16.5 40 40 16.5 40-16.5 16.5-40zM819 559.5q0-23.5-17-40t-40-16.5-39.5 16.5-16.5 40 16.5 40 39.5 16.5 40-16.5 17-40zM882-76h-746q-47 0-80.5 33.5t-33.5 80.5v580q0 47 33.5 80.5t80.5 33.5h746q47 0 80.5-33.5t33.5-80.5v-580q0-47-33.5-80.5t-80.5-33.5zM136 670q-22 0-37-15t-15-37v-580q0-22 15-37t37-15h746q21 0 36.5 15t15.5 37v580q0 22-15.5 37t-36.5 15h-746zM789 566h-63v259q0 22-15 37t-36 15h-332q-21 0-36.5-15t-15.5-37v-259h-62v259q0 47 33.5 80.5t80.5 33.5h332q47 0 80.5-33.5t33.5-80.5v-259z" />
<glyph unicode="&#xe60d;" glyph-name="nvzhuangneiyi" d="M661 430l65 242-119 112-98-73-100 75-118-115 73-241-350-284 143-145 124 107 109-105 122 106 115-107 116 109 113-110 156 145zM413 724l95-72 96 71 70-66-58-212h-208l-64 213zM744 176l-117-110-114 106-121-105-109 105-124-107-75 78 315 255h227l314-255-83-77zM437 811q9 0 15.5 6.5t6.5 15.5-6.5 15.5-15.5 6.5-15-6.5-6-15.5 6-15.5 15-6.5zM505 811q9 0 15.5 6.5t6.5 15.5-6.5 15.5-15.5 6.5-15.5-6.5-6.5-15.5 6.5-15.5 15.5-6.5zM573 811q9 0 15 6.5t6 15.5-6 15.5-15 6.5-15.5-6.5-6.5-15.5 6.5-15.5 15.5-6.5z" />
<glyph unicode="&#xe60e;" glyph-name="huwaiyundong" horiz-adv-x="1036" d="M435 129q-37 0-48 22-6 1-16-1-15-21-48-21h-18q-8 1-14 1-36 1-46 28h-14q-20-17-67-18v0q-39 0-57 20-4 6-7 12-26 3-43 10-19 2-27 26t-10 65q-5 66 27.5 101t80.5 40q22 3 52 3t60-3q46 5 111 47t114 99 50 99q0 27 8 47t18.5 30.5 24 16.5 22 7.5 17.5 1.5q28 0 51-11l3-2q63-31 120-31 30 0 60 8 35 10 63 10 48 0 71-28 19-22 15-52-4-25 0-55 31-60 38-160 1-18 2-22 8-26 7-75t-6-70q-8-38-8-73 0-23-15-36t-35-13h-1l-40.5 0.5t-87.5 1-58 0.5q-22 0-35.5 11.5t-16.5 23.5l-1 5-1 55q-5 2-13 3-16 2-39.5-12t-43.5-31q-26-46-120-53-8-17-22-21.5t-43-5.5h-14zM424 172q6-1 17-1h7q25 1 28 3l0.5 0.5t1 2.5 1.5 4l3 16 17 1q28 0 59.5 8.5t39.5 24.5l2 4 3 3q9 8 23.5 19t44 25.5 52.5 11.5q36-5 47-26 6-12 3-24l1-45q3-3 10-3l187-1q5 0 6 1.5t1 4.5q0 40 10 82 4 19 4.5 62.5t-2.5 54.5q-5 7-7 38-6 93-34 146l-2 6q-7 36-1 73 1 10-5 18-21 24-91 4-35-10-71-10-68 0-140 36l-2 2q-14 7-32 7-7 0-12.5-1.5t-14.5-6.5-14.5-19-6.5-35q-1-53-55.5-120t-128.5-114-131-52h-3q-29 2-59 2-28 0-48-2-12-2-23.5-6.5t-23.5-14-18.5-29-4.5-46.5q2-36 7-51l5-4q15-7 44-8l26-1-6-23q1-6 25-6 28 0 39 6l3 10 14 1h13q16 0 27-2 17-3 24-23l1-1q3-1 8.5-1.5t14.5-0.5q12-1 16-1 9 0 11 1t4 6l4 10 11 3q15 3 29 3 20 0 31-9 7-5 11-13zM574 475.5q0-11.5-8-19.5t-19.5-8-19.5 8-8 19.5 8 19.5 19.5 8 19.5-8 8-19.5zM637 559.5q0-11.5-8-19.5t-19.5-8-19.5 8-8 19.5 8 19.5 19.5 8 19.5-8 8-19.5zM495 417q0-11-8-19.5t-20-8.5-20 8.5-8 20 8 19.5 20 8 20-8 8-20v0z" />
<glyph unicode="&#xe60f;" glyph-name="huazhuangpin" d="M682 579v135l-2 5q-6 17-21 43.5t-38 59.5-48.5 60-56 43.5-57.5 11.5q-82-15-82-209v-149q-25-13-41-38t-16-55v-457q0-43 31-74t74-31h209q44 0 74.5 31t30.5 74v457q0 30-15.5 55t-41.5 38zM425 534h209q17 0 30.5-11t16.5-27h-303q4 16 17 27t30 11zM469 881q27 5 79-56.5t77-120.5v-113h-191v137q0 53 6.5 89.5t14 49 14.5 14.5zM682 29q0-20-14-33.5t-34-13.5h-209q-20 0-34 13.5t-14 33.5v429h305v-429z" />
<glyph unicode="&#xe610;" glyph-name="qichepeijian" horiz-adv-x="1034" d="M917 643h1v119q0 56-39 95t-95 39h-504q-58 0-102-40t-44-94v-119h9q-42-21-71.5-59t-41-75.5-11.5-74.5v-201q0-35 16-66.5t43-51.5q-1-4-1-8v-76q0-14 10.5-24t24.5-10h76q15 0 24 10 10 9 10 24v58h619v-58q0-14 10.5-24t24.5-10h76q15 0 24 10 10 9 10 24v76q0 5-1 10 48 42 48 116v201q0 52-30.5 114.5t-85.5 94.5zM203 762q0 26 24.5 45.5t52.5 19.5h504q27 0 46-19t19-46v-97q-11 1-21 1h-580q-23 0-45-4v100zM780 204h-508v-46h-118q-26 0-46 23t-20 52v201q0 3 0.5 10t4 23 9.5 32 18 34 28 31.5 42.5 23 57.5 9.5h580q36 0 64.5-20t43-48.5 21.5-53 7-41.5v-201q0-30-14.5-52.5t-39.5-22.5h-130v46zM269 513q-49 0-83.5-34.5t-34.5-83.5 34.5-83.5 83.5-34.5 83.5 34.5 34.5 83.5-34.5 83.5-83.5 34.5zM269 346q-20 0-34.5 14.5t-14.5 34.5 14.5 34.5 34.5 14.5 34.5-14.5 14.5-34.5-14.5-34.5-34.5-14.5zM782 513q-47 0-80.5-33.5t-33.5-80.5 33.5-80.5 80.5-33.5 80.5 33.5 33.5 80.5-33.5 80.5-80.5 33.5zM782.5 354q-18.5 0-32 13.5t-13.5 32 13.5 31.5 32 13 31.5-13 13-31.5-13-32-31.5-13.5z" />
<glyph unicode="&#xe611;" glyph-name="jiafangjiashi" d="M354 505h343q34 0 58.5 24.5t24.5 59.5v267q0 35-24.5 59.5t-58.5 24.5h-343q-35 0-59.5-24.5t-24.5-59.5v-267q0-35 24.5-59.5t59.5-24.5zM327 856q0 12 8 19.5t19 7.5h343q11 0 19-7.5t8-19.5v-267q0-11-8-19t-19-8h-343q-11 0-19 8t-8 19v267zM927 619h-55q-36 0-64-26.5t-28-60.5v-50q-14 4-26 4h-457q-13 0-27-4v50q0 36-23.5 61.5t-57.5 25.5h-55q-35 0-63-26.5t-28-60.5v-459q0-34 28-65.5t63-31.5h61v-38h75v38h529v-38h76v38h52q34 0 57 30.5t23 66.5v459q0 37-23 62t-57 25zM270 403q0 11 8 19t19 8h457q11 0 18.5-8t7.5-19v-135q0-12-7.5-19.5t-18.5-7.5h-457q-11 0-19 8t-8 19v135zM950 73q0-14-7.5-27t-15.5-13h-793q-10 0-22 14t-12 26v459q0 11 11 20.5t23 9.5h55q11 0 17.5-9t6.5-21v-348h624v348q0 10 11.5 20t23.5 10h55q11 0 17-9t6-21v-459z" />
<glyph unicode="&#xe612;" glyph-name="jujia" d="M976 400q0 91-77 123-33 14-85 16v0h-734v-290q0-107 41-170.5t101-90.5h-92v-50h651v50h-108q39 16 67 45 26 27 43 62t22.5 68.5 7.5 51.5 1 30q77 6 119.5 47t42.5 108zM704 68q-45-46-121-46h-293q-5 0-11.5 1t-23 6.5-31.5 14-33 26-31 40-21.5 59-8.5 80.5v240h634v-255.5t-3-31.5-8.5-44-18-46.5-30.5-43.5zM814 296v193q41-2 66-12 46-19 46-77 0-95-112-104zM263 940h50v-334h-50v334zM430 940h50v-334h-50v334zM581 940h50v-334h-50v334z" />
<glyph unicode="&#xe613;" glyph-name="yiyaobaojian" d="M781 940h-509q-37 0-63-26t-26-63v-77q0-37 26-63t63-26h509q36 0 62 26t26 63v77q0 37-26 63t-62 26zM811 774q0-13-9-21.5t-21-8.5h-509q-12 0-21 8.5t-9 21.5v77q0 13 9 21.5t21 8.5h509q12 0 21-8.5t9-21.5v-77zM781 666h-509q-37 0-63-26t-26-63v-548q0-37 26-63t63-26h509q36 0 62 26t26 63v548q0 37-26 63t-62 26zM811 29q0-13-9-21.5t-21-8.5h-509q-12 0-21 8.5t-9 21.5v548q0 12 9 21t21 9h509q12 0 21-9t9-21v-548zM632 482q-12 2-23 2-48 0-85-34-36 34-84 34-11 0-23-2-34-6-58.5-27.5t-33.5-53.5q-11-37 0.5-74.5t40.5-64.5q45-40 121-115l37-37 21 20 16 16q75 74 121 116 30 27 41 64.5t1 74.5q-10 32-34 53.5t-58 27.5zM643 306q-47-43-119-114-72 72-118 114-17 15-23.5 36.5t-0.5 41.5q9 34 45 40 7 1 13 1 38 0 59-36l25-43 26 43q21 36 59 36 6 0 13-1 36-6 45-40 6-20-1-41.5t-23-36.5z" />
<glyph unicode="&#xe615;" glyph-name="nanzhuang" horiz-adv-x="1031" d="M999 897h-945q-13 0-22-9t-9-22v-294q0-13 9-22.5t22-9.5h116v-514q0-13 9-22t22-9h651q13 0 22 9t9 22v514h116q13 0 22 9.5t9 22.5v294q0 13-9 22t-22 9zM683 834q-7-47-36-77-38-40-113-40-40 0-70.5 11.5t-48 31-26.5 37-13 37.5h307zM233 58v42h588v-42h-588zM967 603h-115q-13 0-22-9t-9-22v-430h-588v430q0 13-9.5 22t-22.5 9h-115v231h247q4-19 10.5-37.5t22-41.5 36-40 55-28.5 77.5-11.5q93 0 144 53 39 42 48 106h241v-231z" />
<glyph unicode="&#xe617;" glyph-name="xie" horiz-adv-x="1031" d="M816 468h-106q-90 0-133 46-41 43-39 111v213q0 13-10 23t-24 10h-448q-14 0-23.5-10t-9.5-23v-773q0-19 16-29 10-16 29-16h929q14 0 24 10t10 24v191q0 47-15.5 86t-38.5 63-53 41-56.5 24-51.5 9zM90 804h381v-177q1-3 0-11.5t2-26.5 7.5-37 17-42 29.5-41q64-68 183-68h104q7-1 18-2.5t36.5-11.5 44.5-25 35-45.5 16-71.5v-46h-874v605zM964 87h-874v45h874v-45zM380.5 765q-12.5 0-21.5-9t-9-22 9-22 21.5-9 21.5 9 9 22-9 22-21.5 9zM380.5 663q-12.5 0-21.5-8.5t-9-21.5 9-22 21.5-9 21.5 9 9 22-9 21.5-21.5 8.5zM380.5 562q-12.5 0-21.5-9t-9-21.5 9-21.5 21.5-9 21.5 9 9 21.5-9 21.5-21.5 9z" />
<glyph unicode="&#xe61a;" glyph-name="nvxie" d="M348-20q-145 0-235 85-48 45-71 91t-15 85q9 54 70 80 64 27 155 36.5t158 9.5q125 218 237 338 59 63 105.5 102t62.5 47 24 9l6 2 6-1q104-27 135-105 10-26 11.5-55.5t-4.5-58-14.5-54-21-50.5-20.5-40-16-28q-24-38-35-178.5t-9-273.5v-27h-120l2 29 0.5 8t1.5 22 1.5 32.5 1 40.5 1 45 0 47-1.5 46-3 42.5-5 35.5q-16 86-44 86-15 0-40-19-10-7-18-23t-17-46-13-45.5-14-55.5q-9-38-14-58t-14.5-50.5-18-48.5-21.5-35.5-28-25.5q-63-41-165-41zM419 313q-33 0-73-2t-112.5-12-116.5-28q-33-14-38-39t14-58.5 56-68.5q76-71 199-71 85 0 138 32 16 9 30.5 43t22 62.5 19.5 79.5q11 46 16 65.5t15.5 52.5 22.5 52 27 30q39 30 72 30 20 0 36.5-10.5t26-23.5 17.5-35 10.5-32 5.5-28q18-85 7-305h8q0 374 54 455 6 9 12.5 20.5t17.5 32 18.5 43 14 47 6 49-9.5 44.5q-18 50-89 71-53-27-159-141-57-60-117.5-148.5t-87-133.5-33.5-59l-7-14h-23z" />
<glyph unicode="&#xe61b;" glyph-name="wanbiao" d="M715 399h-256v171h53v-117h203v-54zM800 535v55q0 53-33 94t-84 52v96q0 37-26.5 63.5t-63.5 26.5h-183q-37 0-63.5-26.5t-26.5-63.5v-94q-55-8-91.5-49.5t-36.5-98.5v-308q0-57 36.5-98.5t91.5-49.5v-116q0-36 26.5-62.5t63.5-26.5h183q37 0 63.5 26.5t26.5 62.5v118q51 11 84 52t33 94v98q43 27 43 76v4q0 50-43 75zM410 869h183q15 0 25.5-11t10.5-26v-91h-256v91q0 15 10.5 26t26.5 11zM593-17h-183q-16 0-26.5 10.5t-10.5 25.5v114h256v-114q0-15-10.5-25.5t-25.5-10.5zM747 282q0-40-28.5-68.5t-68.5-28.5h-309q-40 0-68.5 28.5t-28.5 68.5v308q0 40 28.5 68.5t68.5 28.5h309q40 0 68.5-28.5t28.5-68.5v-308z" />
<glyph unicode="&#xe61c;" glyph-name="neiyi" d="M972 367q-13 42-26 71-11 21-25 73-11 40-20 129-3 37-5 56t-7 47.5-11.5 44.5-18 31-26.5 22q-25 10-42 10-34 0-53-28-9-16-9-36.5t9-38.5q49-89 75.5-164.5t18.5-91.5q-6-9-20-9h-15q-4 0-11.5 1t-12.5 1q-61 0-121-32-34-18-66-58-14-15-19.5-21t-18-11-29-5-23.5 4.5-18 19.5q-25 35-55 55-49 34-131 34-19 0-49-2-12-2-32-2-10 0-14 2l0.5 1t0.5 2l1 4q0 2 9 46.5t21 104.5 21 92q8 31 5 59.5t-16 45.5q-17 20-38 20-32 0-53-39-15-30-18-64t2-59q5-43 1-64-1-11-2-28.5t-1-20.5q-1-36-5.5-54t-18.5-33q-40-37-58-106.5t-12-161.5q4-54 26.5-101t68-79.5 106.5-32.5q62 0 132 36 32 16 57 36t38.5 36 23.5 38 13.5 32.5 7.5 28.5q9-39 30-78 28-56 93.5-93.5t136.5-37.5q75 0 131 42 49 35 71 93.5t20.5 116.5-19.5 116zM785 773q-6 10-1 22 3 3 7 3 8 0 20-5 25-12 37-153-25 65-63 133zM195 779q2 4 3 5 8-21-2-51-1-7-5-24t-6-25v2q-3 24-1.5 49t11.5 44zM867 82q-42-31-99-31-56 0-108 29.5t-74 73.5q-23 46-28 81-2 9-3.5 13.5t-6 13-13.5 13-21 4.5q-7 0-13-1-15-2-25-13t-13.5-20.5-5.5-24.5q-5-20-9-32t-15.5-32-33-38-53.5-35q-62-29-109-29-65 0-103.5 48t-43.5 115q-6 79 7.5 138t44.5 88q1 2 3 3 2-5 5-8 16-22 60-22 5 0 17 0.5t18 0.5q30 2 46 2 66 0 102-24 23-16 41-43 12-15 19-22.5t25-15.5 41-8q28 0 50 10t31 19 25 27q25 30 51 45 49 25 96 25 14 0 21-1 3 0 8.5-0.5t8.5-0.5q43 0 64 31 2 2 2 4 8-26 19-51 7-13 22-62 17-49 19.5-97.5t-14-96-55.5-76.5z" />
<glyph unicode="&#xe61d;" glyph-name="tianmaoguoji" d="M511 874q-91 0-174-35.5t-143-95-95-142.5-35-174 35-174 95-143 143-95.5 174-35.5 174 35.5 143 95.5 95.5 143 35.5 174-35.5 174-95.5 142.5-143 95-174 35.5v0zM892 441h-147q-1 44-8.5 76.5t-24.5 77.5q10 4 18.5 9t14 8 15.5 10 13 9 15 11.5 14 11.5q45-50 66-98.5t24-114.5v0zM496 46q-17 14-31.5 34t-20.5 30.5-22 44.5-19 40q2 1 10 3.5t10 3 8.5 2.5 9 2.5 8 2 8.5 2 8.5 1.5 10 1 10 0.5 11.5 0.5v-168h-1zM527 807q81-68 126-173-3-1-8-2-56-20-97-21l-23 196h2zM574 802q57-9 112.5-37.5t96.5-67.5q-4-4-13.5-11t-13.5-10-11.5-8.5-13-8.5-13.5-7.5-16-7.5q-6 13-12.5 25t-17 26-17.5 22.5-21.5 24-19 20.5-22 22-18.5 18v0zM497 807v-196q-21 1-40 4.5t-28 6.5-37 12q2 5 10.5 25t11 26 10 22.5 11.5 23.5 12 20 14.5 21 15.5 17.5 19 17.5h1zM343 644q-44 18-89 53 92 88 195 105-67-66-106-158v0zM381 586q28-10 40-13.5t32.5-7.5 43.5-5v-119h-146q1 41 7.5 71t22.5 74v0zM497 390v-125q-21-1-39.5-4t-29-6-37.5-12q-3 9-12.5 30.5t-12 28-7.5 23-6.5 31-1.5 34.5h146zM449 51q-105 18-185 86 43 30 90 48 37-76 95-134v0zM525 46l23 168h12t12-1 9.5-1.5 10-2 9-2 10-2.5 9-2.5 11-3.5 11.5-4q-44-89-115-149h-2zM691 185q14-5 24.5-12.5t21.5-18 22-17.5q-81-68-185-86 6 6 29.5 28.5t35 35 27.5 33 25 37.5v0zM653 243q-26 9-36.5 12t-29 6-39.5 4v125h146q0-20-2-34.5t-6.5-31-7-23-12-28-13.5-30.5v0zM548 441v119q23 1 43 5t32 7.5 40 13.5q16-44 23-74t8-71h-146zM235 654q49-38 97-59-16-45-23.5-77.5t-8.5-76.5h-169q2 63 27.5 109.5t76.5 103.5v0zM131 390h169q0-17 2-32.5t4-25.5 7-25 7.5-21 10.5-25 11-27q-51-21-99-55-30 30-46 48t-33 44-24.5 54.5-8.5 64.5v0zM780 179q-11 8-24.5 20t-25.5 20-28 15q4 8 12 27t10.5 25 7.5 21 7 25 3.5 25.5 2.5 32.5h147q-2-36-9.5-64.5t-24.5-54.5-32.5-44-45.5-48v0z" />
<glyph unicode="&#xe625;" glyph-name="tianmaofenqi" d="M882 402v265q0 29-14.5 55.5t-40.5 41.5l-255 153q-27 16-58.5 16t-58.5-16l-255-153q-26-15-40.5-41.5t-14.5-55.5v-313q0-29 14.5-55.5t40.5-41.5l255-153q27-17 58.5-17t58.5 17l258 153q10 7 10 18 0 9-6 15t-15 6q-5 0-11-3v0l-258-153q-36-22-73 0l-255 153q-35 21-35 61v313q0 40 35 61l255 153q37 22 73 0l255-153q35-21 35-61v-265q0-9 6-15t15-6 15 6 6 15v0zM714 658q0 26-15.5 44t-37.5 18h-295q-22 0-37.5-18t-15.5-44v-66h401v66zM672 634h-317v24q0 8 4 13.5t7 5.5h295q3 0 7-5.5t4-13.5v-24zM313 371q0-26 15.5-44t37.5-18h295q22 0 37.5 18t15.5 44v190h-401v-190zM355 518h317v-147q0-8-4-14t-7-6h-295q-3 0-7 6t-4 14v147zM404 419v-1h42q8 1 13.5 7t5.5 14-5.5 14-13.5 7v0h-42q-8-1-13.5-7t-5.5-14 5.5-13.5 13.5-6.5zM492 419v-1h42q8 1 13.5 7t5.5 14-5.5 14-13.5 7v0h-42q-8-1-13-7t-5-14 5-13.5 13-6.5zM580 419v-1h42q8 1 14 7t6 14-6 14-14 7v0h-42q-8-1-13-7t-5-14 5-13.5 13-6.5z" />
<glyph unicode="&#xe626;" glyph-name="jisutuikuan" d="M880 403v263q0 30-15 56t-40 41l-255 153q-27 16-58 16t-58-16l-255-153q-25-15-40-41t-15-56v-311q0-30 15-56t40-41l255-153q27-16 58-16t58 16l257 153q10 6 10 18 0 9-6 15t-15 6q-5 0-10-3v0l-257-153q-37-22-74 0l-254 153q-35 20-35 61v311q0 41 35 61l254 153q37 22 74 0l254-153q34-20 34-61v-264q0-8 6.5-14.5t15-6.5 15 6.5 6.5 14.5v1zM419 279q-3-15 7-26 9-11 24-11v0q17 0 26 13l255 286 2 4q9 15 0 31-8 14-24 16l-173 43 38 117 1 5q1 14-9 23-9 10-24 9.5t-23-11.5l-219-203-4-5q-9-15 0-32 8-15 25-16l173-29-74-211zM538 493l1 3q3 15-6 26-9 10-22 11l-164 28 173 161-28-88-1-6q-1-13 8-23 8-8 20-9l167-42-208-233z" />
<glyph unicode="&#xe627;" glyph-name="tuihuobaozhang" d="M880 404v264q0 30-15 56t-40 42l-255 153q-27 16-58.5 16t-58.5-16l-255-153q-26-16-41-42t-15-56v-312q0-30 15-56t41-42l255-153q27-16 58.5-16t58.5 16l257 154q11 6 11 18 0 9-6.5 15t-15.5 6q-5 0-10-3v0l-258-153q-17-11-37-11t-37 11l-255 153q-34 20-34 61v312q0 41 34 61l255 153q37 22 74 0l255-153q35-20 35-61v-264q0-9 6-15t14.5-6 15 6 6.5 15v0zM742 458q9 0 15.5 6.5t6.5 15.5v23q0 113-61 179.5t-171 72.5v13q0 9-6 15t-15 6-15-6-6-15v-13q-46-3-86.5-20t-74-47-52.5-77.5-19-107.5v-23q0-9 6.5-15.5t16-6.5 16 6.5 6.5 15.5v2q0 14 10 24.5t24.5 10.5 25-10.5 10.5-24.5h1v-2q0-9 6.5-15.5t15.5-6.5 15.5 6.5 6.5 15.5v2h1q0 14 10 24.5t25 10.5 25.5-10 11.5-25v0-174q-1-13-10-22t-21.5-9-22 9-9.5 22v4q0 9-6.5 15t-15 6-15-6-6.5-15v-3q0-30 22-52t52.5-22 52 22 21.5 52v0 167q1 4 1 6 0 14 10 24.5t24.5 10.5 25-10.5 10.5-24.5v0 0 0-2q0-9 6.5-15.5t16-6.5 16 6.5 6.5 15.5q0 1-0.5 1.5l-0.5 0.5h1q0 14 10 24.5t25 10.5 25-10.5 10-24.5h1l-0.5-0.5t-0.5-1.5q0-9 7-15.5t16-6.5zM684 562q-34 0-58-25-23 25-57 25t-58-25q-23 25-57 25t-58-26q-24 26-58 26-17 0-33-8 10 55 44 92.5t75 52 87 14.5q21 0 41.5-2.5t48.5-12.5 50.5-26 41-47 25.5-71q-17 8-34 8z" />
<glyph unicode="&#xe628;" glyph-name="huiyuanqia" d="M933 747q0 35-25 60t-60 25h-672q-35 0-60-25t-25-60v-475q0-35 25-60t60-25h672q35 0 60 25t25 60v248q-1 0-1 0.5v1t0.5 1l0.5 0.5v224zM146 743q0 14 10 24.5t25 10.5h662q15 0 25-10.5t10-24.5v-19h-732v19zM146 671h732v-51h-732v51zM878 276q0-14-10-24.5t-25-10.5h-662q-15 0-25 10.5t-10 24.5v291h732v-44l0.5-0.5t0.5-1-0.5-1l-0.5-0.5v-244zM751 408v-136h29v48h27q51 1 52 46-3 40-50 42h-58zM829 365q0-20-24-20h-25v39h25q23-1 24-19zM699 408h29v-136h-29v136zM623 306q-9 23-37 99l-1 3h-31l55-136h27l55 136h-32l-1-3q-27-76-35-99zM213 385q-8 0-13-5t-5-12v-55q0-7 5-12.5t13-5.5h55q7 0 12 5.5t5 12.5v55q0 7-5 12t-12 5h-55z" />
<glyph unicode="&#xe629;" glyph-name="jifen" d="M512 525q111 0 202 22.5t142.5 62.5 51.5 88.5-51.5 88.5-142.5 62.5-202 22.5-202-22.5-142.5-62.5-51.5-88.5 51.5-88.5 142.5-62.5 202-22.5zM171 698q0 19 24 39.5t66.5 38.5 108.5 29.5 142 11.5 142-11.5 108.5-29.5 66.5-38.5 24-39.5-24-39.5-66.5-38-108.5-29-142-11.5-142 11.5-108.5 29-66.5 38-24 39.5zM871 399l-1 1q-8 6-17 6-10 0-17.5-7.5t-7.5-18.5q0-10 7-17l1-1q18-19 18-37 0-19-24-40t-66.5-39-109-29.5-142.5-11.5-142.5 11.5-109 29.5-66.5 39-24 40q0 21 18 37l1 1q1 0 1 1 6 7 6 16 0 11-7.5 18.5t-17.5 7.5-17-6l-1-1q-36-35-36-74 0-49 51.5-88.5t142-62 201.5-22.5 201.5 22.5 142 62 51.5 88.5q0 39-35 73l-0.5 0.5zM870 589q-8 6-17 6-10 0-17.5-7.5t-7.5-18.5q0-10 7-18 1 0 1-1 18-18 18-37t-24-39.5-66.5-38.5-109-29.5-142.5-11.5-142.5 11.5-109 29.5-66.5 38.5-24 39.5q0 21 18 37l1 1q1 1 1 2 6 7 6 16 0 11-7.5 18.5t-17.5 7.5-17-7q-1 0-1-1-36-34-36-74 0-48 51.5-87.5t142-62 201.5-22.5 201.5 22.5 142 62 51.5 87.5q0 39-36 75-1 0-1 1z" />
<glyph unicode="&#xe62a;" glyph-name="wode" d="M900 126q-6 81-44.5 153.5t-102.5 122.5l-5 4q-8 4-16 4-32 0-32-25 0-14 12-24v0l4-3q109-78 121-233v-3q0-13 9-22.5t22-9.5 22 9 9 21h1v6zM799 652q0 117-84.5 200t-203 83-202.5-83-84-200q0-63 27-119.5t76-96.5q-88-47-142.5-131t-61.5-183v-7q0-11 8-18.5t19-7.5 18.5 7.5 7.5 18.5v1h1v6q7 93 62 169t140 110q69-32 132-32 65 0 124 28l29 17 24 16q52 40 81 98.5t29 123.5zM512 426q-95 0-162 66.5t-67 160 67 159.5 162 66 162-66 67-159.5-67-160-162-66.5z" />
<glyph unicode="&#xe62b;" glyph-name="hongbao" d="M443 317h-70q-16 0-27.5-8.5t-11-21.5 11.5-22 27-9h70q16 0 27 9t11 22-11 21.5-27 8.5zM897 219v622q0 21-15 35t-36 14h-203q-19 0-33-11t-18-29q-6-27-29-45t-52.5-18-53 18-28.5 45q-4 18-18.5 29t-32.5 11h-203q-21 0-36.5-14t-15.5-35v-660l1-1v-21q0-21 15-35t36-14h671q21 0 36 14t15 35v60zM814 160h-600q-22 0-30.5 8t-8.5 29v60q1 0 2.5-0.5t2.5-0.5h70q16 0 27 9t11 22-11 21.5-27 8.5h-75v498q0 11 8 18.5t18 7.5l158-1q18 0 24-16 14-39 49-63t78.5-24 78.5 24.5 49 62.5q6 17 24 17h157q11 0 18.5-7.5t7.5-18.5v-499l-3 0.5t-4 0.5h-70q-16 0-27-8.5t-11-21.5 11-22 27-9h70q2 0 5 1h2v-51q0-23-6.5-34.5t-24.5-11.5v0zM640 317h-69q-16 0-27.5-8.5t-11.5-21.5 11.5-22 27.5-9h69q16 0 27.5 9t11 22-11.5 21.5-27 8.5zM529 368h1v90h91v1q15 5 15 21 0 9-6 15t-15 6h-85v34h91v1q15 5 15 21 0 9-6 15t-15 6h-85v19l89 86 4 4-1 1q3 4 3 10 1 9-5 16-6 6-15 6.5t-16-5.5l-80-79-85 84q-6 5-15 4.5t-15-6.5q-11-12-2-26l-1-1 96-93v-20h-91v-1q-15-5-15-20.5t15-20.5v-1h91v-34h-91v-1q-15-4-15-20t15-21v-1h91v-90h1q5-15 21-15t20 15z" />
<glyph unicode="&#xe631;" glyph-name="youjiantou" d="M695 410v1l-10 10-295 294q-5 5-10 0l-10-10q-5-5 0-10l289-289-289-289q-5-6 0-11l10-10q5-5 10 0l306 306q2 5-1 8z" />
<glyph unicode="&#xe632;" glyph-name="shuaxin" d="M957 299q0 1-1 3t-3 4q-4 5-9 8v1.5t1 1.5h-293q-12 0-20-8t-8-20 8-20 20-8h213q-48-101-143-162.5t-210-61.5q-147 0-257 96.5t-130 239.5h-57q14-109 76-198.5t159-141.5 209-52q124 0 228.5 63t162.5 168v-203q0-11 8.5-19.5t20-8.5 19.5 8.5 8 19.5v280q0 4-2 10zM80 544q0-1-0.5-2l-0.5-1h293q12 0 20 8t8 19.5-8 20-20 8.5h-214q48 101 143.5 162t210.5 61q147 0 256.5-96t130.5-239h56q-13 109-75 198.5t-159 141-209 51.5q-124 0-228.5-63t-163.5-168v203q0 12-8 20t-19.5 8-20-8-8.5-20v-279q0-5 2-10 1-1 2-3t3-4q4-5 9-8z" />
<glyph unicode="&#xe633;" glyph-name="shuaxin1" d="M823 134l81-81-250-46 46 250 80-80q66 71 89 164t-2 186-95 162q-64 65-152 91.5t-178 8.5l-12 61q106 20 208-11t178-107q81-81 110.5-189.5t2-217.5-105.5-191zM217 648q-53-72-68-159t11.5-172 90.5-150q60-60 139-87t164-18l7-61q-99-11-191 21t-162 102q-76 76-107 177t-11.5 204 84.5 186l-83 84 250 45-46-250z" />
<glyph unicode="&#xe634;" glyph-name="shuaxin2" d="M932 465h-56q-19 134-121.5 224t-239.5 90q-104 0-192-54-19-11-19-32 0-15 10.5-26t26.5-11q11 0 21 7 70 43 153 43 107 0 188-68.5t99-172.5h-63q-5 0-9-4t-4-10q0-4 2-7l96-166q4-7 11.5-7t11.5 7v0l96 166q2 3 2 7 0 6-4 10t-9 4zM715 192q-15 0-25-10v0q-78-58-175-58-121 0-206.5 85t-85.5 206v8h63q6 0 10 4t4 9q0 4-2 8l-96 166q-4 6-11.5 6t-11.5-7v0l-96-166q-2-3-2-7 0-5 4-9t9-4h57v-8q0-99 48.5-183t132.5-132.5 183-48.5q123 0 220 74 2 1 3 2l1 1q12 11 12 27 0 15-10.5 26t-25.5 11v0z" />
<glyph unicode="&#xe635;" glyph-name="fanhuidingbu" d="M928 199q-13 0-23 9l-393 393-393-393q-10-9-23-9t-22.5 9-9.5 22.5 9 22.5l416 416q10 10 23 10t23-10l416-416q9-9 9-22.5t-9.5-22.5-22.5-9z" />
<glyph unicode="&#xe637;" glyph-name="loading" d="M129.5 460q9.5 0 16 6.5t6.5 16.5q21 131 123 220t237 89q99 0 183-49.5t132-132.5h-110q-10 0-16.5-6.5t-6.5-16 6.5-16 16.5-6.5h128q4-1 4 0h27q4 0 8 1 3 1 6 4l4 4q2 3 3 6 2 4 2 7v160q0 9-6.5 15.5t-16 6.5-16.5-6.5-7-15.5v-94q-56 85-146 135t-195 50q-153 0-268-100.5t-137-250.5v-4q0-10 6.5-16.5t16-6.5zM898 418q-9 0-15.5-6.5t-6.5-15.5h-1q-12-140-116.5-236t-246.5-96q-106 0-194 56t-133 149h99q10 0 16.5 6.5t6.5 16-6.5 16-16.5 6.5h-159q-9 0-16-6.5t-7-16.5v-159q0-9 7-16t16.5-7 16 7 6.5 16v109q52-101 149.5-162t214.5-61q75 0 137.5 20t103 50 72.5 71 48.5 76.5 28 74 14.5 56.5 3 30q0 9-6 15.5t-15 6.5z" />
<glyph unicode="&#xe638;" glyph-name="feiji" d="M702 808v0q-33 0-61-15l-269-128-45 18q-55 21-120 21-66 0-98-22t-42-51q-11-30 0.5-62t34-57 51-47.5 49.5-34.5 31-16l490-190q21-8 43-8 42 0 78 24.5t52 62.5q3 6 9 24l1 2v2l51 142q13 39-14 67-10 10-23 15l-42 16q-16 7-34 7-44 0-69-33l-2-2-17-26-34 13 119 121q25 29 17 68-10 42-54 59l-58 22q-20 8-44 8v0zM702 748q14 0 24-4l58-23q13-5 17-13.5t-3-16.5l-180-184 159-62 43 63q7 10 24 10 7 0 14-3l42-16q4-2 3-5l-50-142-1-3q-7-18-8-21-9-22-31.5-37t-46.5-15q-12 0-23 5l-491 189q-38 15-90 63t-42 77l1 1q11 33 86 33 55 0 101-17l67-26 291 138q16 9 36 9v0z" />
<glyph unicode="&#xe639;" glyph-name="hongxin" d="M513 779q-14 21-30.5 41t-41.5 42.5-57.5 36-66.5 13.5q-103 0-177-81.5t-74-196.5q0-54 32-121t76-107q58-75 187.5-184.5t152.5-109.5 150 108 186 184q45 42 77 109t32 121q0 115-73.5 196.5t-177.5 81.5q-34 0-66-13.5t-57-36-41.5-42.5-30.5-41v0zM540 706q28 60 74 103.5t94 43.5q79 0 135.5-64.5t56.5-154.5q0-43-27-98.5t-64-88.5l-4-4q-48-63-134-138t-157-127q-205 150-294 266l-4 4q-37 32-63.5 87.5t-26.5 98.5q0 90 56 154.5t135 64.5q48 0 94-43.5t75-103.5q8-16 27-16t27 16v0z" />
<glyph unicode="&#xe63a;" glyph-name="lanzi" d="M830 712h-122l-127 123q2 8 2 17 0 25-18 43t-43.5 18-44-18-18.5-43q0-11 4-21l-123-119h-144q-49 0-90-34.5t-41-80.5v-27q0-26 14.5-51.5t38.5-44.5l45-244q9-47 46.5-83t87.5-36h424q49 0 86.5 38t47.5 87l44 232q27 19 43.5 46t16.5 56v27q0 46-40 80.5t-89 34.5zM524 788l78-76h-156zM134 597q0 18 20.5 33t41.5 15h75l-20-20q-11-10-11-25t11-25.5 26.5-10.5 26.5 10l73 71h294l73-71q11-10 26.5-10t26 10.5 10.5 25.5-10 25l-21 20h54q21 0 40.5-15t19.5-33v-27q0-19-20-39t-40-20h-634q-20 0-41 20t-21 39v27zM787 247q-5-25-24.5-47t-41.5-22h-424q-22 0-41.5 20t-24.5 45l-38 202h632zM374.5 411q-14.5 0-24.5-9.5t-10-23.5v-133q0-14 10-24t24.5-10 24.5 10 10 24v133q0 14-10 23.5t-24.5 9.5zM512 411q-14 0-24-9.5t-10-23.5v-133q0-14 10-24t24-10 24 10 10 24v133q0 14-10 23.5t-24 9.5zM649.5 411q-14.5 0-24.5-9.5t-10-23.5v-133q0-14 10-24t24.5-10 24.5 10 10 24v133q0 14-10 23.5t-24.5 9.5z" />
<glyph unicode="&#xe63b;" glyph-name="shouji" d="M519 264q-22 0-37.5-15.5t-15.5-37 15.5-37 37.5-15.5 37.5 15.5 15.5 37-15.5 37-37.5 15.5zM706 960h-388q-78 0-134-55.5t-56-133.5v-519q0-77 56-132.5t134-55.5h388q79 0 134.5 55.5t55.5 132.5v519q0 78-55.5 133.5t-134.5 55.5zM829 252q0-50-36-86t-87-36h-388q-51 0-87 36t-36 86v44h634v-44zM829 363h-634v408q0 51 36 86.5t87 35.5h383q51 0 89.5-36t38.5-86v-408z" />
<glyph unicode="&#xe63c;" glyph-name="yifu" d="M943 594l-207 204q-3 3-8 6-17 17-41 17h-348q-24 0-41-17-4-2-7-6l-208-204q-17-17-17-41.5t17-41.5l130-128q24-23 56-15l-16-107-1-5q0-17 10-31.5t25-21.5h452q16 7 25.5 21.5t9.5 31.5l-17 112q33-8 57 15l129 128q18 17 18 41.5t-18 41.5zM596 767q-30-72-83-72t-85 72h168zM904 549l-129-128q-3-3-6 0l-90 89 40-255q-1-3-4-3h-403q-4 0-5 3l40 255-89-89q-3-3-6 0l-130 128q-1 1-1 3t1 3l206 203 8 7q2 2 3 2h30q7-20 17-38t27-39.5 43-35 57-13.5 57 13 42.5 35 26 40 16.5 38h32q2 0 3-2l214-210q2-1 2-2.5t-2-3.5z" />
<glyph unicode="&#xe63d;" glyph-name="shuiguo" d="M768 518q-49 0-90-23-18 29-23.5 44t-10.5 41q-12 71 3 139 2 9 4 17h2l-1 4 3 6 9 24h101q12 0 20 8t8 19.5-8 19.5-20 8h-327q-12 0-20-8t-8-19.5 8-19.5 20-8h129q-49-20-93-57-26-23-48-50-48-60-70-113-7-15-11-28-19 3-34 3-102 0-174-72t-72-174 72-174 173.5-72 173.5 72 72 174q0 76-42.5 138t-110.5 90q3 10 8 22 20 47 63 101 18 23 40 42 35 29 77 47-14-74-1-150 6-33 16-56t43-65q4-6 10-9 15-9 29 1 35 27 80 27 55 0 94.5-39.5t39.5-95-39.5-95-95-39.5-94.5 39.5-39 94.5q0 35 17 66 5 9 2 19.5t-12.5 15.5-19.5 2-15-12q-24-42-24-91 0-76 54.5-130.5t131.5-54.5 131 54.5 54 131-54 131-131 54.5zM495 278.5q0-76.5-54-130.5t-130.5-54-130.5 54-54 130.5 54 130.5 130.5 54 130.5-54 54-130.5zM289 393h-4q-3-1-7-2-40-11-64-43-19-25-23-51v0 0q-1-11 5.5-19.5t16.5-9.5 17.5 5 9.5 16v0q2 14 13 28 16 21 43 27v0q20 5 20 24 0 10-8 17.5t-19 7.5z" />
<glyph unicode="&#xe63e;" glyph-name="dianpu" d="M881 697h-740l-77-201q0-45 32.5-77.5t78.5-32.5q47 0 80 32t33 78q0-45 32.5-77.5t78.5-32.5q47 0 80 32t33 78q0-45 32.5-77.5t78.5-32.5q47 0 79.5 32t32.5 78q0-45 33-77.5t79-32.5q47 0 80 32t33 78zM819 351v-256h-614v256h-64v-269q0-17 15.5-34t32.5-17h644q17 0 33 17t16 34v269h-63zM881 698v0l2-1zM192 748h640q16 0 27 11t11 27.5-11 27.5-27 11h-640q-16 0-27-11t-11-27.5 11-27.5 27-11z" />
<glyph unicode="&#xe63f;" glyph-name="miaoxiansheng" d="M590 386q-21-21-26.5-48t-0.5-47 14-35l22 11q-1 3-2.5 8t-2.5 16.5 0.5 21.5 9.5 21 22 17q25 11 20 32-4 19-24 19-16 0-32-16zM207 415q-12 0-27-8-25-15-38-39.5t-11.5-45 4.5-37.5l24 5q0 1-1 7.5t1.5 17 6.5 20.5 14.5 18.5 25.5 11.5q14 2 21.5 10.5t6.5 17.5-8 15.5-19 6.5zM949 751q-10-2-26.5-3.5t-59.5 5-75 24.5q-17 10-50 34-64 47-100 53-16 2-28 2-55 0-85-45-25 31-49 68l-4 6h-7q-4 0-15-9-36-28-64-60t-48-67.5-33-64.5-23.5-69.5-15-63-11.5-63.5q-6-35-9-52-10 6-20 9-8 2-16 3-43 4-78-25-45-38-51-111-4-61 41-109 44-46 112-53t121 30 61 99q9 72-27 118-29 36-72 40-8 1-16 0-7 0-13-2 2 15 8 46 8 48 14 75t18.5 70 32 79.5 46.5 70.5q-11-40-11-76 0-68 41-120 15-19 38-37.5t38.5-29 43.5-26.5l15-9q39-24 57-41-6 1-12 0-43-4-72-40-36-46-27-118 7-62 61-99 44-31 101-31 10 0 20 1 68 7 112 53 45 48 41 109-6 73-51 111-35 29-78 25-8-1-16-3-12-4-23-11-14 26-48 51-18 13-58 37-51 31-74 49-68 55-68 129 0 49 26 112 20-27 41-50-21-75 22-132 50-68 162-68 22 0 46 3 35 4 71 22t61 37.5 49 44 32.5 35.5 13.5 18l18 24zM304 407q4 1 9 0 26-2 44-25 26-33 19-88-5-44-44-71-41-28-94-23t-87 41q-33 35-30 78 4 56 36 83 20 16 43 16h6q5 0 9-2 13-4 26-16l16-15 18 11q15 10 29 11zM659 396l18-11 16 15q13 12 26 16 4 2 9 2 26 3 48-16 32-27 37-83 3-44-30-78-34-36-87.5-41t-93.5 23q-39 27-45 71-6 55 20 88 18 23 44 25 2 1 5 1 2 0 4-1 14-1 29-11zM729 619q-22-2-42-2-80 0-118 39-31 32-28 80 121-104 262-63 12 3 10.5 14t-13.5 11h-3q-135-18-241 89 18 35 54 35 9 0 21-2 27-5 83-46 34-25 54-36 51-29 125-28-90-82-164-91z" />
<glyph unicode="&#xe640;" glyph-name="xingdongdian" d="M818 806q-62 62-143 94.5t-163 32.5-163-32.5-143-94.5-94.5-143-32.5-163 32.5-163 94.5-143.5 143-94.5 163-32 163 32 143 94.5 94.5 143.5 32.5 163-32.5 163-94.5 143zM774 237.5q-53-53.5-122.5-81t-139.5-27.5-139.5 27.5-122.5 80.5q-71 72-96.5 167.5t0 191 96.5 166.5 166.5 96.5 191 0 166.5-96.5q53-53 81-122.5t28-140-28-139.5-81-122.5zM472 706q-9 8-20.5 8t-20-8-8.5-19.5 8-19.5l178-171-177-172q-9-7-9-18.5t8.5-20 20.5-8.5q11 0 20 8l197 191q8 8 8 19.5t-8 19.5z" />
<glyph unicode="&#xe649;" glyph-name="calendar" d="M139 642h750v-58h-750v58zM832 873h-87v86h-58v-86h-346v86h-58v-86h-86q-48 0-82-34t-34-82v-576q0-48 34-82t82-34h635q47 0 81 34t34 82v576q0 48-34 82t-81 34zM889 181q0-24-17-41t-40-17h-635q-24 0-41 17t-17 41v576q0 24 17 41t41 17h86v-86h58v86h346v-86h58v86h87q23 0 40-17t17-41v-576zM445 180h-40v254l-56-4v30l96 12v-292zM653 180h-40v254l-56-4v30l96 12v-292z" />
<glyph unicode="&#xe900;" glyph-name="menu2" d="M512 1024c-282.313 0-512-229.687-512-512s229.687-512 512-512 512 229.687 512 512-229.687 512-512 512zM512 36.571c-262.162 0-475.429 213.285-475.429 475.429s213.266 475.429 475.429 475.429 475.429-213.285 475.429-475.429-213.266-475.429-475.429-475.429zM274.286 713.143h475.429c10.112 0 18.286 8.192 18.286 18.286s-8.174 18.286-18.286 18.286h-475.429c-10.112 0-18.286-8.192-18.286-18.286s8.174-18.286 18.286-18.286zM822.857 457.143h-621.714c-10.112 0-18.286-8.192-18.286-18.286s8.174-18.286 18.286-18.286h621.714c10.112 0 18.286 8.192 18.286 18.286s-8.174 18.286-18.286 18.286zM822.857 603.429h-621.714c-10.112 0-18.286-8.192-18.286-18.286s8.174-18.286 18.286-18.286h621.714c10.112 0 18.286 8.192 18.286 18.286s-8.174 18.286-18.286 18.286zM749.714 310.857h-475.429c-10.112 0-18.286-8.192-18.286-18.286s8.174-18.286 18.286-18.286h475.429c10.112 0 18.286 8.192 18.286 18.286s-8.174 18.286-18.286 18.286z" />
<glyph unicode="&#xe901;" glyph-name="shopping-cart3" d="M429.371 218.342c-49.658 0-90.058-40.4-90.058-90.058s40.4-90.058 90.058-90.058 90.058 40.4 90.058 90.058c-0.002 49.658-40.402 90.058-90.058 90.058zM429.371 88.514c-21.932 0-39.774 17.844-39.774 39.774 0 21.932 17.844 39.774 39.774 39.774s39.774-17.844 39.774-39.774c0-21.934-17.844-39.774-39.774-39.774zM745.261 218.342c-49.658 0-90.058-40.4-90.058-90.058s40.4-90.058 90.058-90.058 90.058 40.4 90.058 90.058c-0.002 49.658-40.402 90.058-90.058 90.058zM745.261 88.514c-21.932 0-39.774 17.844-39.774 39.774 0 21.932 17.844 39.774 39.774 39.774 21.932 0 39.774-17.844 39.774-39.774 0-21.934-17.844-39.774-39.774-39.774zM767.433 692.489h-360.299c-13.886 0-25.142-11.256-25.142-25.142s11.258-25.142 25.142-25.142h360.299c13.886 0 25.142 11.256 25.142 25.142 0 13.888-11.256 25.142-25.142 25.142zM747.823 561.929h-321.077c-13.886 0-25.142-11.256-25.142-25.142s11.256-25.142 25.142-25.142h321.075c13.886 0 25.142 11.256 25.142 25.142 0 13.884-11.256 25.142-25.14 25.142zM1012.684 804.512c-9.588 11.768-23.796 18.516-38.978 18.516h-783.15l-15.816 76.778c-3.302 16.016-14.226 29.464-29.228 35.978l-110.354 47.9c-12.74 5.534-27.546-0.312-33.072-13.048-5.532-12.74 0.314-27.548 13.048-33.074l110.356-47.902 121.652-590.523c4.792-23.256 25.504-40.136 49.25-40.136h602.333c13.886 0 25.142 11.256 25.142 25.142s-11.256 25.142-25.142 25.142h-602.331l-14.798 71.832h621.785c23.744 0 44.458 16.88 49.248 40.136l70.326 341.351c3.062 14.864-0.682 30.142-10.272 41.908zM903.382 431.397h-632.143l-70.322 341.349 772.788-0.002-70.322-341.347z" />
<glyph unicode="&#xe902;" glyph-name="shopping-cart-set" d="M967.4 188.4h-650.8l-19 80.4h575.2c9.6 0 18 6.6 20.2 16l77 325.4c2.4 7.4-1.6 25.4-20.2 25.6h-153.4c-0.8 3.6-2.6 7.2-5.6 10.2l-13.6 13.6c1.8 4 3.4 8 5 12h19.2c11.6 0 20.8 9.4 20.8 20.8v118.4c0 11.6-9.4 20.8-20.8 20.8h-19.2c-1.6 4-3.2 8-5 12l13.6 13.6c4 4 6.2 9.2 6.2 14.8s-2.2 10.8-6.2 14.8l-83.8 83.8c-8.2 8.2-21.4 8.2-29.4 0l-13.6-13.6c-4 1.8-8 3.4-12 5v19.2c0 11.6-9.4 20.8-20.8 20.8h-118.4c-11.6 0-20.8-9.4-20.8-20.8v-19.2c-4-1.6-8-3.2-12-5l-13.6 13.6c-8.2 8.2-21.4 8.2-29.4 0l-83.8-83.8c-8.2-8.2-8.2-21.4 0-29.4l13.6-13.6c-1.8-4-3.4-8-5-12h-19.2c-11.6 0-20.8-9.4-20.8-20.8v-118.4c0-11.6 9.4-20.8 20.8-20.8h19.2c1.6-4 3.2-8 5-12l-13.6-13.6c-2.8-2.8-4.8-6.4-5.6-10.2h-136.8l-43.4 183.4c-2.2 9.4-10.6 16-20.2 16h-90.6c-11.6 0-20.8-9.4-20.8-20.8 0-11.6 9.4-20.8 20.8-20.8h73.6l149.6-630.8c2.2-9.4 10.6-16 20.2-16h81.6c-12.8-13.2-20.8-31.4-20.8-51.2 0-40.6 33-73.6 73.6-73.6s73.6 33 73.6 73.6c0 19.8-8 38-20.8 51.2h241.8c-12.8-13.2-20.8-31.4-20.8-51.2 0-40.6 33-73.6 73.6-73.6s73.6 33 73.6 73.6c0 19.8-8 38-20.8 51.2h133c11.6 0 20.8 9.4 20.8 20.8-0.2 11.4-9.4 20.6-21 20.6zM363.2 713.2v76.8h13.2c9.2 0 17.4 6 20 14.8 3.4 11.6 8.2 22.6 13.8 33.2 4.4 8.2 2.8 18.2-3.6 24.6l-9.4 9.4 54.2 54.2 9.4-9.4c6.4-6.6 16.4-8 24.6-3.6 10.6 5.6 21.8 10.2 33.2 13.8 8.8 2.6 14.8 10.8 14.8 20v13.2h76.8v-13.2c0-9.2 6-17.4 14.8-20 11.4-3.4 22.6-8.2 33.2-13.8 8-4.2 18-2.8 24.6 3.6l9.4 9.4 54.4-54.2-9.4-9.4c-6.4-6.4-8-16.4-3.6-24.6 5.6-10.6 10.2-21.8 13.8-33.2 2.6-8.8 10.8-14.8 20-14.8h13.2v-76.8h-13.2c-9.2 0-17.4-6-20-14.8-3.4-11.4-8.2-22.6-13.8-33.2-4.4-8.2-2.8-18.2 3.6-24.6l4.8-4.8h-340.2l4.8 4.8c6.4 6.4 8 16.4 3.6 24.6-5.6 10.6-10.2 21.8-13.8 33.2-2.6 8.8-10.8 14.8-20 14.8h-13.2zM220.4 594h703l-67.2-283.4h-568.6l-67.2 283.4zM434.4 63.8c-17.6 0-31.8 14.2-31.8 31.8s14.2 31.8 31.8 31.8c17.6 0 31.8-14.2 31.8-31.8s-14.2-31.8-31.8-31.8zM781.8 63.8c-17.6 0-31.8 14.2-31.8 31.8s14.2 31.8 31.8 31.8c17.6 0 31.8-14.2 31.8-31.8s-14.4-31.8-31.8-31.8zM571.8 669.4c45.4 0 82.2 36.8 82.2 82.2s-36.8 82.2-82.2 82.2c-45.4 0-82.2-36.8-82.2-82.2s37-82.2 82.2-82.2zM571.8 792.2c22.4 0 40.4-18.2 40.4-40.6s-18.2-40.6-40.4-40.6c-22.4 0-40.6 18.2-40.6 40.6 0.2 22.4 18.4 40.6 40.6 40.6z" />
<glyph unicode="&#xe903;" glyph-name="big-lifesaver" d="M1024 512c0 82.784-20.056 164.308-58.143 237.144 1.976 2.474 3.459 5.342 4.293 8.461 1.589 5.94 0.751 12.267-2.328 17.589-19.206 33.194-41.979 64.056-67.709 92.155l10.991 10.991c9.047 9.047 9.047 23.716 0 32.766-9.049 9.045-23.714 9.045-32.766 0l-10.981-10.981c-28.1 25.753-58.956 48.533-92.132 67.732-8.405 4.865-18.754 3.83-26.066-1.999-72.843 38.087-154.371 58.143-237.158 58.143-82.782 0-164.306-20.056-237.142-58.143-2.474 1.978-5.342 3.459-8.463 4.293-5.94 1.592-12.267 0.753-17.589-2.328-33.194-19.206-64.056-41.979-92.155-67.709l-10.991 10.991c-9.047 9.045-23.716 9.045-32.766 0-9.047-9.047-9.047-23.716 0-32.766l10.984-10.984c-25.755-28.1-48.536-58.954-67.732-92.132-4.872-8.419-3.827-18.768 1.999-26.073-38.090-72.836-58.146-154.362-58.146-237.149 0-82.782 20.056-164.308 58.143-237.144-1.976-2.474-3.457-5.34-4.293-8.461-1.589-5.938-0.751-12.267 2.328-17.589 19.206-33.194 41.979-64.056 67.709-92.155l-10.991-10.991c-9.047-9.047-9.049-23.716 0-32.766 4.525-4.522 10.453-6.786 16.382-6.786s11.859 2.263 16.382 6.786l10.984 10.984c28.1-25.753 58.954-48.533 92.132-67.732 3.619-2.094 7.597-3.097 11.54-3.097 5.22 0 10.367 1.772 14.533 5.095 72.841-38.087 154.367-58.143 237.151-58.143 82.782 0 164.306 20.056 237.142 58.143 2.474-1.978 5.342-3.459 8.461-4.293 1.972-0.528 3.982-0.788 5.986-0.788 4.038 0 8.046 1.056 11.602 3.116 33.194 19.206 64.056 41.979 92.155 67.709l10.991-10.991c4.525-4.522 10.453-6.786 16.382-6.786s11.857 2.263 16.382 6.786c9.047 9.047 9.047 23.716 0 32.766l-10.981 10.981c25.753 28.1 48.533 58.956 67.732 92.132 4.865 8.405 3.83 18.754-2.002 26.066 38.092 72.843 58.15 154.371 58.15 237.158zM926.391 299.504l-137.777 79.545c19.424 40.246 30.315 85.351 30.315 132.953s-10.891 92.704-30.315 132.951l137.774 79.543c33.57-65.418 51.276-138.381 51.276-212.496 0-74.113-17.705-147.076-51.274-212.496zM512 251.406c-143.691 0-260.594 116.903-260.594 260.594s116.903 260.594 260.594 260.594 260.594-116.903 260.594-260.594-116.903-260.594-260.594-260.594zM765.368 685.033c-21.571 31.487-48.849 58.764-80.335 80.335l86.764 150.285c57.536-37.119 106.67-86.271 143.819-143.874l-150.248-86.746zM724.499 926.391l-79.545-137.777c-40.246 19.424-85.351 30.315-132.953 30.315-47.6 0-92.704-10.891-132.951-30.315l-79.545 137.774c65.42 33.572 138.384 51.276 212.496 51.276 74.11 0 147.076-17.705 212.499-51.274zM252.221 915.618l86.748-150.25c-31.487-21.571-58.764-48.849-80.335-80.335l-150.285 86.767c37.119 57.536 86.271 106.667 143.872 143.819zM97.609 724.499l137.777-79.545c-19.421-40.246-30.315-85.353-30.315-132.953s10.891-92.704 30.315-132.951l-137.777-79.545c-33.57 65.42-51.274 138.384-51.274 212.496 0 74.115 17.705 147.078 51.274 212.499zM258.632 338.967c21.571-31.487 48.849-58.764 80.335-80.335l-86.767-150.282c-57.536 37.121-106.67 86.273-143.819 143.872l150.25 86.746zM299.504 97.609l79.545 137.777c40.246-19.424 85.351-30.315 132.951-30.315s92.704 10.891 132.951 30.315l79.545-137.777c-65.42-33.57-138.384-51.274-212.496-51.274s-147.078 17.705-212.496 51.274zM771.779 108.382l-86.746 150.25c31.487 21.571 58.764 48.849 80.335 80.335l150.285-86.764c-37.121-57.539-86.273-106.672-143.874-143.821z" />
<glyph unicode="&#xe904;" glyph-name="cloud-computing" d="M811.932 649.067c-2.138 156.122-129.804 282.477-286.425 282.477-69.67 0-136.792-25.344-188.996-71.364-46.592-41.070-78.464-95.954-91.086-156.212-0.922 0.010-1.836 0.018-2.748 0.018-133.81-0.002-242.678-108.868-242.678-242.68s108.868-242.678 242.68-242.678h89.068c12.058 0 21.838 9.776 21.838 21.838s-9.78 21.838-21.838 21.838h-89.068c-109.732 0-199.004 89.272-199.004 199.002s89.272 199.002 199.004 199.002c5.846 0 12.026-0.314 18.896-0.96 11.644-1.080 22.098 7.192 23.684 18.792 7.864 57.64 36.322 110.654 80.134 149.276 44.222 38.984 101.084 60.452 160.112 60.452 133.87 0 242.778-108.91 242.778-242.778 0-4.82-0.898-17.284-0.898-17.284-0.454-6.424 1.95-12.722 6.574-17.208 4.618-4.486 10.976-6.698 17.394-6.060 5.808 0.586 11.668 0.88 17.416 0.88 94.594 0 171.556-76.96 171.556-171.556 0-94.594-76.96-171.554-171.556-171.554h-97.804c-12.058 0-21.838-9.776-21.838-21.838s9.78-21.838 21.838-21.838h97.804c118.678 0 215.232 96.55 215.232 215.23-0.002 117.616-94.842 213.504-212.068 215.204zM525.509 828.904c-91.316 0-169.484-68.242-181.828-158.734-1.63-11.95 6.742-22.924 18.686-24.59 12.736-1.776 23.096 7.738 24.59 18.686 9.404 68.958 68.968 120.96 138.552 120.96 12.062 0 21.838 9.776 21.838 21.838 0 12.064-9.778 21.84-21.838 21.84zM626.557 203.436c-8.034 8.992-21.84 9.774-30.836 1.736l-52.53-46.926v268.661c0 12.062-9.78 21.838-21.838 21.838-12.062 0-21.838-9.776-21.838-21.838v-268.659l-52.528 46.926c-8.992 8.036-22.802 7.254-30.834-1.736-8.036-8.996-7.26-22.798 1.736-30.836l79.434-70.966c6.85-6.122 15.438-9.18 24.028-9.18 8.588 0 17.178 3.060 24.026 9.178l79.438 70.966c8.998 8.034 9.776 21.84 1.742 30.836z" />
<glyph unicode="&#xe905;" glyph-name="credit-card2" d="M1019.067 223.795c-0.683 0.864-67.523 86.841-89.249 155.568-5.16 16.364-11.592 39.41-18.977 65.795-35.341 126.364-67.477 233.84-103.113 269.476-38.612 38.612-187.841 64.374-249.181 73.549v142.726c-0.002 51.34-41.751 93.092-93.094 93.092h-372.362c-51.342 0-93.092-41.751-93.092-93.092v-651.636c0-51.34 41.749-93.089 93.092-93.089h372.364c10.054 0 19.761 2.232 29.26 5.503 20.265-18.801 43.22-33.107 67.285-47.684 47.433-28.774 96.499-58.523 139.318-132.41 4.159-7.183 11.841-11.592 20.136-11.592 221.454 0 300.226 199.112 300.999 201.137 2.932 7.612 1.636 16.226-3.386 22.658zM93.092 232.728c-25.658 0-46.545 20.887-46.545 46.545v651.636c0 25.658 20.887 46.545 46.545 46.545v-744.725zM558.545 593.99l73.75-29.513c3.613-12.637 9.727-33.092 15.864-49.045-2.819-5.001-5.249-10.545-7.841-16.455-4.228-9.637-8.841-20.16-15.295-28.342-23.293 16.601-46.94 51.798-66.478 89.193v34.163zM186.181 232.728h-46.545v744.725h46.545v-744.725zM232.728 232.728v744.725h232.728c25.658 0 46.545-20.887 46.545-46.545v-279.050c-29.047 42.622-78.017 93.020-122.409 102.050-22.272 4.636-41.954-0.977-56.954-15.999-56.046-56.046-23.954-151.296 20.568-215.84 35.636-51.659 62.068-112.704 65.819-151.909 0.613-6.524 0.886-12.705 1.183-18.796 1.449-31.078 3.41-63.432 40.392-118.636h-227.871zM734.454 46.82c-47.341 75.75-103.091 109.545-148.318 136.977-31.728 19.228-59.114 35.841-78.591 62.614-38.319 52.704-39.432 76.704-40.841 107.114-0.319 6.84-0.659 13.774-1.364 21.046-4.477 47.136-33.454 115.409-73.817 173.908-35.886 52.023-59.295 123.181-25.977 156.523 2.705 2.727 6.319 4.955 14.749 3.319 36.478-7.431 95.319-75.251 110.114-111.931 17.819-44.114 66.046-149.546 129.022-175.704 7.159-2.908 15.364-2.16 21.84 2.136 23.273 15.5 33.886 39.75 41.66 57.454 2.249 5.090 5.295 12.092 5.228 12.591 9.524 6.591 12.751 19.183 7.569 29.546-7.091 14.16-18 52.045-21.613 65.454-1.909 7.069-7.023 12.84-13.841 15.567l-101.727 40.689v96.901c84.58-13.091 194.343-37.385 216.272-59.295 29.908-29.908 68.273-167.114 91.204-249.091 7.545-27 14.136-50.568 19.431-67.272 19.501-61.817 68.454-131.908 88.385-158.908-18.338-37.182-87.635-153.318-239.384-159.637z" />
<glyph unicode="&#xe906;" glyph-name="customer-service" d="M672.003 543.998c-52.924 0-95.994-43.069-95.994-95.994 0-17.663 14.335-31.998 31.998-31.998s31.998 14.335 31.998 31.998c0 17.599 14.399 31.998 31.998 31.998s31.998-14.399 31.998-31.998c0-17.663 14.335-31.998 31.998-31.998s31.998 14.335 31.998 31.998c0 52.924-43.069 95.994-95.994 95.994zM352.025 543.998c-52.924 0-95.994-43.069-95.994-95.994 0-17.663 14.335-31.998 31.998-31.998s31.998 14.335 31.998 31.998c0 17.599 14.399 31.998 31.998 31.998s31.998-14.399 31.998-31.998c0-17.663 14.335-31.998 31.998-31.998s31.998 14.335 31.998 31.998c0 52.924-43.069 95.994-95.994 95.994zM1012.589 120.538c-49.981 41.853-80.123 156.854-97.338 265.454 61.372 9.343 108.729 62.012 108.729 126.008 0 70.587-57.404 127.992-127.992 127.992 0 211.762-172.213 383.975-383.975 383.975s-383.975-172.213-383.975-383.975c-70.587 0-127.992-57.404-127.992-127.992 0-63.996 47.357-116.664 108.729-126.072-17.215-108.537-47.357-223.537-97.338-265.454-10.303-8.639-14.143-22.782-9.471-35.454 4.608-12.543 16.639-20.991 30.078-20.991h268.142c60.796-40.381 133.559-63.996 211.826-63.996s151.030 23.614 211.826 63.996h268.142c13.439 0 25.47 8.447 30.078 21.055s0.832 26.814-9.471 35.454zM959.984 512c0-31.678-24.51-57.532-53.5-62.844-6.016 50.749-9.279 96.122-10.431 126.392 33.342-0.192 63.932-28.158 63.932-63.548zM512.014 959.97c172.597 0 312.747-137.591 318.827-308.715-109.561 16.447-178.036 48.445-219.633 78.459 24.254 35.326 28.286 63.804 28.606 67.004 1.792 17.343-10.623 32.638-27.966 34.75-17.023 2.304-33.15-10.239-35.582-27.582-0.256-1.6-27.326-154.102-384.166-163.061 0.512 176.052 143.798 319.147 319.915 319.147zM64.044 512c0 35.39 30.526 63.42 63.932 63.548-1.152-30.334-4.352-75.643-10.431-126.392-29.054 5.248-53.5 31.166-53.5 62.844zM97.834 128.025c21.503 37.246 38.013 83.834 50.877 132.663 16.895-49.533 43.645-94.458 77.883-132.663h-128.759zM512.014 64.030c-176.436 0-319.979 143.542-319.979 319.979v192.947c204.722 4.928 316.907 54.78 377.063 106.169 63.804-48.381 151.798-80.635 262.895-95.994v-203.123c0-45.565-9.855-88.698-27.134-127.992h-202.739c-13.247 37.182-48.445 63.996-90.106 63.996-52.924 0-95.994-43.069-95.994-95.994s43.069-95.994 95.994-95.994c41.661 0 76.859 26.814 90.106 63.996h164.277c-58.492-77.243-150.262-127.992-254.383-127.992zM544.012 224.019c0-17.599-14.399-31.998-31.998-31.998s-31.998 14.399-31.998 31.998 14.399 31.998 31.998 31.998c17.599 0 31.998-14.399 31.998-31.998zM797.491 128.089c22.055 24.558 41.043 51.863 56.196 81.531 0.576 1.088 1.152 2.112 1.6 3.264 7.743 15.423 14.463 31.358 20.095 47.869 12.863-48.893 29.374-95.418 50.877-132.663h-128.767z" />
<glyph unicode="&#xe907;" glyph-name="list" d="M1001.22 30.379l-107.233 112.173c31.367 34.457 50.661 80.088 50.661 130.246 0 106.945-87.004 193.949-193.949 193.949s-193.949-87.004-193.949-193.949 87.004-193.931 193.949-193.931c43.852 0 84.22 14.803 116.754 39.451l107.807-112.766c3.521-3.683 8.246-5.551 12.971-5.551 4.473 0 8.929 1.653 12.414 4.976 7.168 6.863 7.437 18.234 0.575 25.402zM592.68 272.815c0 87.13 70.89 158.019 158.019 158.019s158.019-70.89 158.019-158.019-70.89-158.019-158.019-158.019-158.019 70.89-158.019 158.019zM502.856 808.421c-9.935 0-17.965-8.030-17.965-17.965s8.030-17.965 17.965-17.965h323.368c9.935 0 17.965 8.030 17.965 17.965s-8.030 17.965-17.965 17.965h-323.368zM844.189 538.947c0 9.935-8.030 17.965-17.965 17.965h-323.368c-9.935 0-17.965-8.030-17.965-17.965s8.030-17.965 17.965-17.965h323.368c9.935 0 17.965 8.030 17.965 17.965zM387.503 893.916c-7.491 6.449-18.881 5.605-25.313-1.94l-112.245-130.928-68.662 51.487c-7.905 5.928-19.169 4.365-25.133-3.593-5.964-7.923-4.348-19.187 3.593-25.133l82.118-61.602c3.216-2.425 7.006-3.593 10.761-3.593 5.084 0 10.114 2.138 13.653 6.288l123.185 143.719c6.467 7.509 5.587 18.827-1.958 25.295zM387.503 642.407c-7.491 6.449-18.881 5.605-25.313-1.94l-112.245-130.928-68.662 51.487c-7.905 5.928-19.169 4.365-25.133-3.593-5.964-7.923-4.348-19.187 3.593-25.133l82.118-61.602c3.216-2.425 7.006-3.593 10.761-3.593 5.084 0 10.114 2.138 13.653 6.288l123.185 143.719c6.467 7.509 5.587 18.827-1.958 25.295zM362.191 370.975l-112.245-130.91-68.662 51.487c-7.905 5.946-19.169 4.365-25.133-3.593-5.964-7.923-4.348-19.187 3.593-25.133l82.118-61.602c3.216-2.425 7.006-3.593 10.761-3.593 5.084 0 10.114 2.138 13.653 6.288l123.185 143.701c6.467 7.527 5.605 18.863-1.94 25.313-7.509 6.449-18.899 5.587-25.331-1.958zM484.891 89.825h-248.347c-100.819 0-182.811 81.992-182.811 182.811v532.624c0 100.819 81.992 182.811 182.811 182.811h532.624c100.801 0 182.811-81.992 182.811-182.811v-374.101c0-9.935 8.030-17.965 17.965-17.965s17.965 8.030 17.965 17.965v374.101c0 120.616-98.124 218.741-218.741 218.741h-532.624c-120.616 0-218.741-98.124-218.741-218.741v-532.624c0-120.616 98.124-218.741 218.741-218.741h248.347c9.935 0 17.965 8.030 17.965 17.965s-8.030 17.965-17.965 17.965z" />
<glyph unicode="&#xe908;" glyph-name="icon-line" d="M481.882 1024h60.235v-1024h-60.235v1024z" />
<glyph unicode="&#xe909;" glyph-name="deal-hot" horiz-adv-x="838" d="M837.136 442.492l-4.53 80.679-49.245-63.922c-6.727-8.446-14.275-15.797-22.647-22.114l-0.315-0.228c4.223 13.292 7.875 29.331 10.256 45.781l0.201 1.696c1.76 12.918 2.765 27.847 2.765 43.011 0 79.849-27.859 153.191-74.387 210.837l0.5-0.641-31.185 41.581-20.449-47.787c-23.583-55.234-61.75-82.851-97.218-70.439-32.5 16.872-55.533 48.091-60.81 85.037l-0.071 0.607c-5.412 26.333-8.51 56.597-8.51 87.584 0 50.663 8.281 99.393 23.563 144.908l-0.935-3.21 13.126 48.128-48.687-10.954c-164.243-37.019-274.928-153.507-320.078-337.206-14.047-56.715-22.106-121.824-22.106-188.815 0-3.875 0.027-7.744 0.081-11.606l-0.006 0.586c-22.145 17.513-41.45 37.093-58.131 58.794l-0.579 0.784-36.957 54.303-16.849-63.612c-8.851-32.154-13.936-69.074-13.936-107.182 0-229.58 184.586-416.048 413.444-419.089l0.287-0.003h10.364c229.015 3.199 413.468 189.471 413.727 418.884v0.025c0 7.758-0.217 15.515-0.683 23.583zM418.909 60.199c-77.498 0.035-140.329 62.779-140.505 140.24v0.017c0 135.292 63.922 195.801 113.788 222.487-1.724-8.768-2.71-18.85-2.71-29.163 0-22.306 4.615-43.534 12.942-62.781l-0.395 1.025c12.023-32.821 40.225-57.046 74.687-63.214l0.593-0.088c2.394-0.267 5.168-0.42 7.979-0.42 17.624 0 33.847 5.997 46.741 16.062l-0.169-0.127c17.212-23.047 27.558-52.098 27.558-83.565 0-77.582-62.892-140.474-140.474-140.474-0.012 0-0.024 0-0.037 0h0.002zM596.309 107.055c14.6 27.1 23.18 59.307 23.18 93.519 0 59.155-25.652 112.319-66.439 148.976l-0.184 0.163-24.638 22.342-19.611-26.686c-5.168-8.977-14.020-15.337-24.438-17.040l-0.2-0.027c-12.87 4.479-22.753 14.597-26.82 27.316l-0.083 0.301c-4.766 11.282-7.535 24.4-7.535 38.164 0 23.109 7.806 44.395 20.926 61.365l-0.172-0.232 41.581 56.165-69.477-8.688c-43.26-7.492-81.539-24.766-113.818-49.483l0.619 0.455c-91.632-68.887-110.871-175.632-110.871-253.207 0-34.172 8.58-66.339 23.703-94.467l-0.523 1.065c-109.119 62.926-181.397 178.945-181.434 311.849v0.005c0 11.171 0.528 22.652 1.583 33.823 24.375-22.804 51.437-43.31 80.495-60.846l2.17-1.215 52.193-31.030-7.044 60.199c-1.824 19.862-2.865 42.957-2.865 66.294 0 62.678 7.503 123.604 21.661 181.929l-1.078-5.255c35.437 142.739 111.709 235.83 226.832 277.752-8.046-32.825-12.661-70.51-12.661-109.273 0-35.163 3.798-69.439 11.006-102.44l-0.579 3.158c9.909-57.525 47.461-104.518 98.221-127.411l1.076-0.434c11.032-3.882 23.752-6.124 36.997-6.124 22.855 0 44.151 6.678 62.041 18.19l-0.455-0.274c19.159 12.133 35.145 27.457 47.65 45.389l0.354 0.536c22.757-38.251 36.208-84.34 36.208-133.57 0-11.655-0.754-23.134-2.216-34.391l0.141 1.329c-4.14-33.379-14.548-63.602-30.034-90.532l0.618 1.165-25.693-39.408 46.545-6.827c3.991-0.49 8.611-0.77 13.296-0.77 21.589 0 41.792 5.936 59.064 16.266l-0.525-0.291c-14.789-115.201-82.235-212.055-177.033-266.868l-1.732-0.924z" />
<glyph unicode="&#xe91b;" glyph-name="magnifying-glass2" d="M1015.031 52.222l-248.848 248.848c66.753 76.743 107.168 176.873 107.168 286.311 0 240.901-195.945 436.619-436.619 436.619-240.901 0-436.619-195.945-436.619-436.619s195.945-436.619 436.619-436.619c109.439 0 209.568 40.415 286.311 107.168l248.848-248.848c5.903-5.903 13.85-9.082 21.57-9.082s15.667 2.952 21.57 9.082c11.807 11.807 11.807 31.333 0 43.14zM61.19 587.381c0 207.071 168.472 375.315 375.315 375.315 207.071 0 375.315-168.472 375.315-375.315s-168.245-375.542-375.315-375.542c-206.843 0-375.315 168.472-375.315 375.542z" />
<glyph unicode="&#xe92f;" glyph-name="hours" d="M474.647 511.766c42.935 28.468 84.091 53.875 84.091 111.684 0 55.623-39.405 91.999-98.964 91.999-63.093 0-102.934-42.061-102.934-107.748v-7.874h48.623c0.876 35.903 7.876 72.685 52.967 72.685 30.656 0 49.497-19.718 49.497-51.685 0.002-42.467-36.777-61.749-67.433-82.343-52.123-35.031-89.341-62.623-91.529-132.668h209.337v44.203h-149.34c10.5 25.406 43.343 47.309 65.685 61.747zM772.046 520.546v194.463l-47.311 0.002-131.402-187.027v-49.497h130.090l0.438-72.671h48.185v72.671h38.967v42.059h-38.967zM724.299 520.546v0h-89.781l89.781 132.684v-132.684zM881.356 881.38c-95.063 95.061-219.715 142.62-344.305 142.62-124.622 0-249.242-47.529-344.333-142.622-47.999-47.999-83.811-103.56-107.59-162.807-0.282-0.624-0.938-2.312-0.938-2.312-0.688-2.124-1.062-4.376-1.062-6.688 0-11.782 9.532-21.344 21.312-21.344 9.438 0 17.438 6.124 20.25 14.624l0.062-0.032c0.188 0.5 0.376 0.968 0.562 1.438 22.312 55.091 55.155 104.528 97.59 146.964 42.437 42.405 91.875 75.247 146.934 97.59 53.217 21.562 109.466 32.531 167.213 32.531 57.717 0 113.964-10.968 167.183-32.531 55.091-22.344 104.558-55.185 146.964-97.59 42.403-42.437 75.247-91.873 97.59-146.964 21.594-53.217 32.531-109.464 32.531-167.213 0-57.715-10.938-113.98-32.531-167.167-22.344-55.123-55.187-104.558-97.59-146.994-42.437-42.375-91.875-75.249-146.964-97.56-29.876-12.124-60.717-20.876-92.247-26.188l12.998 13c9.75 9.75 9.75 25.562 0 35.249l-115.528 115.558c-4.876 4.876-11.282 7.312-17.656 7.312-6.376 0-12.782-2.438-17.656-7.312l-55.217-55.185c-6.844-6.876-8.844-16.75-6.062-25.376-7.312-2.25-15.656-3.812-25.062-4.124-41.435-1.188-88.903 23.75-137.34 72.185-48.779 48.749-73.059 94.685-72.215 136.434 0.188 9.812 1.812 18.5 4.094 26 2.532-0.812 5.156-1.25 7.78-1.25 6.376 0 12.75 2.438 17.624 7.312l55.217 55.203c9.75 9.75 9.75 25.56 0 35.309l-115.528 115.56c-4.876 4.844-11.282 7.282-17.656 7.282-6.406 0-12.782-2.438-17.656-7.282l-55.217-55.217c-9-9.032-9.656-23.218-2-32.999l-13.312-13.312c-68.843-68.841-63.623-211.729 103.278-378.598 166.871-166.933 309.773-172.121 378.614-103.31l13.312 13.312c4.5-3.5 9.906-5.312 15.344-5.312 2.468 0 4.968 0.376 7.344 1.124 117.028 5.376 232.492 52.687 321.867 142.060 190.179 190.123 190.179 498.472 0 688.623zM129.784 582.295l90.497-90.497-30.156-30.156-90.529 90.497 30.188 30.156zM493.304 71.763c-26.062-26.062-66.435-34.999-113.684-25.188-43.873 9.124-114.996 38.811-204.587 128.436-89.593 89.623-119.31 160.743-128.434 204.619-9.812 47.249-0.876 87.639 25.156 113.67l13.186 13.186 63.467-63.483c-6.656-14.188-12.156-32.249-12.782-53.937-1.594-54.249 26.876-110.996 84.653-168.805 56.249-56.187 111.528-84.687 164.463-84.687 1.438 0 2.876 0 4.344 0.062 21.656 0.624 39.717 6.124 53.905 12.75l63.497-63.437-13.184-13.186zM552.145 99.574l-90.499 90.561 30.156 30.124 90.499-90.499-30.156-30.186z" />
<glyph unicode="&#xe930;" glyph-name="alarm" d="M956.528 180.764c-86.761 86.221-130.737 188.267-130.737 303.309v167.452c0.801 127.665-85.048 212.34-158.813 246.058-21.132 9.663-42.915 17.11-65.052 22.64v10.687c0 51.33-41.761 93.091-93.091 93.091s-93.091-41.761-93.091-93.091v-12.307c-19.94-5.381-39.545-12.4-58.573-21.187-81.529-37.571-164.119-128.13-164.864-245.779v-167.564c0-118.933-42.003-220.979-124.835-303.309-4.934-4.915-6.721-12.158-4.636-18.804s7.727-11.562 14.597-12.753l176.705-30.515c32.917-5.679 63.227-10.333 92.067-14.168 32.507-63.674 96.312-104.522 166.018-104.522 69.725 0 133.548 40.886 166.018 104.597 28.728 3.817 58.889 8.453 91.62 14.113l176.687 30.515c6.87 1.173 12.493 6.107 14.597 12.753 2.104 6.628 0.317 13.871-4.617 18.786zM452.962 930.909c0 30.794 25.060 55.855 55.855 55.855s55.855-25.060 55.855-55.855v-3.389c-37.106 5.325-74.752 5.101-111.709-0.875v4.264zM512.223 37.236c-47.141 0-91.192 23.422-119.473 61.719 41.612-4.282 80.449-6.442 119.268-6.442 38.968 0 77.936 2.16 119.715 6.498-28.3-38.335-72.369-61.775-119.51-61.775zM763.532 155.406c-35.728-6.163-68.478-11.171-99.421-15.118-0.037 0-0.074 0-0.112 0-13.629-1.731-26.885-3.24-39.862-4.543-0.13-0.019-0.279-0.019-0.41-0.037-11.86-1.192-23.459-2.141-34.928-2.979-2.178-0.168-4.338-0.298-6.516-0.447-9.942-0.652-19.773-1.173-29.547-1.545-2.011-0.074-4.022-0.186-6.032-0.242-23.161-0.782-46.006-0.782-69.148-0.019-2.048 0.074-4.133 0.168-6.181 0.261-9.644 0.372-19.363 0.875-29.175 1.527-2.309 0.149-4.617 0.298-6.945 0.465-11.171 0.801-22.472 1.75-34.034 2.886-0.41 0.037-0.801 0.074-1.192 0.112-12.884 1.285-26.047 2.793-39.582 4.506-0.056 0-0.112 0-0.168 0-31.055 3.928-63.916 8.974-99.812 15.155l-142.634 24.65c74.156 84.787 111.709 186.889 111.709 304.035v167.452c0.633 101.19 72.387 179.423 143.192 212.080 21.057 9.7 42.896 16.943 65.108 22.025 0.186 0.037 0.391 0.019 0.577 0.056 45.875 10.314 94.711 10.78 141.126 1.266 0.242-0.056 0.484 0.056 0.726 0.019 24.278-5.064 48.184-12.735 71.215-23.254 68.682-31.409 137.7-109.121 137.048-212.098v-167.564c0-112.323 40.495-216.771 117.537-304.054l-142.541-24.595zM628.289 812.907c-72.145 32.973-160.489 33.010-232.15-0.037-40.867-18.842-110.182-73.97-110.741-161.122-0.056-10.277 8.211-18.655 18.506-18.73 0.037 0 0.074 0 0.112 0 10.221 0 18.562 8.248 18.618 18.506 0.428 68.459 56.208 112.361 89.088 127.535 62.017 28.616 138.631 28.542 201.058 0 9.346-4.282 20.406-0.168 24.688 9.179 4.282 9.365 0.168 20.406-9.179 24.669z" />
<glyph unicode="&#xe931;" glyph-name="back" d="M1008.709 32.084l-26.155 43.923c-200.93 337.615-475.937 316.901-543.245 305.979v-266.074l-439.309 440.089 439.309 435.934v-261.939c2.243 0 4.466 0.020 6.709 0.020 244.132 0 356.807-102.669 361.644-107.194 268.785-223.614 211.404-537.414 210.799-540.554l-9.752-50.184zM497.45 424.544c113.104 0 321.407-37.506 487.464-279.785 2.497 95.024-17.476 294.413-203.037 448.826-1.931 1.716-115.756 104.62-361.468 97.032l-20.089-0.585v208.225l-345.085-342.374 345.065-345.689v203.115l14.823 3.667c1.053 0.273 32.435 7.568 82.326 7.568z" />
<glyph unicode="&#xe932;" glyph-name="basketball-game" d="M90.88 802.904c95.599 138.445 253.246 221.096 421.706 221.096 104.076 0 204.522-31.371 290.471-90.724 232.29-160.403 290.78-479.886 130.372-712.18-95.595-138.437-253.242-221.088-421.706-221.096-0.012 0-0.008 0-0.020 0-104.060 0-204.506 31.375-290.455 90.724-112.526 77.704-188.060 194.575-212.682 329.088s4.61 270.562 82.314 383.092zM157.619 804.726c109.922 11.342 221.2-16.61 313.228-80.156 28.17-19.451 54.028-41.875 77.146-66.755 36.579 14.917 74.021 27.893 111.852 38.802-44.648 59.77-98.632 111.736-160.933 154.754-51.533 35.584-107.258 63.786-165.704 84.1-67.605-28.571-128.033-73.15-175.59-130.745zM691.048 651.203c-36.531-9.878-72.749-21.838-108.209-35.668 116.069-158.951 120.302-376.247 6.909-540.462-4.285-6.207-8.735-12.305-13.32-18.308 74.908 10.612 145.598 39.432 206.058 83.353 36.86 175.088 3.759 359.753-91.438 511.085zM411.246 960.531c40.82-18.412 80.083-40.539 117.304-66.237 72.877-50.321 135.215-112.028 185.532-183.586 23.343 5.457 46.886 10.267 70.45 14.207-14.869 56.821-22.978 115.194-24.149 174.089-74.238 47.685-159.561 72.837-247.797 72.837-34.469 0-68.424-3.892-101.34-11.31zM814.636 858.28c3.41-42.593 10.737-84.738 21.911-125.979 25.084 2.965 50.349 5.083 75.606 6.343-24.988 44.263-57.635 84.85-97.516 119.636zM936.992 687.453c-28.19-0.814-56.48-2.768-84.557-5.826 26.858-75.574 66.931-146.313 117.818-208.088 5.998 72.93-5.501 146.401-33.261 213.914zM890.51 250.734c33.566 48.608 56.448 101.468 69.182 155.781-71.417 76.585-126.38 168.552-160.050 267.95-18.464-2.969-36.928-6.444-55.304-10.4 84.132-141.097 119.214-307.434 99.863-470.069 16.775 17.517 32.298 36.447 46.309 56.736zM250.886 133.642c75.020-51.805 162.321-79.795 252.929-81.335 15.676 16.269 30.168 33.803 43.011 52.403 103.121 149.338 96.766 348.090-13.593 490.041-162.020-72.974-303.045-186.198-409.669-328.952 32.643-51.529 75.622-96.453 127.323-132.158zM59.874 429.204c7.278-39.757 19.539-77.78 36.274-113.413 106.732 136.699 244.082 246.288 400.822 319.708-17.156 16.891-35.793 32.362-55.753 46.148-94.933 65.555-212.923 88.489-325.317 63.605-56.243-95.213-76.135-206.199-56.026-316.048z" />
<glyph unicode="&#xe933;" glyph-name="certificate" d="M933.594 957.687h-843.203c-49.843 0-90.39-40.546-90.39-90.39v-584.421c0-49.845 40.547-90.39 90.39-90.39h289.813c8.845 0 16 7.155 16 16 0 8.843-7.155 16-16 16h-289.813c-32.202 0-58.39 26.187-58.39 58.39v584.421c0 32.203 26.189 58.39 58.39 58.39h843.203c32.203 0 58.406-26.187 58.406-58.39v-584.421c0-32.203-26.203-58.39-58.406-58.39-8.843 0-16-7.157-16-16 0-8.845 7.157-16 16-16 49.845 0 90.406 40.546 90.406 90.39v584.421c0 49.845-40.562 90.39-90.406 90.39zM352 509.687h-192c-8.843 0-16-7.155-16-16 0-8.843 7.157-16 16-16h192c8.845 0 16 7.157 16 16 0 8.845-7.155 16-16 16zM352 404.89h-192c-8.843 0-16-7.155-16-16 0-8.843 7.157-16 16-16h192c8.845 0 16 7.157 16 16 0 8.845-7.155 16-16 16zM827.797 351.985c-0.294 1.008-0.938 1.774-1.402 2.674 33.214 36.862 53.605 85.506 53.605 139.029 0 114.875-93.125 208-208 208s-208-93.125-208-208c0-52.934 19.939-101.099 52.504-137.814-0.336-0.728-0.867-1.314-1.098-2.107l-67.312-230.781c-1.766-6.062 0.187-12.578 4.984-16.672 4.797-4.093 11.547-4.954 17.235-2.266l70.656 33.563 44.39-64.376c3.016-4.374 7.968-6.922 13.171-6.922 0.907 0 1.813 0.078 2.72 0.235 6.155 1.062 11.125 5.594 12.734 11.624l55.629 207.637c0.803-0.010 1.581-0.122 2.386-0.122 0.381 0 0.749 0.056 1.13 0.058l55.637-207.573c1.61-6.016 6.562-10.547 12.702-11.624 0.922-0.157 1.845-0.235 2.75-0.235 5.187 0 10.109 2.515 13.141 6.859l44.531 64.062 70.578-33.218c5.672-2.658 12.406-1.766 17.219 2.328 4.781 4.093 6.718 10.594 4.954 16.64l-66.845 229zM672 669.687c97.048 0 176-78.952 176-176 0-97.046-78.952-176-176-176-97.046 0-176 78.954-176 176 0 97.048 78.954 176 176 176zM592.048 119.906l-32.469 47.078c-4.454 6.453-12.907 8.766-20.032 5.374l-50.75-24.109 53.397 183.066c27.006-21.619 59.52-36.512 95.101-42.502l-45.246-168.907zM803.282 171.953c-7.078 3.282-15.499 1.064-19.954-5.342l-32.578-46.875-45.267 168.891c35.595 5.776 68.139 20.469 95.246 41.882l53.24-182.414-50.688 23.859zM368 781.687c0 17.674-14.326 32-32 32h-160c-17.672 0-32-14.326-32-32v-160c0-17.672 14.328-32 32-32h160c17.674 0 32 14.328 32 32v160zM336 621.687h-160v160h160v-160zM672 397.687c53.021 0 96 42.981 96 96 0 53.021-42.979 96-96 96-53.019 0-96-42.979-96-96 0-53.019 42.981-96 96-96zM672 557.687c35.291 0 64-28.709 64-64 0-35.29-28.709-64-64-64-35.29 0-64 28.71-64 64 0 35.291 28.71 64 64 64z" />
<glyph unicode="&#xe934;" glyph-name="checked" d="M899.432 544.316c-1.086 15.070-14.164 26.382-29.256 25.322-15.072-1.086-26.408-14.184-25.324-29.256 0.674-9.31 1.012-18.862 1.012-28.382 0-218.122-177.452-395.574-395.572-395.574s-395.572 177.454-395.572 395.574 177.452 395.572 395.574 395.572c86.382 0 168.42-27.336 237.24-79.050 12.082-9.076 29.23-6.642 38.308 5.436 9.080 12.080 6.646 29.232-5.434 38.308-78.378 58.894-171.782 90.024-270.116 90.024-248.29 0.002-450.292-202-450.292-450.29s202.002-450.29 450.294-450.29 450.29 201.998 450.29 450.29c0 10.828-0.39 21.7-1.152 32.316zM992.79 900.46c-41.616 41.614-109.332 41.614-150.948 0l-394.22-394.216-139.748 139.75c-41.616 41.614-109.332 41.614-150.948 0-41.616-41.616-41.616-109.332 0-150.948l240.682-240.682c13.79-13.79 31.902-20.684 50.014-20.684 18.114 0 36.226 6.894 50.016 20.684l495.152 495.152c41.612 41.614 41.612 109.326 0 150.944zM954.098 788.206l-495.154-495.156c-6.24-6.24-16.4-6.24-22.64 0l-240.682 240.684c-20.282 20.282-20.282 53.28 0 73.562 10.14 10.144 23.458 15.212 36.78 15.212s26.642-5.070 36.78-15.212l143.764-143.764c9.264-9.262 21.582-14.362 34.678-14.362 13.102 0 25.42 5.102 34.682 14.364l398.23 398.234c20.276 20.282 53.28 20.282 73.562 0 20.28-20.282 20.28-53.28 0-73.562z" />
<glyph unicode="&#xe935;" glyph-name="clipboards" d="M275.691 590.767h472.618v-39.385h-472.618v39.385zM275.691 472.613h472.618v-39.385h-472.618v39.385zM275.691 354.458h472.618v-39.385h-472.618v39.385zM275.691 236.304h236.309v-39.385h-236.309v39.385zM542.129 905.846c0-16.314-13.225-29.539-29.539-29.539s-29.539 13.225-29.539 29.539c0 16.314 13.225 29.539 29.539 29.539s29.539-13.225 29.539-29.539zM905.846 787.694c0 43.503-35.264 78.77-78.767 78.77h-109.352c-14.587 16.204-33.324 28.603-54.853 34.796-18.134 5.214-32.091 19.171-37.307 37.305-14.191 49.339-59.663 85.435-113.569 85.435-53.903 0-99.373-36.094-113.561-85.431-5.223-18.156-19.215-32.096-37.371-37.329-21.504-6.198-40.224-18.585-54.799-34.777h-109.345c-43.505 0-78.77-35.267-78.77-78.77v-708.924c0-43.503 35.264-78.77 78.77-78.77 180.84 0 403.099 0 630.157 0 43.505 0 78.77 35.267 78.77 78.77 0 223.703-0.002 437.915-0.002 708.924zM315.078 788.329c0.271 34.624 23.665 65.492 56.894 75.067 31.286 9.014 55.328 33.049 64.313 64.286 9.642 33.524 40.776 56.933 75.712 56.933 34.939 0 66.073-23.409 75.712-56.936 8.99-31.257 33.017-55.284 64.274-64.271 33.521-9.642 56.936-40.778 56.936-75.712v-39.385h-393.841v40.017zM827.078 39.385c-210.352 0-420.359 0-630.157 0-21.718 0-39.385 17.669-39.385 39.385v708.924c0 21.716 17.667 39.385 39.385 39.385h85.519c-4.258-12.042-6.641-24.968-6.745-38.442v-79.712h472.613v78.77c0 13.822-2.442 27.055-6.804 39.385h85.573c21.716 0 39.382-17.669 39.382-39.385 0-112.599-0.002-640.628 0.005-708.924-0.002-21.716-17.669-39.385-39.387-39.385z" />
<glyph unicode="&#xe936;" glyph-name="credit-card-2" d="M917.334 853.334h-810.668c-58.794 0-106.666-47.872-106.666-106.668v-469.334c0-58.794 47.872-106.666 106.666-106.666h810.666c58.794 0 106.666 47.872 106.666 106.666v469.334c0.002 58.796-47.87 106.668-106.664 106.668zM981.334 277.334c0-35.286-28.714-64-64-64h-810.668c-35.286 0-64 28.714-64 64v469.332c0 35.286 28.714 64 64 64h810.666c35.286 0 64-28.714 64-64v-469.332zM1002.666 725.334h-981.332c-11.776 0-21.334-9.558-21.334-21.334v-128c0-11.776 9.558-21.334 21.334-21.334h981.334c11.776 0 21.334 9.558 21.334 21.334v128c-0.002 11.776-9.56 21.334-21.336 21.334zM981.334 597.334h-938.668v85.334h938.666v-85.334zM405.334 426.666h-256c-11.776 0-21.334-9.558-21.334-21.334s9.558-21.332 21.334-21.332h256c11.776 0 21.334 9.558 21.334 21.334s-9.558 21.332-21.334 21.332zM405.334 341.334h-256c-11.776 0-21.334-9.558-21.334-21.334s9.558-21.334 21.334-21.334h256c11.776 0 21.334 9.558 21.334 21.334-0.002 11.776-9.558 21.334-21.334 21.334zM832 469.334h-42.666c-35.286 0-64-28.714-64-64v-42.666c0-35.286 28.714-64 64-64h42.666c35.286 0 64 28.714 64 64v42.666c0 35.284-28.714 64-64 64zM853.334 362.666c0-11.776-9.558-21.334-21.334-21.334h-42.666c-11.776 0-21.334 9.558-21.334 21.334v42.666c0 11.776 9.558 21.334 21.334 21.334h42.666c11.776 0 21.334-9.558 21.334-21.334v-42.666z" />
<glyph unicode="&#xe937;" glyph-name="credit-card" d="M545.963 349.917h272.981c10.237 0 17.061 6.824 17.061 17.061v153.552c0 10.237-6.824 17.061-17.061 17.061h-272.981c-10.237 0-17.061-6.824-17.061-17.061v-153.552c-0.002-10.235 6.824-17.061 17.061-17.061zM563.024 503.469h238.859v-119.429h-238.859v119.429zM85.307 571.715h136.491c10.237 0 17.061 6.824 17.061 17.061s-6.824 17.061-17.061 17.061h-136.491c-10.237 0-17.061-6.824-17.061-17.061s6.824-17.061 17.061-17.061zM290.043 571.715h136.491c10.237 0 17.061 6.824 17.061 17.061s-6.824 17.061-17.061 17.061h-136.491c-10.237 0-17.061-6.824-17.061-17.061s6.824-17.061 17.061-17.061zM85.307 503.469h221.797c10.237 0 17.061 6.824 17.061 17.061s-6.824 17.061-17.061 17.061h-221.797c-10.237 0-17.061-6.824-17.061-17.061s6.824-17.061 17.061-17.061zM426.533 537.592h-51.184c-10.237 0-17.061-6.824-17.061-17.061s6.824-17.061 17.061-17.061h51.184c10.237 0 17.061 6.824 17.061 17.061s-6.824 17.061-17.061 17.061zM1008.325 749.152c-11.942 15.355-27.297 23.887-46.066 25.592l-40.947 4.962v82.050c0 37.534-30.71 68.245-68.245 68.245h-784.823c-37.534 0.002-68.245-30.708-68.245-68.245v-545.963c0-30.816 20.708-57.018 48.891-65.416-0.86-34.513 25.254-64.476 60.303-67.663l788.234-88.718c1.705 0 5.118 0 6.824 0 34.123 0 64.834 25.592 68.245 58.008l51.184 547.669c1.705 17.063-3.413 35.831-15.355 49.479zM34.123 810.573h853.067v-102.368h-853.067v102.368zM68.245 895.88h784.821c18.768 0 34.123-15.355 34.123-34.123v-17.061h-853.065v17.061c0 18.768 15.355 34.123 34.121 34.123zM34.123 315.795v358.288h853.067v-358.288c0-18.768-15.355-34.123-34.123-34.123h-784.821c-18.768 0-34.123 15.355-34.123 34.123zM989.557 706.499l-51.184-547.669c-1.705-18.768-18.768-32.416-37.534-30.71l-786.528 88.718c-17.061 1.705-29.005 15.355-30.71 30.71h769.466c37.534 0 68.245 30.71 68.245 68.245v431.653l39.242-3.413c8.531 0 17.061-5.118 22.179-11.942 5.12-6.824 8.533-17.061 6.826-25.592z" />
<glyph unicode="&#xe938;" glyph-name="delivery" d="M952.316 561.274l-26.518 106.070c7.25 1.54 12.69 7.972 12.69 15.678v17.102c0 37.132-30.21 67.34-67.34 67.34h-120.784v35.276c0 18.272-14.864 33.136-33.136 33.136h-615.684c-18.272 0-33.136-14.864-33.136-33.136v-290.74c0-8.854 7.178-16.034 16.034-16.034 8.854 0 16.034 7.178 16.034 16.034v290.74c0 0.588 0.478 1.068 1.068 1.068h615.682c0.59 0 1.068-0.482 1.068-1.068v-290.744c0-8.854 7.178-16.034 16.034-16.034 8.854 0 16.034 7.178 16.034 16.034v18.176h189.138c0.016 0 0.028-0.004 0.042-0.004 0.016 0 0.030 0.002 0.044 0.002 23.274-0.016 43.036-15.292 49.824-36.342h-49.856c-8.854 0-16.034-7.178-16.034-16.034v-34.204c0-27.702 22.536-50.238 50.238-50.238h18.172v-70.546h-41.924c-13.772 39.768-51.574 68.41-95.964 68.41s-82.194-28.642-95.964-68.41h-7.72v120.786c0 8.854-7.178 16.034-16.034 16.034-8.854 0-16.034-7.178-16.034-16.034v-120.782h-332.656c-13.772 39.768-51.574 68.41-95.964 68.41s-82.194-28.642-95.964-68.41h-92.162c-0.59 0-1.068 0.482-1.068 1.068v35.274h69.478c8.854 0 16.034 7.178 16.034 16.034s-7.178 16.034-16.034 16.034h-85.5c-0.004 0-0.006 0-0.010 0s-0.006 0-0.010 0h-68.4c-8.854 0-16.034-7.178-16.034-16.034s7.178-16.034 16.034-16.034h52.376v-35.274c0-18.272 14.864-33.136 33.136-33.136h86.608c-0.004-0.356-0.028-0.712-0.028-1.068 0-55.99 45.554-101.544 101.544-101.544s101.544 45.554 101.544 101.544c0 0.356-0.024 0.712-0.028 1.068h361.34c-0.004-0.356-0.028-0.712-0.028-1.068 0-55.99 45.554-101.544 101.544-101.544s101.544 45.554 101.544 101.544c0 0.356-0.024 0.712-0.028 1.068h52.406c8.854 0 16.034 7.178 16.034 16.034v171.022c0.002 42.224-31.152 77.306-71.682 83.476zM750.364 735.398h120.784c19.45 0 35.274-15.824 35.274-35.274v-1.068h-156.058v36.342zM750.364 562.238v104.752h142.47l26.188-104.752h-168.658zM289.67 220.192c-38.31 0-69.478 31.166-69.478 69.478s31.168 69.478 69.478 69.478c38.31 0 69.478-31.166 69.478-69.478s-31.168-69.478-69.478-69.478zM854.046 220.192c-38.31 0-69.478 31.166-69.478 69.478s31.168 69.478 69.478 69.478c38.31 0 69.478-31.166 69.478-69.478s-31.168-69.478-69.478-69.478zM991.934 425.42h-18.172c-10.020 0-18.172 8.152-18.172 18.172v18.172h36.342v-36.344zM289.67 322.806c-18.272 0-33.136-14.864-33.136-33.136s14.864-33.136 33.136-33.136c18.272 0 33.136 14.864 33.136 33.136s-14.864 33.136-33.136 33.136zM854.046 322.806c-18.272 0-33.136-14.864-33.136-33.136s14.864-33.136 33.136-33.136c18.272 0 33.136 14.864 33.136 33.136s-14.864 33.136-33.136 33.136zM665.92 391.214h-239.432c-8.854 0-16.034-7.178-16.034-16.034s7.178-16.034 16.034-16.034h239.432c8.854 0 16.034 7.178 16.034 16.034s-7.178 16.034-16.034 16.034zM255.466 459.624h-205.228c-8.854 0-16.034-7.178-16.034-16.034s7.178-16.034 16.034-16.034h205.228c8.854 0 16.034 7.178 16.034 16.034s-7.18 16.034-16.034 16.034zM409.386 750.364c-84.282 0-152.852-68.57-152.852-152.852s68.57-152.852 152.852-152.852 152.852 68.57 152.852 152.852-68.57 152.852-152.852 152.852zM409.386 476.726c-66.6 0-120.784 54.184-120.784 120.784s54.184 120.784 120.784 120.784 120.784-54.184 120.784-120.784-54.184-120.784-120.784-120.784zM472.030 557.542l-46.61 46.61v61.768c0 8.854-7.178 16.034-16.034 16.034s-16.034-7.178-16.034-16.034v-68.41c0-4.252 1.688-8.328 4.696-11.336l51.306-51.306c3.13-3.13 7.234-4.696 11.336-4.696s8.208 1.564 11.336 4.696c6.266 6.262 6.266 16.412 0.004 22.674z" />
<glyph unicode="&#xe939;" glyph-name="delivery-truck" d="M837.174 350.612c-25.021 0-48.792-9.8-66.724-27.524-17.932-17.932-27.941-41.285-27.941-66.307s9.8-48.375 27.941-66.307c18.141-17.723 41.702-27.524 66.724-27.524 51.294 0 92.996 42.119 92.996 93.83s-41.702 93.83-92.996 93.83zM837.174 204.654c-28.775 0-52.962 23.77-52.962 52.128s24.187 52.128 52.962 52.128c28.358 0 51.294-23.353 51.294-52.128s-22.936-52.128-51.294-52.128zM861.361 663.171c-3.753 3.545-8.757 5.421-13.97 5.421h-106.966c-11.468 0-20.851-9.383-20.851-20.851v-170.979c0-11.468 9.383-20.851 20.851-20.851h169.728c11.468 0 20.851 9.383 20.851 20.851v114.473c0 5.838-2.502 11.468-6.881 15.43l-62.762 56.507zM889.302 497.613h-128.026v129.486h77.983l50.043-45.038v-84.447zM327.989 350.612c-25.021 0-48.792-9.8-66.724-27.524-17.932-17.932-27.941-41.285-27.941-66.307s9.8-48.375 27.941-66.307c18.141-17.723 41.702-27.524 66.724-27.524 51.294 0 92.996 42.119 92.996 93.83s-41.702 93.83-92.996 93.83zM327.989 204.654c-28.775 0-52.962 23.77-52.962 52.128s24.187 52.128 52.962 52.128c28.358 0 51.294-23.353 51.294-52.128s-22.936-52.128-51.294-52.128zM188.911 324.965h-41.911v55.464c0 11.468-9.383 20.851-20.851 20.851s-20.851-9.383-20.851-20.851v-76.315c0-11.468 9.383-20.851 20.851-20.851h62.762c11.468 0 20.851 9.383 20.851 20.851s-9.383 20.851-20.851 20.851zM294.627 438.604c0 11.468-9.383 20.851-20.851 20.851h-252.924c-11.468 0-20.851-9.383-20.851-20.851s9.383-20.851 20.851-20.851h252.924c11.468 0 20.851 9.175 20.851 20.851zM63.179 513.877l252.924-1.46c11.468 0 20.851 9.175 21.060 20.643 0.209 11.677-9.175 21.060-20.643 21.060l-252.924 1.46c-0.209 0-0.209 0-0.209 0-11.468 0-20.851-9.175-20.851-20.643-0.209-11.677 9.175-21.060 20.643-21.060zM105.715 608.541h252.924c11.468 0 20.851 9.383 20.851 20.851s-9.383 20.851-20.851 20.851h-252.924c-11.468 0-20.851-9.383-20.851-20.851s9.383-20.851 20.851-20.851zM1016.285 636.69v0l-149.294 123.647c-3.753 3.128-8.34 4.796-13.345 4.796h-175.567v75.064c0 11.468-9.383 20.851-20.851 20.851h-531.079c-11.468 0-20.851-9.383-20.851-20.851v-152.63c0-11.468 9.383-20.851 20.851-20.851s20.851 9.383 20.851 20.851v131.779h489.585v-494.381h-170.979c-11.468 0-20.851-9.383-20.851-20.851s9.383-20.851 20.851-20.851h254.593c11.468 0 20.851 9.383 20.851 20.851s-9.383 20.851-20.851 20.851h-41.911v398.465h168.060l135.95-112.596-1.46-285.452h-21.685c-11.468 0-20.851-9.383-20.851-20.851s9.383-20.851 20.851-20.851h42.328c11.468 0 20.851 9.175 20.851 20.643l1.668 316.103c-0.209 6.255-2.919 12.302-7.715 16.264z" />
<glyph unicode="&#xe93a;" glyph-name="discount" d="M1021.86 394.895l-44.987 117.106 44.923 117.17c4.991 12.926 1.024 27.645-9.727 36.348l-97.46 78.967-19.71 123.953c-2.176 13.63-12.926 24.381-26.557 26.557l-123.953 19.71-78.967 97.46c-8.703 10.751-23.357 14.654-36.348 9.727l-117.106-44.987-117.17 44.923c-12.926 4.991-27.581 1.088-36.284-9.727l-78.967-97.46-123.953-19.71c-13.63-2.176-24.381-12.926-26.557-26.557l-19.71-123.953-97.46-78.967c-10.751-8.703-14.654-23.357-9.727-36.284l44.923-117.17-44.923-117.17c-4.927-12.926-1.024-27.581 9.727-36.284l97.46-78.967 19.71-123.953c2.176-13.63 12.926-24.381 26.557-26.557l123.953-19.71 78.967-97.46c8.767-10.815 23.421-14.782 36.348-9.727l117.106 44.923 117.17-44.923c3.712-1.408 7.615-2.112 11.455-2.112 9.407 0 18.686 4.16 24.893 11.839l78.967 97.46 123.953 19.71c13.63 2.176 24.381 12.926 26.557 26.557l19.71 123.953 97.46 78.967c10.751 8.703 14.654 23.421 9.727 36.348zM912.625 500.546l41.019-106.867-89.013-72.055c-6.143-4.991-10.239-12.031-11.455-19.838l-17.982-113.075-113.075-17.982c-7.807-1.216-14.846-5.311-19.838-11.455l-71.927-89.013-106.867 41.019c-3.712 1.344-7.615 2.112-11.519 2.112s-7.807-0.704-11.455-2.112l-106.867-41.019-72.055 89.013c-4.991 6.143-12.031 10.239-19.838 11.455l-113.075 17.982-17.982 113.075c-1.216 7.807-5.311 14.846-11.455 19.838l-89.013 71.991 41.019 106.867c2.816 7.423 2.816 15.614-0.064 22.973l-40.955 106.931 89.013 72.055c6.143 4.991 10.239 12.031 11.455 19.838l17.982 113.075 113.075 17.982c7.807 1.216 14.846 5.311 19.838 11.455l71.991 88.949 106.867-41.019c7.359-2.816 15.55-2.816 22.909 0l106.867 41.019 72.055-89.013c4.991-6.143 12.031-10.239 19.838-11.455l113.075-17.982 17.982-113.075c1.216-7.807 5.311-14.846 11.455-19.838l89.013-72.055-41.019-106.867c-2.816-7.359-2.816-15.55 0-22.909zM415.98 767.971c-52.922 0-95.989-43.067-95.989-95.989s43.067-95.989 95.989-95.989 95.989 43.067 95.989 95.989-43.067 95.989-95.989 95.989zM415.98 639.986c-17.662 0-31.996 14.334-31.996 31.996s14.334 31.996 31.996 31.996c17.662 0 31.996-14.334 31.996-31.996s-14.334-31.996-31.996-31.996zM607.958 448.009c-52.922 0-95.989-43.067-95.989-95.989s43.067-95.989 95.989-95.989 95.989 43.067 95.989 95.989-43.067 95.989-95.989 95.989zM607.958 320.024c-17.662 0-31.996 14.334-31.996 31.996s14.334 31.996 31.996 31.996c17.662 0 31.996-14.334 31.996-31.996s-14.334-31.996-31.996-31.996zM690.572 761.955c-14.334 10.239-34.364 6.911-44.603-7.423l-319.962-447.947c-10.303-14.334-6.975-34.364 7.359-44.603 5.631-4.032 12.159-5.951 18.622-5.951 9.983 0 19.838 4.671 26.045 13.374l319.962 447.947c10.303 14.398 6.911 34.364-7.423 44.603z" />
<glyph unicode="&#xe93b;" glyph-name="Down" d="M512 1024c-282.752 0-512-229.248-512-512s229.216-512 512-512 512 229.216 512 512-229.216 512-512 512zM512 63.009c-247.039 0-447.999 201.951-447.999 448.991s200.959 447.999 447.999 447.999 447.999-200.959 447.999-447.999-200.959-448.991-447.999-448.991zM248.805 644.878c-5.847-5.763-9.47-13.771-9.47-22.624s3.622-16.86 9.466-22.62l224.3-220.805c5.951-5.655 14.018-9.133 22.896-9.133s16.945 3.478 22.911 9.146l-0.014-0.013 224.293 220.758c5.849 5.763 9.472 13.77 9.472 22.624s-3.623 16.861-9.468 22.62l-0.004 0.004c-5.886 5.801-13.973 9.383-22.896 9.383s-17.010-3.582-22.9-9.387l0.004 0.004-201.411-198.241-201.411 198.273c-5.888 5.791-13.971 9.366-22.888 9.366-8.912 0-16.991-3.571-22.882-9.36l0.005 0.005z" />
<glyph unicode="&#xe93c;" glyph-name="down-arrow" d="M1017.489 772.631c-8.682 8.682-22.796 8.682-31.478 0l-473.987-474.033-474.033 473.987c-8.682 8.682-22.796 8.682-31.478 0s-8.682-22.796 0-31.478l489.75-489.75c4.364-4.318 10.061-6.501 15.761-6.501s11.397 2.181 15.717 6.545l489.75 489.75c8.68 8.684 8.68 22.798-0.002 31.48z" />
<glyph unicode="&#xe93d;" glyph-name="fire-2" d="M809.034 517.394c-18.722 86.014-34.89 160.298-2.874 227.108 2.61 5.444 1.938 11.894-1.736 16.688-3.674 4.792-9.73 7.112-15.666 6.002-3.856-0.72-89.848-18.13-144.884-139.648-14.908 18.52-37.556 50.176-57.1 92.172-43.184 92.8-50.64 188.236-22.162 283.666 1.756 5.876 0.002 12.242-4.516 16.39-4.516 4.15-11 5.362-16.714 3.116-1.918-0.754-47.456-18.996-90.702-66.072-39.792-43.316-85.154-120.272-75.278-240.898 5.248-64.098 4.68-109 2.204-139.62-12.654 42.626-33.598 75.18-52.248 97.708-31.594 38.168-63.264 56.404-64.598 57.16-5.422 3.080-12.138 2.74-17.22-0.876-5.080-3.614-7.604-9.848-6.468-15.982 19.496-105.314 0.176-165.132-20.28-228.462-15.078-46.68-30.67-94.952-30.67-161.97 0.004-178.588 145.294-323.876 323.878-323.876s323.874 145.288 323.874 323.874c0 70.214-14.258 135.722-26.84 193.52zM631.46 57.656c20.872 26.136 33.392 59.22 33.392 95.196 0 109.142-33.472 198.996-61.552 255.154-30.498 60.998-60.854 95.99-62.13 97.448-5.832 6.666-15.96 7.342-22.624 1.51s-7.34-15.96-1.51-22.624c1.156-1.324 115.748-134.562 115.748-331.488 0-66.6-54.184-120.786-120.786-120.786-69.13 0-120.784 63.768-120.784 120.786 0 28.262 6.146 47.436 12.16 62.464 3.29 8.222-0.71 17.554-8.932 20.844-8.224 3.29-17.554-0.71-20.842-8.93-6.728-16.824-14.454-40.476-14.454-74.378 0-34.034 13.412-68.734 37.054-96.8-103.458 44.902-176.010 148.040-176.010 267.822 0 61.966 14.144 105.756 29.118 152.116 18.252 56.512 37.052 114.71 27.144 204.804 33.254-29.964 82.694-90.55 82.694-185.898 0-6.39 3.794-12.17 9.658-14.71 5.86-2.542 12.672-1.358 17.338 3.010 6.59 6.174 38.682 46.538 23.222 235.338-7.124 86.984 15.072 159.498 65.962 215.526 17.198 18.934 34.98 32.734 49.38 42.202-23.394-112.682 4.022-207.822 32.992-270.078 34.622-74.4 77.95-118.186 79.778-120.014 3.852-3.854 9.402-5.486 14.732-4.334 5.328 1.154 9.704 4.936 11.618 10.040 29.398 78.4 71.756 114.684 100.256 131.050-18.092-66.678-2.624-137.766 13.614-212.358 12.838-58.962 26.108-119.934 26.108-186.698 0.004-118.362-70.836-220.486-172.344-266.214zM529.292 390.828c-8.634 1.938-17.216-3.494-19.154-12.132-4.488-19.996-10.644-34.596-15.9-44.446-33.068 38.598-63.91 39.864-67.748 39.864-8.854 0-16.034-7.178-16.034-16.034 0-23.75-2.796-44.008-8.8-63.746-2.576-8.472 2.204-17.43 10.676-20.006 1.556-0.472 3.126-0.7 4.672-0.7 6.872 0 13.228 4.456 15.332 11.374 4.976 16.364 8.098 33.448 9.434 51.776 0.318-0.166 0.642-0.338 0.968-0.516 9.47-5.152 23.894-15.99 38.822-38.382 2.664-3.998 6.98-6.588 11.76-7.062 4.79-0.478 9.522 1.22 12.916 4.618 2.386 2.386 23.646 24.798 35.19 76.238 1.94 8.64-3.492 17.218-12.134 19.154z" />
<glyph unicode="&#xe93e;" glyph-name="fire" d="M893.812 424.462c-11.73 152.718-82.834 248.42-145.562 332.872-58.084 78.184-108.25 145.7-108.25 245.296 0 8-4.48 15.312-11.584 18.978-7.126 3.688-15.688 3.084-22.166-1.624-94.208-67.412-172.812-181.030-200.27-289.438-19.062-75.474-21.584-160.322-21.938-216.36-87 18.582-106.708 148.718-106.916 150.136-0.98 6.75-5.104 12.624-11.104 15.832-6.062 3.166-13.188 3.396-19.334 0.354-4.562-2.208-111.98-56.788-118.23-274.71-0.438-7.25-0.458-14.522-0.458-21.792 0-211.714 172.27-383.974 384-383.974 0.292-0.020 0.604-0.062 0.854 0 0.084 0 0.166 0 0.27 0 211.21 0.606 382.876 172.634 382.876 383.974 0 10.646-2.188 40.456-2.188 40.456zM512 42.696c-70.584 0-128 61.162-128 136.344 0 2.562-0.020 5.146 0.166 8.312 0.854 31.706 6.876 53.35 13.48 67.746 12.376-26.582 34.5-51.018 70.438-51.018 11.792 0 21.334 9.542 21.334 21.332 0 30.372 0.626 65.412 8.188 97.036 6.73 28.040 22.812 57.872 43.188 81.786 9.062-31.040 26.73-56.162 43.98-80.682 24.688-35.080 50.208-71.35 54.688-133.2 0.27-3.666 0.542-7.354 0.542-11.312-0.004-75.18-57.42-136.344-128.004-136.344z" />
<glyph unicode="&#xe93f;" glyph-name="football" d="M1023.998 512.001c0.2 127.665-47.566 250.747-133.833 344.856-7.074 7.984-14.258 15.392-21.734 22.416-3.614 3.526-7.454 6.776-11.164 10.186-0.702 0.778-1.478 1.486-2.316 2.114-62.422 56.894-138.095 97.257-220.119 117.407-7.6 2.066-15.2 3.692-22.566 4.984-32.998 6.72-66.592 10.082-100.265 10.034-110.847 0.366-218.759-35.606-307.216-102.407-20.892-15.702-40.572-32.952-58.876-51.606-54.524-55.532-95.533-122.867-119.857-196.793l-0.006-0.022-0.010-0.028-0.004-0.022c-43.242-130.319-32.276-272.55 30.43-394.702 3.866-7.726 7.958-15.224 12.316-22.408 2.352-4.076 5.104-7.858 7.562-11.858l0.022-0.134c0.818-2.056 2.032-3.928 3.578-5.512 59.862-94.913 149.315-167.473 254.537-206.465l0.5-0.204c1.61-0.592 3.136-1.36 4.752-1.934 7.976-2.958 16.174-5.692 23.934-7.842 150.899-45.852 314.518-19.406 443.289 71.65 7.158 5.042 14.168 10.256 21.030 15.64 103.165 80.952 171.329 198.407 190.435 328.142l0.018 0.162 0.006 0.038v0.012c3.748 24.586 5.606 49.424 5.558 74.296zM631.466 974.492c65.122-16.706 125.923-47.128 178.335-89.231l-22.96-7.7c-0.838 0.502-1.608 1.078-2.492 1.52l-147.507 73.75c-1.74 0.78-3.536 1.428-5.376 1.938v19.724zM617.59 922.297c1.26 0.616 2.732 0.616 3.992 0l147.499-73.75c1.83-0.912 2.802-2.954 2.358-4.95l-35.284-158.783c-0.444-2.218-2.51-3.726-4.758-3.474l-204.391 18.582c-1.706 0.14-3.176 1.26-3.766 2.868l-53.016 141.357c-0.808 2.136 0.136 4.538 2.184 5.55l145.181 72.6zM533.235 665.078l195.081-17.736c1.166-0.1 2.324-0.158 3.484-0.158 0.236 0 0.462 0.056 0.7 0.060l101.903-203.815-94.453-170.361h-219.769c-0.652 1.862-1.448 3.67-2.382 5.408l-91.427 164.563 106.863 222.039zM398.898 464.649c-1.316 0.372-2.65 0.674-3.998 0.902l-182.807 18.276c-2.766 0.256-5.55 0.208-8.306-0.142l-64.506 193.515c0.448 0.488 0.96 0.896 1.386 1.41 1.436 1.48 2.68 3.134 3.7 4.924l95.547 152.733h197.229c0.296-1.386 0.668-2.754 1.114-4.1l53.016-141.357c2.132-5.354 5.454-10.154 9.714-14.038l-102.089-212.123zM511.999 989.864c28.626-0.016 57.19-2.662 85.333-7.902v-31.632l-140.191-70.1c-4.734-2.394-8.922-5.742-12.3-9.834h-199.561c-0.202 0.68-0.242 1.354-0.48 2.034l-9.54 28.772c80.654 57.872 177.473 88.891 276.738 88.661zM70.128 693.802c1.356 3.31 2.862 6.544 4.29 9.818 3.052 7 6.218 13.938 9.596 20.764 1.786 3.608 3.638 7.18 5.514 10.738 3.44 6.53 7.036 12.966 10.786 19.312 1.946 3.308 3.86 6.634 5.886 9.892 4.504 7.244 9.252 14.332 14.142 21.322 1.46 2.088 2.814 4.246 4.31 6.312 6.47 8.938 13.258 17.648 20.36 26.134 1.784 2.132 3.704 4.158 5.526 6.26 5.462 6.304 11.048 12.51 16.852 18.538 2.712 2.818 5.52 5.556 8.306 8.31 5.254 5.196 10.632 10.282 16.136 15.258 3.040 2.742 6.090 5.47 9.206 8.142 1.824 1.564 3.764 3.020 5.614 4.56l6.246-18.754c0.43-1.172 0.282-2.478-0.4-3.524l-97.083-155.291c-0.342-0.366-0.666-0.742-0.976-1.134-0.546-0.718-1.356-1.19-2.25-1.308l-43.292-8.652c0.436 1.088 0.786 2.22 1.232 3.304zM98.161 273.376c-4.058 6.7-7.716 13.4-11.284 20.534-34.74 67.444-52.826 142.225-52.742 218.091 0.056 47.85 7.342 95.415 21.61 141.087l52.124 10.398 66.548-199.641c-2.418-4.376-3.95-9.184-4.508-14.154l-17.656-158.891-52.592-19.782c-0.47 0.808-1.032 1.546-1.5 2.358zM324.268 73.016c-83.218 35.536-154.613 94.005-205.853 168.587l43.794 16.472c0.848-1.056 1.754-2.064 2.71-3.022l150.565-131.741c2.656-2.26 5.612-4.142 8.784-5.592v-44.704zM337.968 148.993l-150.573 131.749c-1.094 0.96-1.652 2.394-1.492 3.842l17.934 161.341c0.254 2.25 2.152 3.952 4.416 3.958l0.442-0.024 182.791-18.276c1.462-0.138 2.762-0.99 3.474-2.276l93.007-167.407c1.074-1.95 0.552-4.392-1.226-5.734l-143.183-107.391c-1.684-1.242-4.006-1.152-5.59 0.218zM373.26 54.812v0c-4.954 1.38-9.906 3.16-14.858 4.868v58.314c1.978 0.994 3.866 2.16 5.642 3.484l143.175 107.383c3.686 2.768 6.838 6.182 9.308 10.074h218.585l35.206-122.999c0.464-1.482 1.024-2.932 1.674-4.342-117.929-77.084-263.974-97.881-398.732-56.782zM981.51 424.152c-0.648-3.498-1.326-6.99-2.054-10.468-0.878-4.196-1.83-8.374-2.82-12.54-0.812-3.412-1.63-6.822-2.516-10.21-1.102-4.21-2.298-8.388-3.514-12.562-0.962-3.298-1.906-6.604-2.938-9.878-1.336-4.232-2.784-8.422-4.236-12.612-1.088-3.14-2.136-6.294-3.29-9.408-1.636-4.42-3.41-8.786-5.178-13.154-1.134-2.806-2.208-5.638-3.394-8.42-2.164-5.068-4.486-10.066-6.824-15.056-0.944-2.014-1.81-4.062-2.782-6.062-3.384-6.97-6.934-13.854-10.648-20.654-0.666-1.218-1.404-2.398-2.082-3.61-3.106-5.56-6.272-11.088-9.596-16.52-1.358-2.218-2.814-4.374-4.208-6.57-2.762-4.356-5.532-8.708-8.434-12.974-1.662-2.442-3.416-4.826-5.122-7.24-2.784-3.932-5.574-7.86-8.478-11.708-1.872-2.482-3.818-4.91-5.738-7.358-2.88-3.67-5.778-7.324-8.766-10.91-2.054-2.464-4.164-4.886-6.268-7.312-3.008-3.464-6.046-6.904-9.154-10.284-2.204-2.396-4.444-4.758-6.696-7.11-3.154-3.292-6.354-6.54-9.602-9.744-2.346-2.312-4.714-4.602-7.106-6.868-3.294-3.116-6.64-6.182-10.036-9.2-2.476-2.212-4.956-4.418-7.482-6.58-3.448-2.954-6.97-5.832-10.51-8.69-2.596-2.096-5.182-4.206-7.828-6.25-0.98-0.758-2-1.47-2.986-2.222l-33.162 115.925-0.516 1.708c-0.356 1.136-0.256 2.368 0.274 3.434l96.959 174.789c0.712 1.314 2.022 2.196 3.508 2.358 0.566 0.032 1.132 0.094 1.692 0.184h112.591c-0.354-2.076-0.68-4.158-1.062-6.226zM987.16 464.321c-0.59 0.028-1.154 0.188-1.746 0.188h-116.415c-1.558 0.024-3.114-0.112-4.642-0.408-0.656-0.072-1.256-0.336-1.904-0.442l-99.673 199.355c3.216 4.276 5.498 9.18 6.694 14.396l35.284 158.791c0.822 3.81 1.062 7.722 0.71 11.604l34.248 11.486c1.676-1.588 3.454-3.048 5.11-4.664 6.934-6.526 13.408-13.2 19.984-20.616 80.6-87.851 125.235-202.785 125.057-322.008-0.072-15.932-0.974-31.846-2.706-47.682z" />
<glyph unicode="&#xe940;" glyph-name="heart" d="M944.16 861.76c-53.92 55.144-126.044 85.514-203.092 85.514-75.86 0-147.186-29.546-200.842-83.204l-27.692-27.71-27.718 27.718c-53.652 53.652-124.964 83.198-200.802 83.198-75.862 0-147.186-29.546-200.834-83.198-53.64-53.638-83.18-124.956-83.18-200.818s29.54-147.18 83.18-200.818l354.964-354.962c20.506-20.502 47.434-30.754 74.368-30.754 26.928 0.002 53.862 10.252 74.362 30.752l352.678 352.646c110.77 110.774 112.838 290.944 4.608 401.636zM902.366 497.308l-352.676-352.65c-20.502-20.5-53.862-20.5-74.362 0.002l-354.966 354.968c-43.708 43.706-67.778 101.818-67.778 163.634s24.070 119.928 67.778 163.636c43.716 43.718 101.836 67.794 163.652 67.794 61.792 0 119.9-24.076 163.618-67.794l27.732-27.732-42.466-42.498c-10.264-10.272-10.256-26.918 0.014-37.182 5.134-5.13 11.858-7.694 18.584-7.694 6.734 0 13.464 2.572 18.598 7.708l107.316 107.4c43.718 43.718 101.836 67.794 163.652 67.794 62.778 0 121.55-24.752 165.494-69.694 88.192-90.194 86.31-237.194-4.19-327.692zM932.58 675.194c-2.89 46.76-22.7 90.732-55.782 123.818-23.424 23.424-52.49 40.444-84.052 49.23-13.99 3.892-28.484-4.294-32.376-18.284-3.892-13.988 4.294-28.484 18.284-32.376 22.854-6.358 43.934-18.72 60.964-35.75 24.008-24.008 38.384-55.926 40.482-89.876 0.862-13.942 12.436-24.672 26.218-24.672 0.544 0 1.094 0.016 1.646 0.052 14.492 0.89 25.512 13.364 24.616 27.858z" />
<glyph unicode="&#xe941;" glyph-name="history" d="M512 1024c-16.568 0-30-13.432-30-30s13.432-30 30-30c249.234 0 452-202.766 452-452s-202.766-452-452-452-452 202.766-452 452c0 120.714 50.74 237.264 138.034 322.072v-52.072c0-16.568 13.432-30 30-30s29.966 13.432 29.966 30v120c0 16.568-13.398 30-29.966 30h-121.034c-16.568 0-30-13.432-30-30s13.432-29.8 30-29.8h44.024c-97.008-96.844-151.024-226.358-151.024-360.2 0-281.48 230.418-512 512-512 281.48 0 512 230.418 512 512 0 281.48-230.418 512-512 512zM512 842c-181.95 0-330-148.098-330-330 0-181.962 148.11-330 330-330 181.95 0 330 148.098 330 330 0 181.962-148.11 330-330 330zM722.858 343.568l-19.938 19.94c-11.714 11.716-30.71 11.716-42.426 0s-11.716-30.71 0-42.426l19.94-19.94c-38.85-31.094-86.434-51.69-138.434-57.466v28.324c0 16.568-13.432 30-30 30s-30-13.432-30-30v-28.324c-52 5.776-99.584 26.372-138.432 57.466l19.94 19.94c11.716 11.716 11.716 30.71 0 42.426-11.714 11.716-30.71 11.716-42.426 0l-19.94-19.94c-31.094 38.848-51.692 86.432-57.466 138.432h28.324c16.568 0 30 13.432 30 30s-13.432 30-30 30h-28.324c5.776 52 26.372 99.584 57.466 138.432l19.94-19.94c11.714-11.716 30.712-11.716 42.426 0 11.716 11.716 11.716 30.71 0 42.426l-19.94 19.94c38.848 31.094 86.432 51.69 138.432 57.466v-28.324c0-16.568 13.432-30 30-30s30 13.432 30 30v28.324c52-5.776 99.584-26.372 138.432-57.466l-19.94-19.94c-11.716-11.716-11.716-30.71 0-42.426 11.714-11.716 30.712-11.716 42.426 0l19.938 19.94c31.096-38.848 51.694-86.432 57.468-138.432h-28.324c-16.568 0-30-13.432-30-30s13.432-29.8 30-29.8h28.324c-5.776-52-26.372-99.784-57.466-138.632zM593.214 473.214l-51.214 51.212v107.574c0 16.568-13.432 30-30 30s-30-13.432-30-30v-120c0-7.956 3.162-15.586 8.788-21.212l60-60c11.714-11.716 30.712-11.716 42.426 0 11.716 11.716 11.716 30.71 0 42.426z" />
<glyph unicode="&#xe942;" glyph-name="icon-visa" d="M965.367 870.403h-906.733c-32.349 0-58.633-26.284-58.633-58.633v-599.539c0-32.349 26.284-58.633 58.633-58.633h906.733c32.349 0 58.633 26.284 58.633 58.633v599.603c0 32.286-26.284 58.57-58.633 58.57zM963.85 213.81l-903.7-1.516-1.516 598.023 905.217 1.516v-598.023zM145.509 594.864l30.391-217.727h74.619l139.128 269.6h-78.41l-59.076-125.038c-8.34-17.754-15.606-33.803-21.861-48.524-1.137 15.353-2.401 30.264-3.917 45.491l-11.942 128.008h-119.289l124.027-98.123-73.671 46.313zM443.226 377.074l51.115 269.6h-70.196l-51.178-269.6zM484.358 392.996c16.427-12.321 45.365-19.65 77.399-19.65 66.405 0 111.012 37.53 111.012 93.321 0 30.517-17.817 54.716-54.4 73.86-20.471 11.499-32.918 19.208-32.918 28.938 0 9.098 9.541 18.892 32.16 18.892 22.051 0 38.857-8.656 42.080-10.362l7.961-4.36 22.43 60.023-5.876 3.285c-16.807 9.288-37.657 13.774-63.751 13.774-63.562 0-107.979-37.151-107.979-90.351 0-38.541 30.328-59.96 56.991-74.366 25.020-13.016 29.949-20.408 29.949-28.811 0-16.175-17.438-21.924-32.413-21.924-19.523 0-39.868 5.497-55.853 15.101l-7.898 4.676-23.757-58.507 4.865-3.538zM740.5 377.074l30.138 65.899h60.782l5.307-65.899h72.913l-31.591 269.6h-81.569l-131.167-269.6h75.187zM813.792 543.623c2.78 6.066 5.623 13.016 8.53 20.155 0.505-6.381 0.948-12.384 1.327-17.565l4.107-46.060h-34.119l20.155 43.47z" />
<glyph unicode="&#xe943;" glyph-name="left-arrow" d="M298.622 512.018l473.994 473.992c8.682 8.682 8.682 22.797 0 31.479s-22.797 8.682-31.479 0l-489.753-489.755c-8.682-8.682-8.682-22.797 0-31.479l489.755-489.755c4.364-4.318 10.062-6.501 15.761-6.501s11.397 2.181 15.717 6.545c8.682 8.682 8.682 22.797 0 31.479l-473.996 473.996z" />
<glyph unicode="&#xe944;" glyph-name="light-bulb" d="M677.2 751.8c-47.2 45.4-109.2 68.8-174.8 66.4-125.8-5-228.4-111.4-228.8-237.4-0.2-55.8 19.4-110.2 55.2-153 51.6-62 80-140.2 80-220.4 0 0-5.4-36.8 20.8-36.8h164.8c26.8 0 20.8 36.8 20.8 36.8 0 78.4 28.8 156 83.4 224.4 33.8 42.6 51.8 93.8 51.8 148.2 0 65.4-26 126.6-73.2 171.8zM666 457.8c-59.4-74.4-91.2-159.2-92.4-245.6h-123.2c-1.2 88.2-32.8 174-89.6 242.2-29.4 35.4-45.6 80.2-45.4 126.2 0.4 104 85 191.8 188.8 196 54.2 2 105.4-17.4 144.2-54.8 39-37.4 60.4-87.8 60.4-141.8-0.2-45-14.8-87.2-42.8-122.2zM786.4 888.4c-8.2 8.2-21.4 8.2-29.4 0l-50.8-50.8c-8.2-8.2-8.2-21.4 0-29.4s21.4-8.2 29.4 0l50.8 50.8c8.2 8 8.2 21.2 0 29.4zM595.2 142.2h-166.4c-11.6 0-20.8-9.4-20.8-20.8 0-11.6 9.4-20.8 20.8-20.8h166.4c11.6 0 20.8 9.4 20.8 20.8s-9.4 20.8-20.8 20.8zM563.8 63.8h-103.4c-11.6 0-20.8-9.4-20.8-20.8 0-11.6 9.4-20.8 20.8-20.8h103.4c11.6 0 20.8 9.4 20.8 20.8s-9.4 20.8-20.8 20.8zM512 888.6c11.6 0 20.8 9.4 20.8 20.8v71.8c0 11.6-9.4 20.8-20.8 20.8s-20.8-9.4-20.8-20.8v-71.8c0-11.6 9.2-20.8 20.8-20.8zM317.8 808c8.2 8.2 8.2 21.4 0 29.4l-50.8 50.8c-8.2 8.2-21.4 8.2-29.4 0s-8.2-21.4 0-29.4l50.8-50.8c8.2-8 21.4-8 29.4 0zM879.2 634.8h-71.8c-11.6 0-20.8-9.4-20.8-20.8s9.4-20.8 20.8-20.8h71.8c11.6 0 20.8 9.4 20.8 20.8s-9.4 20.8-20.8 20.8zM216.6 634.8h-71.8c-11.6 0-20.8-9.4-20.8-20.8s9.4-20.8 20.8-20.8h71.8c11.6 0 20.8 9.4 20.8 20.8s-9.2 20.8-20.8 20.8z" />
<glyph unicode="&#xe945;" glyph-name="like" d="M1007.124 479.664c0 51.93-42.248 94.176-94.176 94.176h-170.75c26.444 47.87 40.506 93.050 40.506 155.448v10.084c0 0.006 0 0.010 0 0.016-0.010 33.564-12.982 65.214-36.534 89.118-23.538 23.89-54.964 37.338-88.49 37.862-0.32 0.004-0.642 0.008-0.962 0.008-32.494 0-60.91-25.844-63.578-58.046-12.722-153.562-160.692-232.698-259.67-280.83v15.89c0 16.6-13.458 30.056-30.056 30.056h-256.482c-16.6 0-30.056-13.458-30.056-30.056v-512.96c0-16.598 13.458-30.056 30.056-30.056h192.36c36.844 0 68.792 21.278 84.258 52.182 107.048-46.5 200.048-52.556 306.848-52.556 18.242 0 36.904 0.176 56.092 0.358 21.218 0.2 43.158 0.408 66.158 0.408h95.030c51.93 0 94.176 42.248 94.176 94.176 0 17.46-4.776 33.824-13.090 47.858 27.058 16.566 45.15 46.398 45.15 80.382 0 17.46-4.774 33.824-13.090 47.858 27.058 16.566 45.15 46.398 45.15 80.382 0 24.456-9.374 46.758-24.712 63.516 16.008 16.892 25.862 39.674 25.862 64.726zM273.356 94.552c0-18.784-15.28-34.064-34.064-34.064h-34.064v98.184c0 16.6-13.458 30.056-30.056 30.056s-30.056-13.458-30.056-30.056v-98.184h-68.126v452.848h196.368v-418.784zM848.828 385.488h62.97c18.784 0 34.064-15.28 34.064-34.064s-15.28-34.064-34.064-34.064h-62.97c-16.6 0-30.056-13.458-30.056-30.056s13.458-30.056 30.056-30.056h30.91c18.784 0 34.064-15.28 34.064-34.064s-15.28-34.064-34.064-34.064h-32.060c-16.6 0-30.056-13.458-30.056-30.056s13.458-30.056 30.056-30.056c18.784 0 34.064-15.28 34.064-34.064s-15.28-34.064-34.064-34.064h-95.030c-23.284 0-45.368-0.208-66.726-0.412-133.984-1.266-232.42-2.202-352.058 53.348v347.11h-0.002c3.128 1.512 6.338 3.062 9.612 4.64 52.25 25.192 123.808 59.692 185.336 111.946 75.322 63.972 117.124 139.962 124.238 225.858 0.084 1.020 2.044 2.898 3.658 2.898 0.010 0 0.022 0 0.032 0 36.312-0.568 65.854-30.586 65.854-66.914v-10.064c0-62.48-16.294-102.012-50.376-155.448h-47.808c-16.6 0-30.056-13.458-30.056-30.056 0-16.6 13.458-30.056 30.056-30.056h64.334c0.030 0 0.060 0 0.090 0h224.116c18.784 0 34.064-15.28 34.064-34.064s-15.28-34.064-34.064-34.064h-64.12c-16.6 0-30.056-13.458-30.056-30.056 0-16.6 13.458-30.058 30.056-30.058zM944.614 801.876h-64.12c-16.6 0-30.056-13.458-30.056-30.056s13.458-30.056 30.056-30.056h64.12c16.6 0 30.056 13.458 30.056 30.056s-13.456 30.056-30.056 30.056zM495.774 801.876h-64.12c-16.6 0-30.056-13.458-30.056-30.056s13.458-30.056 30.056-30.056h64.12c16.598 0 30.056 13.458 30.056 30.056s-13.458 30.056-30.056 30.056zM617.982 953.436l-32.060 55.53c-8.3 14.376-26.682 19.302-41.056 11-14.376-8.3-19.3-26.682-11-41.056l32.060-55.53c5.566-9.644 15.67-15.032 26.056-15.032 5.098 0 10.268 1.298 15 4.032 14.374 8.298 19.3 26.68 11 41.056zM831.402 1019.966c-14.376 8.304-32.76 3.374-41.056-11l-32.060-55.53c-8.302-14.374-3.376-32.758 11-41.056 4.732-2.734 9.9-4.032 15-4.032 10.388 0 20.492 5.39 26.056 15.032l32.060 55.53c8.3 14.374 3.376 32.756-11 41.056z" />
</font>
</defs>
</svg>
