<svg width="17" height="17" viewBox="0 0 17 17" fill="none" xmlns="http://www.w3.org/2000/svg">
<path d="M11.8203 5.04688C11.8203 5.11992 11.7605 5.17969 11.6875 5.17969H10.7578C10.6848 5.17969 10.625 5.11992 10.625 5.04688V4.25H6.375V5.04688C6.375 5.11992 6.31523 5.17969 6.24219 5.17969H5.3125C5.23945 5.17969 5.17969 5.11992 5.17969 5.04688V4.25H3.05469V6.50781H13.9453V4.25H11.8203V5.04688Z" fill="#E6F7FF"/>
<path d="M14.6094 3.05469H11.8203V1.99219C11.8203 1.91914 11.7605 1.85938 11.6875 1.85938H10.7578C10.6848 1.85938 10.625 1.91914 10.625 1.99219V3.05469H6.375V1.99219C6.375 1.91914 6.31523 1.85938 6.24219 1.85938H5.3125C5.23945 1.85938 5.17969 1.91914 5.17969 1.99219V3.05469H2.39062C2.09678 3.05469 1.85938 3.29209 1.85938 3.58594V14.6094C1.85938 14.9032 2.09678 15.1406 2.39062 15.1406H14.6094C14.9032 15.1406 15.1406 14.9032 15.1406 14.6094V3.58594C15.1406 3.29209 14.9032 3.05469 14.6094 3.05469ZM13.9453 13.9453H3.05469V7.63672H13.9453V13.9453ZM13.9453 6.50781H3.05469V4.25H5.17969V5.04688C5.17969 5.11992 5.23945 5.17969 5.3125 5.17969H6.24219C6.31523 5.17969 6.375 5.11992 6.375 5.04688V4.25H10.625V5.04688C10.625 5.11992 10.6848 5.17969 10.7578 5.17969H11.6875C11.7605 5.17969 11.8203 5.11992 11.8203 5.04688V4.25H13.9453V6.50781Z" fill="#D0BEEF"/>
</svg>
