<svg width="77" height="70" viewBox="0 0 77 70" fill="none" xmlns="http://www.w3.org/2000/svg">
<path d="M13.3677 30.0811L15.6203 29.0323L18.0045 28.0833L20.5037 27.2509L23.1016 26.5184L25.7818 25.9024L28.5277 25.403L31.3393 25.0201L34.1839 24.7703L37.0613 24.6538H39.9387L42.8161 24.7703L45.6607 25.0201L48.4723 25.403L51.2182 25.9024L53.8984 26.5184L56.4963 27.2509L58.9955 28.0833L61.3797 29.0323L63.6323 30.0811L65.7369 31.2298L67.6936 32.4618L69.4858 33.777L71.1136 35.1755L72.5605 36.6405L73.8102 38.1555L74.8625 39.7204L75.7175 41.3353L76.3587 42.9668L76.7863 44.6316L77 46.3131V47.9945L76.7863 49.676L76.3587 51.3408L75.7175 52.989L74.8625 54.6039L73.8102 56.1688L72.5605 57.6838L71.1136 59.1488L69.4858 60.5472L67.6936 61.8625L65.7369 63.0944L63.6323 64.2432L61.3797 65.292L58.9955 66.2409L56.4963 67.0733L53.8984 67.8059L51.2182 68.4218L48.4723 68.9213L45.6607 69.2875L42.8161 69.5373L39.9387 69.6538H37.0448L34.1674 69.5373L31.3229 69.2875L28.5112 68.9213L25.7653 68.4218L23.0852 67.8059L20.4873 67.0733L17.988 66.2409L15.6039 65.292L13.3513 64.2432L11.2466 63.0944L9.28998 61.8625L7.49776 60.5472L5.86996 59.1488L4.43946 57.6838L3.18984 56.1688L2.13752 54.6039L1.28251 52.989L0.641255 51.3408L0.213752 49.676L0 47.9945V46.3131L0.213752 44.6316L0.641255 42.9668L1.28251 41.3353L2.13752 39.7204L3.18984 38.1555L4.43946 36.6405L5.86996 35.1755L7.49776 33.777L9.28998 32.4618L11.2466 31.2298L13.3677 30.0811ZM16.7384 29.0489L14.6009 30.0478L12.5949 31.1299L10.7369 32.2953L9.02691 33.5439L7.48132 34.8591L6.11659 36.2409L4.93273 37.6893L3.92975 39.171L3.12407 40.7026L2.5157 42.2676L2.10463 43.8492L1.90732 45.4474V47.0456L2.10463 48.6438L2.5157 50.2254L3.12407 51.7903L3.92975 53.322L4.93273 54.8203L6.11659 56.2687L7.48132 57.6505L9.02691 58.9657L10.7369 60.2143L12.5949 61.3963L14.6009 62.4785L16.7384 63.4773L19.0075 64.3763L21.3752 65.1754L23.8416 65.8747L26.3901 66.4573L29.0045 66.9235L31.6682 67.2731L34.3812 67.5062L37.1106 67.6227H39.8401L42.5695 67.5062L45.2825 67.2731L47.9462 66.9235L50.5605 66.4573L53.1091 65.8747L55.5755 65.1754L57.9432 64.3763L60.2123 63.4773L62.3498 62.4785L64.3558 61.3963L66.2138 60.2143L67.9238 58.9657L69.4694 57.6505L70.8341 56.2687L72.0179 54.8203L73.0209 53.322L73.8266 51.7903L74.435 50.2254L74.846 48.6438L75.0434 47.0456V45.4474L74.846 43.8492L74.435 42.2676L73.8266 40.7026L73.0209 39.171L72.0179 37.6893L70.8341 36.2409L69.4694 34.8591L67.9238 33.5439L66.2138 32.2953L64.3558 31.1299L62.3498 30.0478L60.2123 29.0489L57.9432 28.1499L55.5755 27.3508L53.1091 26.6516L50.5605 26.0689L47.9462 25.6028L45.2825 25.2531L42.5695 25.0201L39.8401 24.9035H37.0942L34.3647 25.0201L31.6517 25.2531L28.988 25.6028L26.3737 26.0689L23.8251 26.6516L21.3587 27.3508L18.991 28.1499L16.7384 29.0489Z" fill="url(#paint0_linear_322_29422)"/>
<path d="M21.9458 22.7452C22.2091 24.3946 22.7355 25.6698 23.5252 27.1252C25.8942 31.3388 28.4295 33.1545 31.4913 38.7403C32.0039 39.6967 32.8213 41.2768 33.0707 42.3302L33.5417 43.1341L35.8415 41.8035L36.2848 41.0827C36.3264 40.958 36.3818 40.8471 36.5203 40.6669C36.7559 40.362 36.9775 40.1679 37.2269 39.9462C38.0027 39.6551 38.3629 39.5719 39.0556 39.4333C41.1892 39.1145 41.1476 39.1284 41.868 38.9482C42.2837 38.8234 42.1313 38.8789 42.5607 38.7264C42.8932 38.5878 42.9486 38.5601 43.2119 38.4215C45.8026 36.9246 45.4562 37.1325 45.6641 36.9939C45.9827 36.786 46.0381 36.7305 46.2321 36.5503C46.3983 36.384 46.3429 36.4394 46.4953 36.2731C46.6477 36.0791 46.5923 36.1484 46.7308 35.9543C46.8694 35.7326 46.8139 35.8157 46.9386 35.6078C47.0495 35.3722 47.0079 35.4553 47.1187 35.2058C47.2296 34.8871 47.2711 34.8039 47.382 34.2772C47.4512 33.8059 47.4651 33.6535 47.4928 33.1545C47.5066 32.2951 47.4651 31.8932 47.3958 31.1586C47.3127 30.4933 47.3404 30.7428 47.2296 30.0636C47.1049 29.426 47.1464 29.6616 46.994 29.0102C46.7585 28.1508 46.6754 27.9152 46.329 27.0143C45.9827 26.2104 45.8719 25.9747 45.4424 25.1985C45.1376 24.6996 45.2623 24.8797 44.9298 24.3669C44.4726 23.7016 44.3341 23.5214 43.7937 22.8977C43.4335 22.5096 43.5721 22.6482 43.1842 22.274C42.8101 21.9275 42.9486 22.0522 42.5469 21.7195C42.159 21.4146 42.3114 21.5255 41.8957 21.2483C41.5078 20.9988 41.6602 21.0958 41.2446 20.8602C40.8567 20.6661 40.9952 20.7354 40.5934 20.5553C40.2055 20.4167 40.3441 20.4582 39.9423 20.3335C39.5544 20.2503 39.7068 20.278 39.305 20.2087C38.931 20.181 39.0695 20.181 38.6816 20.181C38.3214 20.2087 38.4599 20.1949 38.072 20.2642C37.7257 20.3612 37.8503 20.3196 37.504 20.4444C37.1299 20.6246 37.4763 20.4305 35.6891 21.4701C35.6475 21.373 35.6891 21.4701 35.4397 20.8602C35.1488 20.2226 35.2596 20.4721 34.9548 19.8207C34.5115 18.9752 34.3591 18.7257 33.8604 17.9633C33.3616 17.2565 33.2231 17.0763 32.6412 16.3971C32.2671 15.9951 32.4057 16.1338 32.0039 15.7318C31.616 15.3714 31.7684 15.51 31.3528 15.1497C30.9648 14.8447 31.1172 14.9556 30.7016 14.6645C30.3137 14.415 30.4522 14.4982 30.0505 14.2626C29.6626 14.0685 29.8011 14.1378 29.3993 13.9576C29.0114 13.819 29.1638 13.8606 28.762 13.7497C28.388 13.6666 28.5265 13.6943 28.1386 13.6389C27.7784 13.625 27.9169 13.625 27.5429 13.625C27.1965 13.6666 27.3212 13.6389 26.9749 13.722C26.6562 13.819 26.7671 13.7775 26.4484 13.9161C26.1021 14.1101 26.5177 13.8745 23.8993 15.3853C23.5945 15.5932 23.7053 15.51 23.4421 15.7457C23.1788 16.0229 23.262 15.912 23.0264 16.2169C22.7909 16.5634 22.8741 16.4248 22.6662 16.7852C22.4723 17.201 22.5416 17.0485 22.3753 17.4644C22.2229 17.9495 22.2783 17.7693 22.1398 18.2544C22.029 18.8088 22.0705 18.6009 21.9735 19.1553C21.9043 19.7791 21.932 19.5434 21.8904 20.1672C21.8766 20.6107 21.8627 21.1235 21.8904 21.8443C21.8904 22.3571 21.9043 22.3848 21.9458 22.7452ZM20.8514 3.85331C21.1423 3.88104 21.3501 3.92262 21.738 4.06122C21.9597 4.15825 22.0151 4.17211 22.2091 4.283C22.2506 4.29686 48.2963 19.3355 48.615 19.5434C49.3215 20.0147 49.8341 20.5275 50.3606 21.2206C51.3442 22.5373 52.0369 24.159 52.0508 25.7807C52.0508 51.9494 52.0508 50.0782 52.0369 50.4247C51.9677 51.0484 51.843 51.395 51.649 51.7276C51.4966 51.9771 51.3719 52.1018 51.1364 52.2959C50.9009 52.4622 50.7347 52.5315 50.4576 52.6008C50.2913 52.6285 50.2359 52.6424 50.0697 52.6424C49.8895 52.6424 49.8618 52.6424 49.654 52.6147C49.2938 52.5592 49.0583 52.4761 48.7397 52.3236C48.3795 52.1573 48.9752 52.4761 40.2887 47.4586L35.3566 57.0223L30.4245 41.7757C21.4886 36.6058 22.2229 37.0632 21.738 36.7028C20.408 35.6632 19.4937 34.2079 18.9672 32.6278C18.7455 31.8793 18.6763 31.4219 18.6624 30.8675C18.6624 30.7982 18.6486 6.55612 18.6624 6.22347C18.6901 5.82152 18.7317 5.58588 18.8425 5.26709C18.9533 4.96216 19.0365 4.79583 19.2304 4.54634C19.4105 4.33843 19.5491 4.21369 19.8123 4.07509C19.9785 3.99193 19.9924 3.99193 20.1586 3.93648C20.3942 3.85332 20.5604 3.83945 20.8514 3.85331Z" fill="url(#paint1_linear_322_29422)"/>
<path d="M26.3808 16.0088C26.7548 16.1474 26.6163 16.092 26.9765 16.2444C27.3505 16.4385 27.212 16.3553 27.5722 16.5632C27.9463 16.7988 27.8077 16.7157 28.1679 16.9652C28.542 17.2562 28.4035 17.1454 28.7637 17.4503C29.3178 17.9631 29.4564 18.1017 29.9413 18.67C30.4262 19.2799 30.5785 19.4878 31.0496 20.1947C31.5206 20.957 31.6453 21.1926 32.0471 22.0104C32.4627 22.9252 32.6567 23.3965 33.0723 24.6578L33.2385 24.3113C33.4602 23.937 33.3771 24.0756 33.6265 23.7153C33.8758 23.4103 33.7788 23.5212 34.0559 23.2301C34.333 22.9945 34.2222 23.0777 34.527 22.8559C34.8318 22.6757 34.7071 22.745 35.0257 22.5926C35.3444 22.4817 35.2197 22.5094 35.566 22.4262C35.9124 22.3708 35.7877 22.3846 36.1202 22.3569C36.4804 22.3569 36.3557 22.3569 36.7021 22.3846C37.0761 22.4401 36.9376 22.4124 37.2978 22.4955C37.6719 22.6064 37.5333 22.5648 37.8935 22.6896C38.2676 22.8559 38.129 22.7866 38.5031 22.9668C38.8772 23.1886 38.7386 23.1054 39.0988 23.3272C39.4729 23.5905 39.3343 23.4935 39.6945 23.7707C40.0686 24.0756 39.9301 23.9647 40.2764 24.2835C40.6366 24.6301 40.4981 24.5053 40.8444 24.8657C41.3432 25.4478 41.4679 25.6003 41.8974 26.2101C42.3268 26.8755 42.4515 27.0834 42.8117 27.7903C43.1581 28.511 43.2412 28.7189 43.546 29.5783C43.8092 30.4376 43.8785 30.6732 44.0447 31.5326C44.1556 32.184 44.114 31.9484 44.1971 32.5721C44.2664 33.2374 44.2387 32.988 44.2803 33.6394C44.2941 34.277 44.308 34.4156 44.2525 35.0255C44.1971 35.4551 44.1833 35.566 44.0863 35.9818C44.0032 36.2313 44.0447 36.1343 43.9478 36.3838C43.8508 36.6056 43.8923 36.5224 43.7815 36.7442C43.6707 36.9521 43.7122 36.8689 43.5876 37.0768C43.4629 37.257 43.5044 37.1877 43.3659 37.3679C43.1581 37.6035 43.1027 37.6589 42.8671 37.853C42.6316 38.0332 42.5485 38.0748 42.2853 38.2134C41.9251 38.3936 41.8419 38.4213 41.4817 38.546C40.6366 38.7817 40.4427 38.8094 39.2097 38.9896C38.129 39.1559 37.6164 39.1975 36.4665 39.641C35.9955 39.8351 36.1756 39.7658 35.7046 39.9875C35.2751 40.2093 35.4413 40.1261 35.0119 40.3756C34.5962 40.639 34.527 40.6805 34.1252 40.9993C33.7788 41.2904 33.7234 41.3597 33.5295 41.5676C33.3494 41.7755 33.2524 41.9003 33.1277 42.1636C33.0861 42.2606 33.0861 42.2745 33.0584 42.3438C32.7536 41.0964 31.6592 39.0727 31.0634 38.0055C30.3707 36.7996 29.8581 35.9957 28.9992 34.7621C28.3065 33.7919 28.7914 34.4572 25.6326 30.3545C24.2195 28.4278 23.0835 26.723 22.3354 24.4499C22.0583 23.5489 21.9613 23.0084 21.8643 22.1767C21.8089 21.4976 21.8228 21.3867 21.8366 20.763C21.8782 20.167 21.8505 20.3887 21.9197 19.7927C22.0029 19.2383 21.9752 19.4323 22.0721 18.9334C22.1968 18.4482 22.1553 18.6146 22.2938 18.1849C22.4462 17.7829 22.3908 17.9354 22.5709 17.5473C22.7648 17.2147 22.6817 17.3256 22.9034 17.0068C23.125 16.7295 23.0419 16.8266 23.2913 16.5771C23.5407 16.3553 23.4437 16.4385 23.7208 16.2444C23.9979 16.092 23.887 16.1474 24.1918 16.0088C24.5105 15.9118 24.3858 15.9395 24.6906 15.8702C25.0231 15.8286 24.8984 15.8425 25.2309 15.8286C25.5772 15.8425 25.4525 15.8425 25.785 15.8841C26.1591 15.9395 26.0344 15.9118 26.3808 16.0088Z" fill="url(#paint2_linear_322_29422)"/>
<path d="M41.0396 47.8877L35.8166 57.8118L35.3594 57.0079L40.2914 47.458L41.0396 47.8877Z" fill="url(#paint3_linear_322_29422)"/>
<path d="M18.7892 5.4609C18.6922 5.84899 18.6784 6.08462 18.6645 6.47271C18.6645 5.86285 18.6507 5.51634 18.7754 4.92033C18.8585 4.55996 18.9416 4.33819 19.1356 4.00554C19.3157 3.71447 19.4681 3.562 19.7174 3.36795C19.856 3.27093 19.9114 3.24321 20.0776 3.16004C20.2439 3.09074 20.2716 3.07688 20.4794 3.0353C20.8258 2.966 21.0474 2.96599 21.3938 3.02144C21.7955 3.09074 22.0449 3.1739 22.419 3.34023C22.7653 3.50655 20.7842 2.36999 48.8665 18.5868C49.8778 19.1828 50.6259 19.959 51.3048 20.9154C52.2469 22.2876 52.8841 23.8122 52.995 25.4339C53.0088 25.8082 53.0088 50.1057 53.0088 50.1473C52.995 50.5354 52.9673 50.8126 52.8426 51.2561C52.7318 51.5888 52.6348 51.7967 52.427 52.1016C52.233 52.3511 52.0806 52.5035 51.8035 52.6699C51.5126 52.8223 51.3186 52.8778 51 52.9332C50.6259 52.9609 50.4181 52.9471 50.0579 52.8639C49.3791 52.6976 49.0189 52.462 48.4093 52.1155C48.8942 52.3927 49.1851 52.4897 49.573 52.5728C49.8778 52.6283 50.0579 52.6422 50.3904 52.5867C50.6813 52.5313 50.8476 52.462 51.0831 52.3234C51.3325 52.157 51.4572 52.0184 51.6234 51.7828C51.8035 51.5056 51.8867 51.3115 51.9698 50.9928C52.0668 50.6047 52.0806 50.3552 52.0945 49.9809C52.0945 23.8815 52.0945 25.6834 52.0806 25.323C51.9836 24.2696 51.665 23.341 51.1801 22.3985C50.5844 21.2896 49.8224 20.3333 48.7833 19.5986C48.4924 19.4046 50.5151 20.5827 22.3774 4.32433C21.9064 4.06098 21.5323 3.90851 20.992 3.83921C20.6457 3.81149 20.4656 3.82535 20.2023 3.89465C20.0361 3.95009 20.0222 3.95009 19.856 4.03325C19.7174 4.10256 19.6759 4.13028 19.5512 4.24116C19.3295 4.42135 19.2187 4.57382 19.0663 4.83717C18.8862 5.10052 18.8446 5.22527 18.7892 5.4609Z" fill="url(#paint4_linear_322_29422)"/>
<path d="M25.8117 14.9692C26.1996 15.0246 26.0611 14.9969 26.4351 15.08C26.8369 15.1909 26.6845 15.1493 27.0724 15.2879C27.4742 15.4681 27.3357 15.3988 27.7236 15.5929C28.1392 15.8285 27.9868 15.7315 28.3747 15.9948C28.7903 16.2859 28.6379 16.175 29.0259 16.48C29.4415 16.8265 29.2891 16.7017 29.677 17.0621C30.2589 17.6442 30.4113 17.8244 30.9377 18.462C31.4919 19.2105 31.6304 19.4045 32.1015 20.1807C32.6002 21.0678 32.711 21.3034 33.1128 22.1905C33.3899 22.8419 33.2929 22.6063 33.5284 23.2023L33.0713 24.6854C32.8357 23.9646 32.8357 23.9508 32.4894 23.0499C32.1292 22.1766 32.0183 21.941 31.575 21.0955C31.1455 20.3332 30.9931 20.0976 30.5221 19.4184C30.0511 18.7808 29.8987 18.6145 29.3861 18.0462C28.8873 17.5472 28.7488 17.4225 28.1946 16.9928C27.8344 16.7433 27.9729 16.8265 27.5989 16.5908C27.2387 16.3829 27.3772 16.4522 27.0032 16.2721C26.6429 16.1196 26.7815 16.175 26.4074 16.0364C26.0611 15.9394 26.1858 15.9671 25.8256 15.8978C25.4931 15.8562 25.6177 15.8701 25.2714 15.8424C24.9527 15.8562 25.0636 15.8424 24.7311 15.8839C24.4263 15.9533 24.5371 15.9255 24.2323 16.0226C23.9275 16.1473 24.0384 16.1057 23.7613 16.2582C23.4842 16.4522 23.5812 16.3691 23.3318 16.5908C23.0824 16.8403 23.1656 16.7433 22.9439 17.0205C22.7222 17.3393 22.8054 17.2146 22.6114 17.5611C22.4313 17.9492 22.4867 17.7967 22.3343 18.1987C22.1958 18.6283 22.2373 18.462 22.1127 18.9471C22.0157 19.4461 22.0434 19.2521 21.9603 19.8065C21.891 20.4025 21.9187 20.1807 21.8771 20.7767C21.8633 21.4698 21.8633 21.4975 21.8633 20.7767C21.8771 20.1114 21.8633 20.3609 21.9048 19.7095C21.9741 19.1135 21.9326 19.3352 22.0295 18.7531C22.1404 18.2264 22.0849 18.4204 22.2235 17.9076C22.3759 17.4502 22.3066 17.6165 22.4867 17.173C22.6807 16.7849 22.5976 16.9235 22.8192 16.5493C23.0409 16.2166 22.9578 16.3414 23.2071 16.0364C23.4565 15.7731 23.3595 15.8701 23.6505 15.6206C23.9414 15.4266 23.8167 15.4959 24.1354 15.3157C24.454 15.1771 24.3293 15.2325 24.6618 15.1216C25.0082 15.0523 24.8835 15.0662 25.2298 15.0246C25.5762 14.9553 25.4376 14.9553 25.8117 14.9692Z" fill="url(#paint5_linear_322_29422)"/>
<path d="M33.611 23.7293C33.3616 24.0897 33.4447 23.9511 33.2231 24.3253L33.0568 24.6718L33.514 23.1887L33.6803 22.9531C33.9435 22.6343 33.8465 22.7452 34.1374 22.4403C34.4284 22.1908 34.3175 22.2739 34.6362 22.0383C34.9548 21.8443 34.8301 21.9136 35.1765 21.7472C35.5229 21.6225 35.3843 21.6641 35.7584 21.567C36.1324 21.4977 35.9939 21.5255 36.368 21.4839C36.7559 21.4839 36.6173 21.4839 36.9914 21.5116C37.3932 21.5671 37.2408 21.5393 37.6287 21.6363C38.0443 21.7611 37.8919 21.7057 38.2798 21.8581C38.6954 22.0383 38.543 21.969 38.931 22.1631C39.3466 22.3987 39.1942 22.3017 39.5821 22.5511C39.9977 22.8422 39.8453 22.7313 40.2332 23.0224C40.635 23.3551 40.4826 23.2303 40.8705 23.5768C41.2585 23.9649 41.1199 23.8125 41.4801 24.2005C41.9927 24.7827 42.1174 24.949 42.6162 25.6698C43.101 26.4182 43.2119 26.6261 43.5998 27.3885C43.9877 28.2201 44.0847 28.4557 44.3895 29.3012C44.5973 29.9388 44.5142 29.7032 44.6943 30.3269C44.8605 30.9922 44.8051 30.7427 44.9298 31.3803C45.0406 32.0595 45.0129 31.81 45.096 32.4753C45.1653 33.1683 45.1376 32.9188 45.1792 33.598C45.193 34.2772 45.2069 34.4019 45.1515 35.0672C45.0822 35.6771 45.0268 35.9681 44.819 36.5364C44.722 36.7859 44.7635 36.6889 44.6389 36.9384C44.4726 37.2433 44.4172 37.3265 44.1955 37.6037C43.9877 37.8393 43.9046 37.9086 43.6552 38.1165C43.4058 38.2967 43.3227 38.3522 43.0456 38.5046C42.6577 38.6987 42.5607 38.7264 42.2144 38.8373C41.3554 39.0868 41.1199 39.1006 39.9007 39.2947C38.7509 39.4749 38.3352 39.5026 37.2131 39.9323C37.1853 39.9461 37.31 39.8907 36.8251 40.0986C36.4511 40.2788 36.5065 40.2372 36.1047 40.459C35.5229 40.7916 35.2458 40.9718 34.747 41.4015C34.4422 41.6787 34.1236 41.9836 33.9712 42.3717C33.9573 42.4272 34.0128 42.3163 33.514 43.134L33.043 42.3301C33.1954 41.8034 33.6941 41.346 34.0959 40.9995C34.4977 40.6807 34.5808 40.6391 34.9825 40.3758C35.412 40.1263 35.2458 40.2095 35.6752 39.9877C36.3402 39.6689 36.6866 39.5303 37.3932 39.3224C38.0997 39.1422 38.2383 39.1283 39.1803 38.9897C40.4549 38.7957 40.1086 38.8511 40.7736 38.7264C41.1892 38.6294 41.0368 38.6709 41.4524 38.5462C41.8126 38.4215 41.8957 38.3937 42.2559 38.2135C42.5192 38.0749 42.5884 38.0195 42.8378 37.8532C43.0733 37.6591 43.1426 37.6037 43.3366 37.3681C43.4751 37.1879 43.4335 37.2572 43.5582 37.077C43.6829 36.8829 43.6414 36.9522 43.7522 36.7443C43.863 36.5226 43.8215 36.6057 43.9184 36.384C44.0154 36.1345 43.9739 36.2315 44.057 35.982C44.1678 35.5662 44.1817 35.4553 44.2232 35.0256C44.2786 34.4158 44.2648 34.2633 44.2509 33.6396C44.2094 32.9881 44.2371 33.2376 44.1678 32.5723C44.0847 31.9486 44.1263 32.1842 44.0154 31.5328C43.8353 30.6734 43.7799 30.4378 43.5167 29.5784C43.2119 28.7191 43.1288 28.525 42.7824 27.7904C42.4222 27.0835 42.2975 26.8756 41.868 26.2103C41.4386 25.6005 41.3277 25.4341 40.8151 24.8659C40.4826 24.5055 40.6073 24.6441 40.2471 24.2837C39.9007 23.9649 40.0393 24.0897 39.6652 23.7709C39.305 23.4937 39.4436 23.5907 39.0695 23.3273C38.7093 23.1056 38.8478 23.1749 38.4738 22.967C38.1136 22.7868 38.2521 22.8561 37.8642 22.6898C37.504 22.565 37.6425 22.6066 37.2685 22.4957C36.9083 22.4125 37.0468 22.4403 36.6727 22.3848C36.3264 22.3571 36.4511 22.3571 36.0909 22.3571C35.7584 22.3848 35.8831 22.371 35.5367 22.4264C35.1904 22.5234 35.315 22.4818 34.9964 22.5927C34.6778 22.7452 34.7886 22.6898 34.4976 22.8561C34.1929 23.0779 34.3037 22.9947 34.0266 23.2303C33.7634 23.5352 33.8604 23.4244 33.611 23.7293Z" fill="url(#paint6_linear_322_29422)"/>
<path d="M37.2282 39.9458C36.8957 40.2369 36.5078 40.5834 36.3138 40.9992C36.2584 41.1239 36.3415 40.9715 35.8428 41.8031L33.543 43.1337C34.0417 42.3159 33.9863 42.4268 34.0002 42.3714C34.0694 42.1912 34.1525 42.0803 34.2634 41.9278C34.5682 41.5675 34.8453 41.3041 35.4825 40.8467C36.009 40.5141 36.0921 40.4725 36.4662 40.2646C36.9372 40.0567 36.771 40.1398 37.2282 39.9458Z" fill="url(#paint7_linear_322_29422)"/>
<path d="M28.097 13.6389C28.4849 13.6943 28.3463 13.6666 28.7204 13.7497C29.1222 13.8606 28.9698 13.8191 29.3577 13.9577C29.7595 14.1378 29.6209 14.0685 30.0088 14.2626C30.4244 14.4982 30.2721 14.4012 30.66 14.6645C31.0756 14.9556 30.9232 14.8447 31.3111 15.1497C31.7267 15.4962 31.5743 15.3714 31.9623 15.7318C32.558 16.3278 32.6965 16.4941 33.223 17.1317C33.7633 17.8525 33.9018 18.0742 34.3867 18.8504C34.8439 19.6682 34.9824 19.9177 35.3981 20.8602C35.6613 21.4839 35.6197 21.373 35.6474 21.4701C34.7469 21.9968 34.9825 21.8582 34.6222 22.0661C34.3036 22.3017 34.4144 22.2047 34.1235 22.468C33.8326 22.773 33.9295 22.6621 33.6663 22.9809L33.5001 23.2165C33.0983 22.1908 32.9875 21.9413 32.5995 21.1651C32.1562 20.3335 32.0454 20.1256 31.5051 19.3078C31.0063 18.6009 30.8539 18.4069 30.2859 17.7416C29.9118 17.3258 30.0504 17.4782 29.6486 17.0763C29.2607 16.7159 29.4131 16.8545 28.9975 16.4941C28.6096 16.1892 28.7481 16.3001 28.3463 16.009C27.9584 15.7595 28.097 15.8427 27.6952 15.6071C27.3073 15.413 27.4597 15.4823 27.044 15.3021C26.6561 15.1635 26.8085 15.2051 26.4068 15.0942C26.0327 15.0111 26.1712 15.0388 25.7833 14.9833C25.4231 14.9695 25.5617 14.9695 25.1876 14.9695C24.8412 15.0111 24.9798 14.9833 24.6196 15.0665C24.3009 15.1635 24.4118 15.1219 24.0931 15.2605L23.8438 15.3991C26.6423 13.7775 26.2682 13.9854 26.6561 13.8191C26.9748 13.722 26.8501 13.7497 27.1964 13.6666C27.5566 13.625 27.4181 13.6389 27.7783 13.625L28.097 13.6389Z" fill="url(#paint8_linear_322_29422)"/>
<path d="M37.4771 20.4303C37.8234 20.3056 37.6849 20.3472 38.0451 20.2502C38.4192 20.1808 38.2806 20.2086 38.6547 20.167C39.0426 20.167 38.904 20.167 39.2781 20.1947C39.6799 20.264 39.5275 20.2363 39.9154 20.3195C40.331 20.4442 40.1786 20.3888 40.5665 20.5412C40.9822 20.7214 40.8298 20.6521 41.2177 20.8462C41.6333 21.0818 41.4809 20.9848 41.8688 21.2343C42.2844 21.5253 42.132 21.4144 42.52 21.7055C42.9217 22.0382 42.7832 21.9134 43.1573 22.2599C43.5452 22.648 43.4066 22.4956 43.7668 22.8837C44.3071 23.5074 44.4457 23.6876 44.9029 24.3529C45.2354 24.8657 45.1107 24.6717 45.4155 25.1845C45.845 25.9607 45.9558 26.1963 46.3021 27.0002C46.6208 27.8041 46.7039 28.0398 46.9671 28.9962C47.1195 29.6615 47.078 29.412 47.2027 30.0496C47.3135 30.7287 47.2858 30.4792 47.3689 31.1445C47.4382 31.893 47.4797 32.2811 47.4659 33.1404C47.4382 33.6533 47.4243 33.7919 47.355 34.2632C47.2442 34.8314 47.1749 35.0671 46.9256 35.5938C46.8009 35.8155 46.8563 35.7324 46.7178 35.9403C46.5792 36.1343 46.6346 36.065 46.4822 36.2591C46.3298 36.4254 46.3853 36.37 46.219 36.5363C46.0112 36.7303 45.9558 36.7719 45.651 36.9798C45.4709 37.0907 45.9419 36.8135 43.1988 38.4074C43.3928 38.2966 43.3235 38.3382 43.5036 38.2134C43.7391 38.0332 43.8084 37.9778 44.0578 37.7283C44.2933 37.4649 44.3487 37.3956 44.5288 37.1046C44.7228 36.7581 44.7505 36.6749 44.889 36.3145C45.0137 35.8848 45.0414 35.7878 45.1107 35.3304C45.1661 34.9146 45.18 34.7899 45.18 34.1523C45.1661 33.4731 45.18 33.7365 45.1384 33.0157C45.0691 32.3504 45.0968 32.5999 45.0137 31.9069C44.8613 31.0059 44.8197 30.7842 44.5427 29.7862C44.2794 28.9407 44.1963 28.7051 43.8223 27.8319C43.4205 26.9864 43.3096 26.7785 42.8802 26.0716C42.4368 25.3785 42.2844 25.1706 41.7718 24.5331C41.4116 24.1172 41.5502 24.2697 41.1761 23.8678C40.8021 23.5074 40.9545 23.6321 40.5527 23.2718C40.1648 22.953 40.3172 23.0638 39.9154 22.7589C39.5275 22.4817 39.6799 22.5787 39.2642 22.3292C38.8763 22.1075 39.0149 22.1906 38.6131 21.9827C38.2252 21.8164 38.3637 21.8718 37.962 21.7194C37.5741 21.6085 37.7264 21.6362 37.3108 21.553C36.9229 21.4976 37.0753 21.5115 36.6735 21.4837C36.2995 21.4837 36.438 21.4837 36.064 21.5115C35.7037 21.5669 35.8423 21.5392 35.4682 21.6362C35.108 21.761 35.2466 21.7194 34.9141 21.8718C37.4632 20.4165 37.103 20.6105 37.4771 20.4303Z" fill="url(#paint9_linear_322_29422)"/>
<path d="M43.4877 49.3158L40.4121 55.1511L35.8125 57.8123L41.0355 47.8882L43.4877 49.3158Z" fill="url(#paint10_linear_322_29422)"/>
<path d="M27.3917 0.900779C55.5156 17.1453 53.5206 15.981 53.8392 16.2028C54.4349 16.6186 54.8506 17.0206 55.3355 17.575C55.9312 18.2957 56.3884 18.9888 56.8456 19.9867C57.2196 20.8599 57.4551 21.6639 57.5521 22.6341C57.5798 23.0222 57.566 21.1094 57.566 47.3474C57.5521 47.9434 57.4967 48.4008 57.2612 48.9691C57.1781 49.1493 57.1503 49.1909 57.0395 49.3711C56.9148 49.5512 56.8871 49.579 56.7624 49.7037C56.6377 49.8285 56.5962 49.8562 56.4438 49.9671C56.3052 50.0502 55.7926 50.3413 51.7611 52.6837C51.8719 52.6144 51.8304 52.6421 51.9412 52.5728C52.0936 52.4481 52.1352 52.4204 52.2598 52.2956C52.4954 52.0323 52.6062 51.8382 52.7309 51.5194C52.8556 51.1729 52.911 50.9373 52.9664 50.466C52.9941 50.0779 52.9803 51.8937 52.9803 25.7666C52.9803 25.5171 52.9664 25.4062 52.9525 25.129C52.7724 23.7013 52.2737 22.4678 51.4979 21.2342C50.8329 20.2362 50.1402 19.46 49.1288 18.767C48.7825 18.5452 22.7229 3.50656 22.6813 3.47883C22.3073 3.28479 22.0441 3.17391 21.6284 3.07688C21.2544 2.99372 21.0327 2.97986 20.6864 3.00758C20.3261 3.06302 20.1322 3.13232 19.8828 3.27093C24.8841 0.387936 24.5239 0.581986 24.7595 0.484963C24.9257 0.429521 24.9811 0.415662 25.1751 0.37408C25.4937 0.332499 25.7154 0.3325 26.1033 0.401803C26.5882 0.498827 26.9484 0.651289 27.3917 0.900779Z" fill="url(#paint11_linear_322_29422)"/>
<defs>
<linearGradient id="paint0_linear_322_29422" x1="0.0115426" y1="47.1423" x2="76.9431" y2="47.1423" gradientUnits="userSpaceOnUse">
<stop stop-color="#1D409A"/>
<stop offset="0.2208" stop-color="#33339A"/>
<stop offset="0.4568" stop-color="#442999"/>
<stop offset="0.6337" stop-color="#4A2599"/>
<stop offset="1" stop-color="#661399"/>
</linearGradient>
<linearGradient id="paint1_linear_322_29422" x1="18.6579" y1="30.4327" x2="52.0577" y2="30.4327" gradientUnits="userSpaceOnUse">
<stop stop-color="#80FFE4"/>
<stop offset="0.1899" stop-color="#7BFAE5"/>
<stop offset="0.414" stop-color="#6DECE9"/>
<stop offset="0.6554" stop-color="#56D4EF"/>
<stop offset="0.9073" stop-color="#37B3F7"/>
<stop offset="1" stop-color="#29A5FB"/>
</linearGradient>
<linearGradient id="paint2_linear_322_29422" x1="21.8431" y1="29.0675" x2="44.2759" y2="29.0675" gradientUnits="userSpaceOnUse">
<stop stop-color="#D6FFFF"/>
<stop offset="0.223" stop-color="#D1FFFF"/>
<stop offset="0.486" stop-color="#C3FFFF"/>
<stop offset="0.7681" stop-color="#ABFFFF"/>
<stop offset="1" stop-color="#92FFFF"/>
</linearGradient>
<linearGradient id="paint3_linear_322_29422" x1="36.5619" y1="49.6098" x2="39.9285" y2="55.4383" gradientUnits="userSpaceOnUse">
<stop stop-color="#1ED2FF"/>
<stop offset="0.494" stop-color="#5E92FF"/>
<stop offset="1" stop-color="#9958FE"/>
</linearGradient>
<linearGradient id="paint4_linear_322_29422" x1="26.6951" y1="-0.674931" x2="56.0784" y2="50.1948" gradientUnits="userSpaceOnUse">
<stop stop-color="#1ED2FF"/>
<stop offset="0.494" stop-color="#5E92FF"/>
<stop offset="1" stop-color="#9958FE"/>
</linearGradient>
<linearGradient id="paint5_linear_322_29422" x1="23.8829" y1="15.3846" x2="30.1983" y2="26.3182" gradientUnits="userSpaceOnUse">
<stop stop-color="#46FAFF"/>
<stop offset="0.494" stop-color="#86BAFF"/>
<stop offset="1" stop-color="#C180FF"/>
</linearGradient>
<linearGradient id="paint6_linear_322_29422" x1="31.8799" y1="23.6389" x2="41.1203" y2="39.6363" gradientUnits="userSpaceOnUse">
<stop stop-color="#46FAFF"/>
<stop offset="0.494" stop-color="#86BAFF"/>
<stop offset="1" stop-color="#C180FF"/>
</linearGradient>
<linearGradient id="paint7_linear_322_29422" x1="35.1102" y1="41.0527" x2="35.6167" y2="41.9296" gradientUnits="userSpaceOnUse">
<stop stop-color="#4074EE"/>
<stop offset="1" stop-color="#7B3AE0"/>
</linearGradient>
<linearGradient id="paint8_linear_322_29422" x1="27.063" y1="13.5452" x2="32.8569" y2="23.5757" gradientUnits="userSpaceOnUse">
<stop stop-color="#00B4FE"/>
<stop offset="0.5298" stop-color="#4074EE"/>
<stop offset="1" stop-color="#7B3AE0"/>
</linearGradient>
<linearGradient id="paint9_linear_322_29422" x1="37.6786" y1="20.2874" x2="46.9205" y2="36.2876" gradientUnits="userSpaceOnUse">
<stop stop-color="#00B4FE"/>
<stop offset="0.5298" stop-color="#4074EE"/>
<stop offset="1" stop-color="#7B3AE0"/>
</linearGradient>
<linearGradient id="paint10_linear_322_29422" x1="37.5487" y1="49.9104" x2="40.5379" y2="55.0854" gradientUnits="userSpaceOnUse">
<stop stop-color="#4074EE"/>
<stop offset="1" stop-color="#7B3AE0"/>
</linearGradient>
<linearGradient id="paint11_linear_322_29422" x1="30.145" y1="-2.67015" x2="59.5294" y2="48.2015" gradientUnits="userSpaceOnUse">
<stop stop-color="#00B4FE"/>
<stop offset="0.5298" stop-color="#4074EE"/>
<stop offset="1" stop-color="#7B3AE0"/>
</linearGradient>
</defs>
</svg>
