<svg width="81" height="76" viewBox="0 0 81 76" fill="none" xmlns="http://www.w3.org/2000/svg">
<path d="M14.0019 34.5507L16.3614 33.4659L18.8587 32.4843L21.4765 31.6233L24.1976 30.8656L27.0049 30.2285L29.8811 29.7119L32.8261 29.3159L35.8056 29.0576L38.8196 28.937H41.8335L44.8474 29.0576L47.8269 29.3159L50.772 29.7119L53.6481 30.2285L56.4554 30.8656L59.1766 31.6233L61.7944 32.4843L64.2917 33.4659L66.6511 34.5507L68.8556 35.7389L70.9051 37.0132L72.7824 38.3735L74.4874 39.82L76.003 41.3354L77.3119 42.9024L78.4141 44.5211L79.3097 46.1914L79.9814 47.8962L80.4292 49.6182L80.6531 51.3574V53.0966L80.4292 54.8358L79.9814 56.5578L79.3097 58.2626L78.4141 59.9329L77.3119 61.5516L76.003 63.1186L74.4874 64.634L72.7824 66.0804L70.9051 67.4408L68.8556 68.7151L66.6511 69.9033L64.2917 70.9881L61.7944 71.9697L59.1766 72.8307L56.4554 73.5883L53.6481 74.2255L50.772 74.7421L47.8269 75.1209L44.8474 75.3792L41.8335 75.4998H38.8196L35.8056 75.3792L32.8261 75.1209L29.8811 74.7421L27.0049 74.2255L24.1976 73.5883L21.4765 72.8307L18.8587 71.9697L16.3614 70.9881L14.0019 69.9033L11.7974 68.7151L9.73072 67.3719L7.85347 66.0116L6.14844 64.5651L4.65008 63.0669L3.34117 61.4999L2.23893 59.8813L1.34336 58.2109L0.671678 56.5061L0.223893 54.7842L0 53.0622V51.3229L0.223893 49.5837L0.671678 47.8617L1.34336 46.157L2.23893 44.4866L3.34117 42.868L4.65008 41.3009L6.14844 39.7856L7.85347 38.3391L9.73072 36.9787L11.7802 35.7045L14.0019 34.5507ZM17.5325 33.4831L15.2936 34.5163L13.1924 35.6356L11.2463 36.841L9.45516 38.1325L7.83625 39.4928L6.40678 40.9221L5.16676 42.4202L4.11618 43.9528L3.27228 45.537L2.63505 47.1557L2.20448 48.7916L1.99781 50.4447V52.0978L2.20448 53.751L2.63505 55.3868L3.27228 57.0055L4.11618 58.5898L5.16676 60.1396L6.40678 61.6377L7.83625 63.0669L9.45516 64.4273L11.2463 65.7188L13.1924 66.9414L15.2936 68.0607L17.5325 69.0939L19.9092 70.0238L22.3893 70.8504L24.9727 71.5736L27.6421 72.1763L30.3805 72.6585L33.1706 73.0201L36.0123 73.2612L38.8712 73.3817H41.7474L44.6063 73.2612L47.448 73.0201L50.2381 72.6585L52.9765 72.1763L55.646 71.5736L58.2293 70.8504L60.7094 70.0238L63.0861 69.0939L65.325 68.0607L67.4262 66.9414L69.3723 65.7188L71.1635 64.4273L72.7824 63.0669L74.2118 61.6377L75.4519 60.1396L76.5024 58.5898L77.3463 57.0055L77.9836 55.3868L78.4141 53.751L78.6208 52.0978V50.4447L78.4141 48.7916L77.9836 47.1557L77.3463 45.537L76.5024 43.9528L75.4519 42.4202L74.2118 40.9221L72.7824 39.4928L71.1635 38.1325L69.3723 36.841L67.4262 35.6356L65.325 34.5163L63.0861 33.4831L60.7094 32.5532L58.2121 31.7266L55.6287 31.0034L52.9592 30.4007L50.2209 29.9185L47.4308 29.5569L44.5891 29.3159L41.7302 29.1953H38.854L35.9951 29.3159L33.1534 29.5569L30.3633 29.9185L27.6249 30.4007L24.9554 31.0034L22.3721 31.7266L19.892 32.5532L17.5325 33.4831Z" fill="url(#paint0_linear_322_28974)"/>
<mask id="mask0_322_28974" style="mask-type:alpha" maskUnits="userSpaceOnUse" x="38" y="26" width="5" height="20">
<path d="M40.4744 45.0395C39.3721 45.0395 38.4766 44.1441 38.4766 43.042V28.4912C38.4766 27.3891 39.3721 26.4937 40.4744 26.4937C41.5766 26.4937 42.4722 27.3891 42.4722 28.4912V43.042C42.4722 44.1441 41.5766 45.0395 40.4744 45.0395Z" fill="url(#paint1_linear_322_28974)"/>
</mask>
<g mask="url(#mask0_322_28974)">
<path opacity="0.5" d="M46.9502 15.4887C46.6918 15.3165 46.468 15.437 46.4507 15.7814C46.4507 15.9708 46.4335 16.143 46.4163 16.3324C46.1752 16.4702 45.8824 16.453 45.5896 16.2808C45.1246 16.0053 44.7113 15.3681 44.384 14.4382C44.3324 14.3177 44.2462 14.2316 44.1774 14.2488C44.1429 14.266 44.1257 14.3005 44.1085 14.3521C43.8157 14.7999 43.3851 14.9204 42.9373 14.6449C42.4723 14.3521 42.059 13.7322 41.7145 12.8023C41.6629 12.6818 41.5768 12.5957 41.5079 12.6129C41.4734 12.6301 41.4562 12.6646 41.439 12.7162C41.1462 13.164 40.7156 13.2845 40.2678 13.009C39.8028 12.7162 39.3895 12.0963 39.045 11.1665C38.9934 11.0459 38.9073 10.9598 38.8384 10.977C38.8039 10.9943 38.7867 11.0287 38.7695 11.0804C38.4767 11.5281 38.0461 11.6486 37.5984 11.3731C37.1333 11.0976 36.72 10.4604 36.3928 9.53056C36.3411 9.41002 36.255 9.32392 36.1861 9.34114C36.1517 9.35836 36.1344 9.3928 36.1172 9.44446C35.8244 9.89218 35.3939 10.0127 34.9461 9.7372C34.6533 9.565 34.3777 9.23782 34.1194 8.7901C34.1022 8.60068 34.085 8.41126 34.085 8.20462C34.0677 7.843 33.8438 7.44694 33.5855 7.29197C33.3272 7.15421 33.1205 7.32641 33.1377 7.68802C33.3272 12.148 35.015 15.4198 36.6339 18.5882C37.8395 20.9302 39.0795 23.3409 39.8201 26.3717V26.3889C39.8373 26.4578 39.8545 26.5094 39.889 26.5783C39.889 26.5955 39.9062 26.6127 39.9062 26.6127C39.9234 26.6644 39.9578 26.7161 39.9923 26.7677L40.0095 26.7849C40.044 26.8194 40.0612 26.871 40.0956 26.9055C40.0956 26.9055 40.1128 26.9055 40.1128 26.9227C40.1645 26.9744 40.2162 27.026 40.2678 27.0605C40.3195 27.0949 40.3712 27.1121 40.4228 27.1121H40.4401C40.4745 27.1121 40.509 27.1121 40.5262 27.1121H40.5434C40.5778 27.0949 40.5951 27.0777 40.6295 27.0605L40.6467 27.0432C40.6812 27.0088 40.6984 26.9744 40.7156 26.9399C41.4562 24.8046 42.6962 23.9092 43.9018 23.031C45.5379 21.8428 47.2257 20.6202 47.398 16.3841C47.4152 16.0914 47.2085 15.6609 46.9502 15.4887ZM43.2129 21.7739C42.1451 22.5488 41.0601 23.341 40.2506 24.9424C39.4412 22.3594 38.3561 20.2414 37.2883 18.175C35.8244 15.3165 34.5327 12.8023 34.1539 9.46168C34.395 9.80608 34.6361 10.0644 34.9116 10.2194C34.9116 10.2194 34.9116 10.2194 34.9289 10.2194C35.4283 10.5121 35.9105 10.4432 36.255 10.0127C36.6167 10.8909 37.0817 11.5453 37.5811 11.838C37.5811 11.838 37.5811 11.838 37.5984 11.838C38.0978 12.1308 38.58 12.0619 38.9245 11.6314C39.2862 12.5096 39.7512 13.164 40.2506 13.4567C40.2506 13.4567 40.2506 13.4567 40.2678 13.4567C40.7673 13.7494 41.2495 13.6806 41.594 13.2501C41.9557 14.1283 42.4207 14.7826 42.9201 15.0754C42.9201 15.0754 42.9201 15.0754 42.9373 15.0754C43.4368 15.3681 43.919 15.2992 44.2635 14.8687C44.6251 15.747 45.0902 16.4013 45.5896 16.6941C45.5896 16.6941 45.5896 16.6941 45.6068 16.6941C45.8652 16.849 46.1407 16.9007 46.3646 16.849C45.9857 19.7592 44.694 20.7063 43.2129 21.7739Z" fill="white"/>
<mask id="mask1_322_28974" style="mask-type:alpha" maskUnits="userSpaceOnUse" x="19" y="-8" width="35" height="36">
<path d="M36.4693 27.2675C45.962 27.2675 53.6574 19.5733 53.6574 10.082C53.6574 0.590697 45.962 -7.10352 36.4693 -7.10352C26.9766 -7.10352 19.2812 0.590697 19.2812 10.082C19.2812 19.5733 26.9766 27.2675 36.4693 27.2675Z" fill="url(#paint2_radial_322_28974)"/>
</mask>
<g mask="url(#mask1_322_28974)">
<path d="M36.4732 27.267C45.9659 27.267 53.6613 19.5728 53.6613 10.0815C53.6613 0.590209 45.9659 -7.104 36.4732 -7.104C26.9805 -7.104 19.2852 0.590209 19.2852 10.0815C19.2852 19.5728 26.9805 27.267 36.4732 27.267Z" fill="url(#paint3_radial_322_28974)"/>
</g>
</g>
<g clip-path="url(#clip0_322_28974)">
<path d="M56.6537 8.55551C57.6406 12.1694 56.6769 15.9931 54.3317 18.7326C54.262 18.8142 54.1924 18.8842 54.1227 18.9658C53.1939 19.9916 52.0677 20.8426 50.7674 21.4605C46.4252 23.5239 41.2007 22.3931 38.0195 18.9658C37.9498 18.8842 37.8802 18.8142 37.8105 18.7326C37.3461 18.208 36.9281 17.6251 36.5682 17.0073C35.6162 15.3402 35.0938 13.4284 35.0938 11.5049C35.0938 6.18902 39.0296 1.53763 44.2309 0.651649C49.7109 -0.28096 55.1792 3.19301 56.6537 8.55551Z" fill="url(#paint4_radial_322_28974)"/>
<path d="M61.7497 43.5403C61.8426 48.8794 55.1088 51.4791 50.8362 52.2718C45.6233 53.2394 39.6557 52.7381 35.0001 50.0452C32.6896 48.7046 30.4141 46.478 30.4141 43.6219C30.4141 35.3216 31.1571 24.6316 37.8213 18.7445C37.891 18.8261 37.9606 18.8961 38.0303 18.9777C36.73 21.0411 38.1812 23.1278 40.0272 24.2003C42.5466 25.6575 45.7975 25.9722 48.6768 25.4243C48.7696 25.401 48.8741 25.3893 48.967 25.366C49.0599 25.3427 49.1644 25.3194 49.2689 25.2961C49.4198 25.2611 49.5707 25.2261 49.7101 25.1795C52.2643 24.4917 56.1304 22.0902 54.1567 18.966L54.1451 18.9543C54.2148 18.8727 54.2844 18.8028 54.3541 18.7212L54.3657 18.7328C60.9951 24.6083 61.7613 35.24 61.773 43.5169C61.7497 43.5403 61.7497 43.5403 61.7497 43.5403Z" fill="url(#paint5_linear_322_28974)"/>
<g opacity="0.6">
<path d="M46.0836 29.0815C46.0816 29.0815 46.0816 29.0815 46.0796 29.0815C45.8585 29.0815 45.6514 29.0233 45.4745 28.9208L42.373 39.0486C42.3148 39.2374 42.3771 39.4383 42.5359 39.5829L45.5489 42.3268C45.8323 42.5839 46.3268 42.5839 46.6102 42.3268L49.6273 39.5789C49.7861 39.4343 49.8484 39.2354 49.7921 39.0486L46.7831 28.8525C46.5901 28.9972 46.3449 29.0795 46.0836 29.0815Z" fill="#0050B3"/>
<path d="M46.6869 28.1975L48.701 25.1704L46.0839 24.375L43.4648 25.1704L45.5231 28.2638C45.5714 28.3361 45.6297 28.3944 45.696 28.4426C45.8065 28.5209 45.9392 28.5631 46.0839 28.5631C46.2266 28.5631 46.3613 28.5209 46.4719 28.4426C46.5382 28.3964 46.5965 28.3361 46.6427 28.2658L46.6869 28.1975Z" fill="#0050B3"/>
</g>
<path d="M48.6641 25.424C48.7569 25.4007 48.8614 25.389 48.9543 25.3657C48.8614 25.389 48.7569 25.4124 48.6641 25.424Z" fill="#F7931E"/>
<path d="M48.6639 25.4242C45.7846 25.9721 42.5338 25.6574 40.0144 24.2002C38.1684 23.1277 36.7172 21.0526 38.0175 18.9775C41.1987 22.4049 46.4116 23.5357 50.7654 21.4723C52.0657 20.8544 53.1919 20.0034 54.1207 18.9775L54.1323 18.9892C56.106 22.1134 52.2399 24.5149 49.6856 25.2027C49.5347 25.2377 49.3954 25.2843 49.2445 25.3193C49.1516 25.3426 49.0471 25.3659 48.9426 25.3892C48.8613 25.3892 48.7568 25.4125 48.6639 25.4242Z" fill="url(#paint6_linear_322_28974)"/>
</g>
<g clip-path="url(#clip1_322_28974)">
<path d="M32.7684 19.0744C33.6612 22.2752 32.7894 25.6619 30.6675 28.0884C30.6045 28.1607 30.5414 28.2226 30.4784 28.2949C29.6381 29.2035 28.6191 29.9573 27.4426 30.5045C23.514 32.3321 18.787 31.3305 15.9088 28.2949C15.8458 28.2226 15.7828 28.1607 15.7197 28.0884C15.2996 27.6238 14.9214 27.1075 14.5958 26.5602C13.7344 25.0837 13.2617 23.3904 13.2617 21.6867C13.2617 16.9784 16.8227 12.8586 21.5287 12.0738C26.4867 11.2478 31.4343 14.3247 32.7684 19.0744Z" fill="url(#paint7_radial_322_28974)"/>
<path d="M37.3787 50.0607C37.4627 54.7897 31.3702 57.0923 27.5045 57.7944C22.7881 58.6514 17.3888 58.2074 13.1766 55.8223C11.0862 54.6348 9.02734 52.6627 9.02734 50.133C9.02734 42.7814 9.69962 33.3131 15.7291 28.0988C15.7922 28.1711 15.8552 28.233 15.9182 28.3053C14.7417 30.1329 16.0548 31.9811 17.725 32.931C20.0044 34.2217 22.9456 34.5005 25.5507 34.0152C25.6348 33.9945 25.7293 33.9842 25.8133 33.9636C25.8974 33.9429 25.9919 33.9223 26.0865 33.9016C26.223 33.8706 26.3596 33.8397 26.4856 33.7983C28.7966 33.1892 32.2945 31.0621 30.5088 28.295L30.4983 28.2846C30.5613 28.2124 30.6243 28.1504 30.6874 28.0781L30.6979 28.0884C36.6959 33.2924 37.3892 42.7091 37.3997 50.0401C37.3787 50.0607 37.3787 50.0607 37.3787 50.0607Z" fill="url(#paint8_linear_322_28974)"/>
<path d="M25.5391 34.015C25.6231 33.9944 25.7176 33.984 25.8017 33.9634C25.7176 33.984 25.6231 34.0047 25.5391 34.015Z" fill="#F7931E"/>
<g opacity="0.8">
<path d="M23.2047 37.5366C23.2027 37.5366 23.2027 37.5366 23.2007 37.5366C22.9795 37.5366 22.7725 37.4784 22.5956 37.3759L19.4941 47.5037C19.4358 47.6925 19.4982 47.8934 19.657 48.038L22.67 50.7819C22.9534 51.039 23.4479 51.039 23.7313 50.7819L26.7484 48.034C26.9072 47.8894 26.9695 47.6905 26.9132 47.5037L23.9042 37.3076C23.7112 37.4522 23.466 37.5346 23.2047 37.5366Z" fill="#0050B3"/>
<path d="M23.808 36.6526L25.8221 33.6255L23.205 32.8301L20.5859 33.6255L22.6442 36.7189C22.6925 36.7912 22.7507 36.8495 22.8171 36.8977C22.9276 36.976 23.0603 37.0182 23.205 37.0182C23.3477 37.0182 23.4824 36.976 23.593 36.8977C23.6593 36.8515 23.7176 36.7912 23.7638 36.7209L23.808 36.6526Z" fill="#0050B3"/>
</g>
<path d="M25.5401 34.0151C22.935 34.5004 19.9938 34.2216 17.7143 32.9309C16.0441 31.981 14.7311 30.1431 15.9076 28.3052C18.7858 31.3408 23.5022 32.3424 27.4414 30.5148C28.6179 29.9676 29.6368 29.2138 30.4771 28.3052L30.4876 28.3155C32.2734 31.0827 28.7754 33.2097 26.4645 33.8189C26.3279 33.8499 26.2018 33.8912 26.0653 33.9221C25.9813 33.9428 25.8867 33.9635 25.7922 33.9841C25.7186 33.9841 25.6241 34.0048 25.5401 34.0151Z" fill="url(#paint9_linear_322_28974)"/>
</g>
<g clip-path="url(#clip2_322_28974)">
<path d="M68.3827 31.16C69.0249 33.5348 68.3978 36.0475 66.8715 37.8478C66.8262 37.9014 66.7808 37.9474 66.7355 38.001C66.131 38.6752 65.3981 39.2344 64.5519 39.6404C61.726 40.9964 58.3259 40.2533 56.2556 38.001C56.2103 37.9474 56.165 37.9014 56.1196 37.8478C55.8174 37.5031 55.5454 37.12 55.3111 36.714C54.6916 35.6185 54.3516 34.3622 54.3516 33.0982C54.3516 29.6049 56.913 26.5482 60.298 25.966C63.8643 25.3532 67.4231 27.6361 68.3827 31.16Z" fill="url(#paint10_radial_322_28974)"/>
<path d="M71.6977 54.15C71.7582 57.6586 67.3758 59.3669 64.5953 59.8879C61.2028 60.5237 57.3191 60.1943 54.2892 58.4247C52.7856 57.5437 51.3047 56.0805 51.3047 54.2036C51.3047 48.7492 51.7883 41.7243 56.1253 37.8557C56.1706 37.9093 56.2159 37.9552 56.2613 38.0089C55.415 39.3648 56.3595 40.7361 57.5609 41.4409C59.2005 42.3985 61.3161 42.6053 63.1899 42.2452C63.2504 42.2299 63.3184 42.2223 63.3788 42.2069C63.4393 42.1916 63.5073 42.1763 63.5753 42.161C63.6735 42.138 63.7717 42.115 63.8624 42.0844C65.5247 41.6324 68.0407 40.0543 66.7563 38.0012L66.7487 37.9935C66.794 37.9399 66.8394 37.894 66.8847 37.8403L66.8923 37.848C71.2066 41.709 71.7053 48.6956 71.7129 54.1347C71.6977 54.15 71.6977 54.15 71.6977 54.15Z" fill="url(#paint11_linear_322_28974)"/>
<g opacity="0.4">
<path d="M61.3078 43.8658C61.3067 43.8658 61.3067 43.8658 61.3056 43.8658C61.1844 43.8658 61.0709 43.8338 60.9739 43.7777L59.2735 49.3303C59.2415 49.4338 59.2757 49.544 59.3628 49.6233L61.0147 51.1276C61.1701 51.2686 61.4412 51.2686 61.5966 51.1276L63.2507 49.6211C63.3378 49.5418 63.3719 49.4327 63.3411 49.3303L61.6913 43.7402C61.5855 43.8195 61.4511 43.8647 61.3078 43.8658Z" fill="#0050B3"/>
<path d="M61.6376 43.3814L62.7419 41.7218L61.307 41.2856L59.8711 41.7218L60.9996 43.4177C61.026 43.4574 61.058 43.4893 61.0943 43.5157C61.1549 43.5587 61.2277 43.5818 61.307 43.5818C61.3853 43.5818 61.4591 43.5587 61.5197 43.5157C61.5561 43.4904 61.588 43.4574 61.6134 43.4188L61.6376 43.3814Z" fill="#0050B3"/>
</g>
<path d="M63.1836 42.2448C63.244 42.2295 63.312 42.2219 63.3725 42.2065C63.312 42.2219 63.244 42.2372 63.1836 42.2448Z" fill="#F7931E"/>
<path d="M63.1824 42.2452C61.3086 42.6052 59.1929 42.3984 57.5533 41.4408C56.352 40.736 55.4075 39.3724 56.2538 38.0088C58.324 40.261 61.7166 41.0041 64.55 39.6482C65.3962 39.2422 66.1292 38.6829 66.7336 38.0088L66.7412 38.0165C68.0257 40.0695 65.5096 41.6476 63.8473 42.0996C63.7491 42.1226 63.6584 42.1532 63.5602 42.1762C63.4997 42.1915 63.4317 42.2069 63.3637 42.2222C63.3109 42.2222 63.2428 42.2375 63.1824 42.2452Z" fill="url(#paint12_linear_322_28974)"/>
</g>
<defs>
<linearGradient id="paint0_linear_322_28974" x1="0.00465008" y1="52.1962" x2="80.586" y2="52.1962" gradientUnits="userSpaceOnUse">
<stop stop-color="#1D409A"/>
<stop offset="0.2208" stop-color="#33339A"/>
<stop offset="0.4568" stop-color="#442999"/>
<stop offset="0.6337" stop-color="#4A2599"/>
<stop offset="1" stop-color="#661399"/>
</linearGradient>
<linearGradient id="paint1_linear_322_28974" x1="40.4723" y1="45.0358" x2="40.4723" y2="26.4672" gradientUnits="userSpaceOnUse">
<stop/>
<stop offset="0.9048" stop-color="white"/>
</linearGradient>
<radialGradient id="paint2_radial_322_28974" cx="0" cy="0" r="1" gradientUnits="userSpaceOnUse" gradientTransform="translate(36.4762 10.0875) scale(17.1871 17.1845)">
<stop stop-color="white"/>
<stop offset="0.0862243" stop-color="#F7F7F7"/>
<stop offset="0.2177" stop-color="#E2E2E2"/>
<stop offset="0.3781" stop-color="#BFBFBF"/>
<stop offset="0.5611" stop-color="#8F8F8F"/>
<stop offset="0.7635" stop-color="#525252"/>
<stop offset="0.979" stop-color="#080808"/>
<stop offset="1"/>
</radialGradient>
<radialGradient id="paint3_radial_322_28974" cx="0" cy="0" r="1" gradientUnits="userSpaceOnUse" gradientTransform="translate(36.4801 10.087) scale(17.1871 17.1845)">
<stop stop-color="#8F8F8F"/>
<stop offset="0.1291" stop-color="#878787"/>
<stop offset="0.3258" stop-color="#727272"/>
<stop offset="0.5657" stop-color="#505050"/>
<stop offset="0.837" stop-color="#202020"/>
<stop offset="1"/>
</radialGradient>
<radialGradient id="paint4_radial_322_28974" cx="0" cy="0" r="1" gradientUnits="userSpaceOnUse" gradientTransform="translate(50.9909 3.6362) scale(19.7133 19.794)">
<stop stop-color="#66E4DE"/>
<stop offset="1" stop-color="#4188EE"/>
</radialGradient>
<linearGradient id="paint5_linear_322_28974" x1="33.7482" y1="41.8114" x2="59.9184" y2="27.826" gradientUnits="userSpaceOnUse">
<stop stop-color="#4188EE"/>
<stop offset="1" stop-color="#66E4DE"/>
</linearGradient>
<linearGradient id="paint6_linear_322_28974" x1="37.5243" y1="22.3198" x2="54.6822" y2="22.3198" gradientUnits="userSpaceOnUse">
<stop stop-color="#2979DE"/>
<stop offset="1" stop-color="#16D6CC"/>
</linearGradient>
<radialGradient id="paint7_radial_322_28974" cx="0" cy="0" r="1" gradientUnits="userSpaceOnUse" gradientTransform="translate(27.6448 14.7173) scale(17.8358 17.5318)">
<stop stop-color="#66E4DE"/>
<stop offset="1" stop-color="#4188EE"/>
</radialGradient>
<linearGradient id="paint8_linear_322_28974" x1="12.0439" y1="48.5294" x2="35.4953" y2="35.7275" gradientUnits="userSpaceOnUse">
<stop stop-color="#4188EE"/>
<stop offset="1" stop-color="#66E4DE"/>
</linearGradient>
<linearGradient id="paint9_linear_322_28974" x1="15.4613" y1="31.2655" x2="30.9852" y2="31.2655" gradientUnits="userSpaceOnUse">
<stop stop-color="#2979DE"/>
<stop offset="1" stop-color="#16D6CC"/>
</linearGradient>
<radialGradient id="paint10_radial_322_28974" cx="0" cy="0" r="1" gradientUnits="userSpaceOnUse" gradientTransform="translate(64.6973 27.9273) scale(12.8293 13.0075)">
<stop stop-color="#66E4DE"/>
<stop offset="1" stop-color="#4188EE"/>
</radialGradient>
<linearGradient id="paint11_linear_322_28974" x1="53.4745" y1="53.0139" x2="70.579" y2="43.9616" gradientUnits="userSpaceOnUse">
<stop stop-color="#4188EE"/>
<stop offset="1" stop-color="#66E4DE"/>
</linearGradient>
<linearGradient id="paint12_linear_322_28974" x1="55.9328" y1="40.2052" x2="67.099" y2="40.2052" gradientUnits="userSpaceOnUse">
<stop stop-color="#2979DE"/>
<stop offset="1" stop-color="#16D6CC"/>
</linearGradient>
<clipPath id="clip0_322_28974">
<rect width="31.3357" height="52.2261" fill="white" transform="translate(30.4141 0.5)"/>
</clipPath>
<clipPath id="clip1_322_28974">
<rect width="28.3513" height="46.2574" fill="white" transform="translate(9.02734 11.9395)"/>
</clipPath>
<clipPath id="clip2_322_28974">
<rect width="20.3931" height="34.32" fill="white" transform="translate(51.3047 25.8667)"/>
</clipPath>
</defs>
</svg>
