<svg width="106" height="86" viewBox="0 0 106 86" fill="none" xmlns="http://www.w3.org/2000/svg">
<path d="M23.5898 31.7872L26.2326 30.5713L29.024 29.474L31.934 28.4953L34.9629 27.6649L38.1106 26.9532L41.3176 26.3897L44.6138 25.9448L47.9396 25.6483L51.2951 25.5H54.6506L58.0061 25.6483L61.332 25.9448L64.6281 26.3897L67.8351 26.9532L70.9828 27.6649L74.0117 28.4953L76.9218 29.474L79.7131 30.5713L82.3559 31.7872L84.8206 33.1217L87.1071 34.5452L89.2154 36.0577L91.1159 37.6592L92.8085 39.3496L94.2635 41.0993L95.481 42.9084L96.461 44.7768L97.2033 46.6748L97.7082 48.6024L97.9457 50.5301V52.4578L97.7082 54.3855L97.2033 56.3132L96.461 58.2112L95.481 60.0795L94.2635 61.8886L92.8085 63.6383L91.1159 65.3287L89.2154 66.9302L87.1071 68.4427L84.8206 69.8662L82.3559 71.2007L79.7131 72.4167L76.9218 73.5139L74.0117 74.4926L70.9828 75.323L67.8351 76.0347L64.6281 76.5982L61.332 77.0431L58.0061 77.3396L54.6506 77.4879H51.2951L47.9396 77.3396L44.6138 77.0431L41.3176 76.5982L38.1106 76.0347L34.9629 75.323L31.934 74.4926L29.024 73.5139L26.2326 72.4167L23.5898 71.2007L21.1251 69.8662L18.8386 68.4427L16.7303 66.9302L14.8298 65.3287L13.1372 63.6383L11.6822 61.8886L10.4647 60.0795L9.48474 58.2112L8.74237 56.3132L8.23756 54.3855L8 52.4578V50.5301L8.23756 48.6024L8.74237 46.6748L9.48474 44.7768L10.4647 42.9084L11.6822 41.0993L13.1372 39.3496L14.8298 37.6592L16.7303 36.0577L18.8386 34.5452L21.1251 33.1217L23.5898 31.7872ZM27.5095 30.6009L25.0152 31.7575L22.6693 33.0031L20.5015 34.3673L18.512 35.8205L16.7006 37.333L15.0971 38.9344L13.7014 40.5952L12.5433 42.3153L11.5931 44.0947L10.8804 45.9037L10.4053 47.7424L10.1677 49.5811V51.4198L10.4053 53.2585L10.8804 55.0972L11.5931 56.9063L12.5433 58.656L13.7014 60.3761L15.0971 62.0369L16.7006 63.6383L18.512 65.1508L20.5015 66.604L22.6693 67.9682L25.0152 69.2137L27.5095 70.3703L30.1524 71.4083L32.914 72.3277L35.7944 73.1284L38.7639 73.8105L41.8224 74.3443L44.9404 74.7595L48.1177 75.0264L51.3248 75.1747H54.5318L57.7389 75.0264L60.9162 74.7595L64.0342 74.3443L67.0928 73.8105L70.0622 73.1284L72.9426 72.3277L75.7043 71.4083L78.3471 70.3703L80.8415 69.2137L83.1874 67.9682L85.3551 66.604L87.3446 65.1508L89.156 63.6383L90.7595 62.0369L92.1552 60.3761L93.3133 58.656L94.2635 56.9063L94.9762 55.0972L95.4513 53.2585L95.6889 51.4198V49.5811L95.4513 47.7424L94.9762 45.9037L94.2635 44.0947L93.3133 42.3153L92.1552 40.5952L90.7595 38.9344L89.156 37.333L87.3446 35.8205L85.3551 34.3673L83.1874 33.0031L80.8415 31.7575L78.3471 30.6009L75.7043 29.5629L72.9426 28.6436L70.0622 27.8429L67.0928 27.1608L64.0342 26.6269L60.9162 26.2118L57.7389 25.9448L54.5318 25.7966H51.3248L48.1177 25.9448L44.9404 26.2118L41.8224 26.6269L38.8233 27.1608L35.8538 27.8429L32.9734 28.6436L30.2118 29.5629L27.5095 30.6009Z" fill="url(#paint0_linear_343_34674)"/>
<path d="M35.6836 43.5482V43.2909L35.7007 43.0679L35.7522 42.6734L35.8893 42.1417L39.6609 30.0669V30.0841L39.6952 30.2384L39.7124 30.3413V30.5643L39.6952 30.7701V30.7873L35.8722 43.0679L35.7522 43.5482L35.7007 43.8741L35.6836 44.0627V44.2686V43.5482Z" fill="url(#paint1_linear_343_34674)"/>
<path d="M38.8001 48.5567L38.4058 48.3852L38.2172 48.2651L37.6172 47.9221L37.7372 47.9907L38.0801 48.1451L38.3715 48.248L38.5944 48.2994L38.783 48.3166H38.9887L39.3316 48.248L39.6573 48.1451L49.275 44.2344H49.3093L49.3264 44.2173H49.3778L49.4464 44.2344H49.515L49.6007 44.2687L49.6864 44.303L49.7379 44.3202L49.7893 44.3545L49.875 44.406L49.9607 44.4746L50.0464 44.5432L50.115 44.6118L50.1836 44.6804L50.2179 44.7147L40.7031 48.5738L40.3431 48.6939L39.9488 48.7625L39.6916 48.7797L39.4344 48.7454L39.1601 48.6768L38.8001 48.5567Z" fill="url(#paint2_linear_343_34674)"/>
<path d="M28.36 11.4914L28.2743 11.5944L28.1886 11.7487L28.12 11.9202L28.0514 12.1089L28.0171 12.3147L28 12.4691V12.6235V11.9031V11.6801L28.0343 11.4743L28.0686 11.217L28.1543 10.9769L28.24 10.7539L28.36 10.5481L28.48 10.4109L28.6 10.2908L28.7029 10.2051L28.8058 10.1536L28.9943 10.0678L29.1829 9.99924L29.4058 9.98209H29.6801L29.903 9.99924L30.0915 10.0507L30.4001 10.1365L30.7773 10.2908L31.3602 10.5824L43.5666 17.6318H43.5837H43.6351L43.6866 17.6489L43.738 17.6318H43.7894L43.8237 17.6146L43.858 17.5975L43.8923 17.5632L43.9266 17.5289L43.9437 17.5117L45.4181 12.2976L47.2525 5.74561L47.4582 5.81422L43.9266 18.4379L43.9094 18.4551L43.8923 18.5065L43.8751 18.558L43.8237 18.6266L43.7551 18.678L43.6694 18.7295L43.618 18.7638L43.5323 18.7981L43.4465 18.8152L43.3437 18.8324L43.2408 18.8152L43.138 18.7981L43.0522 18.7809L43.0008 18.7638L42.9665 18.7466L42.9494 18.7295L30.743 11.6801L30.2115 11.4057L29.903 11.2856L29.6458 11.217L29.4915 11.1827L29.3029 11.1656H29.0801L28.9086 11.1827L28.7543 11.2342L28.6 11.3028L28.5486 11.3371L28.4629 11.4057L28.36 11.4914Z" fill="url(#paint3_linear_343_34674)"/>
<path d="M62.6623 62.3806L62.8337 62.4321L63.0394 62.4664L63.2452 62.4835L63.4509 62.4664L63.6052 62.4149L63.7423 62.3635L63.8452 62.2949L63.9309 62.2091L64.0509 62.0547L64.1538 61.9004L64.2223 61.746L64.2909 61.5573L64.3252 61.3687L64.3423 61.1285L64.3595 60.8884L64.3423 60.5111L64.2909 60.1509L64.2223 59.7564L64.1366 59.3619L59.8335 42.3131L59.8164 42.2616V42.193L59.7992 42.1073V42.0387V41.9529L59.8164 41.8671V41.7642L59.8507 41.6613L59.9021 41.5241L59.9707 41.4212L60.0393 41.3354L60.0907 41.284L60.1421 41.2497H60.1764L60.1936 41.2325H60.2107L69.9998 39.4316L70.377 39.3287L70.6341 39.2258L70.7541 39.1572L70.857 39.0714L71.0627 38.8827L71.1827 38.7112L71.2684 38.5397L71.337 38.351L71.3885 38.1452L71.4056 37.9394L71.4227 37.6993V37.5106L71.4056 37.3048L71.3542 37.0646L71.3027 36.8074L71.217 36.5501L71.1313 36.2928L71.0456 36.1213L70.977 35.9669L70.8227 35.6925L70.6684 35.4352L70.5141 35.2122L70.3427 34.9893L70.137 34.7492L69.9484 34.5605L69.7426 34.3718L69.4512 34.1145L69.074 33.8401L68.6797 33.6171L56.4905 26.5506L56.4562 26.5335L56.4048 26.4992L56.3362 26.4477L56.2333 26.362L56.1305 26.2419L56.0276 26.1218L55.9591 26.0189L55.8905 25.9332L55.8048 25.7959L55.719 25.6416L55.6333 25.5044L55.5819 25.3672L55.5476 25.2642L55.5133 25.1785V25.1613V25.127L51.9645 8.40407L51.8102 7.7523L51.6731 7.32351L51.5702 7.06623L51.4502 6.77465L51.3131 6.48307L51.1588 6.1915L50.9873 5.91706L50.8159 5.67695L50.6445 5.45396L50.473 5.2653L50.2845 5.09378L50.0959 4.92226L49.9416 4.8022L49.7187 4.64784L49.4958 4.54492L49.273 4.45916L49.0844 4.40771L48.9129 4.39056L48.7415 4.37341L48.5701 4.40771L48.3986 4.44202L48.2443 4.52778L48.09 4.64784L47.97 4.76789L47.8157 4.97372L47.6786 5.21385L47.5586 5.48827L47.4557 5.81416L47.25 5.74555L47.49 4.88796L47.5929 4.52778L47.73 4.21905L47.8843 3.92746L48.0729 3.68734L48.2272 3.53298L48.4158 3.39575L48.6386 3.29285L48.8444 3.22424L49.0844 3.18994L49.2901 3.20709L49.5301 3.24139L49.7701 3.29285L50.0444 3.39575L50.353 3.55012L50.6445 3.73879L50.8502 3.91031L51.1074 4.11613L51.3474 4.35626L51.5531 4.59638L51.7931 4.90512L52.016 5.21385L52.2388 5.55688L52.4446 5.93422L52.616 6.2944L52.7532 6.63744L52.8732 6.96333L53.0275 7.46072L53.216 8.1811L56.7477 24.9041V24.9212L56.7819 24.9898L56.8162 25.0584L56.8677 25.127L56.9191 25.2128L56.9534 25.2642L56.9705 25.2985L57.0391 25.3672L57.0905 25.4186L57.1248 25.4701L69.3312 32.5194L69.7426 32.7767L70.1884 33.0854L70.5484 33.3942L70.8056 33.6343L71.0284 33.8744L71.2856 34.166L71.5085 34.4576L71.7142 34.7492L71.9028 35.0579L72.0914 35.4009L72.1942 35.641L72.2971 35.8812L72.4171 36.1899L72.5199 36.5329L72.6057 36.8588L72.6571 37.1847L72.6914 37.4591V37.7164L72.6742 38.008L72.6399 38.2824L72.5714 38.5568L72.4856 38.7798L72.3656 39.0199L72.2113 39.2258L71.9885 39.4487L71.8342 39.5517L71.697 39.6374L71.4056 39.7575L70.9941 39.8775L67.0511 40.5979L61.205 41.6785L61.1879 41.6956L61.1536 41.7299L61.1193 41.7985L61.085 41.8671L61.0679 41.9186V41.9529V41.9872V42.0044V42.0558V42.073L65.371 59.1218L65.4739 59.5506L65.5424 60.0137L65.5939 60.4425L65.6281 60.8884L65.611 61.18L65.5767 61.4716L65.5253 61.7289L65.4567 61.969L65.3538 62.192L65.2338 62.3806L65.0795 62.5521L64.9595 62.6722L64.8224 62.7751L64.6338 62.8609L64.4281 62.9123L64.1709 62.9295L63.9138 62.9123L63.6395 62.878L63.4166 62.8094L63.1937 62.7065L63.0051 62.6208L62.3708 62.2434L62.4908 62.312L62.6623 62.3806Z" fill="url(#paint4_linear_343_34674)"/>
<path d="M70.3623 59.5685L64.8248 62.7759L64.962 62.6729L65.082 62.5529L65.2363 62.3814L65.3563 62.1927L65.4591 61.9697L65.5277 61.7296L65.5791 61.4723L65.6134 61.1807L65.6306 60.8892L65.5963 60.4432L65.5448 60.0144L65.4763 59.5513L65.3734 59.1225L61.0703 42.0737V42.0565V42.0051V41.9879V41.9536V41.9193L61.0875 41.8679L61.1218 41.7993L61.156 41.7306L61.1903 41.6963L61.2075 41.6792L67.0535 40.5986L70.9109 55.9152L71.0137 56.3611L71.0994 56.807L71.1509 57.253L71.168 57.6818L71.1509 57.9734L71.1166 58.2821L71.0652 58.5222L70.9966 58.7795L70.8937 58.9853L70.7737 59.174L70.6366 59.3627L70.4994 59.4827L70.3623 59.5685Z" fill="url(#paint5_linear_343_34674)"/>
<path d="M35.6279 6.84351L35.9536 6.92927L36.3137 7.08363L36.8965 7.37521L45.417 12.2978L43.9426 17.5119L43.9255 17.5291L43.8912 17.5634L43.8569 17.5977L43.8226 17.6148L43.7883 17.632H43.7369L43.6855 17.6491L43.6341 17.632H43.5826H43.5655L31.3591 10.5826L30.7762 10.291L30.3991 10.1367L30.0905 10.0509L29.9019 9.99944L29.679 9.98229H29.4047L29.1818 9.99944L28.9933 10.068L28.8047 10.1538L34.3421 6.94642L34.5307 6.86066L34.7364 6.80921L34.9422 6.7749H35.2165L35.4393 6.80921L35.6279 6.84351Z" fill="url(#paint6_linear_343_34674)"/>
<path d="M78.2349 34.252V34.5093L78.2178 34.8181L78.1835 35.0753L78.1149 35.3498L78.0292 35.5899L77.9092 35.8129L77.772 36.0187L77.532 36.2588L77.3777 36.3617L77.2406 36.4303L71.7031 39.6377L71.8403 39.5519L71.9946 39.449L72.2174 39.2261L72.3717 39.0202L72.4917 38.7801L72.5774 38.5571L72.646 38.2827L72.6803 38.0083L72.6975 37.7167V37.4594L72.6632 37.185L72.6118 36.8591L72.526 36.5332L72.4232 36.1902L72.3032 35.8815L72.2003 35.6413L72.0974 35.4012L71.9089 35.0582L71.7203 34.7495L71.5145 34.4579L71.2917 34.1663L71.0345 33.8747L70.8117 33.6346L70.5545 33.3945L70.1945 33.0857L69.7487 32.777L69.3373 32.5197L57.1309 25.4704L57.0966 25.4189L57.0452 25.3674L56.9766 25.2988L56.9595 25.2645L56.9252 25.2131L56.8738 25.1273L56.8223 25.0587L56.788 24.9901L56.7538 24.9215V24.9043L53.2221 8.18139L53.0336 7.46101L52.8793 6.96362L52.7592 6.63773L52.6221 6.29469L52.4507 5.93451L52.2449 5.55717L52.0221 5.21414L51.7992 4.90541L51.5592 4.59667L51.3535 4.35655L51.1135 4.11642L50.8563 3.9106L50.6506 3.73908L50.3591 3.55041L50.0505 3.39604L49.7762 3.29314L49.5362 3.24169L49.2962 3.20738L49.0905 3.19023L48.8505 3.22453L48.6447 3.29314L48.4219 3.39604L53.9765 0.188676L54.1822 0.0857588L54.3879 0.0343056L54.6279 0H54.8336L55.0737 0.0343056L55.3308 0.102917L55.588 0.205823L55.8966 0.360193L56.188 0.548858L56.3937 0.703228L56.6509 0.926199L56.8909 1.14917L57.1138 1.40645L57.3538 1.69803L57.5595 2.00676L57.7824 2.34979L57.9881 2.72713L58.1595 3.10447L58.2967 3.44751L58.4167 3.77339L58.571 4.25363L58.7596 4.97401L62.2912 21.697V21.7141L62.3255 21.7827L62.3598 21.8513L62.4112 21.9371L62.4626 22.0057L62.4969 22.0572L62.5141 22.0915L62.5826 22.1772L62.6341 22.2287L62.6684 22.263L74.8747 29.3123L75.2862 29.5696L75.7319 29.8955L76.0919 30.1871L76.3491 30.4272L76.572 30.6673L76.8291 30.9589L77.052 31.2505L77.2577 31.5421L77.4463 31.868L77.6349 32.211L77.7549 32.434L77.8406 32.6741L77.9606 33L78.0635 33.3258L78.1492 33.6517L78.2006 33.9776L78.2349 34.252Z" fill="url(#paint7_linear_343_34674)"/>
<path d="M30.2115 11.4058L30.743 11.6802L42.9494 18.7296L42.9665 18.7467L43.0008 18.7639L43.0522 18.781L43.138 18.7982L43.2408 18.8153L43.3437 18.8325L43.4466 18.8153L43.5323 18.7982L43.618 18.7639L43.6694 18.7296L43.7551 18.6781L43.8237 18.6266L43.8751 18.558L43.8923 18.5066L43.9094 18.4551L43.9266 18.438L47.4582 5.81429L47.5611 5.4884L47.6811 5.21398L47.8182 4.97385L47.9725 4.76802L48.0925 4.64797L48.2468 4.52791L48.4011 4.44215L48.5726 4.40784L48.744 4.37354L48.9154 4.39069L49.0869 4.40784L49.2754 4.45929L49.4983 4.54505L49.7212 4.64797L49.9441 4.80233L50.0983 4.92239L50.2869 5.09391L50.4755 5.26543L50.6469 5.45409L50.8184 5.67707L50.9898 5.91719L51.1613 6.19163L51.3156 6.4832L51.4527 6.77478L51.5727 7.06636L51.6756 7.32364L51.8127 7.75243L51.967 8.4042L55.5158 25.1272V25.1615V25.1786L55.5501 25.2644L55.5844 25.3673L55.6358 25.5045L55.7215 25.6417L55.8072 25.7961L55.893 25.9333L55.9615 26.019L56.0301 26.122L56.133 26.242L56.2358 26.3621L56.3387 26.4478L56.4073 26.4993L56.4587 26.5336L56.493 26.5507L68.6822 33.6173L69.0765 33.8402L69.4537 34.1147L69.7451 34.3719L69.9509 34.5606L70.1394 34.7493L70.3452 34.9894L70.5166 35.2124L70.6709 35.4354L70.8252 35.6926L70.9795 35.9671L71.0481 36.1214L71.1338 36.2929L71.2195 36.5502L71.3052 36.8075L71.3566 37.0648L71.4081 37.3049L71.4252 37.5107V37.6994L71.4081 37.9395L71.3909 38.1453L71.3395 38.3512L71.2709 38.5398L71.1852 38.7113L71.0652 38.8829L70.8595 39.0715L70.7566 39.1573L70.6366 39.2259L70.3795 39.3288L70.0023 39.4317L60.2132 41.2326H60.196L60.1789 41.2498H60.1446L60.0932 41.2841L60.0417 41.3356L59.9732 41.4213L59.9046 41.5242L59.8532 41.6614L59.8189 41.7643V41.8673L59.8017 41.953V42.0388V42.1074L59.8189 42.1931V42.2618L59.836 42.3132L64.1391 59.362L64.2248 59.7565L64.2934 60.151L64.3448 60.5112L64.362 60.8886L64.3448 61.1287L64.3277 61.3688L64.2934 61.5575L64.2248 61.7461L64.1563 61.9005L64.0534 62.0549L63.9334 62.2092L63.8477 62.295L63.7448 62.3636L63.6077 62.415L63.4534 62.4665L63.2476 62.4837L63.0419 62.4665L62.8362 62.4322L62.6648 62.3808L62.4933 62.3121L62.3733 62.2435L62.3047 62.2092L61.979 61.9691L61.6875 61.7461L61.4818 61.5403L61.2418 61.3174L61.0018 61.0258L60.4018 60.1853L50.2698 44.8002L50.2526 44.7659L50.2184 44.7316V44.7145L50.1841 44.6801L50.1155 44.6115L50.0469 44.5429L49.9612 44.4743L49.8755 44.4057L49.7898 44.3543L49.7383 44.32L49.6869 44.3028L49.6012 44.2685L49.5155 44.2342H49.4469L49.3783 44.217H49.3269L49.3097 44.2342H49.2754L39.6578 48.1448L39.332 48.2477L38.9892 48.3163H38.7834L38.5949 48.2992L38.372 48.2477L38.0805 48.1448L37.7377 47.9904L37.6177 47.9218L37.4805 47.8189L37.2919 47.6817L37.1033 47.5102L36.9148 47.3215L36.7433 47.1157L36.5719 46.8927L36.4005 46.6526L36.2804 46.4639L36.1776 46.2581L36.0919 46.0694L36.0062 45.8636L35.9376 45.6921L35.8519 45.4348L35.7833 45.1604L35.7318 44.9031L35.6976 44.6287L35.6804 44.2685V44.0627L35.6976 43.874L35.749 43.5481L35.869 43.0679L39.6921 30.7872V30.7701L39.7092 30.7358V30.65V30.5643V30.4614V30.4442V30.3756V30.3413L39.6921 30.2384L39.6578 30.084V30.0669L39.6063 29.8782L39.5206 29.6724L39.4521 29.5008L39.3835 29.3636L39.332 29.2779L39.2978 29.2093L39.2806 29.175L39.2635 29.1578L29.4229 15.9853L29.2172 15.7108L29.0286 15.4364L28.7886 15.0248L28.5657 14.6474L28.4114 14.3215L28.2743 13.9957L28.1886 13.7212L28.12 13.464L28.0514 13.2067L28.0171 12.9151L28 12.6235V12.4692L28.0171 12.3148L28.0514 12.109L28.12 11.9203L28.1886 11.7488L28.2743 11.5944L28.36 11.4915L28.4629 11.4058L28.5486 11.3372L28.6 11.3028L28.7543 11.2342L28.9086 11.1828L29.0801 11.1656H29.3029L29.4915 11.1828L29.6458 11.2171L29.903 11.2857L30.2115 11.4058Z" fill="url(#paint8_linear_343_34674)"/>
<path d="M45.2799 13.584L47.4572 5.81422L47.2515 5.74561L45.4171 12.2976L45.0742 13.4982L45.2799 13.584Z" fill="url(#paint9_linear_343_34674)"/>
<defs>
<linearGradient id="paint0_linear_343_34674" x1="7.951" y1="51.4707" x2="97.9634" y2="51.4707" gradientUnits="userSpaceOnUse">
<stop stop-color="#1D409A"/>
<stop offset="0.2208" stop-color="#33339A"/>
<stop offset="0.4568" stop-color="#442999"/>
<stop offset="0.6337" stop-color="#4A2599"/>
<stop offset="1" stop-color="#661399"/>
</linearGradient>
<linearGradient id="paint1_linear_343_34674" x1="35.0926" y1="32.7062" x2="40.246" y2="41.6279" gradientUnits="userSpaceOnUse">
<stop stop-color="#1ED2FF"/>
<stop offset="1" stop-color="#5E92FF"/>
</linearGradient>
<linearGradient id="paint2_linear_343_34674" x1="43.0285" y1="44.7894" x2="44.7929" y2="47.8441" gradientUnits="userSpaceOnUse">
<stop stop-color="#1ED2FF"/>
<stop offset="0.494" stop-color="#5E92FF"/>
<stop offset="1" stop-color="#9958FE"/>
</linearGradient>
<linearGradient id="paint3_linear_343_34674" x1="35.9045" y1="6.0482" x2="43.3432" y2="18.9264" gradientUnits="userSpaceOnUse">
<stop stop-color="#1ED2FF"/>
<stop offset="0.494" stop-color="#5E92FF"/>
<stop offset="1" stop-color="#9958FE"/>
</linearGradient>
<linearGradient id="paint4_linear_343_34674" x1="42.8683" y1="6.59877" x2="72.6894" y2="58.2264" gradientUnits="userSpaceOnUse">
<stop stop-color="#1ED2FF"/>
<stop offset="0.494" stop-color="#5E92FF"/>
<stop offset="1" stop-color="#9958FE"/>
</linearGradient>
<linearGradient id="paint5_linear_343_34674" x1="60.4222" y1="42.1344" x2="70.4618" y2="59.5154" gradientUnits="userSpaceOnUse">
<stop stop-color="#00B4FE"/>
<stop offset="0.5298" stop-color="#4074EE"/>
<stop offset="1" stop-color="#7B3AE0"/>
</linearGradient>
<linearGradient id="paint6_linear_343_34674" x1="34.5637" y1="6.82168" x2="41.5542" y2="18.9239" gradientUnits="userSpaceOnUse">
<stop stop-color="#00B4FE"/>
<stop offset="0.5298" stop-color="#4074EE"/>
<stop offset="1" stop-color="#7B3AE0"/>
</linearGradient>
<linearGradient id="paint7_linear_343_34674" x1="51.6089" y1="1.55388" x2="73.1316" y2="38.8149" gradientUnits="userSpaceOnUse">
<stop stop-color="#00B4FE"/>
<stop offset="0.105" stop-color="#01AFFA"/>
<stop offset="0.2309" stop-color="#04A0EF"/>
<stop offset="0.3675" stop-color="#0988DC"/>
<stop offset="0.5108" stop-color="#0F67C3"/>
<stop offset="0.5394" stop-color="#115FBD"/>
<stop offset="0.6391" stop-color="#2E55C7"/>
<stop offset="0.7988" stop-color="#5846D4"/>
<stop offset="0.9246" stop-color="#723DDD"/>
<stop offset="1" stop-color="#7B3AE0"/>
</linearGradient>
<linearGradient id="paint8_linear_343_34674" x1="28.0024" y1="33.4315" x2="71.4279" y2="33.4315" gradientUnits="userSpaceOnUse">
<stop stop-color="#80FFE4"/>
<stop offset="0.2247" stop-color="#7CFBE5"/>
<stop offset="0.4313" stop-color="#72F0E8"/>
<stop offset="0.6307" stop-color="#60DEED"/>
<stop offset="0.8244" stop-color="#47C4F3"/>
<stop offset="1" stop-color="#29A5FB"/>
</linearGradient>
<linearGradient id="paint9_linear_343_34674" x1="44.8185" y1="7.14687" x2="47.7194" y2="12.1691" gradientUnits="userSpaceOnUse">
<stop stop-color="#1ED2FF"/>
<stop offset="1" stop-color="#7B75FF"/>
</linearGradient>
</defs>
</svg>
