<svg width="106" height="86" viewBox="0 0 106 86" fill="none" xmlns="http://www.w3.org/2000/svg">
<path d="M23.5898 31.7872L26.2326 30.5713L29.024 29.474L31.934 28.4953L34.9629 27.6649L38.1106 26.9532L41.3176 26.3897L44.6138 25.9448L47.9396 25.6483L51.2951 25.5H54.6506L58.0061 25.6483L61.332 25.9448L64.6281 26.3897L67.8351 26.9532L70.9828 27.6649L74.0117 28.4953L76.9218 29.474L79.7131 30.5713L82.3559 31.7872L84.8206 33.1217L87.1071 34.5452L89.2154 36.0577L91.1159 37.6592L92.8085 39.3496L94.2635 41.0993L95.481 42.9084L96.461 44.7768L97.2033 46.6748L97.7082 48.6024L97.9457 50.5301V52.4578L97.7082 54.3855L97.2033 56.3132L96.461 58.2112L95.481 60.0795L94.2635 61.8886L92.8085 63.6383L91.1159 65.3287L89.2154 66.9302L87.1071 68.4427L84.8206 69.8662L82.3559 71.2007L79.7131 72.4167L76.9218 73.5139L74.0117 74.4926L70.9828 75.323L67.8351 76.0347L64.6281 76.5982L61.332 77.0431L58.0061 77.3396L54.6506 77.4879H51.2951L47.9396 77.3396L44.6138 77.0431L41.3176 76.5982L38.1106 76.0347L34.9629 75.323L31.934 74.4926L29.024 73.5139L26.2326 72.4167L23.5898 71.2007L21.1251 69.8662L18.8386 68.4427L16.7303 66.9302L14.8298 65.3287L13.1372 63.6383L11.6822 61.8886L10.4647 60.0795L9.48474 58.2112L8.74237 56.3132L8.23756 54.3855L8 52.4578V50.5301L8.23756 48.6024L8.74237 46.6748L9.48474 44.7768L10.4647 42.9084L11.6822 41.0993L13.1372 39.3496L14.8298 37.6592L16.7303 36.0577L18.8386 34.5452L21.1251 33.1217L23.5898 31.7872ZM27.5095 30.6009L25.0152 31.7575L22.6693 33.0031L20.5015 34.3673L18.512 35.8205L16.7006 37.333L15.0971 38.9344L13.7014 40.5952L12.5433 42.3153L11.5931 44.0947L10.8804 45.9037L10.4053 47.7424L10.1677 49.5811V51.4198L10.4053 53.2585L10.8804 55.0972L11.5931 56.9063L12.5433 58.656L13.7014 60.3761L15.0971 62.0369L16.7006 63.6383L18.512 65.1508L20.5015 66.604L22.6693 67.9682L25.0152 69.2137L27.5095 70.3703L30.1524 71.4083L32.914 72.3277L35.7944 73.1284L38.7639 73.8105L41.8224 74.3443L44.9404 74.7595L48.1177 75.0264L51.3248 75.1747H54.5318L57.7389 75.0264L60.9162 74.7595L64.0342 74.3443L67.0928 73.8105L70.0622 73.1284L72.9426 72.3277L75.7043 71.4083L78.3471 70.3703L80.8415 69.2137L83.1874 67.9682L85.3551 66.604L87.3446 65.1508L89.156 63.6383L90.7595 62.0369L92.1552 60.3761L93.3133 58.656L94.2635 56.9063L94.9762 55.0972L95.4513 53.2585L95.6889 51.4198V49.5811L95.4513 47.7424L94.9762 45.9037L94.2635 44.0947L93.3133 42.3153L92.1552 40.5952L90.7595 38.9344L89.156 37.333L87.3446 35.8205L85.3551 34.3673L83.1874 33.0031L80.8415 31.7575L78.3471 30.6009L75.7043 29.5629L72.9426 28.6436L70.0622 27.8429L67.0928 27.1608L64.0342 26.6269L60.9162 26.2118L57.7389 25.9448L54.5318 25.7966H51.3248L48.1177 25.9448L44.9404 26.2118L41.8224 26.6269L38.8233 27.1608L35.8538 27.8429L32.9734 28.6436L30.2118 29.5629L27.5095 30.6009Z" fill="url(#paint0_linear_322_29032)"/>
<path d="M83.085 34.9353C83.471 35.0836 83.7383 35.3208 83.9462 35.6174C84.2134 36.0029 84.2728 36.2995 84.3322 36.774C84.3619 37.1595 84.3322 36.4181 84.3322 41.519C84.3322 41.8156 84.3322 41.7266 84.3025 41.9342C84.2728 42.1122 84.2431 42.1715 84.1243 42.3198C84.0649 42.3791 84.0946 42.3494 84.0055 42.4087C83.9165 42.4384 83.9462 42.4384 83.8571 42.4384C83.7383 42.4384 83.6789 42.4384 83.471 42.3494C83.2335 42.2308 83.1741 42.1715 82.9662 42.0232C82.6693 41.7266 82.5505 41.519 82.4317 41.1335C82.3426 40.748 82.3426 40.5997 82.3129 40.3624C82.3129 35.4395 82.1942 35.1132 82.699 34.9056C82.7881 34.876 82.7584 34.9056 82.8474 34.876C83.0256 34.9056 82.9959 34.9056 83.085 34.9353Z" fill="url(#paint1_linear_322_29032)"/>
<path d="M87.1529 42.9723C86.262 43.4764 84.5101 44.4848 85.193 44.0992C85.3712 43.951 85.3118 44.0103 85.4603 43.8323C85.5791 43.5951 85.5494 43.684 85.6385 43.4468C85.8463 42.7054 85.7869 43.1206 85.7869 37.8417C85.7869 37.4562 85.7869 37.6044 85.7572 37.1893C85.6681 36.5961 85.6385 36.4775 85.4306 35.8547C85.2227 35.3802 85.1337 35.2319 84.8367 34.7574C84.5101 34.3422 84.421 34.2236 83.9755 33.8677C83.6489 33.6305 83.7974 33.7194 83.3817 33.4525C82.9956 33.2449 82.9065 33.1856 82.4908 33.0966C82.2236 33.067 82.3126 33.067 82.0751 33.067C81.8672 33.0966 81.9266 33.0967 81.7188 33.156C84.124 31.7621 83.738 31.9697 83.9755 31.8807C84.1834 31.8511 84.0943 31.8511 84.3616 31.8511C84.6288 31.8807 84.5398 31.8807 84.807 31.94C85.104 32.0587 85.0149 31.9994 85.2227 32.118C85.5494 32.2959 85.4306 32.207 85.8463 32.4739C86.2621 32.8001 86.3808 32.8891 86.7669 33.3042C87.0935 33.7194 87.1826 33.8381 87.4498 34.3422C87.6577 34.8167 87.7171 34.965 87.8359 35.5285C87.9843 36.4182 87.9547 35.8251 87.9547 41.1039C87.925 41.6081 87.9547 41.4301 87.8953 41.875C87.8062 42.2605 87.8359 42.1419 87.7171 42.4088C87.5983 42.6461 87.628 42.5571 87.4795 42.735C87.2717 42.913 87.3311 42.8537 87.1529 42.9723Z" fill="url(#paint2_linear_322_29032)"/>
<path d="M83.8299 42.6462C83.9487 42.6166 83.8893 42.6462 84.0081 42.5869C84.4535 42.2904 84.3645 42.0531 84.3645 37.1301C84.3645 36.8039 84.3645 36.6853 84.2457 36.2997C84.0972 35.8549 83.9487 35.6176 83.6518 35.2914C83.4736 35.1135 83.4736 35.1431 83.2657 34.9949C83.0579 34.9059 83.0282 34.8466 82.7906 34.8169C82.6718 34.8169 82.7015 34.8169 82.6125 34.8466C82.0483 35.0542 82.1967 35.4397 82.1967 40.3627C82.1967 40.6889 82.1967 40.8075 82.3155 41.1931C82.464 41.6379 82.6125 41.8752 82.9094 42.1717C83.1173 42.3497 83.2064 42.409 83.4439 42.5276C83.5924 42.5869 83.533 42.5573 83.6815 42.6166C83.7706 42.6462 83.7112 42.6462 83.8299 42.6462ZM85.6116 37.8419C85.6116 43.0911 85.671 42.6759 85.4632 43.3877C85.3741 43.6249 85.4038 43.5359 85.285 43.7435C85.1365 43.9215 85.1959 43.8622 85.0474 44.0104C84.8693 44.1291 84.9287 44.0994 84.7505 44.1587C84.5426 44.1884 84.6317 44.1884 84.3942 44.1884C84.1269 44.1587 84.2457 44.1587 83.9487 44.0994C83.6518 43.9808 83.7409 44.0401 83.533 43.9511C83.2064 43.7732 83.3251 43.8622 82.9391 43.5952C82.6421 43.3877 82.7609 43.4766 82.464 43.2097C82.0779 42.8242 81.9889 42.7352 81.7216 42.32C81.4544 41.8752 81.395 41.7269 81.2168 41.2524C80.8901 40.1551 80.9495 40.2144 80.9495 35.1431C80.9792 34.639 80.9495 34.8169 81.0089 34.3721C81.098 33.9865 81.0683 34.1052 81.1871 33.8679C81.3059 33.6603 81.2762 33.7196 81.395 33.5417C81.5434 33.3934 81.484 33.4527 81.6622 33.3341C81.8701 33.2451 81.781 33.2748 81.9889 33.2451C82.2264 33.2451 82.1373 33.2451 82.3749 33.2748C82.7906 33.3934 82.8797 33.4231 83.236 33.6307C83.6518 33.8976 83.533 33.8086 83.8299 34.0458C84.216 34.3721 84.3051 34.4907 84.6614 34.9059C84.9584 35.3211 85.0177 35.4397 85.2256 35.9439C85.4335 36.537 85.4632 36.6556 85.5523 37.2487C85.6117 37.6046 85.6116 37.4563 85.6116 37.8419Z" fill="url(#paint3_linear_322_29032)"/>
<path d="M83.2633 34.9948C83.3227 35.0245 83.3524 35.0541 83.2039 34.9652C83.0851 34.9059 83.1148 34.9355 82.9961 34.9059C82.8773 34.8762 82.9367 34.9059 82.8179 34.9059C82.7288 34.9355 82.7585 34.9059 82.6694 34.9355C82.5803 34.9948 82.61 34.9652 82.5506 35.0245C82.4912 35.1135 82.5209 35.0838 82.4615 35.1728C82.3725 35.4397 82.3725 35.588 82.3428 35.8549C82.3428 40.8965 82.3131 40.5109 82.4022 40.9855C82.4912 41.371 82.61 41.6082 82.8773 41.9345C83.0851 42.1421 83.1148 42.1717 83.3227 42.2903C83.5009 42.3793 83.5603 42.409 83.7681 42.4386C83.8869 42.4386 83.8275 42.4386 83.9463 42.4386C84.0354 42.409 84.0057 42.409 84.0948 42.3793C84.1542 42.32 84.1245 42.3497 84.2136 42.2607C84.2729 42.1717 84.2432 42.2014 84.3026 42.0827C84.362 41.9048 84.3323 41.9641 84.362 41.7565C84.362 41.5193 84.362 41.4006 84.362 41.6082C84.362 41.8752 84.362 42.0234 84.2433 42.2903C84.1839 42.409 84.2136 42.3497 84.1542 42.4683C84.0651 42.5276 84.0948 42.5276 84.0057 42.5869C83.9166 42.6166 83.9463 42.6166 83.8275 42.6462C83.7087 42.6462 83.7384 42.6462 83.6197 42.6166C83.4712 42.5869 83.5306 42.5869 83.3821 42.5276C83.1742 42.409 83.2633 42.4683 83.0554 42.3497C82.8773 42.2014 82.8179 42.1717 82.6397 41.9641C82.4912 41.7565 82.4615 41.6972 82.3428 41.46C82.1646 41.0151 82.1349 40.7779 82.1349 40.3627C82.1349 35.499 82.0458 35.2914 82.4022 34.9355C82.4912 34.8762 82.4615 34.9059 82.5506 34.8466C82.6694 34.8169 82.61 34.8169 82.7288 34.8169C82.9961 34.8762 83.0554 34.9059 83.2633 34.9948Z" fill="url(#paint4_linear_322_29032)"/>
<path d="M84.7205 44.1881C84.9283 44.1288 84.8392 44.1584 85.0174 44.0398C85.1956 43.8915 85.1362 43.9509 85.255 43.7729C85.3738 43.5653 85.3441 43.6543 85.4331 43.417C85.641 42.6756 85.5816 43.0908 85.5816 37.8713C85.5816 37.4857 85.5816 37.634 85.5519 37.2188C85.4628 36.6553 85.4331 36.5071 85.2253 35.9139C85.0174 35.4098 84.9283 35.2911 84.6611 34.8759C84.3344 34.4608 84.2156 34.3421 83.8296 34.0159C83.5327 33.7787 83.6514 33.8676 83.2357 33.6007C82.8794 33.3931 82.7903 33.3635 82.3746 33.2448C82.137 33.2152 82.2261 33.2152 81.9885 33.2152C81.7807 33.2448 81.8401 33.2448 81.6619 33.3041C81.4837 33.4228 81.5431 33.3635 81.3946 33.5117C81.2462 33.6897 81.3056 33.6007 81.1868 33.838C81.0977 34.0752 81.1274 33.9862 81.0086 34.3421C80.9492 34.787 80.9492 34.609 80.9492 35.1132C80.9492 34.9649 80.9492 35.0835 80.9789 34.5794C81.0383 34.1345 81.0086 34.2828 81.1274 33.8973C81.2462 33.6304 81.1868 33.7193 81.3056 33.5117C81.454 33.3338 81.3946 33.3931 81.5728 33.2448C81.751 33.1262 81.6916 33.1559 81.8994 33.0966C82.1073 33.0669 82.0182 33.0669 82.2855 33.0669C82.5527 33.0966 82.4637 33.0669 82.7309 33.1559C83.0279 33.2745 82.9388 33.2152 83.1466 33.3338C83.4733 33.5117 83.3545 33.4228 83.7702 33.6897C84.2157 34.0456 84.3344 34.1345 84.6908 34.5201C85.0174 34.9353 85.1065 35.0539 85.3738 35.558C85.5816 36.0326 85.641 36.1808 85.7598 36.7443C85.9083 37.6043 85.8786 37.0112 85.8786 42.3197C85.8489 42.8239 85.8786 42.646 85.8192 43.0908C85.7301 43.4763 85.7598 43.3577 85.641 43.6246C85.5222 43.8619 85.5519 43.7729 85.4034 43.9508C85.2253 44.0991 85.3144 44.0398 85.1065 44.1584C84.8986 44.2474 84.9877 44.2178 84.7502 44.2474C84.4829 44.2474 84.6017 44.2474 84.3344 44.2178C83.889 44.0991 83.7999 44.0398 83.4139 43.8322C83.206 43.7136 83.3545 43.8026 83.5921 43.9212C83.7999 44.0102 83.7108 43.9805 84.0078 44.0695C84.275 44.1288 84.186 44.1288 84.4532 44.1584C84.6017 44.2178 84.5126 44.2178 84.7205 44.1881Z" fill="url(#paint5_linear_322_29032)"/>
<path d="M55.6197 52.8774L55.4416 60.1136L42.168 58.5418L55.6197 52.8774Z" fill="url(#paint6_linear_322_29032)"/>
<path d="M55.4416 60.1138L55.501 64.5623L42.168 58.542L55.4416 60.1138Z" fill="url(#paint7_linear_322_29032)"/>
<path d="M55.679 57.3259L55.5008 64.5621L55.4414 60.1136L55.6196 52.8774L55.679 57.3259Z" fill="url(#paint8_linear_322_29032)"/>
<path d="M41.7561 32.5494C41.7561 35.0405 41.7858 34.1509 41.6967 36.4344C41.5186 37.9469 41.6077 37.4131 41.281 38.7773C40.9841 39.6077 41.1028 39.3111 40.7168 40.0822L40.3605 40.5863L39.9447 40.9719C39.2915 41.387 40.4496 40.7049 32.818 45.1238L33.2931 44.8272L33.7088 44.4417L34.0652 43.9375L34.3621 43.3444C34.6888 42.4547 34.57 42.8699 34.8669 41.565C35.0748 39.9932 35.0154 40.6753 35.1045 38.5104C35.1045 35.4854 35.1342 35.5447 34.8372 33.6467C34.5403 32.3715 34.6591 32.8163 34.3027 31.63C33.8573 30.4438 34.0058 30.8293 33.59 29.91C33.1446 29.0499 33.3228 29.3761 32.818 28.5161C32.2835 27.745 32.4913 28.0119 31.8974 27.2409C31.2738 26.5291 31.5411 26.796 30.8284 26.1139C30.1454 25.5208 30.4127 25.7284 29.6406 25.1649L36.2923 21.3096L36.9159 21.7544C37.6582 22.3772 37.391 22.14 38.0443 22.7924C38.6976 23.5338 38.46 23.2669 39.0242 24.0083C39.5884 24.8387 39.3805 24.5125 39.8557 25.3429C40.3011 26.1732 40.1229 25.847 40.5386 26.7664C40.9841 27.9526 40.8356 27.5078 41.2216 28.7534C41.5186 29.9693 41.4295 29.4948 41.6374 30.7997C41.7561 31.719 41.7264 31.3335 41.7561 32.5494Z" fill="url(#paint9_linear_322_29032)"/>
<path d="M29.7294 30.3544C29.9372 30.8586 29.8778 30.651 30.056 31.1552C30.2045 31.7186 30.1451 31.4814 30.2936 32.2228C30.3827 33.0828 30.353 32.727 30.4124 33.8539C30.4124 36.612 30.4124 36.6416 30.2342 37.8575C30.056 38.3914 30.1451 38.2134 29.9669 38.5693C29.7888 38.8362 29.8778 38.7472 29.67 38.9845C29.5215 39.1031 29.5809 39.0438 29.4027 39.1328C29.2246 39.1921 29.2839 39.1624 29.1058 39.2217C28.8979 39.2217 28.987 39.2217 28.6604 39.1921C28.2743 39.1031 28.4228 39.1328 28.0368 38.9845C27.4429 38.6879 27.6507 38.7769 27.235 38.5396C26.7005 38.1541 26.552 38.0058 26.2551 37.6796C25.9581 37.3237 26.0769 37.472 25.8096 37.1161C25.5721 36.7306 25.6612 36.8789 25.4533 36.4637C25.1267 35.6926 25.0673 35.5147 24.9188 34.7733C24.7703 33.8243 24.8 34.2098 24.7109 32.9939L29.67 30.1172L29.7294 30.3544Z" fill="url(#paint10_linear_322_29032)"/>
<path d="M29.6422 30.1767L24.6832 33.0534L20.0508 30.3843L25.9007 27.0034C27.6527 28.0117 27.5933 27.9524 28.3653 28.5752C28.8702 29.0497 29.2562 29.4353 29.6422 30.1767Z" fill="url(#paint11_linear_322_29032)"/>
<path d="M35.1051 36.3746C35.1051 38.8657 35.1348 37.9761 35.0457 40.2596C34.8675 41.7721 34.9566 41.2383 34.63 42.6025C34.333 43.4329 34.4518 43.1363 34.0657 43.9074L33.7094 44.4115L33.2937 44.7971L32.8186 45.0936L32.2841 45.2716L31.6902 45.3605L31.0369 45.3309C30.146 45.1826 30.4727 45.2419 29.5818 44.975C28.5425 44.5598 28.9879 44.7674 27.5626 43.9963L27.2656 43.8184L28.4237 44.4412C29.374 44.8267 29.0176 44.7081 29.9679 45.0047C30.7696 45.1529 30.4727 45.1233 31.2447 45.1529L31.8089 45.064L32.3138 44.886L32.7592 44.6191L33.1452 44.2336C33.5906 43.6404 33.4422 43.8777 33.7688 43.1956C34.0657 42.3356 33.947 42.7211 34.2439 41.4755C34.4518 39.9334 34.3924 40.6155 34.4815 38.4506C34.4815 35.4849 34.5112 35.5442 34.2142 33.7055C33.947 32.5192 34.0657 32.9641 33.6797 31.7482C33.2343 30.6212 33.4125 30.9771 32.9967 30.1171C32.581 29.3163 32.7592 29.6129 32.2841 28.8122C31.7792 28.0708 31.9871 28.3377 31.4229 27.5963C30.8587 26.9438 31.0666 27.1811 30.4133 26.5286C29.7303 25.9355 30.0866 26.2024 28.8098 25.283L29.6115 25.1348L30.2351 25.5796C30.9775 26.2024 30.7102 25.9651 31.3635 26.6176C32.0168 27.359 31.7792 27.0921 32.3434 27.8335C32.9076 28.6639 32.6998 28.3377 33.1749 29.1681C33.6203 29.9984 33.4422 29.6722 33.8579 30.5916C34.3033 31.7778 34.1548 31.333 34.5409 32.5786C34.8378 33.7945 34.7487 33.32 34.9566 34.6249C35.0754 35.5739 35.0457 35.1883 35.1051 36.3746Z" fill="url(#paint12_linear_322_29032)"/>
<path d="M30.3836 35.6336C30.3836 37.324 30.2945 37.6502 30.1757 38.273C29.9976 38.8365 30.057 38.6585 29.9085 39.0441C29.7303 39.3406 29.7897 39.2517 29.5521 39.4889C29.374 39.6075 29.4631 39.5779 29.2552 39.6669C29.0473 39.7262 29.1364 39.7262 28.8989 39.7558C28.6613 39.7558 28.7801 39.7558 28.394 39.7262C27.9783 39.6075 28.1268 39.6669 27.7111 39.4889C27.0578 39.1627 26.9687 39.133 26.3451 38.6289C25.9888 38.3027 26.1075 38.4213 25.7809 38.0654C25.4543 37.6799 25.573 37.8282 25.2761 37.413C25.0088 36.9681 25.0979 37.1461 24.8604 36.6715C24.6525 36.1674 24.7119 36.375 24.5337 35.8708C24.3555 35.337 24.4446 35.5743 24.2665 34.8328C24.118 33.8838 24.1477 34.2101 24.0586 33.35L24.6228 32.9941L24.7119 34.0025C24.8604 34.9218 24.801 34.6252 24.9791 35.337C25.1276 35.8115 25.0682 35.6336 25.2464 36.1081C25.4246 36.5233 25.3652 36.375 25.573 36.7902C25.8106 37.1757 25.7215 37.0274 25.9591 37.3833C26.2263 37.7095 26.1372 37.5909 26.4342 37.9171C26.9093 38.3323 27.0281 38.4213 27.5032 38.7179C28.0971 39.0144 27.8892 38.9254 28.305 39.1034C28.6613 39.1924 28.5425 39.1627 28.8692 39.222C29.077 39.222 28.9879 39.222 29.1958 39.1924C29.374 39.133 29.3146 39.1627 29.4631 39.0737C29.6115 38.9551 29.5521 39.0144 29.76 38.8068C29.9382 38.5103 29.8788 38.6289 30.0273 38.3027C30.2054 37.7392 30.146 38.0061 30.2648 37.2054C30.3836 36.4046 30.3539 36.7309 30.3836 35.6336Z" fill="url(#paint13_linear_322_29032)"/>
<path d="M28.9878 17.0682L24.5039 22.9995V22.5547L28.7503 16.9199L28.9878 17.0682Z" fill="url(#paint14_linear_322_29032)"/>
<path d="M24.6535 33.0236L24.0893 33.4091L20.0508 31.0663V30.3545L24.6535 33.0236Z" fill="url(#paint15_linear_322_29032)"/>
<path d="M34.4522 18.8775L29.6416 25.1054L28.8398 25.2537L33.8583 18.7886L34.4522 18.8775Z" fill="url(#paint16_linear_322_29032)"/>
<path d="M34.5613 15.3009L33.7797 15.6451L20.9219 8.23093V7.54883L34.5613 15.3009Z" fill="url(#paint17_linear_322_29032)"/>
<path d="M34.3634 15.3008L34.5609 18.994L33.7695 18.8003V15.6567L34.3634 15.3008Z" fill="url(#paint18_linear_322_29032)"/>
<path d="M41.1331 11.4634L34.4518 15.2891L21 7.54871L27.6516 3.69336L41.1331 11.4634Z" fill="url(#paint19_linear_322_29032)"/>
<path d="M34.4825 36.375C34.4825 38.8365 34.5122 37.9765 34.4231 40.2007C34.2449 41.6835 34.334 41.1497 34.0371 42.4843C33.7401 43.285 33.8589 43.0181 33.5025 43.7298L33.1462 44.2044L32.7602 44.5899L32.3148 44.8568L31.8099 45.0347L31.2457 45.1237L30.6221 45.094C29.761 44.9458 30.0876 45.0051 29.2265 44.7382C28.2169 44.323 28.6623 44.5306 27.2666 43.7892C26.0194 42.9884 26.4649 43.3147 25.2474 42.3953C24.4456 41.6835 24.7426 41.9505 23.9408 41.1497C23.2281 40.349 23.4954 40.6456 22.8124 39.7559C22.1888 38.8069 22.3967 39.1627 21.8622 38.2137C21.3574 37.1757 21.5355 37.5613 21.1198 36.5233C20.7338 35.3964 20.8525 35.8115 20.5556 34.6846C20.2289 33.0535 20.318 33.6466 20.1102 32.0155L20.0508 30.9775L24.0596 33.2907C24.1487 34.1804 24.0893 33.8246 24.2674 34.7736C24.4456 35.4853 24.3862 35.2481 24.5347 35.8115C24.7129 36.3157 24.6535 36.1081 24.8613 36.6123C25.0989 37.0571 25.0098 36.9088 25.2771 37.3537C25.574 37.7392 25.4552 37.6206 25.7819 38.0061C26.1085 38.362 25.9898 38.2137 26.3461 38.5696C26.9697 39.0738 27.0588 39.1034 27.7121 39.4296C28.1278 39.6076 27.9793 39.5483 28.395 39.6669C28.7514 39.6966 28.6623 39.6966 28.8998 39.6966C29.1077 39.6669 29.0483 39.6669 29.2562 39.6076C29.4641 39.5186 29.375 39.5483 29.5531 39.4296C29.7907 39.1924 29.7016 39.2814 29.9095 38.9848C30.0876 38.5993 30.0283 38.7772 30.1767 38.2137C30.2955 37.5613 30.3846 37.2351 30.3846 35.5743C30.3846 33.8246 30.3846 34.3584 30.3549 33.1425C30.2361 32.2231 30.2955 32.5493 30.147 31.7486C29.9986 31.1555 30.0579 31.3927 29.8501 30.7996C29.6125 30.2658 29.7313 30.4734 29.4344 29.9396C29.2265 29.6133 29.3156 29.732 29.0186 29.2871C28.692 28.8719 28.8108 29.0202 28.4247 28.605C27.4448 27.7153 27.2369 27.6263 24.4753 26.0545V22.9999L28.9592 17.0686C28.6326 16.861 21.3574 12.6498 21.001 12.4422V8.23096L33.8589 15.6451V18.7887L28.8405 25.2538L29.9095 26.0249C30.5925 26.618 30.3549 26.4104 30.9785 27.0036C31.5724 27.6857 31.3645 27.4484 31.899 28.1305C32.4335 28.9016 32.2257 28.605 32.7008 29.4057C33.1165 30.2065 32.968 29.9099 33.3541 30.7699C33.7995 31.8969 33.651 31.4817 34.0074 32.6976C34.2746 33.8839 34.1855 33.4094 34.3934 34.6549C34.4825 35.604 34.4528 35.2184 34.4825 36.375Z" fill="url(#paint20_linear_322_29032)"/>
<path d="M41.1325 15.0518L36.2923 21.25L29.6406 25.1053L34.4512 18.8775L41.1325 15.0518Z" fill="url(#paint21_linear_322_29032)"/>
<path d="M41.0524 11.4634V15.0518L34.3711 18.8775V15.2891L41.0524 11.4634Z" fill="url(#paint22_linear_322_29032)"/>
<path d="M46.017 23.5637C46.3437 23.6527 46.1952 23.5934 46.6703 23.801C47.1454 24.0679 46.9969 23.9789 47.383 24.1865C47.8581 24.5424 47.9769 24.6313 48.4223 25.0762C48.8083 25.5507 48.9271 25.699 49.2241 26.2031C49.4913 26.737 49.4913 26.7666 49.6398 27.1818L44.265 30.2957C44.265 24.8389 44.2353 25.4617 44.3541 24.6907C44.4432 24.3644 44.4135 24.4831 44.5323 24.1865C44.6807 23.9196 44.6214 24.0086 44.7995 23.8306C44.9777 23.6823 44.9183 23.712 45.1262 23.5934C45.3637 23.5044 45.2746 23.5341 45.5419 23.5044C45.8092 23.5341 45.6904 23.5341 46.017 23.5637Z" fill="url(#paint23_linear_322_29032)"/>
<path d="M44.2383 30.3254L49.613 27.2114L49.6427 27.3301C49.8506 28.1308 49.8506 28.1308 49.9694 28.9315L54.6018 31.6006L57.8088 29.7322L58.3433 30.4143C58.9966 31.304 58.7591 30.9778 59.3233 31.8675C59.8281 32.7869 59.6499 32.431 60.125 33.4393C60.5408 34.418 60.3923 34.0324 60.7486 35.0704C61.0456 36.0787 60.9268 35.6932 61.1644 36.7608C61.4019 38.4513 61.3722 37.7988 61.3722 43.8487C61.3128 45.2723 61.3425 44.8274 61.194 45.8357C60.9862 46.6958 61.0753 46.3992 60.7783 47.1999C60.3923 47.9117 60.5408 47.6744 60.125 48.2379C59.4421 48.8904 60.3923 48.2972 52.5825 52.7754L53.028 52.4788L53.4437 52.0933L53.8 51.6188C54.1564 50.9367 54.0376 51.2332 54.3345 50.4325C54.7503 48.7717 54.6909 49.0386 54.6909 42.8997C54.6612 41.8618 54.6612 42.188 54.6018 41.4762C54.4533 40.4086 54.5127 40.7941 54.2751 39.7561C53.9782 38.7478 54.097 39.1334 53.7406 38.0954C53.3249 37.1167 53.5031 37.4726 53.028 36.4939C52.5231 35.5746 52.731 35.9008 52.1371 34.9814C51.5135 34.1214 51.7808 34.4476 51.0681 33.5876C50.3554 32.8165 50.6524 33.1131 49.8506 32.342C49.0785 31.6896 49.3755 31.9268 48.5143 31.304C47.5938 30.7406 47.5344 30.6812 46.5545 30.2957C45.9606 30.1474 46.1981 30.1771 45.6042 30.0881C45.0994 30.0585 45.2776 30.0585 44.8025 30.1178C44.4461 30.2067 44.5946 30.1771 44.2383 30.3254Z" fill="url(#paint24_linear_322_29032)"/>
<path d="M42.7229 17.6028L42.1884 17.7511L41.6836 17.9883C49.434 13.5102 48.4243 14.0143 49.3746 13.7771L49.9685 13.7178C50.7108 13.7474 50.4139 13.7178 51.275 13.8661C52.1659 14.133 51.8392 14.0143 52.7301 14.3702C54.0367 15.0523 53.5615 14.7854 54.779 15.5565C55.9371 16.4462 55.5511 16.1496 56.4122 16.9207C57.1843 17.7214 56.8874 17.3952 57.6594 18.2849C58.3424 19.1746 58.1049 18.8187 58.7581 19.7974C59.3223 20.7464 59.1145 20.3905 59.6787 21.4285C60.1538 22.4665 59.9756 22.0513 60.3914 23.1782C60.718 24.2458 60.6289 23.8307 60.8962 24.9873C61.1931 26.5887 61.1634 26.3218 61.2525 27.8046C56.9171 30.2958 58.4909 29.4061 54.6009 31.66C54.5118 30.1772 54.5415 30.4441 54.2445 28.8426C53.9773 27.7453 54.0961 28.1605 53.7397 27.0336C53.324 25.9659 53.5021 26.3811 53.027 25.2838C52.4925 24.2755 52.7301 24.661 52.1065 23.6527C51.4829 22.7334 51.7205 23.0596 51.0078 22.1402C50.2951 21.3098 50.5624 21.6064 49.7606 20.776C48.8994 20.005 49.2855 20.3015 48.1274 19.4118C46.9099 18.6408 47.385 18.9077 46.0784 18.2256C45.1876 17.8697 45.5142 17.9883 44.6234 17.7214C43.7919 17.5731 44.0889 17.6028 43.3168 17.5731L42.7229 17.6028Z" fill="url(#paint25_linear_322_29032)"/>
<path d="M46.0476 34.9516C46.404 35.0406 46.2555 34.9813 46.7009 35.1889C47.2057 35.4558 47.0276 35.3668 47.4136 35.6041C47.7699 35.871 47.6512 35.7523 48.0075 36.0489C48.4529 36.4641 48.5717 36.6124 48.9874 37.1462C49.3438 37.68 49.4328 37.8283 49.6704 38.4807C50.1455 39.9043 50.0564 40.0229 50.0564 45.0348C50.0564 45.4797 50.0564 45.3314 49.997 45.7466C49.9377 46.1025 49.9674 45.9838 49.8486 46.3397C49.7298 46.6363 49.7892 46.5177 49.611 46.7846C49.4328 46.9922 49.4922 46.9032 49.2844 47.0811C49.0468 47.1998 49.1359 47.1701 48.8983 47.2294C48.6311 47.2591 48.7499 47.2591 48.4232 47.2591C48.0966 47.1998 48.2154 47.2294 47.8887 47.1405C47.4136 46.9625 47.5918 47.0218 47.0869 46.7846C46.7009 46.5473 46.8197 46.6363 46.5821 46.4583C46.1367 46.1025 46.2852 46.2211 45.9288 45.9245C45.6319 45.5983 45.7507 45.7466 45.4537 45.3907C45.1865 45.0348 45.2756 45.1831 45.038 44.7976C44.7411 44.2638 44.652 44.0858 44.4441 43.463C44.3253 43.0182 44.355 43.1665 44.2659 42.7216C44.1768 42.0692 44.2065 42.3064 44.1769 41.6836C44.1769 36.6717 44.0878 36.6124 44.4738 35.7227C44.6223 35.4558 44.5629 35.5447 44.7411 35.3371C44.9489 35.1592 44.8598 35.2185 45.0974 35.0999C45.3646 35.0109 45.2459 35.0406 45.5131 34.9813C45.8695 34.922 45.7507 34.922 46.0476 34.9516Z" fill="url(#paint26_linear_322_29032)"/>
<path d="M40.7933 19.2044C40.4072 19.7382 40.526 19.5306 40.1697 20.183C39.8727 20.9541 39.9915 20.6575 39.7836 21.4879C39.6352 22.4369 39.6946 22.0217 39.6055 23.4156C39.6055 22.9411 39.6055 23.2376 39.6649 21.8734C39.8133 20.9244 39.7242 21.2507 39.9618 20.361C40.2588 19.5602 40.14 19.8271 40.4963 19.1747L40.8527 18.7002L41.2387 18.3147L41.6841 18.0181L42.1889 17.7808L42.7234 17.6326L43.3173 17.5732C44.0597 17.6029 43.7627 17.5732 44.6239 17.7215C45.5147 17.9884 45.1881 17.8698 46.0789 18.2257C47.3855 18.9078 46.9104 18.6409 48.1279 19.4119C49.286 20.3016 48.9 20.0051 49.7611 20.7761C50.5629 21.6065 50.2956 21.2803 51.0083 22.1403C51.6913 23.03 51.424 22.6742 52.107 23.6528C52.6712 24.6018 52.4633 24.246 53.0275 25.2839C53.5027 26.3219 53.3245 25.9067 53.7402 27.0337C54.0669 28.1013 53.9778 27.6861 54.245 28.8427C54.542 30.4442 54.5123 30.1773 54.6014 31.6601L53.9778 31.3042C53.9481 30.6221 53.9481 30.889 53.8887 30.1476C53.6214 28.6944 53.7402 29.1689 53.4433 28.0717C53.1166 27.0337 53.2651 27.4192 52.8494 26.3812C52.4039 25.4026 52.5821 25.7584 52.0773 24.7798C51.5428 23.8604 51.7507 24.2163 51.1271 23.2673C50.4738 22.4369 50.741 22.7335 49.9987 21.9031C49.2563 21.1617 49.5532 21.4286 48.7218 20.6872C47.6231 19.8271 48.0388 20.1237 46.8213 19.3526C45.6038 18.7298 45.9899 18.9078 45.099 18.5519C44.2676 18.3147 44.5942 18.374 43.7627 18.2257C42.9907 18.196 43.2579 18.196 42.6046 18.2553L42.0998 18.4036L41.6247 18.6112L41.209 18.9078L40.7933 19.2044Z" fill="url(#paint27_linear_322_29032)"/>
<path d="M48.0084 47.7338C48.3647 47.7931 48.246 47.7635 48.5726 47.7931C48.8696 47.7635 48.7508 47.7931 49.0477 47.7042C49.315 47.5559 49.2259 47.6152 49.4635 47.4373C49.6713 47.2 49.5822 47.3186 49.7901 47.0221C49.9386 46.6958 49.8792 46.8145 49.998 46.4586C50.087 46.0137 50.1167 45.8951 50.1167 45.0054C50.1167 40.3197 50.1761 40.5273 49.9386 39.43C49.8198 38.9555 49.8495 39.1334 49.701 38.6293C49.4338 37.9768 49.3447 37.7989 48.9289 37.1464C48.632 36.7609 48.7508 36.9092 48.4241 36.494C48.0975 36.1381 48.2163 36.2567 47.8599 35.9305C47.3551 35.5153 47.3254 35.5153 46.88 35.2484C46.3455 34.9815 46.5534 35.0705 46.0188 34.8629C45.6625 34.7739 45.7813 34.8036 45.425 34.7443C45.0983 34.7443 45.2171 34.7443 44.9201 34.7739C44.6529 34.8629 44.742 34.8332 44.4747 34.9815C44.2372 35.1891 44.3262 35.1001 44.1184 35.3374C43.9402 35.6043 43.9996 35.5153 43.8808 35.8415C43.762 36.2271 43.8214 36.0491 43.7026 36.6126C43.673 36.9388 43.673 36.7906 43.673 37.2651C43.673 42.3067 43.5542 42.455 44.0887 43.9971C44.2669 44.4716 44.2075 44.2937 44.4153 44.7385C44.6529 45.1834 44.5638 45.0054 44.8311 45.4503C45.128 45.8358 45.0092 45.6875 45.3359 46.0731C45.6625 46.4289 45.5437 46.2807 45.9001 46.6365C46.3752 47.0221 46.2564 46.9331 46.5237 47.111C46.9394 47.3779 46.7612 47.2593 47.2957 47.5559C47.7708 47.7042 47.6224 47.6449 48.0084 47.7338ZM46.8503 51.8561C45.6328 51.085 46.0188 51.3519 45.128 50.6698C44.3262 49.9581 44.6232 50.2546 43.7917 49.4539C43.0791 48.6532 43.3463 48.9794 42.6336 48.0897C42.01 47.2 42.2476 47.5559 41.624 46.5772C41.0895 45.6282 41.2974 45.9841 40.7926 44.9461C40.3768 43.9378 40.5253 44.3233 40.169 43.226C39.9017 42.1584 39.9908 42.5736 39.7532 41.4466C39.6048 40.3197 39.6641 40.7942 39.5751 39.3114C39.5751 21.0133 39.5454 23.8603 39.6345 22.2292C39.7829 21.3098 39.6938 21.6361 39.9017 20.776C40.1987 20.005 40.0799 20.2719 40.4065 19.6194C40.7925 19.0856 40.6441 19.2635 41.1192 18.789L41.5349 18.4925L42.01 18.2849C42.6633 18.1069 42.4258 18.1662 43.0791 18.1069C43.7917 18.1366 43.5245 18.1069 44.3262 18.2552C45.1577 18.4925 44.8311 18.3738 45.7219 18.7297C46.9988 19.3822 46.5237 19.1153 47.7115 19.8863C48.8102 20.7464 48.4538 20.4498 49.2853 21.1912C50.0277 21.9326 49.7604 21.6361 50.4731 22.4961C51.1264 23.3265 50.8888 23.0003 51.5124 23.9196C52.0469 24.839 51.8687 24.4831 52.3735 25.4914C52.819 26.4701 52.6705 26.0845 53.0565 27.1522C53.3832 28.1902 53.2644 27.775 53.5613 28.9019C53.7989 30.2365 53.8286 30.2068 53.888 31.2448L49.8495 28.9316C49.7901 28.4867 49.8198 28.6943 49.701 28.0419C49.5228 27.4191 49.6119 27.6563 49.3744 27.0336C49.1962 26.5887 49.2556 26.7666 49.0477 26.3218C48.6914 25.699 48.5726 25.5507 48.1569 25.0466C47.8302 24.7203 47.9787 24.839 47.6224 24.5127C47.1176 24.1272 47.1176 24.1272 46.7018 23.8603C46.1673 23.5934 46.3752 23.6824 45.8407 23.4748C45.4843 23.3858 45.6031 23.4155 45.2765 23.3561C44.9498 23.3561 45.0686 23.3561 44.7717 23.3858C44.5044 23.4748 44.5935 23.4155 44.3559 23.5637C44.1184 23.7417 44.2075 23.6824 44.0293 23.89C43.8808 24.1569 43.9105 24.0382 43.7917 24.3645C43.5245 25.2542 43.5839 25.0169 43.6433 31.0075C44.742 30.6517 44.5638 30.711 45.0686 30.6517C45.5734 30.6813 45.3656 30.6517 45.9001 30.7406C46.4643 30.8889 46.2267 30.8296 46.8503 31.0668C47.266 31.2744 47.0879 31.1855 47.563 31.4227C48.3647 31.9269 48.0678 31.7193 48.8992 32.3124C49.6713 32.9649 49.4041 32.7276 50.1167 33.4097C50.8294 34.1808 50.5622 33.8842 51.1858 34.6553C51.8093 35.5153 51.5718 35.1891 52.136 36.0491C52.6408 36.9388 52.4626 36.583 52.9081 37.532C53.2941 38.4513 53.1456 38.0954 53.502 39.1038C53.7692 40.0824 53.6801 39.6969 53.9177 40.7349C54.1552 42.3363 54.1255 41.7135 54.1255 47.7338C54.0662 49.1573 54.0959 48.7125 53.9474 49.6615C53.7395 50.4919 53.8286 50.1953 53.5317 50.9664C53.1753 51.6485 53.3238 51.4112 52.9081 51.9451L52.522 52.3306L52.0766 52.6272L51.6015 52.8348L51.067 52.9534C50.384 53.0127 50.6512 53.0127 49.8792 52.983C49.1071 52.8348 49.4041 52.9237 48.5429 52.6568C47.6521 52.3009 48.0678 52.4789 46.8503 51.8561Z" fill="url(#paint28_linear_322_29032)"/>
<path d="M45.6623 34.7441C46.0484 34.8331 45.8702 34.8034 46.375 34.9814C46.9095 35.2483 46.7907 35.189 46.9986 35.3076C46.6423 35.1296 46.7907 35.189 46.3156 35.011C45.989 34.922 46.1078 34.9517 45.7811 34.8924C45.4842 34.8924 45.5732 34.8924 45.306 34.922C45.0684 35.011 45.1575 34.9517 44.92 35.1C44.7121 35.2779 44.7715 35.2186 44.623 35.4262C44.4745 35.6931 44.5339 35.5745 44.3855 35.8711C44.2964 36.2269 44.3261 36.049 44.237 36.5828C44.2073 36.8794 44.2073 36.7311 44.2073 37.2056C44.2073 42.3362 44.1776 42.01 44.3558 43.0183C44.5339 43.6707 44.5933 43.8487 44.8606 44.4121C45.1575 44.946 45.2466 45.0942 45.692 45.5984C45.989 45.9246 45.8702 45.806 46.1968 46.1026C46.7017 46.5178 46.761 46.5771 47.5034 46.9329C47.9785 47.1109 47.8301 47.0516 48.1567 47.1702C48.4833 47.2295 48.3646 47.1999 48.6615 47.2295C48.9288 47.1999 48.8397 47.2295 49.1069 47.1405C49.3445 47.0219 49.2554 47.0812 49.4633 46.9033C49.6414 46.6957 49.5821 46.7847 49.7305 46.5474C49.879 46.2508 49.8196 46.3695 49.9087 46.0433C49.9978 45.6577 49.9681 45.806 49.9978 45.3908C50.0275 44.8866 49.9978 44.8866 49.9978 45.3611C49.9681 45.8653 49.9978 45.6874 49.9384 46.1322C49.8493 46.5474 49.9087 46.3991 49.7899 46.755C49.6414 47.0812 49.7008 46.9626 49.5227 47.2295C49.3148 47.4668 49.4039 47.3778 49.1663 47.5557C48.8991 47.704 48.9882 47.6447 48.7209 47.7337C48.424 47.7633 48.5427 47.7633 48.1864 47.7633C47.8301 47.704 47.9785 47.7337 47.5925 47.6447C47.058 47.4371 47.2659 47.5261 46.7313 47.2592C46.3453 47.0219 46.4641 47.0812 46.1671 46.9033C45.6623 46.4881 45.5139 46.3991 44.92 45.717C44.623 45.3018 44.7121 45.4501 44.4448 45.0349C44.2073 44.5901 44.2964 44.768 44.0588 44.2935C43.8806 43.819 43.94 44.0266 43.7619 43.5224C43.6134 43.0183 43.6728 43.1962 43.5837 42.7217C43.4946 42.0693 43.5243 42.3065 43.4946 41.6244C43.4946 36.2862 43.4649 36.9387 43.6134 36.0786C43.7322 35.7228 43.6728 35.8414 43.8213 35.5152C43.9994 35.2186 43.94 35.3076 44.1182 35.1C44.3261 34.922 44.237 34.9814 44.5042 34.8331C44.8012 34.7441 44.6824 34.7738 44.9794 34.7144C45.4248 34.7144 45.306 34.6848 45.6623 34.7441Z" fill="url(#paint29_linear_322_29032)"/>
<path d="M48.9279 52.8646C47.9776 52.4791 48.3934 52.6867 47.1462 52.0342L46.8492 51.8563L47.8588 52.3901C48.7497 52.746 48.4527 52.6274 49.2545 52.8646C50.086 53.0129 49.789 52.9832 50.5314 53.0129C51.2144 52.9536 50.9768 52.9832 51.6301 52.835L52.1052 52.6274L52.5506 52.3308L52.9367 51.9453L53.2633 51.5004C53.6196 50.848 53.5009 51.1149 53.7978 50.3438C54.2135 48.7127 54.1541 48.8906 54.1541 42.9297C54.1245 41.8917 54.1245 42.2476 54.0651 41.5655C53.9166 40.5868 53.976 40.9427 53.7681 39.9344C53.5009 38.9557 53.6196 39.3412 53.2633 38.3329C52.8773 37.4135 53.0257 37.7398 52.5803 36.7908C52.0755 35.9011 52.2834 36.2273 51.7192 35.3376C51.1253 34.5369 51.3628 34.8334 50.7096 34.003C50.0266 33.2616 50.2938 33.5285 49.5515 32.8168C48.8091 32.194 49.106 32.4312 48.2746 31.8085C47.4134 31.245 47.3243 31.1857 46.4038 30.8298C45.8396 30.6815 46.0475 30.7112 45.513 30.6222C45.0378 30.5925 45.216 30.5925 44.7409 30.6519C44.3252 30.7408 44.5627 30.6815 43.6719 30.9781L44.2361 30.3256L44.533 30.207C44.9784 30.0884 44.8003 30.118 45.2754 30.0884C45.8099 30.118 45.602 30.0884 46.1662 30.1773C46.7898 30.3553 46.5523 30.2663 47.1759 30.5036C47.6213 30.7112 47.4431 30.6222 47.9182 30.8891C48.8091 31.4526 48.4824 31.245 49.3139 31.8381C50.1453 32.5202 49.8484 32.2533 50.5908 32.9651C51.3331 33.7658 51.0659 33.4692 51.7192 34.27C52.3428 35.13 52.1052 34.8038 52.6991 35.7231C53.2039 36.6425 53.0257 36.2866 53.5009 37.2949C53.9166 38.2736 53.7681 37.8881 54.1245 38.926C54.4214 39.9344 54.3026 39.5488 54.5402 40.6165C54.7777 42.3069 54.748 41.6544 54.748 47.7044C54.6887 49.1279 54.7184 48.683 54.5699 49.6914C54.362 50.5514 54.4511 50.2548 54.1541 51.0556C53.7681 51.7673 53.9166 51.5301 53.5009 52.0935L53.0851 52.4791L52.6397 52.7756L52.1349 53.0129L51.5707 53.1612C50.858 53.2205 51.1253 53.2205 50.3235 53.1908C49.5218 53.0425 49.8187 53.1315 48.9279 52.8646Z" fill="url(#paint30_linear_322_29032)"/>
<path d="M45.6015 23.3559C45.9875 23.4449 45.8093 23.4152 46.3141 23.5932C46.8486 23.8601 46.7002 23.8008 46.9377 23.9194C46.5814 23.7415 46.7299 23.8008 46.2844 23.6228C45.9578 23.5339 46.0766 23.5635 45.7796 23.5042C45.4827 23.5042 45.6015 23.5042 45.3342 23.5339C45.0967 23.6228 45.1857 23.5635 44.9482 23.6822C44.7403 23.8601 44.8294 23.7711 44.6512 23.9787C44.5028 24.2456 44.5622 24.127 44.4434 24.4236C44.2058 25.2243 44.2652 24.9574 44.2652 30.2956L43.701 30.948C43.6416 24.8091 43.6119 25.4615 43.7604 24.6015C43.8792 24.2456 43.8198 24.3643 43.9683 24.038C44.1464 23.7415 44.0573 23.8601 44.2652 23.6228C44.4731 23.4449 44.384 23.5042 44.6512 23.3559C44.9185 23.267 44.8294 23.2966 45.1264 23.2373C45.3936 23.3263 45.2748 23.2966 45.6015 23.3559Z" fill="url(#paint31_linear_322_29032)"/>
<path d="M64.4373 33.0371C64.8531 33.215 64.6749 33.1261 65.2391 33.4226C65.8033 33.7785 65.6251 33.6599 66.0408 33.9861C66.4269 34.3123 66.2784 34.1937 66.6347 34.5496C66.9614 34.9351 66.8426 34.7868 67.1396 35.202C67.4365 35.6469 67.3177 35.4689 67.585 35.9138C67.8225 36.3883 67.7334 36.2103 67.9413 36.7145C68.1195 37.2483 68.0601 37.0407 68.1789 37.5745C68.4758 39.1463 68.4164 37.9897 68.4164 53.9153C68.3867 54.8643 68.3867 54.5677 68.2976 55.2498C68.1492 55.8133 68.2086 55.6354 68.0601 56.0209C67.8819 56.3175 67.971 56.2285 67.7631 56.4954C67.5553 56.703 67.6444 56.6437 67.3771 56.792C67.0802 56.9106 67.1989 56.8809 66.902 56.9106C66.5754 56.9106 66.6941 56.9106 66.3378 56.8513C65.9518 56.7327 66.1002 56.792 65.6845 56.614C65.0906 56.3175 65.2985 56.4361 64.7343 56.0802C64.3482 55.7837 64.4967 55.9023 64.1107 55.5464C63.7544 55.1905 63.9028 55.3388 63.5465 54.9533C63.2495 54.5381 63.3386 54.6864 63.0714 54.2712C62.8041 53.8263 62.8932 53.9746 62.6853 53.5298C62.4775 53.0256 62.5666 53.2035 62.3884 52.729C62.2399 52.1952 62.2993 52.4028 62.1508 51.6911C62.0618 50.8903 62.0914 51.2165 62.0321 50.2379C62.0321 34.3123 61.943 35.4096 62.2399 34.164C62.3884 33.7785 62.329 33.9268 62.4775 33.6006C62.6853 33.3336 62.5963 33.4226 62.8041 33.215C63.0417 33.0667 62.9526 33.0964 63.2198 32.9778C63.5168 32.9185 63.398 32.9185 63.7247 32.9185C64.1998 32.9778 64.0513 32.9481 64.4373 33.0371Z" fill="url(#paint32_linear_322_29032)"/>
<path d="M70.5847 62.3676L71.0598 62.071L71.5052 61.6855L71.8913 61.211C72.307 60.4992 72.1585 60.7661 72.4852 59.9951C73.1087 57.6819 72.9603 59.2537 72.9603 42.2605C72.9306 40.9852 72.9603 41.4894 72.8415 40.1845C72.5742 38.5534 72.693 39.0872 72.3961 37.8416C72.0397 36.685 72.1882 37.1299 71.7725 35.9436C71.2974 34.8463 71.4755 35.2615 70.9113 34.1642C70.3174 33.1559 70.555 33.5414 69.8423 32.5035C69.0999 31.5841 69.3969 31.9103 68.5654 30.991C67.734 30.1606 68.0606 30.4572 67.1104 29.6564C66.1008 28.915 66.5462 29.2116 65.1802 28.3515C64.1706 27.8177 64.4675 27.966 63.8143 27.6694C62.8937 27.3432 63.2204 27.4322 62.3295 27.1949C61.4684 27.0763 61.7653 27.106 61.0229 27.1356L60.429 27.2543L59.8945 27.4618L66.5462 23.6065L67.0807 23.3989L67.6746 23.2803H68.2982C69.1593 23.3989 68.8327 23.3396 69.6938 23.5472C70.6144 23.8734 70.3174 23.7548 71.0004 24.081C72.0694 24.6445 71.624 24.3776 72.9603 25.2376C73.9105 25.9494 73.5542 25.6825 74.5044 26.4832C75.3359 27.3136 75.0389 26.9873 75.8704 27.9067C76.6127 28.826 76.3455 28.4702 77.0285 29.4785C77.6521 30.5461 77.4442 30.1606 77.9787 31.1986C78.4835 32.3552 78.3053 31.9103 78.7211 33.0373C79.0774 34.2532 78.9586 33.8083 79.2556 34.9946C79.701 37.812 79.5822 35.9733 79.5822 52.6699C79.5228 54.2714 79.5822 53.6782 79.3743 55.1611C79.0477 56.4066 79.1665 55.9914 78.8398 56.8218L78.5132 57.3853L78.1272 57.8598L77.6817 58.2453C77.0582 58.6605 78.1569 58.0081 70.5847 62.3676Z" fill="url(#paint33_linear_322_29032)"/>
<path d="M66.7526 57.4742C67.0792 57.4149 66.9604 57.4445 67.2871 57.3259C67.584 57.1479 67.4653 57.2073 67.7325 56.9997C67.9404 56.7031 67.881 56.8217 68.0592 56.4658C68.2076 56.0506 68.1482 56.2286 68.2967 55.6355C68.4452 54.5085 68.4155 56.021 68.4155 40.0065C68.3858 38.9685 68.3858 39.3244 68.2967 38.4643C68.1482 37.6932 68.2076 37.9305 68.0592 37.3374C67.881 36.7739 67.9701 36.9815 67.7325 36.418C67.495 35.9139 67.584 36.0918 67.2871 35.5876C66.9901 35.1131 67.1089 35.2911 66.7526 34.8166C66.3962 34.4014 66.5447 34.5497 66.129 34.1345C65.5351 33.6303 65.5351 33.6303 64.9115 33.2448C64.3176 32.9185 64.4958 33.0372 64.0503 32.8296C63.6346 32.7109 63.7831 32.7406 63.3971 32.6813C63.011 32.6813 63.1595 32.6813 62.8329 32.7406C62.5062 32.8592 62.625 32.7999 62.3577 32.9779C62.1202 33.2151 62.2093 33.1261 61.9717 33.4227C61.7935 33.7786 61.8529 33.66 61.7045 34.0455C61.3778 35.3504 61.4669 34.2531 61.4669 50.238C61.4966 51.2463 61.4966 50.9201 61.5857 51.7505C61.7341 52.5215 61.6748 52.2546 61.8232 52.8477C62.0014 53.3816 61.942 53.174 62.1499 53.7374C62.3874 54.2416 62.2984 54.0637 62.5656 54.5678C62.8626 55.0423 62.7438 54.8644 63.1001 55.3092C63.4565 55.7244 63.308 55.5761 63.7237 55.9617C64.1394 56.3176 63.9613 56.1989 64.4067 56.5252C65.0006 56.9107 64.763 56.7921 65.4163 57.1183C65.8617 57.2962 65.6836 57.2369 66.129 57.3555C66.515 57.4742 66.3665 57.4742 66.7526 57.4742ZM72.3946 42.2604C72.3946 59.2239 72.5134 57.6818 71.9195 59.906C71.6225 60.6474 71.7413 60.3805 71.3553 61.0626L70.9989 61.5075L70.5832 61.8633L70.1081 62.1302L69.6033 62.3082L69.0391 62.3971H68.4155C67.584 62.2785 67.9107 62.3378 67.0495 62.1302C66.129 61.804 66.4259 61.9226 65.7727 61.6261C64.7333 61.0626 65.1491 61.3295 63.8722 60.4991C62.9516 59.817 63.308 60.0839 62.4171 59.3129C61.6154 58.5418 61.9123 58.8384 61.1403 57.9783C60.4573 57.0886 60.6948 57.4445 60.0415 56.4955C59.4773 55.5465 59.6852 55.9024 59.121 54.8644C58.6459 53.7671 58.7944 54.1823 58.4083 53.1147C58.052 51.958 58.1708 52.3732 57.9035 51.2463C57.4581 48.5475 57.5769 50.2973 57.5769 33.6896C57.6363 32.1178 57.5769 32.6813 57.7847 31.2281C58.1114 30.0122 57.9926 30.3977 58.2895 29.597L58.5865 29.0335L58.9428 28.559L59.3586 28.1735L59.8337 27.8769L60.3385 27.699L60.9027 27.61C61.6748 27.5804 61.3778 27.5804 62.1499 27.6693C63.0407 27.8769 62.6844 27.788 63.6049 28.1142C64.2582 28.4107 63.9613 28.2625 64.9412 28.7666C66.2478 29.597 65.832 29.3301 66.812 30.0419C67.6731 30.7833 67.3465 30.4867 68.2076 31.3171C68.95 32.1475 68.6827 31.8213 69.4251 32.7703C70.0487 33.6896 69.8408 33.3337 70.4347 34.3421C70.9693 35.4097 70.7911 34.9945 71.2365 36.0621C71.6522 37.1891 71.5038 36.7739 71.8304 37.9008C72.0977 39.0871 72.0086 38.5829 72.2758 40.1547C72.3649 41.4893 72.3352 41.0444 72.3946 42.2604Z" fill="url(#paint34_linear_322_29032)"/>
<path d="M64.9128 33.2449C65.1206 33.3635 65.18 33.3932 64.7346 33.1856C64.3486 33.0373 64.497 33.067 64.111 32.978C63.7547 32.9187 63.9031 32.9483 63.5468 32.9483C63.2499 33.0077 63.3686 32.978 63.0717 33.0966C62.8044 33.2746 62.8935 33.1856 62.6857 33.4228C62.4778 33.6898 62.5669 33.6008 62.3887 33.8974C62.2402 34.2829 62.2996 34.1049 62.1511 34.6981C62.0621 35.4098 62.0918 35.0836 62.0324 36.0623C62.0324 51.9582 61.9433 50.8016 62.2402 52.3437C62.3887 52.8775 62.3293 52.6699 62.4778 53.2038C62.656 53.6783 62.5966 53.5003 62.8044 53.9748C63.042 54.4197 62.9529 54.2417 63.2202 54.6866C63.5171 55.0721 63.3983 54.9238 63.725 55.3094C64.0813 55.6653 63.9328 55.517 64.3189 55.8728C64.7346 56.1991 64.5564 56.0508 65.1206 56.4363C65.7145 56.7329 65.5067 56.6439 65.9224 56.8219C66.3084 56.9405 66.1599 56.9108 66.5163 56.9701C66.8429 56.9701 66.7241 56.9701 67.0211 56.9405C67.2884 56.8515 67.1993 56.8812 67.4665 56.7329C67.6744 56.5253 67.615 56.6143 67.8229 56.3474C68.001 56.0211 67.9416 56.1398 68.0604 55.7839C68.2089 55.1908 68.1495 55.428 68.2386 54.7756L68.2683 54.0045V54.3604C68.2386 55.339 68.2386 55.0128 68.1495 55.7542C68.001 56.3474 68.0604 56.1694 67.9119 56.5846C67.7338 56.9405 67.7932 56.8219 67.5853 57.1184C67.3477 57.3557 67.4368 57.2667 67.1399 57.4446C66.8132 57.5633 66.932 57.5336 66.6054 57.5929C66.2193 57.5929 66.3678 57.5929 65.9818 57.5336C65.5364 57.415 65.7145 57.4743 65.2691 57.2964C64.6158 56.9701 64.8534 57.0888 64.2595 56.7032C63.8437 56.377 63.9922 56.4956 63.5765 56.1398C63.1905 55.7246 63.3092 55.9025 62.9529 55.4873C62.5966 55.0128 62.7153 55.1908 62.4184 54.7459C62.1215 54.2417 62.2402 54.4197 62.0027 53.9155C61.7948 53.352 61.8542 53.5596 61.676 53.0258C61.5276 52.4327 61.5869 52.6699 61.4385 51.9285C61.3494 51.0981 61.3791 51.4244 61.3197 50.416C61.3197 34.4312 61.2306 35.5581 61.5573 34.2236C61.7057 33.8084 61.6463 33.9567 61.8245 33.6008C62.0324 33.3042 61.973 33.3932 62.2105 33.1559C62.4778 32.978 62.359 33.0373 62.6857 32.9187C63.0123 32.8594 62.8935 32.8594 63.2499 32.8594C63.6359 32.9187 63.4874 32.889 63.9031 33.0077C64.497 33.0373 64.3189 32.9483 64.9128 33.2449Z" fill="url(#paint35_linear_322_29032)"/>
<path d="M69.5733 62.3377L70.0781 62.1598L70.5532 61.8929L70.969 61.537L71.3253 61.0921C71.7113 60.41 71.5926 60.6769 71.8895 59.9355C72.4834 57.7113 72.3646 59.2831 72.3646 42.2899C72.3349 41.0443 72.3646 41.5188 72.2458 40.2436C71.9786 38.6718 72.0974 39.1759 71.8004 37.9897C71.4738 36.8627 71.6222 37.3076 71.2065 36.151C70.7611 35.113 70.9393 35.4985 70.4048 34.4309C69.8109 33.4522 70.0484 33.8378 69.3951 32.8591C68.7121 31.9694 68.9794 32.2956 68.1776 31.4059C67.3165 30.5755 67.6431 30.8721 66.782 30.1307C65.802 29.4189 66.2475 29.6858 64.9112 28.8555C63.9313 28.3513 64.2282 28.4699 63.5749 28.203C62.6841 27.8768 63.0107 27.9658 62.1199 27.7582C61.3478 27.6692 61.6151 27.6692 60.8727 27.6989L60.3085 27.7878L59.8037 27.9658L59.3286 28.2623L58.9128 28.6479L58.5565 29.1224L58.2596 29.6858C57.9329 30.4866 58.0517 30.101 57.7547 31.317C57.5469 32.7701 57.6063 32.2067 57.5469 33.7784C57.5469 33.3039 57.5469 33.6302 57.6063 32.088L57.7844 30.9018L58.0517 29.8934C58.3783 29.0631 58.2596 29.3596 58.6456 28.6479L59.0316 28.1734L59.477 27.7878L59.9522 27.4913L60.4867 27.2837L61.0806 27.165H61.7042C62.5653 27.2837 62.2387 27.2244 63.0998 27.4319C64.0204 27.7582 63.7234 27.6395 64.4064 27.9658C65.4754 28.5292 65.03 28.2623 66.3663 29.1224C67.3165 29.8341 66.9601 29.5672 67.9104 30.3679C68.7418 31.1983 68.4449 30.8721 69.2764 31.7915C70.0187 32.7108 69.7515 32.3549 70.4345 33.3633C71.0283 34.3716 70.8205 33.986 71.3847 35.0833C71.8895 36.2399 71.7113 35.7951 72.1271 36.922C72.4834 38.138 72.3646 37.6931 72.6616 38.8794C73.107 41.6078 72.9882 39.7691 72.9882 56.5547C72.9288 58.1561 72.9882 57.563 72.7803 59.0458C72.4537 60.2914 72.5725 59.8762 72.2458 60.7066L71.9192 61.2701L71.5332 61.7446L71.0877 62.1301L70.6126 62.4267L70.0781 62.6343L69.4842 62.7232C68.6825 62.7232 68.9794 62.7529 68.1479 62.6343C67.2274 62.397 67.5837 62.5156 66.6335 62.1598C66.3663 62.0411 65.9208 61.8632 64.9409 61.2701C66.1287 61.8929 65.9802 61.8335 67.0492 62.2191C67.9104 62.4267 67.5837 62.3674 68.4152 62.486H69.0388L69.5733 62.3377Z" fill="url(#paint36_linear_322_29032)"/>
<path d="M97.0108 34.5205C97.0405 35.3509 97.0405 35.0247 97.0405 35.9144C97.0108 36.804 97.0108 36.4778 96.9217 37.3082C96.8029 38.1979 96.8326 37.8717 96.6842 38.7317C96.4763 39.6214 96.5357 39.2952 96.2981 40.1552C95.8824 41.3712 95.7339 41.6974 95.1103 42.943C94.4867 44.0699 94.3086 44.3665 93.4177 45.5824C92.4972 46.7686 92.2299 47.0356 91.2797 48.0439C90.2404 49.0522 89.9137 49.3488 88.6962 50.3274C86.4988 51.9882 84.9547 52.9372 82.3118 54.3014C79.4314 55.6953 77.5607 56.407 74.5318 57.356C71.3248 58.305 69.157 58.7795 65.6233 59.343C61.5255 59.9361 58.3184 60.2031 53.3594 60.1734L53.3891 56.496C56.8337 56.5553 58.7341 56.4663 61.6442 56.2587C69.5431 55.4877 76.6401 53.7676 83.4699 50.0309C84.8953 49.2005 85.2516 48.9929 86.4988 48.1328C87.8054 47.1838 88.1023 46.9466 89.1417 46.0569C90.2107 45.0782 90.4779 44.7817 91.3688 43.7733C92.2596 42.7057 92.4675 42.4091 93.1802 41.3415C93.8631 40.2145 94.0116 39.8883 94.5164 38.7317C94.9915 37.4861 95.0806 37.1599 95.3479 36.033C95.4964 35.2323 95.437 35.5288 95.5557 34.6984C95.6151 33.8977 95.6151 34.1943 95.6151 33.3639C95.5854 32.5632 95.6151 32.8597 95.5557 32.0293C95.4667 31.2286 95.4964 31.5548 95.3776 30.7245C95.1994 29.9534 95.2885 30.25 95.0509 29.4196C94.7837 28.6188 94.9025 28.9154 94.6055 28.1443C94.1304 27.047 93.9819 26.7208 93.3583 25.6828C92.8832 24.9118 93.0614 25.2083 92.5566 24.4966C94.1601 26.6912 94.6055 27.225 95.5854 29.1823C96.0902 30.3093 96.209 30.6355 96.5654 31.8217C96.8326 32.919 96.892 33.2156 97.0108 34.5205Z" fill="url(#paint37_linear_322_29032)"/>
<path d="M95.5892 32.6522C95.6189 33.4825 95.6189 33.186 95.5892 33.9867C95.5299 34.8171 95.5596 34.5205 95.4408 35.3212C95.2923 36.1813 95.3517 35.8551 95.1735 36.6558C94.936 37.5158 95.0251 37.1896 94.7578 38.02C94.3421 39.1469 94.1936 39.4435 93.5403 40.6594C92.887 41.7567 92.7088 42.0533 91.8477 43.1506C91.0162 44.1589 90.749 44.4258 89.7097 45.4638C88.6407 46.4424 88.314 46.7094 87.1559 47.599C84.9288 49.2302 83.3847 50.0902 80.9497 51.2765C79.851 51.7806 78.4256 52.4331 76.347 53.1448C78.2771 52.3738 79.4055 51.8103 80.8903 51.0392C83.1768 49.764 84.5131 48.8743 86.4135 47.3025C87.4826 46.3535 87.7498 46.0866 88.6407 45.1672C89.5018 44.1885 89.7394 43.892 90.4817 42.854C91.1944 41.7567 91.3726 41.4601 91.8774 40.3925C92.3822 39.2359 92.501 38.9097 92.8276 37.7827C93.0058 37.0117 92.9464 37.3082 93.0949 36.4778C93.2137 35.7068 93.184 36.0033 93.2434 35.173C93.3027 34.0757 93.3027 33.7791 93.184 32.6225C93.0652 31.8514 93.1246 32.148 92.9761 31.3769C92.7979 30.6355 92.8573 30.9024 92.6495 30.1313C92.2931 29.0934 92.1743 28.7968 91.6398 27.6995C91.0756 26.6912 91.0756 26.6912 90.5708 25.9498C89.8581 24.9711 89.6503 24.7042 88.7594 23.6959C87.8389 22.7172 87.5419 22.4503 86.5323 21.5903C85.4039 20.6709 85.0773 20.4337 83.8895 19.6329C81.5733 18.1204 79.9994 17.3197 77.4754 16.2224C74.8325 15.1251 72.9618 14.4727 69.6062 13.6127C66.3101 12.8119 64.2018 12.456 60.8463 12.0409C57.4314 11.7146 55.3824 11.6257 51.9972 11.6553C45.8801 11.8333 40.921 12.5747 35.279 14.2651C32.2798 15.2141 30.5575 15.8962 27.9741 17.1418C25.5391 18.3874 24.0246 19.3067 21.7678 20.9971C20.5206 22.0055 20.2237 22.2724 19.1844 23.2807C18.2044 24.289 17.9372 24.5856 17.076 25.6829C16.2446 26.7802 16.0367 27.0767 15.4428 28.174C14.8489 29.3603 14.7302 29.6272 14.3441 30.7245C14.1066 31.4955 14.1956 31.199 13.9878 31.9997C13.7205 33.2453 13.6611 33.7791 13.6314 35.2026C13.6611 35.9737 13.6314 35.6771 13.6908 36.4778C13.7799 37.2489 13.7502 36.9524 13.8987 37.7531C14.1659 38.88 14.255 39.2062 14.6708 40.2739C15.1162 41.3415 15.2647 41.6381 15.9179 42.765C16.5712 43.803 16.7791 44.0996 17.6402 45.1672C18.5608 46.2349 18.828 46.5018 19.8377 47.4804C20.9364 48.4591 21.2927 48.7557 22.5102 49.675C24.4404 51.0392 25.4797 51.6323 27.3802 52.6703L27.2317 52.7593C24.5591 51.3654 23.3417 50.5647 21.5006 49.2598C20.194 48.2515 19.8971 48.0142 18.8577 47.0356C17.8778 46.0569 17.6106 45.79 16.69 44.6927C15.8883 43.6547 15.6804 43.3878 14.9974 42.2312C14.4035 41.1636 14.255 40.8374 13.7799 39.7104C13.3642 38.5241 13.2751 38.2276 13.0672 37.1303C12.8891 36.033 12.8594 35.7068 12.8594 34.4909C12.8891 33.3639 12.9188 33.0673 13.1563 31.8514C13.4236 30.7245 13.5127 30.3983 13.9581 29.212C14.4629 28.0257 14.6411 27.6995 15.2647 26.6022C16.0367 25.416 16.2446 25.1194 17.1057 24.0518C18.0857 22.9248 18.3826 22.5986 19.4813 21.5903C20.6691 20.5226 21.0255 20.2557 22.2726 19.3067C24.6185 17.6459 26.1924 16.7562 28.8946 15.4514C31.7156 14.1761 33.5864 13.494 36.6153 12.6043C42.3761 11.0325 47.6024 10.2911 54.1946 10.2021C57.6986 10.2021 59.896 10.3208 63.4297 10.736C66.9337 11.2105 69.1608 11.6257 72.4867 12.5154C75.4858 13.3457 77.4457 14.0278 80.4152 15.3327C82.9392 16.519 84.5428 17.379 86.8293 18.9805C87.9874 19.8405 88.314 20.1074 89.4424 21.0564C90.5114 22.0351 90.749 22.302 91.6101 23.3103C92.4713 24.378 92.6792 24.6449 93.3324 25.6829C93.956 26.7208 94.1045 27.0471 94.5796 28.1444C94.8469 28.9154 94.7578 28.6189 95.0251 29.4196C95.2329 30.1907 95.1735 29.8941 95.3517 30.7245C95.5299 31.7625 95.5299 31.8218 95.5892 32.6522Z" fill="url(#paint38_linear_322_29032)"/>
<path d="M90.7777 26.2761C90.748 26.2167 90.837 26.3354 90.2431 25.6533C89.085 24.378 88.4318 23.7256 86.7392 22.3614C85.492 21.4124 85.1653 21.1751 83.8884 20.3744C81.3644 18.8323 79.7015 18.0315 77.0586 16.9342C74.1485 15.8073 72.1887 15.1845 68.8035 14.3838C65.3885 13.6127 63.2505 13.2865 59.8356 12.9306C53.2137 12.3671 48.0468 12.6044 42.1969 13.5237C38.9601 14.0872 37.03 14.5617 34.1199 15.4811C31.2395 16.4301 29.4875 17.1418 26.9337 18.4467C25.5678 19.1881 25.1817 19.3957 23.7564 20.2854C22.3904 21.2048 22.0638 21.442 20.9057 22.3614C19.807 23.2808 19.51 23.5477 18.441 24.645C17.5204 25.6533 17.2829 25.9202 16.4811 27.0471C15.7091 28.1741 15.5606 28.4706 15.0261 29.5086C14.4916 30.6356 14.4025 30.9321 14.0758 31.9998C13.8977 32.7412 13.9571 32.4743 13.8086 33.186C13.9274 32.4743 13.868 32.7708 14.0462 31.9701C14.3134 30.8728 14.4322 30.5763 14.9073 29.4197C15.4418 28.2927 15.5903 27.9665 16.2733 26.8988C17.0453 25.7719 17.2532 25.4753 18.144 24.4374C19.124 23.3401 19.4209 23.0732 20.5196 22.0648C22.5686 20.3151 23.9642 19.3661 26.3992 17.9722C28.953 16.5784 30.6456 15.8666 33.4666 14.8286C39.1383 12.9306 44.038 12.0706 49.9175 11.685C53.2434 11.5368 55.322 11.5368 58.7369 11.774C62.1221 12.0706 64.2008 12.3375 67.5563 13.0196C70.6445 13.7017 72.6638 14.2652 75.7521 15.3921C78.5434 16.4894 80.1766 17.2605 82.5522 18.6247C83.8291 19.3957 84.1854 19.633 85.3732 20.5227C86.561 21.442 86.8282 21.6793 87.8082 22.569C88.9366 23.8442 89.7977 24.7932 90.7777 26.2761Z" fill="url(#paint39_linear_322_29032)"/>
<path d="M77.6216 56.2886C74.3849 57.5045 72.9299 58.0383 69.3071 58.9577C63.7244 60.2625 59.1514 60.737 53.4203 60.7964L53.3906 60.1736C58.6466 60.2032 62.21 59.9067 66.8424 59.1356C70.7324 58.4238 73.6128 57.7121 77.6216 56.2886Z" fill="url(#paint40_linear_322_29032)"/>
<path d="M27.2301 52.7592V52.9371C23.9934 51.306 22.2711 50.1791 20.1331 48.459C19.0344 47.5396 18.7671 47.2727 17.7278 46.2348C16.8369 45.2561 16.5994 44.9595 15.7976 43.8919C15.0552 42.7946 14.8771 42.498 14.3426 41.4601C13.8081 40.3331 13.6893 40.0365 13.3626 38.9392C13.1548 38.1682 13.2439 38.4647 13.0657 37.664C12.9469 36.8929 12.9766 37.1895 12.8875 36.3888C12.8281 35.6177 12.8578 35.9143 12.8281 35.0839C12.8578 34.0163 12.8875 33.7494 13.0954 32.4741C12.9766 33.2748 13.036 32.9783 12.9469 33.8087C12.9172 34.6094 12.9172 34.3128 12.9172 35.1136C12.9766 36.2405 13.036 36.5667 13.2735 37.7233C13.4814 38.5537 13.3923 38.2572 13.6299 39.0282C14.0159 40.1255 14.1347 40.4221 14.6989 41.5787C15.3225 42.7056 15.5304 43.0022 16.2727 44.0402C17.1042 45.1078 17.3714 45.434 18.3217 46.4127C19.3907 47.4507 19.6876 47.7176 20.8457 48.6666C22.8056 50.2384 24.2903 51.2171 27.2301 52.7592Z" fill="url(#paint41_linear_322_29032)"/>
<defs>
<linearGradient id="paint0_linear_322_29032" x1="7.951" y1="51.4707" x2="97.9634" y2="51.4707" gradientUnits="userSpaceOnUse">
<stop stop-color="#1D409A"/>
<stop offset="0.2208" stop-color="#33339A"/>
<stop offset="0.4568" stop-color="#442999"/>
<stop offset="0.6337" stop-color="#4A2599"/>
<stop offset="1" stop-color="#661399"/>
</linearGradient>
<linearGradient id="paint1_linear_322_29032" x1="81.565" y1="35.5899" x2="85.1359" y2="41.7828" gradientUnits="userSpaceOnUse">
<stop stop-color="#00B4FE"/>
<stop offset="0.5298" stop-color="#4074EE"/>
<stop offset="1" stop-color="#7B3AE0"/>
</linearGradient>
<linearGradient id="paint2_linear_322_29032" x1="82.441" y1="32.7241" x2="88.0493" y2="42.4506" gradientUnits="userSpaceOnUse">
<stop stop-color="#00B4FE"/>
<stop offset="0.5298" stop-color="#4074EE"/>
<stop offset="1" stop-color="#7B3AE0"/>
</linearGradient>
<linearGradient id="paint3_linear_322_29032" x1="80.9242" y1="38.7259" x2="85.613" y2="38.7259" gradientUnits="userSpaceOnUse">
<stop stop-color="#80FFE4"/>
<stop offset="0.2247" stop-color="#7CFBE5"/>
<stop offset="0.4313" stop-color="#72F0E8"/>
<stop offset="0.6307" stop-color="#60DEED"/>
<stop offset="0.8244" stop-color="#47C4F3"/>
<stop offset="1" stop-color="#29A5FB"/>
</linearGradient>
<linearGradient id="paint4_linear_322_29032" x1="81.2933" y1="35.5896" x2="84.9996" y2="42.0175" gradientUnits="userSpaceOnUse">
<stop stop-color="#1ED2FF"/>
<stop offset="0.494" stop-color="#5E92FF"/>
<stop offset="1" stop-color="#9958FE"/>
</linearGradient>
<linearGradient id="paint5_linear_322_29032" x1="80.8031" y1="33.6725" x2="86.4092" y2="43.3953" gradientUnits="userSpaceOnUse">
<stop stop-color="#1ED2FF"/>
<stop offset="0.494" stop-color="#5E92FF"/>
<stop offset="1" stop-color="#9958FE"/>
</linearGradient>
<linearGradient id="paint6_linear_322_29032" x1="42.1782" y1="56.4856" x2="55.6088" y2="56.4856" gradientUnits="userSpaceOnUse">
<stop stop-color="#80FFE4"/>
<stop offset="0.2247" stop-color="#7CFBE5"/>
<stop offset="0.4313" stop-color="#72F0E8"/>
<stop offset="0.6307" stop-color="#60DEED"/>
<stop offset="0.8244" stop-color="#47C4F3"/>
<stop offset="1" stop-color="#29A5FB"/>
</linearGradient>
<linearGradient id="paint7_linear_322_29032" x1="42.1782" y1="61.5443" x2="55.509" y2="61.5443" gradientUnits="userSpaceOnUse">
<stop stop-color="#1ED2FF"/>
<stop offset="0.494" stop-color="#5E92FF"/>
<stop offset="1" stop-color="#9958FE"/>
</linearGradient>
<linearGradient id="paint8_linear_322_29032" x1="55.4343" y1="58.7096" x2="55.6832" y2="58.7096" gradientUnits="userSpaceOnUse">
<stop stop-color="#4074EE"/>
<stop offset="1" stop-color="#5A5BE8"/>
</linearGradient>
<linearGradient id="paint9_linear_322_29032" x1="30.2902" y1="24.7286" x2="39.732" y2="41.1034" gradientUnits="userSpaceOnUse">
<stop stop-color="#00B4FE"/>
<stop offset="0.5298" stop-color="#4074EE"/>
<stop offset="1" stop-color="#7B3AE0"/>
</linearGradient>
<linearGradient id="paint10_linear_322_29032" x1="26.6754" y1="31.8645" x2="30.5003" y2="38.4979" gradientUnits="userSpaceOnUse">
<stop stop-color="#00B4FE"/>
<stop offset="0.5298" stop-color="#4074EE"/>
<stop offset="1" stop-color="#7B3AE0"/>
</linearGradient>
<linearGradient id="paint11_linear_322_29032" x1="23.682" y1="28.2644" x2="25.9876" y2="32.2629" gradientUnits="userSpaceOnUse">
<stop stop-color="#00B4FE"/>
<stop offset="1" stop-color="#268EF4"/>
</linearGradient>
<linearGradient id="paint12_linear_322_29032" x1="27.2644" y1="35.2362" x2="35.0958" y2="35.2362" gradientUnits="userSpaceOnUse">
<stop stop-color="#1ED2FF"/>
<stop offset="0.494" stop-color="#5E92FF"/>
<stop offset="1" stop-color="#9958FE"/>
</linearGradient>
<linearGradient id="paint13_linear_322_29032" x1="25.5166" y1="32.5334" x2="29.5554" y2="39.5379" gradientUnits="userSpaceOnUse">
<stop stop-color="#1ED2FF"/>
<stop offset="0.494" stop-color="#5E92FF"/>
<stop offset="1" stop-color="#9958FE"/>
</linearGradient>
<linearGradient id="paint14_linear_322_29032" x1="24.5" y1="19.9684" x2="28.9868" y2="19.9684" gradientUnits="userSpaceOnUse">
<stop stop-color="#3BB5FF"/>
<stop offset="1" stop-color="#1ED2FF"/>
</linearGradient>
<linearGradient id="paint15_linear_322_29032" x1="20.0407" y1="31.88" x2="24.6602" y2="31.88" gradientUnits="userSpaceOnUse">
<stop stop-color="#19CDFF"/>
<stop offset="1" stop-color="#3FA7FF"/>
</linearGradient>
<linearGradient id="paint16_linear_322_29032" x1="28.8338" y1="22.0219" x2="34.4576" y2="22.0219" gradientUnits="userSpaceOnUse">
<stop stop-color="#9958FE"/>
<stop offset="1" stop-color="#5E92FF"/>
</linearGradient>
<linearGradient id="paint17_linear_322_29032" x1="20.9166" y1="11.5921" x2="34.3791" y2="11.5921" gradientUnits="userSpaceOnUse">
<stop stop-color="#1ED2FF"/>
<stop offset="0.494" stop-color="#5E92FF"/>
<stop offset="1" stop-color="#9958FE"/>
</linearGradient>
<linearGradient id="paint18_linear_322_29032" x1="34.0657" y1="18.8935" x2="34.0657" y2="15.3105" gradientUnits="userSpaceOnUse">
<stop stop-color="#7572FF"/>
<stop offset="1" stop-color="#598DFF"/>
</linearGradient>
<linearGradient id="paint19_linear_322_29032" x1="27.6931" y1="3.67364" x2="34.4114" y2="15.3252" gradientUnits="userSpaceOnUse">
<stop stop-color="#00B4FE"/>
<stop offset="0.5298" stop-color="#4074EE"/>
<stop offset="1" stop-color="#7B3AE0"/>
</linearGradient>
<linearGradient id="paint20_linear_322_29032" x1="20.0626" y1="26.6941" x2="34.4915" y2="26.6941" gradientUnits="userSpaceOnUse">
<stop stop-color="#80FFE4"/>
<stop offset="0.9572" stop-color="#80FFE4"/>
<stop offset="1" stop-color="#80FFE4"/>
</linearGradient>
<linearGradient id="paint21_linear_322_29032" x1="34.633" y1="18.7797" x2="36.1237" y2="21.365" gradientUnits="userSpaceOnUse">
<stop stop-color="#4074EE"/>
<stop offset="1" stop-color="#7B3AE0"/>
</linearGradient>
<linearGradient id="paint22_linear_322_29032" x1="36.9324" y1="13.8247" x2="38.483" y2="16.514" gradientUnits="userSpaceOnUse">
<stop stop-color="#4074EE"/>
<stop offset="1" stop-color="#5C59E7"/>
</linearGradient>
<linearGradient id="paint23_linear_322_29032" x1="44.29" y1="24.0901" x2="46.974" y2="28.7449" gradientUnits="userSpaceOnUse">
<stop stop-color="#4074EE"/>
<stop offset="1" stop-color="#7B3AE0"/>
</linearGradient>
<linearGradient id="paint24_linear_322_29032" x1="47.8295" y1="28.2533" x2="59.654" y2="48.7604" gradientUnits="userSpaceOnUse">
<stop stop-color="#00B4FE"/>
<stop offset="0.5298" stop-color="#4074EE"/>
<stop offset="1" stop-color="#7B3AE0"/>
</linearGradient>
<linearGradient id="paint25_linear_322_29032" x1="47.7018" y1="14.5063" x2="56.8231" y2="30.3252" gradientUnits="userSpaceOnUse">
<stop stop-color="#00B4FE"/>
<stop offset="0.5298" stop-color="#4074EE"/>
<stop offset="1" stop-color="#7B3AE0"/>
</linearGradient>
<linearGradient id="paint26_linear_322_29032" x1="44.0176" y1="35.6736" x2="50.2636" y2="46.506" gradientUnits="userSpaceOnUse">
<stop stop-color="#00B4FE"/>
<stop offset="0.5298" stop-color="#4074EE"/>
<stop offset="1" stop-color="#7B3AE0"/>
</linearGradient>
<linearGradient id="paint27_linear_322_29032" x1="42.4154" y1="17.5622" x2="51.5335" y2="33.3755" gradientUnits="userSpaceOnUse">
<stop stop-color="#1ED2FF"/>
<stop offset="0.494" stop-color="#5E92FF"/>
<stop offset="1" stop-color="#9958FE"/>
</linearGradient>
<linearGradient id="paint28_linear_322_29032" x1="39.6106" y1="35.5664" x2="54.1449" y2="35.5664" gradientUnits="userSpaceOnUse">
<stop stop-color="#80FFE4"/>
<stop offset="0.9572" stop-color="#80FFE4"/>
<stop offset="1" stop-color="#80FFE4"/>
</linearGradient>
<linearGradient id="paint29_linear_322_29032" x1="43.1792" y1="35.6639" x2="49.8529" y2="47.238" gradientUnits="userSpaceOnUse">
<stop stop-color="#1ED2FF"/>
<stop offset="0.494" stop-color="#5E92FF"/>
<stop offset="1" stop-color="#9958FE"/>
</linearGradient>
<linearGradient id="paint30_linear_322_29032" x1="42.534" y1="31.3056" x2="54.3556" y2="51.8076" gradientUnits="userSpaceOnUse">
<stop stop-color="#1ED2FF"/>
<stop offset="0.494" stop-color="#5E92FF"/>
<stop offset="1" stop-color="#9958FE"/>
</linearGradient>
<linearGradient id="paint31_linear_322_29032" x1="43.3716" y1="24.1256" x2="46.4185" y2="29.4098" gradientUnits="userSpaceOnUse">
<stop stop-color="#1ED2FF"/>
<stop offset="0.494" stop-color="#5E92FF"/>
<stop offset="1" stop-color="#9958FE"/>
</linearGradient>
<linearGradient id="paint32_linear_322_29032" x1="59.5602" y1="35.0971" x2="70.8938" y2="54.7527" gradientUnits="userSpaceOnUse">
<stop stop-color="#00B4FE"/>
<stop offset="0.5298" stop-color="#4074EE"/>
<stop offset="1" stop-color="#7B3AE0"/>
</linearGradient>
<linearGradient id="paint33_linear_322_29032" x1="62.3461" y1="26.0107" x2="80.1376" y2="56.8663" gradientUnits="userSpaceOnUse">
<stop offset="0.0555556" stop-color="#00B4FE"/>
<stop offset="0.2011" stop-color="#199BF8"/>
<stop offset="0.4425" stop-color="#4074EE"/>
<stop offset="1" stop-color="#7B3AE0"/>
</linearGradient>
<linearGradient id="paint34_linear_322_29032" x1="57.5222" y1="45.0534" x2="72.391" y2="45.0534" gradientUnits="userSpaceOnUse">
<stop stop-color="#80FFE4"/>
<stop offset="0.3459" stop-color="#7CFBE5"/>
<stop offset="0.6634" stop-color="#72F0E8"/>
<stop offset="0.879" stop-color="#66E4EB"/>
<stop offset="1" stop-color="#67E6EB"/>
</linearGradient>
<linearGradient id="paint35_linear_322_29032" x1="58.6965" y1="35.1012" x2="70.458" y2="55.4991" gradientUnits="userSpaceOnUse">
<stop stop-color="#1ED2FF"/>
<stop offset="0.494" stop-color="#5E92FF"/>
<stop offset="1" stop-color="#9958FE"/>
</linearGradient>
<linearGradient id="paint36_linear_322_29032" x1="57.1324" y1="29.016" x2="74.9237" y2="59.8713" gradientUnits="userSpaceOnUse">
<stop stop-color="#1ED2FF"/>
<stop offset="0.494" stop-color="#5E92FF"/>
<stop offset="1" stop-color="#9958FE"/>
</linearGradient>
<linearGradient id="paint37_linear_322_29032" x1="53.3762" y1="42.2975" x2="97.046" y2="42.2975" gradientUnits="userSpaceOnUse">
<stop offset="0.0555556" stop-color="#00B4FE"/>
<stop offset="0.2011" stop-color="#199BF8"/>
<stop offset="0.4425" stop-color="#4074EE"/>
<stop offset="1" stop-color="#7B3AE0"/>
</linearGradient>
<linearGradient id="paint38_linear_322_29032" x1="12.8719" y1="31.6649" x2="95.5917" y2="31.6649" gradientUnits="userSpaceOnUse">
<stop stop-color="#1ED2FF"/>
<stop offset="0.494" stop-color="#5E92FF"/>
<stop offset="1" stop-color="#9958FE"/>
</linearGradient>
<linearGradient id="paint39_linear_322_29032" x1="13.7525" y1="22.4067" x2="90.7774" y2="22.4067" gradientUnits="userSpaceOnUse">
<stop offset="0.0555556" stop-color="#00B4FE"/>
<stop offset="0.2011" stop-color="#199BF8"/>
<stop offset="0.4425" stop-color="#4074EE"/>
<stop offset="1" stop-color="#7B3AE0"/>
</linearGradient>
<linearGradient id="paint40_linear_322_29032" x1="53.3777" y1="58.5285" x2="77.6075" y2="58.5285" gradientUnits="userSpaceOnUse">
<stop offset="0.4425" stop-color="#1F5CEB"/>
<stop offset="1" stop-color="#6418DB"/>
</linearGradient>
<linearGradient id="paint41_linear_322_29032" x1="12.7782" y1="42.708" x2="27.2275" y2="42.708" gradientUnits="userSpaceOnUse">
<stop offset="0.0555556" stop-color="#00B4FE"/>
<stop offset="0.2011" stop-color="#199BF8"/>
<stop offset="0.4425" stop-color="#4074EE"/>
<stop offset="1" stop-color="#7B3AE0"/>
</linearGradient>
</defs>
</svg>
