<svg width="75" height="76" viewBox="0 0 75 76" fill="none" xmlns="http://www.w3.org/2000/svg">
<path d="M12.9378 37.7133L15.1207 36.709L17.431 35.8004L19.8529 35.0033L22.3704 34.302L24.9675 33.7122L27.6283 33.2339L30.3529 32.8673L33.1094 32.6282L35.8977 32.5166H38.6861L41.4744 32.6282L44.2308 32.8673L46.9554 33.2339L49.6163 33.7122L52.2134 34.302L54.7309 35.0033L57.1527 35.8004L59.4631 36.709L61.6459 37.7133L63.6854 38.8132L65.5814 39.9928L67.3182 41.2521L68.8956 42.5911L70.2977 43.9939L71.5086 45.4445L72.5284 46.9429L73.3569 48.4892L73.9783 50.0514L74.3926 51.6454L74.5997 53.2554V54.8655L74.3926 56.4755L73.9783 58.0695L73.3569 59.6477L72.5284 61.1939L71.5086 62.6923L70.2977 64.1429L68.8956 65.5457L67.3182 66.8847L65.5814 68.144L63.6854 69.3236L61.6459 70.4236L59.4631 71.4278L57.1527 72.3364L54.7309 73.1335L52.2134 73.8349L49.6163 74.4247L46.9554 74.9029L44.2308 75.2536L41.4744 75.4927L38.6861 75.6043H35.8977L33.1094 75.4927L30.3529 75.2536L27.6283 74.9029L24.9675 74.4247L22.3704 73.8349L19.8529 73.1335L17.431 72.3364L15.1207 71.4278L12.9378 70.4236L10.8984 69.3236L9.00231 68.144L7.26559 66.8847L5.68819 65.5457L4.30199 64.1429L3.09106 62.6923L2.07133 61.1939L1.2428 59.6477L0.621402 58.0695L0.207141 56.4755L0 54.8655V53.2554L0.207141 51.6454L0.621402 50.0514L1.2428 48.4892L2.07133 46.9429L3.09106 45.4445L4.30199 43.9939L5.68819 42.5911L7.26559 41.2521L9.00231 39.9928L10.8984 38.8132L12.9378 37.7133ZM16.2042 36.7249L14.1328 37.6814L12.189 38.7175L10.3885 39.8334L8.73145 41.0289L7.23372 42.2882L5.91126 43.6113L4.76406 44.9982L3.79213 46.4169L3.0114 47.8834L2.42186 49.3819L2.02353 50.8962L1.83233 52.4265V53.9568L2.02353 55.4871L2.42186 57.0015L3.0114 58.4999L3.79213 59.9665L4.76406 61.4011L5.91126 62.788L7.23372 64.1111L8.73145 65.3703L10.3885 66.5659L12.189 67.6977L14.1328 68.7339L16.2042 69.6903L18.403 70.5511L20.6974 71.3162L23.0874 71.9857L25.557 72.5437L28.0904 72.99L30.6716 73.3248L33.3006 73.5479L35.9455 73.6595H38.6064L41.2513 73.5479L43.8803 73.3248L46.4615 72.99L48.9949 72.5437L51.4645 71.9857L53.8545 71.3162L56.1489 70.5511L58.3477 69.6903L60.4191 68.7339L62.3629 67.6977L64.1634 66.5659L65.8204 65.3703L67.3182 64.1111L68.6406 62.788L69.7878 61.4011L70.7598 59.9665L71.5405 58.4999L72.13 57.0015L72.5284 55.4871L72.7196 53.9568V52.4265L72.5284 50.8962L72.13 49.3819L71.5405 47.8834L70.7598 46.4169L69.7878 44.9982L68.6406 43.6113L67.3182 42.2882L65.8204 41.0289L64.1634 39.8334L62.3629 38.7175L60.4191 37.6814L58.3477 36.7249L56.1489 35.8641L53.8545 35.099L51.4645 34.4295L48.9949 33.8716L46.4615 33.4252L43.8803 33.0905L41.2513 32.8673L38.6064 32.7557H35.9455L33.3006 32.8673L30.6716 33.0905L28.0904 33.4252L25.557 33.8716L23.0874 34.4295L20.6974 35.099L18.403 35.8641L16.2042 36.7249Z" fill="url(#paint0_linear_322_29184)"/>
<path d="M56.4801 36.7568V63.5053L56.4642 63.856L56.4483 64.0951L56.3686 64.4139L56.2889 64.7009L56.1615 64.9718L56.0181 65.195L55.8428 65.4023L55.6516 65.5617L55.4285 65.6892L51.0469 68.2237L51.254 68.0962L51.4452 67.9368L51.6205 67.7296L51.7639 67.5064L51.8913 67.2354L51.9869 66.9485L52.0507 66.6297L52.0825 66.3906L52.0985 66.0399V39.2914V37.7133L56.4801 35.1787V36.7568Z" fill="url(#paint1_linear_322_29184)"/>
<path d="M42.2504 27.0807L42.346 27.256L42.3779 27.3198L42.5213 27.543L42.585 27.6386L42.7603 27.8299L42.8877 27.9256L43.0471 28.0371L43.2223 28.1168L43.3817 28.1806L43.6207 28.2444L43.7481 28.2603L44.4173 28.2763L44.4333 28.3081L44.5767 28.5472L44.6882 28.7704L44.7997 29.0095L44.8953 29.2486L44.975 29.5037L45.0387 29.7428L45.0706 29.8863L44.497 29.966L44.3695 29.9979L44.019 30.0138L43.6844 29.9979L43.541 29.9819L43.2064 29.9341L43.1745 29.9182L42.9037 29.8544L42.6009 29.7428L42.4575 29.679L42.1867 29.5356L41.9158 29.3762L41.8043 29.2805L41.5971 29.1211L41.5653 29.0733L41.3263 28.8501L41.1351 28.5791L41.1191 28.5632L41.0395 28.4675L40.8642 28.1806L40.7049 27.8777L40.6571 27.7502L40.5615 27.5271V27.5111L40.5137 27.4155L40.4181 27.0648L40.3225 26.6822L40.2587 26.2996L40.2269 25.8852L40.2109 25.7736V25.3432V24.9128L40.2587 24.4664L40.3065 24.0041L40.4021 23.5419L40.5137 23.0637L40.6411 22.5854L40.7845 22.1072L40.9598 21.629L40.9757 21.5812L41.1351 21.2145L41.1669 21.1508V21.1189L41.39 20.6566L41.6131 20.1943L41.7565 19.9552L41.868 19.748L42.1389 19.3016L42.4097 18.8713L42.7125 18.4568L42.7284 18.4249L43.0152 18.0423L43.0471 18.0105L43.3817 17.6279L43.7163 17.2453L44.0668 16.8946L44.4173 16.5758L44.5289 16.4802L44.7838 16.257L45.1503 15.986L45.5167 15.7309L45.8832 15.4918L46.2656 15.3005L46.3612 15.2527L46.7436 15.0774L47.1101 14.9339L47.4765 14.8223L47.843 14.7426L48.1935 14.6788L48.321 14.6629L48.6715 14.647L49.0061 14.6629L49.1495 14.6788L49.4841 14.7267L49.7868 14.8064L50.0896 14.918L50.233 14.9658L50.5038 15.1093L50.7747 15.2846L50.8862 15.3802L51.1412 15.5715L51.3642 15.8107L51.5554 16.0657L51.6511 16.1773L51.8263 16.4642L51.9857 16.783L52.0334 16.9105L52.1768 17.2294L52.2884 17.596L52.3681 17.9626L52.4318 18.3612L52.4477 18.4727L52.4636 18.7756L52.4796 18.8872L52.4955 19.3016L52.4796 19.748L52.4477 20.1943L52.384 20.6566L52.3202 20.9754L50.711 20.0509V20.019L50.7428 19.6364V19.2538V18.9031L50.711 18.664L50.6632 18.3293L50.5994 18.0264L50.5038 17.7395L50.4401 17.5801L50.3286 17.341L50.1852 17.1178L50.1055 17.0062L49.9303 16.8308L49.8028 16.7352V16.7193L49.6434 16.6236L49.4682 16.528L49.3248 16.4802L49.0698 16.4164L48.9583 16.4004H48.9424L48.6874 16.3845L48.4166 16.4004L48.2413 16.4323L47.9386 16.4961L47.6359 16.5917L47.3331 16.7033L47.126 16.799H47.1101L46.8073 16.9743L46.4887 17.1656L46.17 17.3888L46.1381 17.4047L45.8513 17.6279L45.5486 17.8989L45.2459 18.1699L44.9431 18.4727L44.6563 18.7916L44.3695 19.1263L44.1146 19.4611L43.8597 19.8277L43.6047 20.2103L43.3657 20.6088L43.2542 20.816L43.1427 21.0073L42.9355 21.4218L42.7443 21.8362L42.6487 22.0913L42.585 22.2188L42.4416 22.6333L42.3141 23.0318L42.2026 23.4462L42.107 23.8447L42.0433 24.2433L41.9795 24.6418L41.9477 25.0244V25.4069V25.5185V25.6779V25.7576L41.9795 25.9967L42.0273 26.3155L42.0911 26.6344L42.107 26.6822L42.1707 26.8416L42.1867 26.9213L42.2504 27.0807Z" fill="url(#paint2_linear_322_29184)"/>
<path d="M52.1018 39.2915V66.04L52.0858 66.3907L52.054 66.6298L51.9902 66.9486L51.8946 67.2356L51.7672 67.5066L51.6238 67.7297L51.4485 67.937L51.2573 68.0964L51.0502 68.2239L50.8112 68.3195L50.5562 68.3833L50.2854 68.4152L50.0145 68.3992L49.7118 68.3514L49.409 68.2558L49.0904 68.1282L48.7717 67.9688L48.0547 67.5544L48.3096 67.6819L48.5646 67.7935L48.8036 67.8573L49.0426 67.9051H49.2656L49.4728 67.8891L49.6799 67.8413L49.8552 67.7616L50.0304 67.666L50.1738 67.5385L50.3172 67.379L50.4288 67.1877L50.5244 66.9805L50.604 66.7574L50.6518 66.5023L50.6837 66.3269V66.0241V38.5264L52.1018 37.7134V39.2915Z" fill="url(#paint3_linear_322_29184)"/>
<path d="M50.6816 38.526V66.0236L50.6657 66.3106L50.6498 66.4859L50.6019 66.741L50.5223 66.9641L50.4267 67.1714L50.3152 67.3467L50.1718 67.5061L50.0124 67.6337L49.8372 67.7452L49.646 67.8249L49.4548 67.8728L49.2476 67.8887L49.0246 67.8728L48.7856 67.8409L48.5466 67.7612L48.2916 67.6655L48.0367 67.538L15.6602 48.8396L15.4053 48.6802L15.23 48.5526L14.991 48.3454L14.752 48.1223L14.529 47.8831L14.3218 47.6281L14.1147 47.3571L13.9235 47.0702L13.7482 46.7673L13.5889 46.4644L13.4455 46.1456L13.318 45.8268L13.2224 45.508L13.1428 45.1892L13.079 44.8703L13.0472 44.5515L13.0312 44.2487V16.751L50.6657 38.4941L50.6816 38.526ZM47.3356 54.913V48.1382L40.9783 44.4718L40.1019 44.9819V51.7567L46.4593 55.4231L47.3356 54.913ZM47.3356 45.7152V38.9404L40.9783 35.2741L40.1019 35.7842V42.5589L46.4593 46.2253L47.3356 45.7152ZM39.1459 59.2329V52.4581L32.7885 48.7918L31.9122 49.3019V56.0767L38.2696 59.743L39.1459 59.2329ZM39.1459 50.1786V43.4038L32.7885 39.7375L31.9122 40.2475V47.0223L38.2696 50.6887L39.1459 50.1786ZM39.1459 40.9808V34.206L32.7885 30.5397L31.9122 31.0498V37.8246L38.2696 41.4909L39.1459 40.9808ZM30.9403 54.4985V47.7237L24.5829 44.0574L23.7066 44.5675V51.3423L30.0639 55.0086L30.9403 54.4985ZM30.9403 45.4442V38.6694L24.5829 35.0031L23.7066 35.5132V42.288L30.0639 45.9543L30.9403 45.4442ZM30.9403 36.2464V29.4717L24.5829 25.8053L23.7066 26.3154V33.0902L30.0639 36.7565L30.9403 36.2464ZM22.7506 49.7801V43.0053L16.3932 39.3389L15.5168 39.849V46.6238L21.8742 50.2902L22.7506 49.7801ZM22.7506 40.7098V33.935L16.3932 30.2687L15.5168 30.7788V37.5536L21.8742 41.2199L22.7506 40.7098ZM22.7506 31.5121V24.7373L16.3932 21.0709L15.5168 21.581V28.3558L21.8742 32.0222L22.7506 31.5121Z" fill="url(#paint4_linear_322_29184)"/>
<path d="M50.6816 29.775V38.4786L50.6657 38.5264L13.0312 16.7833V16.7196V8.03189V7.74495L13.079 7.47396L13.1428 7.21892L13.2224 6.99574L13.318 6.80446L13.4455 6.6291L13.5889 6.48565L13.7482 6.35812L13.9235 6.26248L14.0988 6.19871L14.3059 6.15088H14.529L14.752 6.16684L14.991 6.21465L15.23 6.29435L15.4053 6.37405L15.6602 6.50159L16.4728 6.96387L16.3135 7.34643L16.2976 7.37832L16.1223 7.85654L15.9789 8.33476L15.8355 8.81298L15.7399 9.2912L15.6443 9.75349L15.5965 10.2158L15.5487 10.6621V11.1084V11.5229L15.5646 11.6345L15.5965 12.0489L15.6602 12.4474L15.7558 12.8141L15.8514 13.1648L15.947 13.388V13.4995L15.963 13.8024L15.9789 13.9937L16.0267 14.2966L16.1064 14.6154L16.202 14.9183L16.3135 15.2211L16.441 15.524L16.5844 15.8269L16.7596 16.1138L16.9349 16.3848L17.1261 16.6558L17.3332 16.9108L17.5404 17.1499L17.7634 17.3731L18.0024 17.5804L18.2414 17.7557L18.4964 17.9151L18.6716 18.0267L18.9425 18.1542L19.1178 18.2339L19.3727 18.3136L19.6117 18.3774L19.8507 18.3933L20.0738 18.3774L20.2809 18.3455L20.4721 18.2658L20.6633 18.1702L21.5396 17.6601L21.699 17.5485L21.8424 17.3891L21.9698 17.2137L22.0814 17.0065L22.161 16.7674L22.2248 16.5123L22.2566 16.2413L22.2726 15.9385L22.2566 15.6196L22.2407 15.4124L22.1929 15.0777L22.1132 14.7588L22.0017 14.4241L21.8902 14.1053L21.7468 13.7705L21.5874 13.4677L21.4122 13.1488L21.221 12.846L21.0138 12.559L20.8067 12.288L20.5677 12.033L20.3287 11.7939L20.0738 11.5867L19.8188 11.3954L19.548 11.22L19.2771 11.0766L19.1018 10.9969L18.8469 10.9171L18.6079 10.8693L18.3689 10.8534H18.1458L17.9387 10.9012L17.7475 10.965L17.5722 11.0606L17.2854 11.236V11.1563V10.7737L17.3173 10.3911L17.381 10.0085L17.4448 9.61002L17.5404 9.19556L17.6519 8.79705L17.7794 8.38257L17.9228 7.96812L17.9865 7.84061L24.6785 11.7142L24.5351 12.0808L24.5192 12.1127L24.3439 12.6069L24.1846 13.0851L24.0571 13.5633L23.9456 14.0256L23.8659 14.5038L23.8022 14.9661L23.7703 15.4124L23.7544 15.8428L23.7703 16.2732V16.3848L23.8181 16.7833L23.8818 17.1818L23.9615 17.5644L24.073 17.9151L24.1208 18.0426V18.1223V18.3296L24.1367 18.6165L24.1527 18.8237L24.2005 19.1266L24.2802 19.4295L24.3757 19.7324L24.4873 20.0512L24.6147 20.354L24.7582 20.641L24.9175 20.9279L25.1087 21.2148L25.2999 21.4858L25.507 21.7409L25.7141 21.98L25.9372 22.2032L26.1762 22.3944L26.4152 22.5857L26.6701 22.7451L26.8454 22.8408L27.1163 22.9843L27.2915 23.064L27.5465 23.1437L27.7855 23.1915L28.0245 23.2074H28.2475L28.4547 23.1596L28.6459 23.0958L28.8211 23.0002L29.7134 22.4901L29.8727 22.3626L30.0161 22.2032L30.1436 22.0278L30.2551 21.8206L30.3348 21.5974L30.3985 21.3424L30.4304 21.0554L30.4463 20.7685L30.4304 20.4497L30.4145 20.2265L30.3667 19.9077L30.287 19.5729L30.1755 19.2541L30.0639 18.9194L29.9205 18.6006L29.7612 18.2818L29.5859 17.9789L29.3947 17.676L29.1876 17.3891L28.9805 17.1181L28.7415 16.863L28.5025 16.6239L28.2475 16.4007L27.9926 16.2095L27.7217 16.0341L27.4509 15.9066L27.2756 15.8269L27.0207 15.7472L26.7817 15.6834L26.5427 15.6675L26.3196 15.6834L26.1125 15.7153L25.9213 15.795L25.746 15.8907L25.4911 16.0341V15.8907L25.507 15.524L25.5389 15.1414L25.5867 14.7429L25.6504 14.3444L25.746 13.9459L25.8576 13.5314L26.0009 13.117L26.1443 12.7185L26.1921 12.5909L33.0116 16.5283L32.8523 16.8949L32.8363 16.9268L32.6611 17.405L32.5177 17.8832L32.3902 18.3615L32.2787 18.8397L32.1831 19.3019L32.1353 19.7642L32.0875 20.2106V20.6569V21.0714L32.1034 21.1829L32.1353 21.5974L32.199 21.9959L32.2946 22.3785L32.3105 22.4423L32.2946 22.7451V22.9524L32.3105 23.2393L32.3265 23.4465L32.3743 23.7494L32.4539 24.0523L32.5495 24.3551L32.6611 24.658L32.7885 24.9609L32.9319 25.2638L33.0913 25.5507L33.2825 25.8376L33.4737 26.1086L33.6649 26.3637L33.8879 26.6028L34.111 26.81L34.35 27.0172L34.589 27.2085L34.8439 27.3679L35.0192 27.4636L35.2901 27.6071L35.4653 27.6708L35.7203 27.7665L35.9593 27.8143L36.1983 27.8302H36.4213L36.6285 27.7824L36.8196 27.7186L36.9949 27.623L37.8872 27.1129L38.0465 26.9854L38.1899 26.826L38.3174 26.6506L38.4289 26.4434L38.5086 26.2202L38.5723 25.9652L38.6042 25.6782L38.6201 25.3754L38.6042 25.0725L38.5883 24.8493L38.5245 24.5305L38.4608 24.1957L38.3493 23.8769L38.2377 23.5422L38.0943 23.2234L37.935 22.9046L37.7597 22.6017L37.5685 22.2988L37.3614 22.0119L37.1543 21.7409L36.9153 21.4858L36.6763 21.2467L36.4213 21.0235L36.1664 20.8323L35.8955 20.6569L35.6247 20.5294L35.4494 20.4497L35.1945 20.37L34.9555 20.3062L34.7165 20.2903L34.4934 20.3062L34.2863 20.3381L34.0951 20.4019L33.9198 20.5134L33.8242 20.5613V20.3381L33.8561 19.9555L33.9198 19.557L33.9835 19.1585L34.0791 18.76L34.1907 18.3455L34.3181 17.931L34.4775 17.5325L34.5253 17.405L41.1376 21.2148L40.9783 21.5815L40.9623 21.6293L40.787 22.1075L40.6436 22.5857L40.5162 23.064L40.4046 23.5422L40.309 24.0044L40.2613 24.4667L40.2134 24.9131V25.3435V25.7739L40.2294 25.8855L40.2613 26.2999L40.325 26.6825L40.4206 27.0651L40.5162 27.4158L40.564 27.5114L40.548 27.6071V27.8143L40.564 28.1171L40.5958 28.3084L40.6436 28.6113L40.7074 28.9301L40.803 29.233L40.9145 29.5359L41.042 29.8387L41.2013 30.1416L41.3606 30.4285L41.5359 30.6995L41.7271 30.9705L41.9342 31.2256L42.1573 31.4647L42.3804 31.6879L42.6034 31.8951L42.8584 32.0704L43.0974 32.2298L43.2726 32.3414L43.5435 32.469L43.7188 32.5487L43.9737 32.6284L44.2127 32.6921L44.4517 32.7081L44.6748 32.6921L44.8819 32.6602L45.089 32.5805L45.2643 32.4849L46.1406 31.9748L46.3 31.8632L46.4593 31.7038L46.5708 31.5285L46.6824 31.3212L46.762 31.0821L46.8258 30.8271L46.8736 30.5561L46.8895 30.2532L46.8736 29.9344L46.8417 29.7271L46.7939 29.3924L46.7142 29.0736L46.6186 28.7388L46.4912 28.42L46.3637 28.0853L46.2044 27.7824L46.0291 27.4636L45.8379 27.1607L45.6308 26.8738L45.4077 26.6028L45.1846 26.3477L44.9297 26.1086L44.6907 25.9014L44.4198 25.7101L44.1649 25.5348L43.894 25.3913L43.7188 25.3275L43.4638 25.2319L43.2248 25.1841L42.9858 25.1681H42.7628L42.5556 25.216L42.3485 25.2797L42.1733 25.3754L41.9502 25.5188V25.4072V25.0246L41.982 24.6421L42.0458 24.2436L42.1095 23.845L42.2051 23.4465L42.3166 23.0321L42.4441 22.6335L42.5875 22.2191L42.6512 22.0916L48.0526 25.216L48.3076 25.3754L48.5625 25.5666L48.8015 25.7739L49.0405 26.013L49.2636 26.2521L49.4707 26.5231L49.6778 26.7941L49.8531 27.081L50.0284 27.3839L50.1718 27.6868L50.3152 28.0056L50.4267 28.3244L50.5223 28.6432L50.6019 28.9461L50.6498 29.2649L50.6816 29.4721V29.775Z" fill="url(#paint5_linear_322_29184)"/>
<path d="M47.3373 48.1382V54.913L46.4609 55.4231V48.6483L47.3373 48.1382Z" fill="url(#paint6_linear_322_29184)"/>
<path d="M47.3373 38.9404V45.7152L46.4609 46.2253V39.4505L47.3373 38.9404Z" fill="url(#paint7_linear_322_29184)"/>
<path d="M47.3353 38.9403L46.4589 39.4504L40.1016 35.784L40.9938 35.2739L47.3353 38.9403Z" fill="url(#paint8_linear_322_29184)"/>
<path d="M47.3353 48.1385L46.4589 48.6486L40.1016 44.9823L40.9938 44.4722L47.3353 48.1385Z" fill="url(#paint9_linear_322_29184)"/>
<path d="M46.8726 29.9342L46.8885 30.2531L46.8726 30.5559L46.8248 30.8269L46.7611 31.082L46.6814 31.3211L46.5699 31.5283L46.4583 31.7036L46.299 31.8631L46.1397 31.9746L45.2633 32.4847L45.4227 32.3572L45.5661 32.2137L45.6935 32.0384L45.8051 31.8312L45.8847 31.5921L45.9485 31.337L45.9963 31.066V30.7631V30.4443L45.9644 30.2371L45.9166 29.9023L45.8369 29.5835L45.7413 29.2488L45.6139 28.93L45.4705 28.5952L45.3111 28.2764L45.1359 27.9735L44.9606 27.6706L44.7535 27.3837L44.5304 27.1127L44.2914 26.8577L44.0524 26.6186L43.8134 26.4113L43.5425 26.2041L43.2717 26.0447L43.0167 25.9012L42.8415 25.8215L42.5866 25.7418L42.3316 25.694L42.1086 25.6781H41.9492V25.5187L42.1723 25.3752L42.3476 25.2795L42.5547 25.2158L42.7618 25.168H42.9849L43.2239 25.1839L43.4629 25.2317L43.7178 25.3274L43.8931 25.3911L44.164 25.5346L44.4189 25.71L44.6897 25.9012L44.9287 26.1085L45.1837 26.3476L45.4067 26.6026L45.6298 26.8736L45.8369 27.1606L46.0281 27.4634L46.2034 27.7822L46.3627 28.0851L46.4902 28.4199L46.6177 28.7387L46.7133 29.0734L46.7929 29.3923L46.8407 29.727L46.8726 29.9342Z" fill="url(#paint10_linear_322_29184)"/>
<path d="M46.4589 48.6488V55.4236L40.1016 51.7572V44.9824L46.4589 48.6488Z" fill="url(#paint11_linear_322_29184)"/>
<path d="M46.4589 39.451V46.2259L40.1016 42.5595V35.7847L46.4589 39.451Z" fill="url(#paint12_linear_322_29184)"/>
<path d="M46.0002 30.4445V30.7633V31.0662L45.9524 31.3372L45.8887 31.5922L45.809 31.8313L45.6975 32.0386L45.57 32.2139L45.4266 32.3574L45.2673 32.4849L45.092 32.5806L44.8849 32.6603L44.6777 32.6921L44.4547 32.7081L44.2157 32.6921L43.9767 32.6284L43.7217 32.5487L43.5465 32.469L43.2756 32.3414L43.1003 32.2299L43.3552 32.3733L43.5146 32.4371L43.7536 32.5168L43.9926 32.5646L44.1997 32.5806L44.4069 32.5646L44.614 32.5327L44.7892 32.469L44.9645 32.3733L45.1079 32.2617L45.2513 32.1183L45.3629 31.9429L45.4744 31.7516L45.5541 31.5444L45.6019 31.3053L45.6497 31.0502V30.7633V30.4604L45.6178 30.2692L45.57 29.9663L45.5063 29.6634L45.4107 29.3446L45.2991 29.0417L45.1557 28.7388L45.0123 28.436L44.853 28.149L44.6777 27.878L44.4865 27.6071L44.2794 27.352L44.0563 27.1129L43.8332 26.8897L43.5942 26.6825L43.3552 26.5072L43.1003 26.3477L42.8613 26.2202L42.702 26.1405L42.463 26.0608L42.224 26.013L42.0009 25.997H41.985L41.9531 25.7579V25.6782H42.1125L42.3355 25.6942L42.5905 25.742L42.8454 25.8217L43.0207 25.9014L43.2756 26.0449L43.5465 26.2043L43.8173 26.4115L44.0563 26.6187L44.2953 26.8578L44.5343 27.1129L44.7574 27.3839L44.9645 27.6708L45.1398 27.9737L45.3151 28.2766L45.4744 28.5954L45.6178 28.9301L45.7453 29.2489L45.8409 29.5837L45.9205 29.9025L45.9683 30.2373L46.0002 30.4445Z" fill="url(#paint13_linear_322_29184)"/>
<path d="M45.6455 30.4605V30.7633V31.0503L45.5977 31.3053L45.5499 31.5444L45.4703 31.7517L45.3587 31.943L45.2472 32.1183L45.1038 32.2618L44.9604 32.3733L44.7851 32.469L44.6099 32.5328L44.4027 32.5646L44.1956 32.5806L43.9885 32.5646L43.7495 32.5168L43.5105 32.4371L43.3511 32.3733L43.0962 32.2299L42.8572 32.0705L42.6023 31.8951L42.3792 31.6879L42.1561 31.4647L41.9331 31.2256L41.7259 30.9706L41.5348 30.6996L41.3595 30.4286L41.2001 30.1416L41.0408 29.8388L40.9133 29.5359L40.8018 29.233L40.7062 28.9302L40.6425 28.6113L40.5947 28.3085L40.5628 28.1172L40.5469 27.8143L40.5628 27.5433V27.5274L40.6584 27.7505L40.7062 27.8781L40.8655 28.181L41.0408 28.4679L41.1205 28.5635V28.5954L41.1683 28.8345L41.232 29.0896L41.3117 29.3287L41.4073 29.5678L41.5029 29.8069L41.6303 30.046L41.7578 30.2692L41.9012 30.4924L42.0605 30.6996L42.2358 30.8909L42.4111 31.0822L42.5863 31.2575L42.7775 31.401L42.905 31.4966L43.0962 31.6241L43.3033 31.7357L43.4945 31.7995L43.6857 31.8633L43.861 31.8951H44.0363L44.1956 31.8792L44.339 31.8473L44.4824 31.7835L44.6099 31.7038L44.7373 31.6082L44.8329 31.4966L44.9285 31.3532L44.9923 31.1938L45.056 31.0184L45.1038 30.8271L45.1197 30.6836V30.4605V30.3489V30.2214L45.0879 29.9822L45.0719 29.8866L45.0401 29.7431L44.9763 29.504L44.8967 29.249L44.8011 29.0099L44.6895 28.7708L44.578 28.5476L44.4346 28.3085L44.4187 28.2766L44.2912 28.1013L44.1319 27.894L43.9725 27.6868L43.7973 27.4955L43.622 27.3361L43.4308 27.1767L43.3033 27.081L43.1918 27.0173V27.0013L43.0962 26.9535L42.905 26.8579L42.7138 26.7782L42.5226 26.7144L42.3473 26.6825H42.1721H42.1083L42.0924 26.6347L42.0287 26.3159L41.9809 25.9971H41.9968L42.2199 26.013L42.4589 26.0608L42.6979 26.1405L42.8572 26.2202L43.0962 26.3478L43.3511 26.5072L43.5901 26.6825L43.8291 26.8898L44.0522 27.1129L44.2753 27.352L44.4824 27.6071L44.6736 27.8781L44.8489 28.1491L45.0082 28.436L45.1516 28.7389L45.295 29.0418L45.4065 29.3446L45.5021 29.6634L45.5659 29.9663L45.6137 30.2692L45.6455 30.4605Z" fill="url(#paint14_linear_322_29184)"/>
<path d="M45.124 30.3484V30.46L45.108 30.5875L45.0762 30.7629L45.0283 30.9223L44.9646 31.0657H44.869L44.7097 31.0339L44.5344 30.986L44.3592 30.9063L44.1839 30.8107L44.0086 30.6991L43.8971 30.6194L43.7218 30.4759L43.5625 30.3165L43.4032 30.1412L43.2438 29.9658L43.212 29.918H43.2438L43.5625 29.9658L43.7059 29.9818L44.0405 29.9977L44.391 29.9818L44.5344 29.9658L45.108 29.8861L45.124 29.9818L45.1558 30.2209L45.124 30.3484ZM44.1361 27.8935L43.9768 27.7022L43.8015 27.5109L43.6262 27.3356L43.435 27.1762L43.3076 27.0806L43.196 27.0168L43.1004 26.969L42.9252 26.8893L42.7499 26.8414L42.5906 26.8096H42.495L42.4312 26.953L42.3834 27.1124L42.3516 27.2718L42.3834 27.3356L42.5268 27.5588L42.6065 27.6544L42.7818 27.8298L42.9092 27.9254L43.0686 28.037L43.2438 28.1326L43.3872 28.1805L43.6422 28.2442L43.7696 28.2602L44.4388 28.292L44.3113 28.1008L44.1361 27.8935Z" fill="url(#paint15_linear_322_29184)"/>
<path d="M42.0602 12.4153L41.9805 12.3197L41.8053 12.1284L41.6778 12.0327L41.5184 11.9212L41.3432 11.8415L41.1998 11.7777L40.9448 11.7299L40.8174 11.698H40.5624L40.2916 11.7139L40.1163 11.7299L39.8136 11.7936L39.5109 11.8893L39.2081 12.0168L39.001 12.1124L38.6823 12.2878L38.3637 12.4791L38.045 12.7023L38.0131 12.7182L37.7263 12.9414L37.4236 13.1964L37.1209 13.4833L36.8181 13.7862L36.5313 14.105L36.2445 14.4398L35.9896 14.7586L35.7347 15.1412L35.4797 15.5238L35.2407 15.9223L35.1292 16.1295L35.0177 16.3208L34.8105 16.7193L34.6193 17.1338L34.5237 17.4048L34.4759 17.5323L34.3166 17.9308L34.1891 18.3452L34.0776 18.7597L33.982 19.1582L33.9183 19.5568L33.8545 19.9553L33.8227 20.3378V20.561V20.7045V20.8001V21.0552V21.0711L33.8386 21.1349L33.8545 21.2943L33.9023 21.629L33.9342 21.8044L33.9661 21.9319L33.982 21.9638L34.0617 22.2348L34.0935 22.3145L34.1254 22.3782L34.2529 22.6333L34.3963 22.8565L34.46 22.9521L34.6512 23.1275L34.7627 23.2391L34.9221 23.3347L35.0973 23.4303L35.2567 23.4782L35.4957 23.5419L35.6231 23.5579L36.2605 23.5897L36.3083 23.6694L36.4357 23.9086L36.5473 24.1317L36.6429 24.3868L36.7225 24.6259L36.7703 24.865L36.8181 25.1041L36.8341 25.2157L36.372 25.2794L36.2445 25.2954L35.894 25.3113L35.5594 25.2954L35.416 25.2794L35.0814 25.2316H35.0655L34.7787 25.1519L34.4759 25.0563L34.3325 24.9925L34.0617 24.8491L33.7908 24.6737L33.6793 24.594L33.4403 24.3868L33.3606 24.323L33.2172 24.1477L33.0101 23.8926L32.9145 23.781L32.8507 23.6694L32.7392 23.4941L32.5799 23.1753L32.5321 23.0637L32.3887 22.7289L32.3249 22.5058L32.309 22.442L32.2931 22.3782L32.1975 21.9957L32.1337 21.5972L32.1019 21.1827L32.0859 21.0711V20.6566V20.2103L32.1337 19.764L32.1815 19.3017L32.2771 18.8394L32.3887 18.3612L32.5161 17.883L32.6595 17.4048L32.8348 16.9265L32.8507 16.8946L33.0101 16.528L33.0419 16.4483V16.4324L33.2491 15.9701L33.265 15.9541L33.4881 15.4919L33.6315 15.2528L33.743 15.0455L34.0139 14.5992L34.2847 14.1688L34.5875 13.7543L34.6034 13.7384L34.9061 13.3558L34.9221 13.3239L35.2567 12.9254L35.5913 12.5588L35.9418 12.2081L36.2923 11.8733L36.4039 11.7777L36.6588 11.5705L37.0253 11.2835L37.3917 11.0285L37.7582 10.8053L38.1406 10.5981L38.2362 10.5503L38.6186 10.3749L38.9851 10.2315L39.3515 10.1199L39.718 10.0402L40.0685 9.99234L40.2119 9.97639L40.5465 9.96045H40.8971L41.0245 9.99234L41.3591 10.0242L41.6778 10.1039L41.9646 10.2155L42.108 10.2793L42.3788 10.4227L42.6497 10.5981L42.7612 10.6778L43.0162 10.885L43.2392 11.1241L43.4304 11.3792L43.5261 11.4908L43.7013 11.7777L43.8607 12.0806L43.9084 12.2081L44.0518 12.5429L44.1634 12.8935L44.2431 13.2761L44.3068 13.6746L44.3386 14.0732L44.3546 14.1847L44.3705 14.6151L44.3546 15.0455L44.3068 15.5078L44.259 15.9541L44.1952 16.2889L42.586 15.3484V15.3165L42.6178 14.934L42.6338 14.5673L42.6178 14.2166V14.2007L42.6019 13.9775L42.5382 13.6427L42.4744 13.3399L42.3788 13.037L42.3311 12.8935L42.3151 12.8776L42.2036 12.6385L42.0602 12.4153Z" fill="url(#paint16_linear_322_29184)"/>
<path d="M45.1204 30.3487V30.4602L45.1044 30.6834L45.0885 30.8269L45.0566 31.0182L44.9929 31.1935L44.9132 31.3529L44.8176 31.4964L44.722 31.6239L44.6105 31.7196L44.483 31.7993L44.3396 31.863L44.1803 31.8949L44.021 31.9108H43.8457L43.6704 31.879L43.4792 31.8311L43.288 31.7514L43.0968 31.6398L42.9056 31.5123L42.7782 31.4167L42.587 31.2573L42.4117 31.0819L42.2364 30.8906L42.0771 30.6993L41.9178 30.4921L41.7744 30.269L41.6469 30.0458L41.5194 29.8067L41.4079 29.5676L41.3123 29.3285L41.2326 29.0893L41.1689 28.8502L41.1211 28.6111V28.5792L41.137 28.5952L41.3442 28.8502L41.5672 29.0734L41.615 29.1053L41.6469 29.2169L41.7266 29.44L41.8222 29.6632L41.9337 29.8704L42.0612 30.0777L42.1886 30.2849L42.332 30.4762L42.4754 30.6515L42.6348 30.8269L42.7941 30.9863L42.9694 31.1298L43.0809 31.2095L43.2562 31.321L43.4314 31.4167L43.6067 31.4804L43.782 31.5283L43.9413 31.5601H44.1006L44.244 31.5442L44.3874 31.5123L44.5149 31.4645L44.6264 31.3848L44.738 31.2892L44.8336 31.1776L44.9132 31.0501V31.0341L44.977 30.8906L45.0248 30.7312L45.0566 30.5559L45.0726 30.4284L45.1204 30.3487ZM43.0968 26.9533L42.9056 26.8576L42.7144 26.7779L42.5232 26.7301L42.348 26.6982H42.1727H42.109L42.1568 26.8576L42.2683 26.8258L42.4117 26.8098H42.4754H42.571L42.7304 26.8417L42.9056 26.8895L43.0968 26.9533L43.1765 27.0011L43.0968 26.9533Z" fill="url(#paint17_linear_322_29184)"/>
<path d="M44.9466 31.0657L44.867 31.2092L44.7714 31.3208L44.6598 31.4164L44.5483 31.4961L44.4208 31.5439L44.2774 31.5758L44.134 31.5918H43.9747L43.8154 31.5599L43.6401 31.5121L43.4648 31.4483L43.2896 31.3527L43.1143 31.2411L43.0028 31.1614L42.8275 31.0179L42.6682 30.8585L42.5088 30.6831L42.3654 30.5078L42.222 30.3165L42.0946 30.1093L41.9671 29.902L41.8556 29.6948L41.76 29.4717L41.6803 29.2485L41.6484 29.1369L41.8396 29.2963L41.9512 29.392L42.222 29.5673L42.5088 29.7108L42.6522 29.7745L42.955 29.8861L43.2418 29.9499L43.2736 29.9977L43.433 30.173L43.5923 30.3484L43.7516 30.5078L43.9269 30.6513L44.0384 30.731L44.2137 30.8426L44.389 30.9382L44.5642 31.0179L44.7395 31.0657L44.8988 31.0976L44.9466 31.0657ZM42.4292 26.8096L42.2858 26.8255L42.1742 26.8574L42.1902 26.9371L42.2539 27.0965L42.3495 27.2718L42.3814 27.1124L42.4292 26.953L42.4929 26.8096H42.4292Z" fill="url(#paint18_linear_322_29184)"/>
<path d="M39.1458 52.4741V59.233L38.2695 59.7431V52.9683L39.1458 52.4741Z" fill="url(#paint19_linear_322_29184)"/>
<path d="M39.1458 43.4038V50.1786L38.2695 50.6887V43.9139L39.1458 43.4038Z" fill="url(#paint20_linear_322_29184)"/>
<path d="M39.1458 34.2061V40.9809L38.2695 41.491V34.7162L39.1458 34.2061Z" fill="url(#paint21_linear_322_29184)"/>
<path d="M39.1478 34.2064L38.2715 34.7165L31.9141 31.0502L32.7904 30.54L39.1478 34.2064Z" fill="url(#paint22_linear_322_29184)"/>
<path d="M39.1478 43.4037L38.2715 43.9138L31.9141 40.2474L32.7904 39.7373L39.1478 43.4037Z" fill="url(#paint23_linear_322_29184)"/>
<path d="M39.1478 52.4744L38.2715 52.9686L31.9141 49.3023L32.7904 48.8081L39.1478 52.4744Z" fill="url(#paint24_linear_322_29184)"/>
<path d="M38.6042 25.0722L38.6201 25.3751L38.6042 25.678L38.5723 25.9649L38.5086 26.22L38.4289 26.4431L38.3174 26.6504L38.1899 26.8257L38.0465 26.9851L37.8872 27.1126L36.995 27.6228L37.1702 27.4952L37.3136 27.3358L37.4411 27.1605L37.5526 26.9532L37.6323 26.7301L37.696 26.475L37.7279 26.1881L37.7438 25.8852L37.7279 25.5664L37.7119 25.3592L37.6482 25.0404L37.5685 24.7056L37.4729 24.3709L37.3614 24.052L37.218 23.7332L37.0587 23.4144L36.8834 23.0956L36.6922 22.8087L36.4851 22.5217L36.262 22.2348L36.0389 21.9797L35.7999 21.7406L35.545 21.5334L35.2901 21.3421L35.0192 21.1668L34.7483 21.0233L34.5731 20.9595L34.3181 20.8639L34.0791 20.8161L33.8401 20.8001H33.8242V20.7045V20.561L33.9198 20.5132L34.0951 20.4016L34.2863 20.3378L34.4934 20.306L34.7165 20.29L34.9555 20.306L35.1945 20.3697L35.4494 20.4494L35.6247 20.5291L35.8955 20.6567L36.1664 20.832L36.4213 21.0233L36.6763 21.2465L36.9153 21.4856L37.1543 21.7406L37.3614 22.0116L37.5685 22.2986L37.7597 22.6014L37.935 22.9043L38.0943 23.2231L38.2377 23.5419L38.3493 23.8767L38.4608 24.1955L38.5245 24.5303L38.5883 24.8491L38.6042 25.0722Z" fill="url(#paint25_linear_322_29184)"/>
<path d="M38.2715 52.9681V59.7429L31.9141 56.0766V49.3018L38.2715 52.9681Z" fill="url(#paint26_linear_322_29184)"/>
<path d="M38.2715 43.9139V50.6887L31.9141 47.0224V40.2476L38.2715 43.9139Z" fill="url(#paint27_linear_322_29184)"/>
<path d="M38.2715 34.7162V41.491L31.9141 37.8246V31.0498L38.2715 34.7162Z" fill="url(#paint28_linear_322_29184)"/>
<path d="M37.7279 25.5666L37.7438 25.8854L37.7279 26.1883L37.696 26.4752L37.6323 26.7302L37.5526 26.9534L37.4411 27.1606L37.3136 27.336L37.1702 27.4954L36.995 27.6229L36.8197 27.7186L36.6285 27.7823L36.4213 27.8301H36.1983L35.9593 27.8142L35.7203 27.7664L35.4653 27.6707L35.2901 27.607L35.0192 27.4635L34.8439 27.3679L35.0989 27.4954L35.2582 27.5592L35.4972 27.6389L35.7203 27.6867L35.9433 27.7026H36.1505L36.3417 27.6548L36.5329 27.591L36.6922 27.5113L36.8515 27.3838L36.995 27.2403L37.1065 27.0809L37.2021 26.8897L37.2817 26.6665L37.3455 26.4274L37.3773 26.1723L37.3933 25.8854L37.3773 25.5984L37.3614 25.3912L37.3136 25.0883L37.2339 24.7855L37.1383 24.4826L37.0268 24.1638L36.8993 23.8609L36.756 23.574L36.5807 23.287L36.4054 23.0001L36.2142 22.7291L36.0071 22.4741L35.7999 22.235L35.5769 22.0118L35.3379 21.8205L35.0989 21.6292L34.8439 21.4698L34.589 21.3423L34.4297 21.2785L34.1907 21.1988L33.9676 21.151L33.8401 21.135L33.8242 21.0713V21.0553V20.8003H33.8401L34.0791 20.8162L34.3181 20.8641L34.5731 20.9597L34.7483 21.0235L35.0192 21.1669L35.2901 21.3423L35.545 21.5336L35.7999 21.7408L36.0389 21.9799L36.262 22.235L36.4851 22.5219L36.6922 22.8088L36.8834 23.0958L37.0587 23.4146L37.218 23.7334L37.3614 24.0522L37.4729 24.371L37.5685 24.7058L37.6482 25.0405L37.7119 25.3593L37.7279 25.5666Z" fill="url(#paint29_linear_322_29184)"/>
<path d="M36.834 25.2156L36.818 25.104L36.7702 24.8649L36.7224 24.6258L36.6428 24.3867L36.5472 24.1316L36.4356 23.9085L36.3082 23.6693L36.2604 23.5896L36.1807 23.4462L36.0373 23.223L35.878 23.0158L35.7186 22.8085L35.5434 22.6332L35.3522 22.4579L35.1769 22.2984L35.0335 22.2028L34.9379 22.139H34.922L34.8423 22.0753L34.6511 21.9796L34.444 21.8999L34.2687 21.8521L34.0775 21.8202L33.9341 21.8043L33.9022 21.6289L33.8544 21.2942L33.8385 21.1348L33.966 21.1507L34.189 21.1985L34.428 21.2782L34.5874 21.342L34.8423 21.4695L35.0972 21.6289L35.3362 21.8202L35.5752 22.0115L35.7983 22.2347L36.0054 22.4738L36.2126 22.7288L36.4038 22.9998L36.579 23.2868L36.7543 23.5737L36.8977 23.8606L37.0252 24.1635L37.1367 24.4823L37.2323 24.7852L37.312 25.0881L37.3598 25.3909L37.3757 25.5982L37.3917 25.8851L37.3757 26.172L37.3438 26.4271L37.2801 26.6662L37.2004 26.8894L37.1048 27.0807L36.9933 27.2401L36.8499 27.3835L36.6906 27.511L36.5312 27.5908L36.34 27.6545L36.1488 27.7023H35.9417L35.7186 27.6864L35.4956 27.6386L35.2566 27.5589L35.0972 27.4951L34.8423 27.3676L34.5874 27.2082L34.3484 27.0169L34.1094 26.8097L33.8863 26.6024L33.6632 26.3633L33.472 26.1083L33.2808 25.8373L33.0896 25.5504L32.9303 25.2634L32.7869 24.9605L32.6594 24.6577L32.5479 24.3548L32.4523 24.0519L32.3726 23.749L32.3248 23.4462L32.3089 23.239L32.293 22.952L32.3089 22.6651L32.3248 22.5057L32.3886 22.7288L32.532 23.0636L32.5798 23.1752L32.7391 23.494L32.8506 23.6693V23.7172L32.8984 23.9722L32.9622 24.2113L33.0418 24.4504L33.1374 24.6896L33.249 24.9287L33.3764 25.1678L33.5039 25.3909L33.6473 25.6141L33.8066 25.8213L33.966 26.0126L34.1412 26.2039L34.3324 26.3793L34.5077 26.5387L34.6511 26.6343L34.8423 26.7459L35.0335 26.8575L35.2247 26.9372L35.4159 26.985L35.5912 27.0169L35.7664 27.0328L35.9258 27.0169L36.0851 26.9691L36.2285 26.9212L36.356 26.8415L36.4675 26.73L36.579 26.6184L36.6587 26.4749L36.7384 26.3155L36.8021 26.1402L36.834 25.9489L36.8499 25.8054L36.8658 25.5822V25.4866V25.4706L36.8499 25.3431L36.834 25.2156Z" fill="url(#paint30_linear_322_29184)"/>
<path d="M36.8658 25.471V25.5825L36.8499 25.7101L36.818 25.8854L36.7702 26.0448L36.7065 26.1883H36.6109L36.4516 26.1564L36.2763 26.1086L36.101 26.0289L35.9258 25.9332L35.7505 25.8216L35.639 25.7419L35.4637 25.5985L35.3044 25.4391L35.145 25.2637L35.1132 25.2319H35.1291L35.4478 25.2797L35.5912 25.2956L35.9258 25.3116L36.2763 25.2956L36.4197 25.2797L36.8817 25.2159L36.8977 25.3594L36.8658 25.471ZM36.0373 23.2233L35.878 23.0161L35.7186 22.8248L35.5434 22.6335L35.3681 22.4582L35.1769 22.2988L35.0494 22.2031L34.9379 22.1394L34.8423 22.0915L34.667 22.0118L34.4918 21.964L34.3324 21.9321H34.2368L34.1731 22.0756L34.1253 22.235L34.1094 22.3147L34.1412 22.3944L34.2687 22.6335L34.4121 22.8567L34.4918 22.9523L34.667 23.1436L34.7945 23.2393L34.9538 23.3508L35.1291 23.4465L35.2725 23.4943L35.5274 23.5581L35.6549 23.574L36.2922 23.6059L36.1966 23.4624L36.0373 23.2233Z" fill="url(#paint31_linear_322_29184)"/>
<path d="M25.7934 17.5802L25.9049 17.7874L25.9208 17.8193L26.0642 18.0425L26.1439 18.1382L26.3192 18.3294L26.4466 18.4251L26.606 18.5367L26.7812 18.6164L26.9246 18.6801L27.1796 18.7439L27.307 18.7598L27.9603 18.7758H27.9762L28.0081 18.8236L28.1356 19.0468L28.263 19.2859L28.3746 19.525L28.4702 19.7641L28.5498 20.0032L28.6136 20.2423L28.6295 20.3858H28.6136L28.0559 20.4655L27.9125 20.4814L27.562 20.5133L27.2274 20.4974L27.084 20.4655L26.7653 20.4336L26.7334 20.4177L26.4466 20.3539L26.1439 20.2423L26.0164 20.1785L25.7296 20.0351L25.4747 19.8597L25.3472 19.78L25.172 19.6366L25.1082 19.5728L24.8852 19.3496L24.678 19.0946V19.0787L24.5984 18.9671L24.4072 18.6801L24.2478 18.3773L24.2 18.2497L24.1363 18.0744L24.1204 18.0425L24.0726 17.915L23.961 17.5643L23.8814 17.1817L23.8176 16.7832L23.7698 16.3847V16.2731L23.7539 15.8427L23.7698 15.4123L23.8017 14.9659L23.8654 14.5037L23.9451 14.0254L24.0566 13.5632L24.1841 13.0849L24.3434 12.6067L24.5187 12.1126L24.5346 12.0807L24.678 11.714L24.7258 11.6184L24.933 11.1561L25.172 10.6938L25.2994 10.4547L25.411 10.2316L25.6818 9.80116L25.9686 9.37077L26.2554 8.94036L26.2873 8.92442L26.5741 8.54184L26.59 8.50997L26.9246 8.12739L27.2592 7.74481L27.6098 7.39412L27.9603 7.0753L28.0718 6.97966L28.3268 6.75649L28.6932 6.48551L29.0597 6.2145L29.4421 5.99133L29.8086 5.80005L29.9041 5.75222L30.2866 5.57688L30.653 5.43341L31.0195 5.32183L31.3859 5.22619L31.7365 5.17836L31.8799 5.16242L32.2304 5.14648L32.565 5.16242L32.7084 5.17836L33.0271 5.22619L33.3457 5.30589L33.6485 5.41747L33.7759 5.4653L34.0627 5.60877L34.3177 5.78411L34.4451 5.87975L34.6841 6.07103L34.9072 6.31014L35.1143 6.56521L35.194 6.67679L35.3852 6.96373L35.5445 7.28254L35.5923 7.41006L35.7198 7.72887L35.8313 8.09551L35.911 8.46214L35.9747 8.86065L35.9907 8.97225L36.0225 9.27513V9.38671L36.0385 9.80116L36.0225 10.2475L35.9907 10.6938L35.9269 11.1561L35.8632 11.4749L34.2539 10.5504V10.5026L34.2858 10.12L34.3017 9.75335L34.2858 9.40264L34.2699 9.16353L34.2221 8.82878L34.1424 8.5259L34.0627 8.23898L33.999 8.07958L33.8715 7.84047L33.7281 7.61729V7.60136L33.6485 7.5057L33.4732 7.33035L33.3457 7.21877L33.1864 7.12313L33.0111 7.02747L32.8677 6.97966L32.6128 6.9159L32.5013 6.89996L32.2304 6.88402L31.9595 6.89996L31.8002 6.9159L31.4975 6.9956L31.1948 7.09124L30.8761 7.20284L30.6689 7.29848L30.3503 7.47382L30.0316 7.6651L29.7129 7.88828L29.697 7.90421L29.4102 8.12739L29.0916 8.39839L28.7888 8.66937L28.4861 8.97225L28.1993 9.29107L27.9284 9.62582L27.6735 9.96057L27.4026 10.3272L27.1477 10.7098L26.9246 11.1083L26.7972 11.3155L26.7016 11.5068L26.4944 11.9213L26.3032 12.3357L26.1917 12.5908L26.1439 12.7183L26.0005 13.1168L25.8571 13.5313L25.7456 13.9457L25.65 14.3443L25.5862 14.7428L25.5384 15.1413L25.5066 15.5239L25.4906 15.8905V16.034L25.5066 16.1934V16.2571L25.5225 16.4963V16.5122L25.5703 16.8151L25.65 17.1179L25.6659 17.1976L25.7137 17.3571L25.7296 17.4208L25.7934 17.5802Z" fill="url(#paint32_linear_322_29184)"/>
<path d="M36.8671 25.4867V25.5983L36.8511 25.8214L36.8352 25.9649L36.7874 26.1562L36.7237 26.3315L36.644 26.491L36.5484 26.6344L36.4369 26.7619L36.3253 26.8576L36.1979 26.9373L36.0545 27.001L35.8951 27.0329L35.7358 27.0489H35.5605L35.3853 27.017L35.1941 26.9692L35.0029 26.8895L34.8117 26.7779L34.6205 26.6504L34.493 26.5547L34.3018 26.3953L34.1265 26.2199L33.9513 26.0287L33.7919 25.8374L33.6326 25.6301L33.4892 25.407L33.3617 25.1838L33.2343 24.9447L33.1227 24.7056L33.0271 24.4665L32.9475 24.2274L32.8837 23.9882L32.8359 23.7491V23.7013L32.8997 23.8129L32.9953 23.9245L33.2024 24.1795L33.3617 24.339L33.3777 24.3708L33.4573 24.594L33.5529 24.8172L33.6645 25.0244L33.7919 25.2316L33.9194 25.4388L34.0628 25.6301L34.2221 25.8055L34.3815 25.9808L34.5408 26.1402L34.7161 26.2837L34.8276 26.3634L35.0029 26.475L35.1781 26.5707L35.3534 26.6344L35.5287 26.6822L35.688 26.7141H35.8473L35.9907 26.6982L36.1341 26.6663L36.2616 26.6185L36.3731 26.5388L36.4847 26.4431L36.5803 26.3315L36.6599 26.204V26.1881L36.7237 26.0446L36.7715 25.8852L36.8033 25.7099L36.8193 25.5823L36.8671 25.4867ZM34.8435 22.0754L34.6523 21.9797L34.4611 21.9L34.2699 21.8522L34.0947 21.8203H33.9513L33.9831 21.9478V21.9638L34.0309 21.9478L34.1743 21.9319H34.2381H34.3337L34.493 21.9638L34.6683 22.0116L34.8435 22.0754L34.9232 22.1232L34.8435 22.0754Z" fill="url(#paint33_linear_322_29184)"/>
<path d="M36.6927 26.1883L36.6131 26.3318L36.5174 26.4433L36.4059 26.539L36.2944 26.6187L36.1669 26.6665L36.0235 26.6984L35.8801 26.7143H35.7208L35.5615 26.6825L35.3862 26.6346L35.2109 26.5709L35.0357 26.4752L34.8604 26.3636L34.7489 26.2839L34.5736 26.1405L34.4143 25.9811L34.2549 25.8057L34.0956 25.6304L33.9522 25.4391L33.8247 25.2319L33.6973 25.0246L33.5857 24.8174L33.4901 24.5942L33.4105 24.3711L33.3945 24.3392L33.4583 24.4029L33.6973 24.6102L33.8088 24.7058L34.0797 24.8812L34.3665 25.0246L34.5099 25.0884L34.8126 25.2L35.0994 25.2797L35.1313 25.3116L35.2906 25.4869L35.4499 25.6463L35.6252 25.7898L35.7367 25.8695L35.912 25.9811L36.0872 26.0767L36.2625 26.1564L36.4378 26.2042L36.5971 26.2361L36.6927 26.1883ZM34.1753 21.9321L34.0319 21.9481L33.9841 21.964L34.0637 22.235L34.0956 22.3147L34.1115 22.235L34.1593 22.0756L34.2231 21.9321H34.1753Z" fill="url(#paint34_linear_322_29184)"/>
<path d="M30.9388 47.7397V54.4986L30.0625 55.0087V48.2499L30.9388 47.7397Z" fill="url(#paint35_linear_322_29184)"/>
<path d="M30.9388 38.6694V45.4442L30.0625 45.9543V39.1795L30.9388 38.6694Z" fill="url(#paint36_linear_322_29184)"/>
<path d="M30.9388 29.4878V36.2467L30.0625 36.7568V29.982L30.9388 29.4878Z" fill="url(#paint37_linear_322_29184)"/>
<path d="M30.9404 29.488L30.0641 29.9821L23.7227 26.3158L24.599 25.8057L30.9404 29.488Z" fill="url(#paint38_linear_322_29184)"/>
<path d="M30.9404 38.6698L30.0641 39.1799L23.7227 35.5135L24.599 35.0034L30.9404 38.6698Z" fill="url(#paint39_linear_322_29184)"/>
<path d="M30.9404 47.7396L30.0641 48.2498L23.7227 44.5674L24.599 44.0732L30.9404 47.7396Z" fill="url(#paint40_linear_322_29184)"/>
<path d="M30.4315 20.4497L30.4474 20.7685L30.4315 21.0554L30.3996 21.3424L30.3359 21.5974L30.2562 21.8206L30.1447 22.0278L30.0172 22.2032L29.8738 22.3626L29.7145 22.4901L28.8222 23.0002L28.9975 22.8727L29.1409 22.7132L29.2684 22.5379L29.3799 22.3307L29.4596 22.1075L29.5233 21.8524L29.5552 21.5655L29.5711 21.2627L29.5552 20.9598L29.5392 20.7366L29.4755 20.4178L29.4118 20.083L29.3002 19.7642L29.1887 19.4295L29.0453 19.1107L28.886 18.7918L28.7107 18.489L28.5195 18.1861L28.3124 17.8992L28.1052 17.6282L27.8662 17.3731L27.6272 17.134L27.3723 16.9108L27.1174 16.7196L26.8465 16.5442L26.5757 16.4167L26.4004 16.337L26.1455 16.2573L25.9065 16.1935L25.6675 16.1776L25.5081 16.1935L25.4922 16.0341L25.7471 15.8907L25.9224 15.795L26.1136 15.7153L26.3207 15.6834L26.5438 15.6675L26.7828 15.6834L27.0218 15.7472L27.2767 15.8269L27.452 15.9066L27.7228 16.0341L27.9937 16.2095L28.2487 16.4007L28.5036 16.6239L28.7426 16.863L28.9816 17.1181L29.1887 17.3891L29.3958 17.676L29.587 17.9789L29.7623 18.2818L29.9216 18.6006L30.065 18.9194L30.1766 19.2541L30.2881 19.5729L30.3678 19.9077L30.4156 20.2265L30.4315 20.4497Z" fill="url(#paint41_linear_322_29184)"/>
<path d="M30.0641 48.2502V55.009L23.7227 51.3427V44.5679L30.0641 48.2502Z" fill="url(#paint42_linear_322_29184)"/>
<path d="M30.0641 39.1795V45.9543L23.7227 42.288V35.5132L30.0641 39.1795Z" fill="url(#paint43_linear_322_29184)"/>
<path d="M30.0641 29.9818V36.7566L23.7227 33.0902V26.3154L30.0641 29.9818Z" fill="url(#paint44_linear_322_29184)"/>
<path d="M29.5549 20.9595L29.5708 21.2623L29.5549 21.5652L29.523 21.8521L29.4593 22.1072L29.3796 22.3304L29.2681 22.5376L29.1406 22.7129L28.9972 22.8723L28.8219 22.9999L28.6467 23.0955L28.4555 23.1593L28.2483 23.2071H28.0253L27.7863 23.1912L27.5473 23.1433L27.2923 23.0636L27.1171 22.9839L26.8462 22.8405L26.6709 22.7448L26.9259 22.8723L27.0852 22.9361L27.3242 23.0158L27.5473 23.0636L27.7703 23.0955L27.9775 23.0796L28.1687 23.0477L28.3599 22.9839L28.5192 22.8883L28.6785 22.7608L28.8219 22.6173L28.9335 22.4579L29.0291 22.2666L29.1087 22.0434L29.1725 21.8043L29.2043 21.5493L29.2203 21.2623L29.2043 20.9754L29.1884 20.7682L29.1406 20.4653L29.0609 20.1624L28.9653 19.8595L28.8538 19.5567L28.7263 19.2538L28.5829 18.9509L28.4077 18.664L28.2324 18.3771L28.0412 18.1061L27.8341 17.851L27.6269 17.6119L27.4039 17.3887L27.1649 17.1975L26.9259 17.0062L26.6709 16.8468L26.416 16.7192L26.2567 16.6555L26.0177 16.5758L25.7946 16.528L25.5715 16.512H25.5237V16.4961L25.5078 16.2569V16.1932L25.6671 16.1772L25.9061 16.1932L26.1451 16.2569L26.4001 16.3367L26.5753 16.4164L26.8462 16.5439L27.1171 16.7192L27.372 16.9105L27.6269 17.1337L27.8659 17.3728L28.1049 17.6278L28.3121 17.8988L28.5192 18.1858L28.7104 18.4886L28.8857 18.7915L29.045 19.1103L29.1884 19.4292L29.2999 19.7639L29.4115 20.0827L29.4752 20.4175L29.5389 20.7363L29.5549 20.9595Z" fill="url(#paint45_linear_322_29184)"/>
<path d="M29.2038 20.9751L29.2198 21.2621L29.2038 21.549L29.172 21.8041L29.1082 22.0432L29.0286 22.2663L28.933 22.4576L28.8214 22.617L28.678 22.7605L28.5187 22.888L28.3594 22.9837L28.1682 23.0474L27.977 23.0793L27.7698 23.0952L27.5468 23.0634L27.3237 23.0155L27.0847 22.9358L26.9254 22.8721L26.6704 22.7446L26.4155 22.5852L26.1765 22.3938L25.9375 22.2026L25.7144 21.9794L25.5073 21.7403L25.3002 21.4852L25.109 21.2142L24.9178 20.9273L24.7584 20.6404L24.615 20.3534L24.4876 20.0506L24.376 19.7318L24.2804 19.4289L24.2008 19.126L24.153 18.8231L24.137 18.6159L24.1211 18.329L24.137 18.0739L24.2008 18.2493L24.2486 18.3768L24.4079 18.6797L24.5991 18.9666L24.6788 19.0782V19.0941V19.1101L24.7266 19.3492L24.7903 19.5883L24.87 19.8274L24.9656 20.0824L25.0771 20.3056L25.2046 20.5447L25.332 20.7679L25.4754 20.9911L25.6348 21.1983L25.7941 21.4055L25.9694 21.5809L26.1606 21.7562L26.3358 21.9156L26.4792 22.0113L26.6704 22.1388L26.8616 22.2344L27.0528 22.3141L27.244 22.362L27.4193 22.3938L27.5946 22.4098L27.7539 22.3938L27.9132 22.362L28.0566 22.2982L28.1841 22.2185L28.2956 22.1229L28.4072 21.9953L28.4868 21.8519L28.5665 21.6925L28.6302 21.5171L28.6621 21.3258L28.678 21.1824L28.694 20.9592V20.8635L28.678 20.736L28.6462 20.4969L28.6302 20.3853L28.6143 20.2419L28.5506 20.0027L28.4709 19.7636L28.3753 19.5245L28.2638 19.2854L28.1363 19.0463L28.0088 18.8231L27.977 18.7753L27.8654 18.6L27.7061 18.3927L27.5468 18.2015L27.3715 18.0102L27.1803 17.8348L27.005 17.6754L26.8616 17.5798L26.766 17.516H26.7501L26.6704 17.4682L26.4792 17.3566L26.2721 17.2769L26.0968 17.2291L25.9056 17.1972L25.7463 17.1812L25.6666 17.1972L25.6507 17.1175L25.571 16.8146L25.5232 16.5117H25.571L25.7941 16.5277L26.0172 16.5755L26.2562 16.6552L26.4155 16.719L26.6704 16.8465L26.9254 17.0059L27.1644 17.1972L27.4034 17.3885L27.6264 17.6116L27.8336 17.8507L28.0407 18.1058L28.2319 18.3768L28.4072 18.6637L28.5824 18.9507L28.7258 19.2535L28.8533 19.5564L28.9648 19.8593L29.0604 20.1621L29.1401 20.465L29.1879 20.7679L29.2038 20.9751Z" fill="url(#paint46_linear_322_29184)"/>
<path d="M28.6783 20.736V20.8635V20.9751L28.6624 21.1026L28.6305 21.278L28.5827 21.4374L28.519 21.5809H28.4234L28.2641 21.549L28.0888 21.5012L27.9135 21.4374L27.7383 21.3418L27.563 21.2302L27.4515 21.1505L27.2762 21.007L27.1169 20.8476L26.9575 20.6723L26.7982 20.4969L26.7663 20.4491H26.7823L27.1009 20.4969L27.2443 20.5128L27.5789 20.5288L27.9295 20.5128L28.0729 20.4969L28.6465 20.4172H28.6624L28.6783 20.5288V20.736ZM27.7064 18.3927L27.5471 18.2014L27.3718 18.0101L27.1965 17.8348L27.0053 17.6754L26.8779 17.5798L26.7663 17.516L26.6707 17.4682L26.4955 17.4044L26.3202 17.3566L26.1609 17.3247H26.0653L26.0015 17.4682L25.9537 17.6276L25.9219 17.8029L25.9378 17.8348L26.0812 18.058L26.1609 18.1536L26.3361 18.3449L26.4636 18.4406L26.6229 18.5521L26.7982 18.6478L26.9416 18.6956L27.1965 18.7594L27.324 18.7753L27.9773 18.8072H27.9932L27.8817 18.6318L27.7064 18.3927Z" fill="url(#paint47_linear_322_29184)"/>
<path d="M24.8041 2.29294L24.6607 2.22918L24.4058 2.16541L24.2943 2.14947L24.0075 2.13354L23.7525 2.14947L23.5773 2.18137L23.2745 2.24511L22.9718 2.34077L22.6691 2.46829L22.4619 2.56393H22.446L22.1433 2.72333L21.8246 2.93057L21.5059 3.13781L21.4741 3.16968L21.1873 3.37692L20.8845 3.6479L20.5818 3.93484L20.2791 4.2377L19.9923 4.55651L19.7055 4.87533L19.4505 5.2101L19.1956 5.57672L18.9407 5.97524L18.7017 6.35782L18.5901 6.56506L18.4786 6.75634L18.2715 7.17079L18.0803 7.58525L17.9847 7.84031L17.9209 7.96783L17.7775 8.38228L17.6501 8.79675L17.5385 9.19527L17.4429 9.60973L17.3792 10.0082L17.3155 10.3908L17.2836 10.7734V11.156V11.2357V11.3632V11.5067L17.2995 11.682L17.3155 11.7458L17.3633 12.0646L17.427 12.3834L17.4907 12.5588L17.5226 12.6703L17.5863 12.8297L17.7138 13.0688V13.0848L17.8572 13.292L17.9209 13.4036L18.0962 13.579L18.2237 13.6746L18.383 13.7862L18.5583 13.8818L18.7176 13.9297L18.9566 13.9934L19.0841 14.0094L19.8489 14.0253L19.9604 14.2325L20.0879 14.4557L20.1994 14.6948L20.295 14.9339L20.3747 15.189L20.4384 15.4281L20.4703 15.6353H20.4543L19.8329 15.731L19.7055 15.7469L19.3549 15.7628L19.0203 15.7469L18.8769 15.731L18.6379 15.6991L18.5423 15.6831L18.2396 15.6034L17.9369 15.4918L17.7935 15.444L17.5226 15.3005L17.2517 15.1252L17.1402 15.0296L17.0605 14.9658L16.9012 14.8223L16.6622 14.5992L16.5347 14.4397L16.471 14.3441L16.3754 14.2325L16.2001 13.9456L16.0408 13.6268L15.993 13.4993L15.9452 13.4036V13.3877L15.8496 13.1645L15.754 12.8138L15.6584 12.4472L15.5947 12.0486L15.5628 11.6342L15.5469 11.5226V11.1082V10.6618L15.5947 10.2155L15.6425 9.7532L15.7381 9.29091L15.8337 8.81269L15.9771 8.33447L16.1205 7.85625L16.2957 7.37803L16.3117 7.34614L16.471 6.96357L16.5029 6.89981V6.86791L16.71 6.42159L16.7259 6.40565L16.949 5.94337L17.0924 5.70426L17.2039 5.49702L17.4748 5.05069L17.7457 4.62028L17.7616 4.60434L18.0484 4.20583L18.0643 4.17395L18.3671 3.80731L18.383 3.77544L18.7176 3.37692L19.0522 3.01027L19.4027 2.65959L19.7373 2.34077L19.7533 2.32482L20.1197 2.02196L20.4862 1.73502L20.8527 1.47997L21.2191 1.2568L21.6015 1.04956L21.6971 1.00175L22.0795 0.826407L22.446 0.682936L22.8125 0.57134L23.1789 0.491636L23.5295 0.443826L23.6569 0.411933L24.0075 0.395996L24.3421 0.411933L24.4855 0.427889L24.8201 0.4757L25.1228 0.555403L25.4255 0.667L25.5689 0.730747L25.8398 0.874217L26.1107 1.03362L26.2222 1.12926L26.4771 1.3365L26.7002 1.55967L26.8914 1.83066L26.987 1.94226L27.1623 2.21324L27.3216 2.53205L27.3694 2.65959L27.5128 2.99434L27.6243 3.34502L27.704 3.72761L27.7677 4.11019L27.7996 4.52464L27.8155 4.63622V5.06663V5.49702L27.7677 5.94337L27.7199 6.40565L27.6562 6.7404L26.0469 5.7999V5.76802L26.0788 5.38544V5.00286V4.65217L26.0469 4.41306L25.9991 4.09425L25.9354 3.77544L25.8398 3.4885L25.7761 3.34502V3.32909L25.6645 3.08998L25.5211 2.8668L25.4415 2.77116L25.2662 2.57988L25.1387 2.48422L24.9794 2.37265L24.8041 2.29294Z" fill="url(#paint48_linear_322_29184)"/>
<path d="M28.6946 20.8636V20.9752L28.6786 21.1984L28.6627 21.3418L28.6308 21.5331L28.5671 21.7085L28.4875 21.8679L28.3918 22.0113L28.2962 22.1389L28.1847 22.2345L28.0572 22.3142L27.9138 22.378L27.7545 22.4099L27.5952 22.4258H27.4199L27.2446 22.3939L27.0535 22.3461L26.8622 22.2664L26.671 22.1708L26.4798 22.0432L26.3524 21.9476L26.1612 21.7882L25.9859 21.6128L25.8106 21.4215L25.6513 21.2303L25.492 21.023L25.3486 20.7999L25.2211 20.5767L25.0936 20.3376L24.9821 20.0985L24.8865 19.8594L24.8068 19.6202L24.7431 19.3811L24.6953 19.142V19.1261L24.9025 19.3811L25.1255 19.6202L25.1893 19.6681L25.2211 19.7637L25.3008 19.9869L25.3964 20.2101L25.5079 20.4173L25.6354 20.6245L25.7628 20.8158L25.9063 21.0071L26.0496 21.1824L26.209 21.3578L26.3683 21.5172L26.5436 21.6607L26.6551 21.7404L26.8304 21.8519L27.0056 21.9476L27.1809 22.0273L27.3562 22.0751L27.5155 22.107H27.6748L27.8182 22.091L27.9616 22.0592L28.0891 22.0113L28.2006 21.9316L28.3122 21.836L28.4078 21.7244L28.4875 21.5969L28.5512 21.4534L28.599 21.294L28.6308 21.1187L28.6468 20.9912L28.6946 20.8636ZM26.671 17.4682L26.4798 17.3567L26.2886 17.277L26.0975 17.2291L25.9222 17.1973H25.7469H25.6673L25.715 17.3567L25.8425 17.3248L25.9859 17.3088H26.0496H26.1453L26.3046 17.3407L26.4798 17.3885L26.671 17.4682L26.7666 17.5161L26.671 17.4682Z" fill="url(#paint49_linear_322_29184)"/>
<path d="M28.5169 21.5653L28.4373 21.7087L28.3417 21.8203L28.2301 21.916L28.1186 21.9957L27.9911 22.0435L27.8477 22.0754L27.7043 22.0913H27.545L27.3857 22.0594L27.2104 22.0116L27.0351 21.9319L26.8599 21.8363L26.6846 21.7247L26.5731 21.645L26.3978 21.5015L26.2385 21.3421L26.0791 21.1667L25.9357 20.9914L25.7923 20.8001L25.6649 20.6088L25.5374 20.4016L25.4259 20.1944L25.3303 19.9712L25.2506 19.748L25.2188 19.6524L25.394 19.7959L25.5055 19.8915L25.7764 20.0668L26.0632 20.2103L26.2066 20.2741L26.5093 20.3856L26.7961 20.4654L26.828 20.5132L26.9873 20.6885L27.1467 20.8639L27.306 21.0233L27.4813 21.1667L27.5928 21.2465L27.7681 21.358L27.9433 21.4537L28.1186 21.5174L28.2939 21.5653L28.4532 21.5971L28.5169 21.5653ZM25.9995 17.3091L25.8561 17.325L25.7286 17.3569L25.7445 17.4207L25.8083 17.5801L25.9039 17.7873L25.9357 17.612L25.9835 17.4526L26.0473 17.3091H25.9995Z" fill="url(#paint50_linear_322_29184)"/>
<path d="M22.7513 43.0059V49.7806L21.875 50.2748V43.516L22.7513 43.0059Z" fill="url(#paint51_linear_322_29184)"/>
<path d="M22.7513 33.9512V40.71L21.875 41.2201V34.4453L22.7513 33.9512Z" fill="url(#paint52_linear_322_29184)"/>
<path d="M22.7513 24.7534V31.5123L21.875 32.0224V25.2476L22.7513 24.7534Z" fill="url(#paint53_linear_322_29184)"/>
<path d="M22.7493 24.7531L21.873 25.2473L15.5156 21.5809L16.4079 21.0708L22.7493 24.7531Z" fill="url(#paint54_linear_322_29184)"/>
<path d="M22.7493 33.9509L21.873 34.445L15.5156 30.7787L16.4079 30.2686L22.7493 33.9509Z" fill="url(#paint55_linear_322_29184)"/>
<path d="M22.7493 43.0057L21.873 43.5158L15.5156 39.8335L16.4079 39.3394L22.7493 43.0057Z" fill="url(#paint56_linear_322_29184)"/>
<path d="M22.2603 15.6193L22.2762 15.9381L22.2603 16.241L22.2284 16.512L22.1647 16.767L22.085 17.0061L21.9735 17.2134L21.846 17.3887L21.7026 17.5481L21.5433 17.6597L20.6669 18.1698L20.8263 18.0423L20.9697 17.8988L21.0971 17.7235L21.2087 17.5162L21.2883 17.2771L21.3521 17.0221L21.3839 16.7511L21.3999 16.4482L21.3839 16.1294L21.368 15.9222L21.3043 15.5874L21.2405 15.2686L21.129 14.9339L21.0175 14.615L20.8741 14.2803L20.7147 13.9615L20.5395 13.6586L20.3483 13.3557L20.1411 13.0688L19.934 12.7978L19.695 12.5428L19.456 12.3036L19.2011 12.0964L18.9461 11.8892L18.6753 11.7298L18.4044 11.5863L18.2291 11.5066L17.9742 11.4269L17.7352 11.3791L17.4962 11.3631H17.2891V11.2356L17.5759 11.0603L17.7511 10.9646L17.9423 10.9009L18.1495 10.853H18.3725L18.6115 10.869L18.8505 10.9168L19.1055 10.9965L19.2807 11.0762L19.5516 11.2197L19.8225 11.395L20.0774 11.5863L20.3323 11.7935L20.5713 12.0326L20.8103 12.2877L21.0175 12.5587L21.2246 12.8456L21.4158 13.1485L21.5911 13.4673L21.7504 13.7702L21.8938 14.1049L22.0053 14.4237L22.1169 14.7585L22.1965 15.0773L22.2443 15.4121L22.2603 15.6193Z" fill="url(#paint57_linear_322_29184)"/>
<path d="M21.873 43.5153V50.2741L15.5156 46.6078V39.833L21.873 43.5153Z" fill="url(#paint58_linear_322_29184)"/>
<path d="M21.873 34.4457V41.2205L15.5156 37.5541V30.7793L21.873 34.4457Z" fill="url(#paint59_linear_322_29184)"/>
<path d="M21.873 25.2474V32.0222L15.5156 28.3558V21.5811L21.873 25.2474Z" fill="url(#paint60_linear_322_29184)"/>
<path d="M21.3839 16.1295L21.3998 16.4484L21.3839 16.7512L21.352 17.0222L21.2883 17.2773L21.2086 17.5164L21.0971 17.7236L20.9696 17.899L20.8262 18.0424L20.6669 18.1699L20.4757 18.2656L20.2845 18.3453L20.0774 18.3772L19.8543 18.3931L19.6153 18.3772L19.3763 18.3134L19.1214 18.2337L18.9461 18.154L18.6753 18.0265L18.5 17.9149L18.7549 18.0424L18.9143 18.1221L19.1533 18.2018L19.3763 18.2496L19.5994 18.2656L19.8065 18.2496L19.9977 18.2178L20.1889 18.154L20.3482 18.0584L20.5076 17.9468L20.651 17.8033L20.7625 17.628L20.8581 17.4367L20.9378 17.2294L21.0015 16.9903L21.0334 16.7353L21.0493 16.4484L21.0334 16.1455L21.0174 15.9542L20.9696 15.6513L20.89 15.3325L20.7944 15.0296L20.6828 14.7268L20.5554 14.4239L20.412 14.121L20.2527 13.8341L20.0614 13.5631L19.8702 13.2921L19.6631 13.0371L19.456 12.7979L19.2329 12.5748L18.9939 12.3675L18.7549 12.1922L18.5 12.0328L18.2451 11.9053L18.0857 11.8256L17.8467 11.7459L17.6237 11.698L17.4006 11.6821H17.305L17.2891 11.5068V11.3633H17.4962L17.7352 11.3792L17.9742 11.427L18.2291 11.5068L18.4044 11.5865L18.6753 11.7299L18.9461 11.8893L19.2011 12.0965L19.456 12.3038L19.695 12.5429L19.934 12.7979L20.1411 13.0689L20.3482 13.3559L20.5394 13.6587L20.7147 13.9616L20.874 14.2804L21.0174 14.6152L21.129 14.934L21.2405 15.2687L21.3042 15.5876L21.368 15.9223L21.3839 16.1295Z" fill="url(#paint61_linear_322_29184)"/>
<path d="M21.028 16.1455L21.044 16.4484L21.028 16.7353L20.9962 16.9904L20.9324 17.2295L20.8528 17.4367L20.7572 17.628L20.6456 17.8033L20.5022 17.9468L20.3429 18.0584L20.1836 18.154L19.9924 18.2178L19.8012 18.2497L19.594 18.2656L19.371 18.2497L19.1479 18.2019L18.9089 18.1222L18.7496 18.0425L18.4946 17.9149L18.2397 17.7555L18.0007 17.5802L17.7617 17.3729L17.5386 17.1498L17.3315 16.9107L17.1244 16.6556L16.9332 16.3846L16.7579 16.1136L16.5826 15.8267L16.4392 15.5238L16.3118 15.2209L16.2002 14.9181L16.1046 14.6152L16.025 14.2964L15.9772 13.9935L15.9612 13.8022L15.9453 13.4994V13.4037L15.9931 13.4994L16.0409 13.6269L16.2002 13.9457L16.3755 14.2326L16.4711 14.3442L16.5348 14.4399L16.5508 14.5196L16.6145 14.7746L16.6942 15.0137L16.7898 15.2528L16.9013 15.492L17.0288 15.7311L17.1562 15.9542L17.2996 16.1774L17.459 16.3846L17.6183 16.5759L17.7936 16.7672L17.9848 16.9425L18.16 17.086L18.3034 17.1817L18.4946 17.3092L18.6858 17.4208L18.893 17.5005L19.0682 17.5483L19.2594 17.5802H19.4188L19.5781 17.5642L19.7374 17.5323L19.8808 17.4686L20.0083 17.3889L20.1198 17.2932L20.2314 17.1817L20.311 17.0382L20.3907 16.8788L20.4544 16.7034L20.4863 16.5121L20.5022 16.3687L20.5182 16.1455V16.0339L20.5022 15.9064L20.4704 15.6673V15.6354L20.4385 15.4282L20.3748 15.1891L20.2951 14.934L20.1995 14.6949L20.088 14.4558L19.9605 14.2326L19.849 14.0254L19.833 13.9935L19.6896 13.7863L19.5303 13.5631L19.371 13.3718L19.1957 13.1806L19.0045 13.0211L18.8292 12.8617L18.6858 12.7661L18.5902 12.7023L18.4946 12.6386L18.3034 12.5429L18.0963 12.4632L17.921 12.3995L17.7298 12.3676H17.5705L17.4271 12.3835L17.3634 12.0647L17.3156 11.7459L17.2996 11.6821H17.3952L17.6183 11.6981L17.8414 11.7459L18.0804 11.8256L18.2397 11.9053L18.4946 12.0328L18.7496 12.1922L18.9886 12.3676L19.2276 12.5748L19.4506 12.798L19.6578 13.0371L19.8649 13.2921L20.0561 13.5631L20.2473 13.8341L20.4066 14.121L20.55 14.4239L20.6775 14.7268L20.789 15.0297L20.8846 15.3325L20.9643 15.6514L21.0121 15.9542L21.028 16.1455Z" fill="url(#paint62_linear_322_29184)"/>
<path d="M20.5227 16.0339V16.1455L20.5068 16.2731L20.4749 16.4484L20.4271 16.6078L20.3634 16.7513H20.2678L20.1084 16.7194L19.9332 16.6716L19.7579 16.6078L19.5826 16.5122L19.4074 16.4006L19.2958 16.3209L19.1206 16.1774L18.9612 16.018L18.8019 15.8427L18.6904 15.7151L18.9134 15.747L19.0568 15.763L19.3914 15.7789L19.742 15.763L19.8854 15.747L20.5068 15.6514H20.5227V15.6833L20.5546 15.9224L20.5227 16.0339ZM19.6942 13.7863L19.5348 13.5791L19.3755 13.3878L19.2002 13.1965L19.025 13.0212L18.8338 12.8618L18.7063 12.7661L18.5948 12.7024L18.4992 12.6545L18.3239 12.5748L18.1486 12.527L17.9893 12.4951H17.8937L17.83 12.6386L17.7822 12.798L17.7503 12.9733L17.7344 13.0849L17.8778 13.2922L17.9574 13.3878L18.1327 13.5791L18.2602 13.6747L18.4195 13.7863L18.5948 13.882L18.7382 13.9298L18.9931 13.9935L19.1206 14.0095L19.8854 14.0254L19.8694 14.0095L19.6942 13.7863Z" fill="url(#paint63_linear_322_29184)"/>
<path d="M56.4794 27.2242V35.1786L52.0818 37.7132V29.7588L52.0659 29.3921L52.034 29.1212L51.9703 28.7226L51.8747 28.3241L51.7472 27.9256L51.6038 27.5271L51.4286 27.1286L51.2373 26.746L51.0302 26.3634L50.7912 25.9968L50.5363 25.6461L50.2654 25.3113L49.9786 24.9925L49.6759 24.7056L49.3731 24.4346L49.0545 24.1955L48.7358 24.0042L43.2229 20.816L43.3344 20.6088L43.5734 20.2103L43.8284 19.8277L44.0992 19.4611L44.3542 19.1263L44.641 18.7916L44.9278 18.4728L45.2305 18.1699L45.5332 17.883L45.8519 17.612L46.1387 17.3888L50.6956 20.019L52.3049 20.9595L53.1493 21.4377L53.468 21.629L53.7867 21.8681L54.0894 22.1391L54.3921 22.4261L54.6789 22.7449L54.9498 23.0796L55.2047 23.4303L55.4437 23.797L55.6509 24.1795L55.8421 24.5621L56.0173 24.9606L56.1607 25.3591L56.2882 25.7577L56.3838 26.1562L56.4475 26.5547L56.4794 26.8257V27.2242ZM44.1948 16.2889L42.5856 15.3484L38.0287 12.7182L37.7418 12.9414L37.4391 13.1964L37.1364 13.4833L36.8337 13.7862L36.5468 14.105L36.2601 14.4398L36.0051 14.7745L35.7343 15.1412L35.4793 15.5237L35.2403 15.9223L35.1288 16.1295L41.757 19.9553L41.8686 19.748L42.1394 19.3017L42.4262 18.8713L42.729 18.4568L42.7449 18.4409L43.0317 18.0583L43.0476 18.0264L43.3822 17.6279L43.7168 17.2613L44.0674 16.9106L44.4179 16.5758L44.5294 16.4802L44.1948 16.2889ZM35.8617 11.4748L34.2525 10.5343L29.6955 7.90408L29.4087 8.12726L29.106 8.38231L28.8033 8.66925L28.5005 8.97212L28.2137 9.29094L27.9429 9.62569L27.6879 9.96044L27.4171 10.3271L27.1621 10.7097L26.9231 11.1082L26.8116 11.3154L33.6311 15.2528L33.7426 15.0455L34.0135 14.5992L34.3003 14.1688L34.603 13.7543L34.6189 13.7384L34.9057 13.3558L34.9217 13.3239L35.2563 12.9254L35.5909 12.5588L35.9414 12.2081L36.2919 11.8733L36.4034 11.7777L35.8617 11.4748ZM27.6561 6.74043L26.0468 5.79992L21.4899 3.16971L21.2031 3.39288L20.9004 3.66386L20.5976 3.9508L20.2949 4.25368L20.0081 4.5725L19.7213 4.90725L19.4664 5.242L19.1955 5.60864L18.9406 5.9912L18.7016 6.38972L18.59 6.59696L25.2979 10.4706L25.4095 10.2633L25.6803 9.81697L25.9671 9.38658L26.2699 8.97212L26.2858 8.95619L26.5726 8.57361L26.5885 8.54171L26.9231 8.14319L27.2577 7.77657L27.6083 7.42586L27.9588 7.09111L28.0703 6.99547L27.6561 6.74043ZM19.6098 2.32484L19.323 2.29297L19.0521 2.30891L18.7972 2.35674L18.5582 2.43644L18.3351 2.56395L13.9375 5.09853L14.1606 4.97101L14.3996 4.89131L14.6545 4.84348L14.9254 4.82754L15.2122 4.85942L15.5149 4.92318L15.8176 5.01882L16.0407 5.11446L16.3434 5.27387L17.0764 5.70428L17.1879 5.49704L17.4588 5.05072L17.7456 4.62031L17.7615 4.60437L18.0483 4.20585L18.0642 4.18991L18.351 3.80733L18.367 3.77546L18.7016 3.37694L19.0362 3.0103L19.3867 2.65961L19.7213 2.35674L19.6098 2.32484Z" fill="url(#paint64_linear_322_29184)"/>
<path d="M20.5224 16.0337V16.1453L20.5065 16.3685L20.4905 16.5119L20.4587 16.7032L20.3949 16.8786L20.3153 17.038L20.2197 17.1815L20.1081 17.309L19.9966 17.4046L19.8691 17.4843L19.7257 17.5481L19.5664 17.58L19.4071 17.5959H19.2318L19.0565 17.564L18.8653 17.5162L18.6741 17.4365L18.4829 17.3409L18.2917 17.2133L18.1643 17.1177L17.9731 16.9583L17.7978 16.7829L17.6225 16.5916L17.4632 16.4004L17.3039 16.1931L17.1605 15.97L17.033 15.7468L16.9055 15.5077L16.794 15.2686L16.6984 15.0295L16.6187 14.7903L16.555 14.5512L16.5391 14.4556L16.6665 14.615L16.8896 14.8382L17.0489 14.9657L17.1127 15.1251L17.2083 15.3483L17.3198 15.5555L17.4473 15.7627L17.5747 15.97L17.7181 16.1612L17.8615 16.3366L18.0209 16.5119L18.1802 16.6713L18.3555 16.8148L18.467 16.8945L18.6423 17.0061L18.8175 17.1017L18.9928 17.1655L19.1681 17.2133L19.3274 17.2452H19.4867L19.6301 17.2293L19.7735 17.1974L19.901 17.1496L20.0125 17.0699L20.1241 16.9742L20.2197 16.8626L20.2993 16.7351L20.3631 16.5916L20.4109 16.4322L20.4427 16.2569L20.4587 16.1294L20.5224 16.0337ZM18.3077 12.5427L18.1165 12.463L17.9253 12.4152L17.75 12.3833H17.5747L17.4313 12.3992L17.4791 12.5746L17.5269 12.5586L17.6703 12.5268L17.8137 12.5108H17.8775H17.9731L18.1324 12.5427L18.3077 12.5905L18.4829 12.6702L18.5785 12.7181L18.4829 12.6543L18.3077 12.5427Z" fill="url(#paint65_linear_322_29184)"/>
<path d="M20.3441 16.7513L20.2645 16.8947L20.1689 17.0063L20.0573 17.102L19.9458 17.1817L19.8183 17.2295L19.6749 17.2614L19.5315 17.2773H19.3722L19.2129 17.2454L19.0376 17.1976L18.8623 17.1338L18.6871 17.0382L18.5118 16.9266L18.4003 16.8469L18.225 16.7034L18.0657 16.544L17.9063 16.3687L17.7629 16.1933L17.6195 16.0021L17.4921 15.7948L17.3646 15.5876L17.2531 15.3804L17.1575 15.1572L17.0938 14.9978L17.1734 15.0616L17.2849 15.1572L17.5558 15.3326L17.8426 15.476L17.986 15.5398L18.2887 15.6514L18.6074 15.7311L18.703 15.747L18.8145 15.8745L18.9739 16.0499L19.1332 16.2093L19.3085 16.3527L19.42 16.4324L19.5953 16.544L19.7705 16.6397L19.9458 16.7034L20.1211 16.7513L20.2804 16.7832L20.3441 16.7513ZM17.8267 12.4951L17.6833 12.5111L17.5399 12.5429L17.4921 12.5589L17.5239 12.6705L17.5877 12.8299L17.7151 13.069V13.0849L17.7311 12.9733L17.7629 12.798L17.8107 12.6386L17.8745 12.4951H17.8267Z" fill="url(#paint66_linear_322_29184)"/>
<path d="M52.1 29.7589V37.7132L50.6979 38.5262L50.6819 38.5103L50.6979 38.4625V29.7589L50.6819 29.456L50.666 29.2488L50.6182 28.9299L50.5385 28.6111L50.4429 28.2923L50.3314 27.9735L50.188 27.6547L50.0287 27.3518L49.8534 27.049L49.6622 26.762L49.471 26.491L49.2639 26.22L49.0408 25.965L48.8018 25.7418L48.5628 25.5346L48.3079 25.3433L48.0529 25.1839L42.6516 22.0595L42.7631 21.8045L42.9543 21.39L43.1614 20.9755L43.2729 20.7843L48.7859 23.9724L49.1045 24.1637L49.4232 24.4028L49.7259 24.6738L50.0287 24.9607L50.3155 25.2795L50.5863 25.6143L50.8413 25.965L51.0803 26.3316L51.2874 26.7142L51.4786 27.0968L51.6539 27.4953L51.7973 27.8938L51.9247 28.2923L52.0203 28.6908L52.0841 29.0893L52.1159 29.3603L52.1 29.7589ZM35.131 16.1296L35.0195 16.3209L34.8124 16.7353L34.6212 17.1498L34.5096 17.4048L41.1219 21.2306L41.1538 21.1509L41.1698 21.119L41.3769 20.6567L41.6159 20.1945L41.7433 19.9553L35.131 16.1296ZM26.7979 11.3155L26.6864 11.5068L26.4793 11.9212L26.2881 12.3357L26.1765 12.5907L32.996 16.5281L33.0278 16.4484L33.0438 16.4165L33.2509 15.9702V15.9542L33.474 15.492L33.6014 15.2528L26.7979 11.3155ZM24.9337 11.1561L25.1727 10.6938L25.3002 10.4547L18.5923 6.58111L18.4807 6.77239L18.2736 7.18685L18.0824 7.60132L17.9709 7.85637L24.6788 11.7299L24.7266 11.6343L24.9337 11.1561ZM16.3457 5.27396L16.043 5.11456L15.8199 5.01892L15.5172 4.92328L15.2144 4.85951L14.9276 4.82764L14.6568 4.84357L14.4018 4.8914L14.1628 4.97111L13.9398 5.09862L13.7326 5.25803L13.5574 5.44933L13.398 5.67248L13.2706 5.92755L13.159 6.21447L13.0794 6.53328L13.0316 6.86803L13.0156 7.21874V8.04765L13.0316 7.76073L13.0634 7.48972L13.1272 7.25061L13.2068 7.02744L13.3024 6.83616L13.4299 6.66082L13.5733 6.51735L13.7326 6.38981L13.9079 6.29417L14.0991 6.2304L14.3062 6.19853L14.5134 6.18259L14.7364 6.19853L14.9754 6.24636L15.2144 6.32606L15.3897 6.40577L15.6446 6.53328L16.4572 6.99557L16.4891 6.91586L16.505 6.88399L16.7122 6.43764V6.4217L16.9511 5.95942L17.0786 5.72031L16.3457 5.27396Z" fill="url(#paint67_linear_322_29184)"/>
<defs>
<linearGradient id="paint0_linear_322_29184" x1="-0.0112808" y1="54.0494" x2="74.538" y2="54.0494" gradientUnits="userSpaceOnUse">
<stop stop-color="#1D409A"/>
<stop offset="0.2208" stop-color="#33339A"/>
<stop offset="0.4568" stop-color="#442999"/>
<stop offset="0.6337" stop-color="#4A2599"/>
<stop offset="1" stop-color="#661399"/>
</linearGradient>
<linearGradient id="paint1_linear_322_29184" x1="47.2913" y1="40.4933" x2="60.2425" y2="62.9152" gradientUnits="userSpaceOnUse">
<stop stop-color="#4074EE"/>
<stop offset="1" stop-color="#7B3AE0"/>
</linearGradient>
<linearGradient id="paint2_linear_322_29184" x1="40.2214" y1="27.7405" x2="51.7617" y2="16.2056" gradientUnits="userSpaceOnUse">
<stop stop-color="#1ED2FF"/>
<stop offset="0.494" stop-color="#5E92FF"/>
<stop offset="1" stop-color="#9958FE"/>
</linearGradient>
<linearGradient id="paint3_linear_322_29184" x1="44.123" y1="42.3254" x2="57.0742" y2="64.7473" gradientUnits="userSpaceOnUse">
<stop stop-color="#5E92FF"/>
<stop offset="1" stop-color="#9958FE"/>
</linearGradient>
<linearGradient id="paint4_linear_322_29184" x1="13.0265" y1="42.3444" x2="50.6856" y2="42.3444" gradientUnits="userSpaceOnUse">
<stop stop-color="#80FFE4"/>
<stop offset="0.2247" stop-color="#7CFBE5"/>
<stop offset="0.4313" stop-color="#72F0E8"/>
<stop offset="0.6307" stop-color="#60DEED"/>
<stop offset="0.8244" stop-color="#47C4F3"/>
<stop offset="1" stop-color="#29A5FB"/>
</linearGradient>
<linearGradient id="paint5_linear_322_29184" x1="13.0265" y1="22.3326" x2="50.6856" y2="22.3326" gradientUnits="userSpaceOnUse">
<stop stop-color="#123BA5"/>
<stop offset="0.01068" stop-color="#133AA5"/>
<stop offset="0.2563" stop-color="#2F29A4"/>
<stop offset="0.4722" stop-color="#401FA3"/>
<stop offset="0.6337" stop-color="#461BA3"/>
<stop offset="1" stop-color="#6907A5"/>
</linearGradient>
<linearGradient id="paint6_linear_322_29184" x1="45.4344" y1="49.2429" x2="48.3677" y2="54.3212" gradientUnits="userSpaceOnUse">
<stop stop-color="#1ED2FF"/>
<stop offset="0.494" stop-color="#5E92FF"/>
<stop offset="1" stop-color="#9958FE"/>
</linearGradient>
<linearGradient id="paint7_linear_322_29184" x1="45.4344" y1="40.0471" x2="48.3677" y2="45.1253" gradientUnits="userSpaceOnUse">
<stop stop-color="#1ED2FF"/>
<stop offset="0.494" stop-color="#5E92FF"/>
<stop offset="1" stop-color="#9958FE"/>
</linearGradient>
<linearGradient id="paint8_linear_322_29184" x1="42.1346" y1="34.6154" x2="45.3125" y2="40.117" gradientUnits="userSpaceOnUse">
<stop stop-color="#1ED2FF"/>
<stop offset="0.494" stop-color="#5E92FF"/>
<stop offset="1" stop-color="#9958FE"/>
</linearGradient>
<linearGradient id="paint9_linear_322_29184" x1="42.1346" y1="43.8117" x2="45.3125" y2="49.3133" gradientUnits="userSpaceOnUse">
<stop stop-color="#1ED2FF"/>
<stop offset="0.494" stop-color="#5E92FF"/>
<stop offset="1" stop-color="#9958FE"/>
</linearGradient>
<linearGradient id="paint10_linear_322_29184" x1="42.7848" y1="25.0264" x2="46.6372" y2="31.6959" gradientUnits="userSpaceOnUse">
<stop stop-color="#00B4FE"/>
<stop offset="0.5298" stop-color="#4074EE"/>
<stop offset="1" stop-color="#7B3AE0"/>
</linearGradient>
<linearGradient id="paint11_linear_322_29184" x1="40.1071" y1="50.2028" x2="46.4582" y2="50.2028" gradientUnits="userSpaceOnUse">
<stop stop-color="#D6FFFF"/>
<stop offset="0.223" stop-color="#D1FFFF"/>
<stop offset="0.486" stop-color="#C3FFFF"/>
<stop offset="0.7681" stop-color="#ABFFFF"/>
<stop offset="1" stop-color="#92FFFF"/>
</linearGradient>
<linearGradient id="paint12_linear_322_29184" x1="40.1071" y1="41.007" x2="46.4582" y2="41.007" gradientUnits="userSpaceOnUse">
<stop stop-color="#D6FFFF"/>
<stop offset="0.223" stop-color="#D1FFFF"/>
<stop offset="0.486" stop-color="#C3FFFF"/>
<stop offset="0.7681" stop-color="#ABFFFF"/>
<stop offset="1" stop-color="#92FFFF"/>
</linearGradient>
<linearGradient id="paint13_linear_322_29184" x1="41.6683" y1="25.8441" x2="45.4465" y2="32.3852" gradientUnits="userSpaceOnUse">
<stop stop-color="#1ED2FF"/>
<stop offset="0.494" stop-color="#5E92FF"/>
<stop offset="1" stop-color="#9958FE"/>
</linearGradient>
<linearGradient id="paint14_linear_322_29184" x1="40.554" y1="29.2908" x2="45.6515" y2="29.2908" gradientUnits="userSpaceOnUse">
<stop stop-color="#80FFE4"/>
<stop offset="0.2247" stop-color="#7CFBE5"/>
<stop offset="0.4313" stop-color="#72F0E8"/>
<stop offset="0.6307" stop-color="#60DEED"/>
<stop offset="0.8244" stop-color="#47C4F3"/>
<stop offset="1" stop-color="#29A5FB"/>
</linearGradient>
<linearGradient id="paint15_linear_322_29184" x1="42.3451" y1="28.9346" x2="45.1237" y2="28.9346" gradientUnits="userSpaceOnUse">
<stop stop-color="#0E318B"/>
<stop offset="0.142" stop-color="#24248B"/>
<stop offset="0.2937" stop-color="#351A8A"/>
<stop offset="0.4076" stop-color="#3B168A"/>
<stop offset="1" stop-color="#57048A"/>
</linearGradient>
<linearGradient id="paint16_linear_322_29184" x1="32.0797" y1="17.6343" x2="44.3632" y2="17.6343" gradientUnits="userSpaceOnUse">
<stop stop-color="#1ED2FF"/>
<stop offset="0.494" stop-color="#5E92FF"/>
<stop offset="1" stop-color="#9958FE"/>
</linearGradient>
<linearGradient id="paint17_linear_322_29184" x1="41.5409" y1="27.0176" x2="44.3447" y2="31.8718" gradientUnits="userSpaceOnUse">
<stop stop-color="#1ED2FF"/>
<stop offset="0.494" stop-color="#5E92FF"/>
<stop offset="1" stop-color="#9958FE"/>
</linearGradient>
<linearGradient id="paint18_linear_322_29184" x1="41.5573" y1="27.1998" x2="44.1542" y2="31.6956" gradientUnits="userSpaceOnUse">
<stop stop-color="#00B4FE"/>
<stop offset="0.5298" stop-color="#4074EE"/>
<stop offset="1" stop-color="#7B3AE0"/>
</linearGradient>
<linearGradient id="paint19_linear_322_29184" x1="37.2375" y1="53.5684" x2="40.1705" y2="58.6461" gradientUnits="userSpaceOnUse">
<stop stop-color="#1ED2FF"/>
<stop offset="0.494" stop-color="#5E92FF"/>
<stop offset="1" stop-color="#9958FE"/>
</linearGradient>
<linearGradient id="paint20_linear_322_29184" x1="37.2375" y1="44.5097" x2="40.1705" y2="49.5872" gradientUnits="userSpaceOnUse">
<stop stop-color="#1ED2FF"/>
<stop offset="0.494" stop-color="#5E92FF"/>
<stop offset="1" stop-color="#9958FE"/>
</linearGradient>
<linearGradient id="paint21_linear_322_29184" x1="37.2375" y1="35.3137" x2="40.1705" y2="40.3914" gradientUnits="userSpaceOnUse">
<stop stop-color="#1ED2FF"/>
<stop offset="0.494" stop-color="#5E92FF"/>
<stop offset="1" stop-color="#9958FE"/>
</linearGradient>
<linearGradient id="paint22_linear_322_29184" x1="33.9416" y1="29.8826" x2="37.1192" y2="35.3837" gradientUnits="userSpaceOnUse">
<stop stop-color="#1ED2FF"/>
<stop offset="0.494" stop-color="#5E92FF"/>
<stop offset="1" stop-color="#9958FE"/>
</linearGradient>
<linearGradient id="paint23_linear_322_29184" x1="33.9416" y1="39.0779" x2="37.1197" y2="44.5799" gradientUnits="userSpaceOnUse">
<stop stop-color="#1ED2FF"/>
<stop offset="0.494" stop-color="#5E92FF"/>
<stop offset="1" stop-color="#9958FE"/>
</linearGradient>
<linearGradient id="paint24_linear_322_29184" x1="33.9416" y1="48.1373" x2="37.1191" y2="53.6383" gradientUnits="userSpaceOnUse">
<stop stop-color="#1ED2FF"/>
<stop offset="0.494" stop-color="#5E92FF"/>
<stop offset="1" stop-color="#9958FE"/>
</linearGradient>
<linearGradient id="paint25_linear_322_29184" x1="34.5247" y1="20.1534" x2="38.3768" y2="26.8222" gradientUnits="userSpaceOnUse">
<stop stop-color="#00B4FE"/>
<stop offset="0.5298" stop-color="#4074EE"/>
<stop offset="1" stop-color="#7B3AE0"/>
</linearGradient>
<linearGradient id="paint26_linear_322_29184" x1="31.9146" y1="54.5274" x2="38.2657" y2="54.5274" gradientUnits="userSpaceOnUse">
<stop stop-color="#D6FFFF"/>
<stop offset="0.223" stop-color="#D1FFFF"/>
<stop offset="0.486" stop-color="#C3FFFF"/>
<stop offset="0.7681" stop-color="#ABFFFF"/>
<stop offset="1" stop-color="#92FFFF"/>
</linearGradient>
<linearGradient id="paint27_linear_322_29184" x1="31.9146" y1="45.4687" x2="38.2657" y2="45.4687" gradientUnits="userSpaceOnUse">
<stop stop-color="#D6FFFF"/>
<stop offset="0.223" stop-color="#D1FFFF"/>
<stop offset="0.486" stop-color="#C3FFFF"/>
<stop offset="0.7681" stop-color="#ABFFFF"/>
<stop offset="1" stop-color="#92FFFF"/>
</linearGradient>
<linearGradient id="paint28_linear_322_29184" x1="31.9146" y1="36.2729" x2="38.2657" y2="36.2729" gradientUnits="userSpaceOnUse">
<stop stop-color="#D6FFFF"/>
<stop offset="0.223" stop-color="#D1FFFF"/>
<stop offset="0.486" stop-color="#C3FFFF"/>
<stop offset="0.7681" stop-color="#ABFFFF"/>
<stop offset="1" stop-color="#92FFFF"/>
</linearGradient>
<linearGradient id="paint29_linear_322_29184" x1="33.4345" y1="21.0223" x2="37.183" y2="27.5119" gradientUnits="userSpaceOnUse">
<stop stop-color="#1ED2FF"/>
<stop offset="0.494" stop-color="#5E92FF"/>
<stop offset="1" stop-color="#9958FE"/>
</linearGradient>
<linearGradient id="paint30_linear_322_29184" x1="32.293" y1="24.4211" x2="37.3892" y2="24.4211" gradientUnits="userSpaceOnUse">
<stop stop-color="#80FFE4"/>
<stop offset="0.2247" stop-color="#7CFBE5"/>
<stop offset="0.4313" stop-color="#72F0E8"/>
<stop offset="0.6307" stop-color="#60DEED"/>
<stop offset="0.8244" stop-color="#47C4F3"/>
<stop offset="1" stop-color="#29A5FB"/>
</linearGradient>
<linearGradient id="paint31_linear_322_29184" x1="34.0944" y1="24.0618" x2="36.8584" y2="24.0618" gradientUnits="userSpaceOnUse">
<stop stop-color="#0E318B"/>
<stop offset="0.142" stop-color="#24248B"/>
<stop offset="0.2937" stop-color="#351A8A"/>
<stop offset="0.4076" stop-color="#3B168A"/>
<stop offset="1" stop-color="#57048A"/>
</linearGradient>
<linearGradient id="paint32_linear_322_29184" x1="23.7544" y1="12.8251" x2="36.0379" y2="12.8251" gradientUnits="userSpaceOnUse">
<stop stop-color="#1ED2FF"/>
<stop offset="0.494" stop-color="#5E92FF"/>
<stop offset="1" stop-color="#9958FE"/>
</linearGradient>
<linearGradient id="paint33_linear_322_29184" x1="33.3003" y1="22.1785" x2="36.0843" y2="26.9985" gradientUnits="userSpaceOnUse">
<stop stop-color="#1ED2FF"/>
<stop offset="0.494" stop-color="#5E92FF"/>
<stop offset="1" stop-color="#9958FE"/>
</linearGradient>
<linearGradient id="paint34_linear_322_29184" x1="33.3067" y1="22.345" x2="35.8931" y2="26.8228" gradientUnits="userSpaceOnUse">
<stop stop-color="#00B4FE"/>
<stop offset="0.5298" stop-color="#4074EE"/>
<stop offset="1" stop-color="#7B3AE0"/>
</linearGradient>
<linearGradient id="paint35_linear_322_29184" x1="29.0411" y1="48.8351" x2="31.9746" y2="53.9136" gradientUnits="userSpaceOnUse">
<stop stop-color="#1ED2FF"/>
<stop offset="0.494" stop-color="#5E92FF"/>
<stop offset="1" stop-color="#9958FE"/>
</linearGradient>
<linearGradient id="paint36_linear_322_29184" x1="29.0411" y1="39.7762" x2="31.9746" y2="44.8547" gradientUnits="userSpaceOnUse">
<stop stop-color="#234CB8"/>
<stop offset="0.0180688" stop-color="#254BB8"/>
<stop offset="0.2608" stop-color="#413AB7"/>
<stop offset="0.4741" stop-color="#5230B7"/>
<stop offset="0.6337" stop-color="#582CB7"/>
<stop offset="1" stop-color="#7A17B7"/>
</linearGradient>
<linearGradient id="paint37_linear_322_29184" x1="29.0411" y1="30.5805" x2="31.9746" y2="35.6591" gradientUnits="userSpaceOnUse">
<stop stop-color="#1ED2FF"/>
<stop offset="0.494" stop-color="#5E92FF"/>
<stop offset="1" stop-color="#9958FE"/>
</linearGradient>
<linearGradient id="paint38_linear_322_29184" x1="25.7452" y1="25.1489" x2="28.9232" y2="30.6509" gradientUnits="userSpaceOnUse">
<stop stop-color="#1ED2FF"/>
<stop offset="0.494" stop-color="#5E92FF"/>
<stop offset="1" stop-color="#9958FE"/>
</linearGradient>
<linearGradient id="paint39_linear_322_29184" x1="25.7452" y1="34.3448" x2="28.9233" y2="39.8467" gradientUnits="userSpaceOnUse">
<stop stop-color="#7A17B7"/>
<stop offset="0.3663" stop-color="#582CB7"/>
<stop offset="0.5259" stop-color="#5230B7"/>
<stop offset="0.7392" stop-color="#413AB7"/>
<stop offset="0.9819" stop-color="#254BB8"/>
<stop offset="1" stop-color="#234CB8"/>
</linearGradient>
<linearGradient id="paint40_linear_322_29184" x1="25.7452" y1="43.4032" x2="28.9233" y2="48.9052" gradientUnits="userSpaceOnUse">
<stop stop-color="#1ED2FF"/>
<stop offset="0.494" stop-color="#5E92FF"/>
<stop offset="1" stop-color="#9958FE"/>
</linearGradient>
<linearGradient id="paint41_linear_322_29184" x1="26.3532" y1="15.5346" x2="30.2053" y2="22.2036" gradientUnits="userSpaceOnUse">
<stop stop-color="#00B4FE"/>
<stop offset="0.5298" stop-color="#4074EE"/>
<stop offset="1" stop-color="#7B3AE0"/>
</linearGradient>
<linearGradient id="paint42_linear_322_29184" x1="23.7181" y1="49.795" x2="30.0693" y2="49.795" gradientUnits="userSpaceOnUse">
<stop stop-color="#D6FFFF"/>
<stop offset="0.223" stop-color="#D1FFFF"/>
<stop offset="0.486" stop-color="#C3FFFF"/>
<stop offset="0.7681" stop-color="#ABFFFF"/>
<stop offset="1" stop-color="#92FFFF"/>
</linearGradient>
<linearGradient id="paint43_linear_322_29184" x1="23.7181" y1="40.7358" x2="30.0693" y2="40.7358" gradientUnits="userSpaceOnUse">
<stop stop-color="#6907A5"/>
<stop offset="0.3663" stop-color="#461BA3"/>
<stop offset="0.5278" stop-color="#401FA3"/>
<stop offset="0.7437" stop-color="#2F29A4"/>
<stop offset="0.9893" stop-color="#133AA5"/>
<stop offset="1" stop-color="#123BA5"/>
</linearGradient>
<linearGradient id="paint44_linear_322_29184" x1="23.7181" y1="31.5399" x2="30.0693" y2="31.5399" gradientUnits="userSpaceOnUse">
<stop stop-color="#D6FFFF"/>
<stop offset="0.223" stop-color="#D1FFFF"/>
<stop offset="0.486" stop-color="#C3FFFF"/>
<stop offset="0.7681" stop-color="#ABFFFF"/>
<stop offset="1" stop-color="#92FFFF"/>
</linearGradient>
<linearGradient id="paint45_linear_322_29184" x1="25.2273" y1="16.3435" x2="29.0101" y2="22.8926" gradientUnits="userSpaceOnUse">
<stop stop-color="#1ED2FF"/>
<stop offset="0.494" stop-color="#5E92FF"/>
<stop offset="1" stop-color="#9958FE"/>
</linearGradient>
<linearGradient id="paint46_linear_322_29184" x1="24.1212" y1="19.7972" x2="29.2187" y2="19.7972" gradientUnits="userSpaceOnUse">
<stop stop-color="#80FFE4"/>
<stop offset="0.2247" stop-color="#7CFBE5"/>
<stop offset="0.4313" stop-color="#72F0E8"/>
<stop offset="0.6307" stop-color="#60DEED"/>
<stop offset="0.8244" stop-color="#47C4F3"/>
<stop offset="1" stop-color="#29A5FB"/>
</linearGradient>
<linearGradient id="paint47_linear_322_29184" x1="25.9045" y1="19.4415" x2="28.687" y2="19.4415" gradientUnits="userSpaceOnUse">
<stop stop-color="#0E318B"/>
<stop offset="0.142" stop-color="#24248B"/>
<stop offset="0.2937" stop-color="#351A8A"/>
<stop offset="0.4076" stop-color="#3B168A"/>
<stop offset="1" stop-color="#57048A"/>
</linearGradient>
<linearGradient id="paint48_linear_322_29184" x1="15.5398" y1="8.08074" x2="27.8234" y2="8.08074" gradientUnits="userSpaceOnUse">
<stop stop-color="#1ED2FF"/>
<stop offset="0.494" stop-color="#5E92FF"/>
<stop offset="1" stop-color="#9958FE"/>
</linearGradient>
<linearGradient id="paint49_linear_322_29184" x1="25.1051" y1="17.5184" x2="27.9125" y2="22.3789" gradientUnits="userSpaceOnUse">
<stop stop-color="#1ED2FF"/>
<stop offset="0.494" stop-color="#5E92FF"/>
<stop offset="1" stop-color="#9958FE"/>
</linearGradient>
<linearGradient id="paint50_linear_322_29184" x1="25.1187" y1="17.7037" x2="27.7178" y2="22.2033" gradientUnits="userSpaceOnUse">
<stop stop-color="#00B4FE"/>
<stop offset="0.5298" stop-color="#4074EE"/>
<stop offset="1" stop-color="#7B3AE0"/>
</linearGradient>
<linearGradient id="paint51_linear_322_29184" x1="20.8486" y1="44.1019" x2="23.782" y2="49.1805" gradientUnits="userSpaceOnUse">
<stop stop-color="#1ED2FF"/>
<stop offset="0.494" stop-color="#5E92FF"/>
<stop offset="1" stop-color="#9958FE"/>
</linearGradient>
<linearGradient id="paint52_linear_322_29184" x1="20.8488" y1="35.0438" x2="23.7817" y2="40.1215" gradientUnits="userSpaceOnUse">
<stop stop-color="#1ED2FF"/>
<stop offset="0.494" stop-color="#5E92FF"/>
<stop offset="1" stop-color="#9958FE"/>
</linearGradient>
<linearGradient id="paint53_linear_322_29184" x1="20.8486" y1="25.8469" x2="23.782" y2="30.9255" gradientUnits="userSpaceOnUse">
<stop stop-color="#1ED2FF"/>
<stop offset="0.494" stop-color="#5E92FF"/>
<stop offset="1" stop-color="#9958FE"/>
</linearGradient>
<linearGradient id="paint54_linear_322_29184" x1="17.5491" y1="20.4149" x2="20.7271" y2="25.9168" gradientUnits="userSpaceOnUse">
<stop stop-color="#1ED2FF"/>
<stop offset="0.494" stop-color="#5E92FF"/>
<stop offset="1" stop-color="#9958FE"/>
</linearGradient>
<linearGradient id="paint55_linear_322_29184" x1="17.5488" y1="29.6108" x2="20.7269" y2="35.1129" gradientUnits="userSpaceOnUse">
<stop stop-color="#1ED2FF"/>
<stop offset="0.494" stop-color="#5E92FF"/>
<stop offset="1" stop-color="#9958FE"/>
</linearGradient>
<linearGradient id="paint56_linear_322_29184" x1="17.5491" y1="38.6701" x2="20.7272" y2="44.172" gradientUnits="userSpaceOnUse">
<stop stop-color="#1ED2FF"/>
<stop offset="0.494" stop-color="#5E92FF"/>
<stop offset="1" stop-color="#9958FE"/>
</linearGradient>
<linearGradient id="paint57_linear_322_29184" x1="18.1825" y1="10.7113" x2="22.0344" y2="17.3799" gradientUnits="userSpaceOnUse">
<stop stop-color="#00B4FE"/>
<stop offset="0.5298" stop-color="#4074EE"/>
<stop offset="1" stop-color="#7B3AE0"/>
</linearGradient>
<linearGradient id="paint58_linear_322_29184" x1="15.522" y1="45.0609" x2="21.8731" y2="45.0609" gradientUnits="userSpaceOnUse">
<stop stop-color="#D6FFFF"/>
<stop offset="0.223" stop-color="#D1FFFF"/>
<stop offset="0.486" stop-color="#C3FFFF"/>
<stop offset="0.7681" stop-color="#ABFFFF"/>
<stop offset="1" stop-color="#92FFFF"/>
</linearGradient>
<linearGradient id="paint59_linear_322_29184" x1="15.522" y1="36.0026" x2="21.8731" y2="36.0026" gradientUnits="userSpaceOnUse">
<stop stop-color="#D6FFFF"/>
<stop offset="0.223" stop-color="#D1FFFF"/>
<stop offset="0.486" stop-color="#C3FFFF"/>
<stop offset="0.7681" stop-color="#ABFFFF"/>
<stop offset="1" stop-color="#92FFFF"/>
</linearGradient>
<linearGradient id="paint60_linear_322_29184" x1="15.522" y1="26.8063" x2="21.8731" y2="26.8063" gradientUnits="userSpaceOnUse">
<stop stop-color="#D6FFFF"/>
<stop offset="0.223" stop-color="#D1FFFF"/>
<stop offset="0.486" stop-color="#C3FFFF"/>
<stop offset="0.7681" stop-color="#ABFFFF"/>
<stop offset="1" stop-color="#92FFFF"/>
</linearGradient>
<linearGradient id="paint61_linear_322_29184" x1="17.0484" y1="11.5049" x2="20.8403" y2="18.0697" gradientUnits="userSpaceOnUse">
<stop stop-color="#1ED2FF"/>
<stop offset="0.494" stop-color="#5E92FF"/>
<stop offset="1" stop-color="#9958FE"/>
</linearGradient>
<linearGradient id="paint62_linear_322_29184" x1="15.9455" y1="14.9751" x2="21.043" y2="14.9751" gradientUnits="userSpaceOnUse">
<stop stop-color="#80FFE4"/>
<stop offset="0.2247" stop-color="#7CFBE5"/>
<stop offset="0.4313" stop-color="#72F0E8"/>
<stop offset="0.6307" stop-color="#60DEED"/>
<stop offset="0.8244" stop-color="#47C4F3"/>
<stop offset="1" stop-color="#29A5FB"/>
</linearGradient>
<linearGradient id="paint63_linear_322_29184" x1="17.7186" y1="14.6201" x2="20.5168" y2="14.6201" gradientUnits="userSpaceOnUse">
<stop stop-color="#0E318B"/>
<stop offset="0.142" stop-color="#24248B"/>
<stop offset="0.2937" stop-color="#351A8A"/>
<stop offset="0.4076" stop-color="#3B168A"/>
<stop offset="1" stop-color="#57048A"/>
</linearGradient>
<linearGradient id="paint64_linear_322_29184" x1="25.4408" y1="-1.55315" x2="49.1182" y2="39.4383" gradientUnits="userSpaceOnUse">
<stop stop-color="#0E318B"/>
<stop offset="0.142" stop-color="#24248B"/>
<stop offset="0.2937" stop-color="#351A8A"/>
<stop offset="0.4076" stop-color="#3B168A"/>
<stop offset="1" stop-color="#57048A"/>
</linearGradient>
<linearGradient id="paint65_linear_322_29184" x1="16.9209" y1="12.6732" x2="19.7419" y2="17.5571" gradientUnits="userSpaceOnUse">
<stop stop-color="#1ED2FF"/>
<stop offset="0.494" stop-color="#5E92FF"/>
<stop offset="1" stop-color="#9958FE"/>
</linearGradient>
<linearGradient id="paint66_linear_322_29184" x1="16.9421" y1="12.8739" x2="19.5453" y2="17.3808" gradientUnits="userSpaceOnUse">
<stop stop-color="#00B4FE"/>
<stop offset="0.5298" stop-color="#4074EE"/>
<stop offset="1" stop-color="#7B3AE0"/>
</linearGradient>
<linearGradient id="paint67_linear_322_29184" x1="22.2717" y1="0.278788" x2="45.949" y2="41.2701" gradientUnits="userSpaceOnUse">
<stop stop-color="#1D409A"/>
<stop offset="0.2208" stop-color="#33339A"/>
<stop offset="0.4568" stop-color="#442999"/>
<stop offset="0.6337" stop-color="#4A2599"/>
<stop offset="1" stop-color="#661399"/>
</linearGradient>
</defs>
</svg>
